<?xml version="1.0" encoding="utf-8"?>
<!-- Generator: Adobe Illustrator 19.2.1, SVG Export Plug-In . SVG Version: 6.00 Build 0)  -->
<svg version="1.1" id="Layer_1" xmlns="http://www.w3.org/2000/svg" xmlns:xlink="http://www.w3.org/1999/xlink" x="0px" y="0px"
	 viewBox="0 0 230 230" style="enable-background:new 0 0 230 230;" xml:space="preserve">
<style type="text/css">
	.st0{fill:#F7901A;}
</style>
<g>
	<path class="st0" d="M113.3,126.1c15.3,0,51.3-18.4,51.3-62.6c0-6.2-0.2-12.1-0.7-17.7c-0.8-11.1-3.1-20.9-8.7-28.4
		C148,7.2,135.3,1,113.3,1c-22,0-34.7,6.2-41.9,16.5c-5.6,7.5-7.9,17.3-8.7,28.4C62.1,51.5,62,57.4,62,63.6
		C62,107.7,98,126.1,113.3,126.1L113.3,126.1z M130,23.9c-1.5,3.8-2.2,5.7-3.7,9.4c-9.7-2.7-16.4-2.7-26,0c-1.5-3.8-2.2-5.7-3.7-9.4
		C108.6,20.3,118,20.3,130,23.9L130,23.9z M69.6,54c0.6,1.3,3.1,6.3,7,6.7c4.5,0.5,11.9-15.8,36.7-15.9c24.8,0,32.2,16.4,36.7,15.9
		c3.9-0.5,6.4-5.4,7-6.7c0.1,3.2,0.2,6.4,0.2,9.6c0,21.6-9.5,35-17.5,42.4c-10.1,9.3-21.3,12.7-26.3,12.7c-5.1,0-16.2-3.4-26.3-12.7
		c-8-7.4-17.5-20.8-17.5-42.4C69.5,60.4,69.5,57.2,69.6,54L69.6,54z M69.6,54"/>
	<path class="st0" d="M208.5,190.3c-2.6-16.3-8-37.3-18.8-44.7c-7.4-5.1-33.2-18.9-44.2-24.7l-0.2-0.1c-1.3-0.7-2.8-0.5-3.9,0.3
		c-5.8,4.5-12.1,7.6-18.8,9.1c-1.2,0.3-2.2,1.1-2.6,2.2l-6.8,18l-6.8-18c-0.4-1.1-1.4-2-2.6-2.2c-6.7-1.5-13-4.5-18.8-9.1
		c-1.1-0.9-2.7-1-3.9-0.3c-10.9,5.8-37,19.9-44.3,24.8C24.5,154,19,184.3,18,190.3c-0.1,0.6,0,1.2,0.2,1.8c0.3,0.7,4.4,11.4,25,20
		c1.2-1.5,2.8-2.6,4.5-3.3c-2.2-0.8-4.1-2.3-5.4-4.4c-1.8-3.1-1.9-6.9-0.2-10.1c5.3-9.7,15.4-15.7,26.4-15.7
		c10.2,0,19.5,5.1,25,13.4h39.3c1.1-1.6,2.3-3.1,3.7-4.5c5.7-5.7,13.2-8.8,21.3-8.8h0c11,0,21.1,6,26.4,15.6c1.7,3.1,1.7,7-0.2,10.1
		c-1.2,2.1-3.1,3.6-5.3,4.4c1.8,0.6,3.4,1.8,4.6,3.3c20.5-8.6,24.7-19.2,24.9-20C208.6,191.5,208.6,190.9,208.5,190.3L208.5,190.3z
		 M208.5,190.3"/>
	<path class="st0" d="M175.5,217L175.5,217l-18.9,0c-0.3-0.8-1-3-1-8.3c0-5.3,0.6-7.5,1-8.3l18.9,0c0.5,0,0.9-0.2,1.1-0.6
		c0.2-0.4,0.2-0.9,0-1.3c-3.7-6.8-10.9-11-18.6-11c-5.7,0-11,2.2-15,6.2c-2.1,2.1-3.6,4.5-4.7,7.1H88.3
		c-3.1-7.8-10.8-13.4-19.7-13.4c-7.8,0-14.9,4.2-18.6,11.1c-0.2,0.4-0.2,0.9,0,1.3c0.2,0.4,0.6,0.6,1.1,0.6l18.9,0
		c0.3,0.8,1,3,1,8.3c0,5.3-0.6,7.5-1,8.3l-18.9,0c-0.4,0-0.9,0.2-1.1,0.6c-0.2,0.4-0.2,0.9,0,1.3c3.7,6.8,10.9,11,18.6,11h0
		c5.7,0,11-2.2,15-6.2c2.1-2.1,3.6-4.5,4.7-7.1h49.9c3.1,7.8,10.8,13.4,19.7,13.4h0c7.8,0,14.9-4.3,18.6-11.1c0.2-0.4,0.2-0.9,0-1.3
		C176.3,217.3,175.9,217,175.5,217L175.5,217z M175.5,217"/>
</g>
</svg>
