<?xml version="1.0" encoding="utf-8"?>
<!-- Generator: Adobe Illustrator 19.2.1, SVG Export Plug-In . SVG Version: 6.00 Build 0)  -->
<svg version="1.1" id="Layer_1" xmlns="http://www.w3.org/2000/svg" xmlns:xlink="http://www.w3.org/1999/xlink" x="0px" y="0px"
	 viewBox="0 0 111 111" style="enable-background:new 0 0 111 111;" xml:space="preserve">
<style type="text/css">
	.st0{fill:#CCCCCC;}
</style>
<g>
	<path class="st0" d="M102.3,110.8c-2.3,0-4.5-0.9-6-2.5L73.5,85.5c-7.8,5.4-17.1,8.2-26.5,8.2C21.1,93.8,0.2,72.8,0.2,47
		S21.1,0.2,47,0.2S93.8,21.1,93.8,47c0,9.4-2.9,18.7-8.2,26.5l22.8,22.8c1.5,1.5,2.5,3.7,2.5,6C110.8,106.9,106.9,110.8,102.3,110.8
		z M47,17.2c-16.4,0-29.8,13.4-29.8,29.8S30.6,76.8,47,76.8S76.8,63.4,76.8,47S63.4,17.2,47,17.2z"/>
</g>
</svg>
