<?xml version="1.0" encoding="utf-8"?>
<!-- Generator: Adobe Illustrator 19.2.1, SVG Export Plug-In . SVG Version: 6.00 Build 0)  -->
<svg version="1.1" id="Layer_1" xmlns="http://www.w3.org/2000/svg" xmlns:xlink="http://www.w3.org/1999/xlink" x="0px" y="0px"
	 viewBox="0 0 230 230" style="enable-background:new 0 0 230 230;" xml:space="preserve">
<style type="text/css">
	.st0{fill:#F7901A;}
</style>
<g>
	<g>
		<path class="st0" d="M182.5,216.6c2.7,1.8,6.3,0.4,7.1-2.7l4-15.6c0.3-1.2-0.6-2.4-1.9-2.4H165c-1.6,0-2.5,1.9-1.5,3.1
			C170.2,207.5,177.6,213.3,182.5,216.6L182.5,216.6z M182.5,216.6"/>
		<path class="st0" d="M8.4,123.2c6.8,13.6,13.1,28.3,10.9,42.7c-0.2,1.3,0.8,2.4,2.1,2.4h9.4c0.7,0,1.3-0.3,1.7-0.8
			c11.4-15.4,26.8-20.2,26.8-20.2c13.9-4.2,28.9-7.9,38.5-7.9c17.9,0,22.2,14.7,23.2,20.4c0.2,1.3,1.3,2.2,2.6,2.2
			c1.2,0,2.3-0.5,3-1.3l8.3-9.2c0.8-0.9,2.4-0.5,2.5,0.7c2.6,16.1,15.3,32.8,17.7,34.1c0.2,0.1,0.5,0.2,0.7,0.2h37.3
			c0.8,0,1.4-0.6,1.5-1.3c1.3-14.1,23-34.6,31.3-41.9c2-1.8,3.2-4.4,3.2-7.1v-17.8c0-0.2,0-0.5-0.1-0.7l-21.2-42.3
			c-0.1-0.3-0.4-0.6-0.7-0.7c-17.3-7.9-16.4-27.7-16.1-31.2c0-0.4-0.1-0.7-0.3-1l-5.1-6.6c-0.5-0.6-1.4-0.8-2-0.3l-2.3,1.7
			c0-10.2-4.3-19-6.6-23.2c-0.6-1.1-2.2-1-2.7,0.2l-4.9,12.6c-0.1,0.2-0.1,0.4-0.1,0.5c0,10.4-1.8,17.4-3.6,21.9
			c-1.7,4-6.6,5.5-10.2,3.2c-7.2-4.7-18.9-12.3-22.9-14.9c-0.7-0.5-0.9-1.5-0.3-2.2l11.2-13.6c0.8-1,0.1-2.4-1.2-2.4h-35
			c-0.4,0-0.7,0.1-1,0.4L92.5,30.2c-0.6,0.6-0.6,1.5,0,2.1l3,3.1C85.8,38.6,79.2,32,76.8,29c-0.6-0.7-1.6-0.7-2.2-0.1L49.6,53.1
			c-0.2,0.2-0.4,0.5-0.4,0.8C46.5,69.1,17.1,79.5,7.9,82.4c-1.7,0.5-3,1.9-3.4,3.7L0.1,104c-0.3,1.1-0.1,2.3,0.3,3.3
			C2.8,112.4,5.6,117.7,8.4,123.2L8.4,123.2z M8.4,123.2"/>
	</g>
</g>
</svg>
