<?xml version="1.0" encoding="utf-8"?>
<!-- Generator: Adobe Illustrator 19.2.1, SVG Export Plug-In . SVG Version: 6.00 Build 0)  -->
<svg version="1.1" id="Layer_1" xmlns="http://www.w3.org/2000/svg" xmlns:xlink="http://www.w3.org/1999/xlink" x="0px" y="0px"
	 viewBox="0 0 1000 290" style="enable-background:new 0 0 1000 290;" xml:space="preserve">
<style type="text/css">
	.st0{fill:#FFFFFF;}
</style>
<g>
	<g>
		<path class="st0" d="M183.8,250c-0.9,5.3-1.7,6.9-5.6,10.2l-6.3,5.3l5.4,22.2h-16.2l-4.4-19.7h-14.4l-3.4,19.7h-15.5l10.7-60.8
			c0.5-2.7,2.1-4,5-4h31.3c5.4,0,7.2,0.9,9.5,3.8l3.4,4.1c1.8,2.2,2.5,3.6,2.5,5.8c0,1.1-0.2,2.7-0.5,4.5L183.8,250z M163.2,254.5
			c0.7,0,1-0.1,1.6-0.5l2.8-2.4c0.4-0.4,0.6-0.7,0.7-1.4l1.7-9.3c0.1-0.6,0-0.9-0.3-1.4l-2-2.4c-0.3-0.4-0.6-0.5-1.4-0.5h-18.5
			l-3.1,17.9H163.2z M192.9,280c-1.8-2.2-2.6-3.6-2.6-5.8c0-1.1,0.2-2.7,0.5-4.5l5-28.4c0.9-5.4,1.6-7,5.5-10.3l5.5-4.7
			c3.2-2.8,5.6-3.8,11.1-3.8h19.8c5.4,0,7.2,0.9,9.6,3.8l3.9,4.7c1.8,2.2,2.5,3.6,2.5,5.8c0,1.1-0.2,2.7-0.5,4.5l-5,28.4
			c-0.9,5.4-1.6,7-5.4,10.3l-5.5,4.7c-3.3,2.8-5.7,3.8-11.2,3.8h-19.8c-5.4,0-7.2-0.9-9.5-3.8L192.9,280z M237.9,241.4
			c0.1-0.6,0.1-0.8-0.3-1.4l-2.2-2.7c-0.3-0.4-0.6-0.5-1.4-0.5h-17.1c-0.7,0-1,0.1-1.6,0.5l-3.2,2.7c-0.4,0.4-0.6,0.7-0.7,1.4
			l-5,28.2c-0.1,0.6,0,0.9,0.3,1.4l2.2,2.7c0.4,0.4,0.7,0.5,1.5,0.5h17.1c0.7,0,1-0.1,1.5-0.5l3.2-2.7c0.5-0.4,0.6-0.7,0.7-1.4
			L237.9,241.4z M299.7,272.3h-25.1l-2.7,15.6h-15.4l5.2-30.1c0.9-5.3,2-8.5,5.5-12.8l13.2-16.4c4-5,6.2-6.1,12.1-6.1h6.7
			c6,0,7.7,1,10,6.1l7.3,16.4c1.1,2.5,1.6,4.5,1.6,6.8c0,1.8-0.2,3.8-0.6,6.1l-5.2,30.1H297L299.7,272.3z M295.7,237.1
			c-0.2-0.5-0.4-0.7-1.1-0.7h-2.1c-0.7,0-0.9,0.2-1.4,0.7l-11.3,14.1c-1.4,1.8-2,3-2.4,5.5l-0.4,2.2H302l0.4-2.2
			c0.2-0.9,0.2-1.7,0.2-2.3c0-1.1-0.3-2.1-0.7-3.2L295.7,237.1z M384.1,269c-0.9,5.4-1.8,7-5.6,10.3l-5.5,4.7
			c-3.3,2.8-5.4,3.8-10.9,3.8h-32.5c-2.9,0-4.2-1.3-3.7-4l10-56.8c0.5-2.7,2.1-4,5-4h32.5c5.4,0,7.2,0.9,9.6,3.8l3.9,4.7
			c1.8,2.2,2.5,3.6,2.5,5.8c0,1.1-0.2,2.7-0.5,4.5L384.1,269z M373.4,241.9c0.1-0.6,0.1-0.8-0.3-1.4l-2.6-3.2
			c-0.3-0.4-0.6-0.5-1.4-0.5h-19.4l-6.6,37.4h19.4c0.7,0,1-0.2,1.5-0.5l3.9-3.2c0.5-0.4,0.6-0.7,0.7-1.4L373.4,241.9z M452,287.8
			h-15.5l9-51.2h-19.4l2.4-13.6h54.3l-2.4,13.6H461L452,287.8z M535.8,287.8h-15.5l4.5-25.5h-24.7l-4.5,25.5h-15.5l11.4-64.8h15.5
			l-4.5,25.4h24.7l4.5-25.4h15.5L535.8,287.8z M607.2,223.1l-2.4,13.6h-30.9l-2.1,11.9h25.6l-2.4,13.6h-25.6l-2.2,12.1h31.6
			l-2.3,13.6h-42.8c-2.9,0-4.1-1.3-3.7-4l10-56.8c0.5-2.7,2.1-4,5-4H607.2z M669.4,250c-0.9,5.3-1.7,6.9-5.6,10.2l-6.3,5.3l5.4,22.2
			h-16.2l-4.4-19.7h-14.4l-3.4,19.7H609l10.7-60.8c0.5-2.7,2.1-4,5-4H656c5.4,0,7.2,0.9,9.5,3.8l3.4,4.1c1.8,2.2,2.5,3.6,2.5,5.8
			c0,1.1-0.2,2.7-0.5,4.5L669.4,250z M648.8,254.5c0.7,0,1-0.1,1.6-0.5l2.8-2.4c0.4-0.4,0.6-0.7,0.7-1.4l1.7-9.3
			c0.1-0.6,0-0.9-0.3-1.4l-2-2.4c-0.3-0.4-0.6-0.5-1.4-0.5h-18.5l-3.1,17.9H648.8z M717.6,272.3h-25.1l-2.7,15.6h-15.4l5.2-30.1
			c0.9-5.3,2-8.5,5.5-12.8l13.2-16.4c4-5,6.2-6.1,12.1-6.1h6.7c6,0,7.7,1,10,6.1l7.3,16.4c1.1,2.5,1.6,4.5,1.6,6.8
			c0,1.8-0.2,3.8-0.6,6.1l-5.2,30.1h-15.4L717.6,272.3z M713.5,237.1c-0.2-0.5-0.4-0.7-1.1-0.7h-2.1c-0.7,0-0.9,0.2-1.4,0.7
			l-11.3,14.1c-1.4,1.8-2,3-2.4,5.5l-0.4,2.2h25.1l0.4-2.2c0.2-0.9,0.2-1.7,0.2-2.3c0-1.1-0.3-2.1-0.7-3.2L713.5,237.1z
			 M802.7,251.2c-0.9,5.2-1.4,6.9-5.3,10.2l-4.8,4.1c-3.3,2.8-5.7,3.8-11.2,3.8h-19.7l-3.2,18.6H743l10.7-60.8c0.5-2.7,2.1-4,5-4
			h30.9c5.4,0,7.2,0.9,9.5,3.8l3.4,4.1c1.8,2.2,2.5,3.6,2.5,5.8c0,1.1-0.2,2.7-0.5,4.5L802.7,251.2z M782.1,255.7
			c0.7,0,1-0.1,1.6-0.5l2.8-2.4c0.4-0.4,0.6-0.7,0.7-1.4l1.9-10.4c0.1-0.6,0-0.9-0.3-1.4l-2-2.4c-0.3-0.4-0.6-0.5-1.4-0.5h-18.1
			l-3.3,19H782.1z M854.2,223.1h14.7l-1.9,10.5c-0.8,5-2.6,8.3-6.8,12.7l-18.9,20.3l-3.7,21.2h-15.5l3.7-21.2L814,246.1
			c-1.7-2.9-2.6-5.4-2.6-8.8c0-1.1,0.2-2.8,0.5-4.7l1.7-9.5h14.3l-0.8,9.5c-0.1,1-0.2,2.3-0.2,2.7c0,1,0.2,1.8,0.9,3l8.3,14.2
			l12.8-14.2c1.5-1.7,2-2.6,2.5-4.6L854.2,223.1z"/>
	</g>
	<g>
		<defs>
			<path id="SVGID_1_" d="M545.3,109.9c-25,18.3-28,25.7-51.3,47c-10.2,9.4-24.2,15.9-29.6,17.5l3.5,5.6c5.4-1.6,19.4-8.1,29.6-17.5
				c23.3-21.4,26.3-28.8,51.3-47c6.4-4.7,13-9.2,19.8-13.3l-3.5-5.6C558.3,100.7,551.7,105.2,545.3,109.9 M483.6,121.9
				c-2.1,5.5-5.2,18.9-10.9,25c-5.7,6.1-14.4,13-13.7,18.4c0.4,3.2,2.5,5.9,3.9,5.9c0.2,0,16.8-5.8,28.6-16.9
				c13.6-12.8,25.1-25,27.2-26.9l-19.9-38.6C491.3,101.7,486.4,114.9,483.6,121.9 M502.6,86.2l19.5,37.6
				c9.3-8.2,21.7-18.4,41.1-30.5l-9.4-15.4l-2.9,4.1c-6.8,9.1-8.9,7.8-10.7,5.5c-4.1-5-6.6-10.7-8.9-16.5L502.6,86.2z M501.7,81.4
				l26.6-14.2l-26.6-1.7L501.7,81.4z M507.3,61.3l22.9,1.3l1-15.7L507.3,61.3z M665.1,45.9L638,77.5l-9.3-31.6h-46.4l15.2,52.4
				l-10.1,42.1c0.1,0.1,46.1,0,46.1,0L645,98.3l43.3-52.4H665.1z M696.5,45.9l-25,94.5h78.2l4.6-17.6H720l5.7-21.7h22.9l4.7-17.8
				h-22.8l5.3-20.2h34.6l4-17.1H696.5z M815,79.9l2.5,29.1h-20.3L815,79.9z M816,45.9l-58.4,94.5h19.9l9.3-14.6l32.3-0.1l1.7,14.8
				h42.8l-8.7-94.5H816z M940,60.7l6,0.1c2.1,0.2,3.9,0.9,4.9,3c0.5,1.7,0.3,3.8-0.1,5.4c-1.9,7.3-2.6,15.1-6.8,21.5
				c-1.5,1.7-3.5,2.5-5.6,2.8l-6.6,0L940,60.7z M899.4,45.9L875,140.4h44.1l8.2-30.4c1.1,0,2.6-0.3,3.6,0.3c1.1,0.5,1.5,1.6,1.8,2.7
				l6.9,27.4H984l-11-36.6c4.8-1.5,9.4-3.9,13.2-7.9c8.6-9.1,12.4-22.8,7.7-34.9c-3.2-8.7-12.2-14.9-21.2-15.1H899.4z M402.7,126
				L420,60.7c0.9,0.1,1.9,0.1,3,0.1c3.3,0,7-0.1,8.2,2.7c1,1.9,0,4.1-0.1,6c0,0-12.3,48.3-13,50.3c-0.7,2-3.6,5.6-6.6,6.1
				c-1.5,0.2-3.1,0.3-4.7,0.3C405.4,126.1,404.1,126.1,402.7,126 M354.6,140.7h50.9c9.5,0.2,19.2,0.1,27.7-2.5
				c18.8-4.9,40-28.8,38.7-59.8c-0.4-9.1-6.6-26.9-23.9-30.9c-5.5-1.2-14.1-1.6-17.1-1.7l-51,0L354.6,140.7z M63.7,41.7
				c-19.6,2-34.6,10.9-42.8,21.9c-18.3,24.3-18.3,48-7.7,62.3c7,9.4,15.3,13.6,30,14.3h57.7l13-52.9H71.2l-10.7,38.8
				c-1.1-0.1-2.3,0-3.4,0.1c-3.7,0.2-7.5,0.4-8.7-3.9c-1-3.6,13.5-55.2,13.5-55.2c1.3-3.4,2.3-7.6,6.2-9.1
				c11.3-5.9,27.4,5.4,27.4,5.4c2.7-4.6,5.3-9.3,7.7-14c-8.3-5.9-20.1-8.2-30.5-8.2C69.5,41.2,66.5,41.4,63.7,41.7 M167.9,128
				c-1.7-1.6-1.6-4.1-1.4-6.3l15.9-60.4c1.1-2.6,3.4-5.5,6.2-6.1c2.4-0.4,5.3-0.4,6.9,1.4c1.6,1.8,1.6,5.3,1,7.3L181,123.3
				c-0.7,2.6-2.8,5.4-5.5,6.2c-0.8,0.2-1.7,0.4-2.6,0.4C171.1,129.8,169.2,129.2,167.9,128 M146.1,55.5
				c-13.6,10.6-21,25.2-21.6,41.3c-0.9,24,10.2,32.4,15.3,36.6c14.4,10.1,34,12.6,51.8,8.2c10-3.2,19.5-7.5,27.6-15.4
				c16-15.7,22.5-39.2,15.2-60.4c-5-13.5-19.6-22-33-24.1c-3.6-0.5-7.3-0.7-10.8-0.7C174.3,41.1,158.9,46.1,146.1,55.5 M288.1,128
				c-1.7-1.6-1.6-4.1-1.4-6.3l15.9-60.4c1.1-2.6,3.4-5.5,6.2-6.1c2.4-0.4,5.3-0.4,6.9,1.4c1.6,1.8,1.6,5.3,1,7.3l-15.6,59.5
				c-0.7,2.6-2.8,5.4-5.5,6.2c-0.8,0.2-1.7,0.4-2.6,0.4C291.2,129.8,289.4,129.2,288.1,128 M266.3,55.5
				c-13.6,10.6-21,25.2-21.6,41.3c-0.9,24,10.1,32.4,15.3,36.6c14.4,10.1,34,12.6,51.8,8.2c10-3.2,19.5-7.5,27.6-15.4
				c16-15.7,22.5-39.2,15.2-60.4c-5-13.5-19.5-22-33-24.1c-3.6-0.5-7.3-0.7-10.8-0.7C294.5,41.1,279.1,46.1,266.3,55.5 M489.1,44.5
				L499,61l29.8-17.8c-1.9-3.5-3.3-11.3,0.6-23.2L489.1,44.5z M545.6,40.5c-0.4-0.9-3.6-2.3-2.9-2.8c0.4-0.2,1.5,0.2,2.6,0.2
				c1.4,0,1.9,0.3,2.1,0.5c0.3,0.5,0.3,1.7,0.4,2.6c0.1,1.4,0.7,2.6,0.2,2.8c0,0,0,0,0,0C547.4,43.9,546,41.4,545.6,40.5 M553.6,25
				c-0.7-0.2-1-0.2-0.9-0.7c0.1-0.5,4.6-1.2,6.9-5.3c0.7-1.2,3.8-0.5,5.7-1c2.7-0.7,3.7-3.4,6.3-3.2c2.7,0.3,5,0.7,5.4,0.9
				c0.4,0.2,0.2,0.6,0,0.8c-1.1,0.9-3.2,0.9-4.6,1.5c-1.4,0.6-3,3.4-5.9,3.8c-1.1,0.2-1.9,0.1-2.6,0.1c-1.1-0.1-1.8-0.1-2.7,0.8
				c-1.4,1.5-3.3,2.7-5.7,2.7C555,25.2,554.3,25.1,553.6,25 M634.8,6.1c-13.1,0.8-26.4,0.1-38.7-0.5c-22.8-1.1-42.5-2.3-52.6,5.2
				c-18.9,14.1-11,32.2-7.2,37.5c-1.2,8.6-1,19.9,1.8,25.5c2,4,4.5,8.3,7.6,6.6c3-1.7,5.7-7,7.7-13.9c0.3-0.9,0.5-2.4,2-2.2
				c1.3,0.9,4,3.9,6.2,2.3c1.8-1.4,2.3-5.4,3-8.9c0.4-1.7,1.4-1,2.8-0.2c1.4,0.8,3.1,1.6,4.5-0.4c2.9-4,2.9-14.2,2.9-15.2
				c0-0.6,0.4-1.2,1.2-0.9c11.2,3.6,19.8-1.9,20.3-3.3c0.6-1.7-2-2.4-1.2-2.6c0.8-0.2,9.4-1.9,12.5-5.5c1.1-1.2-0.6-2.1-3-2.9
				c-2.7-0.9-3.5-2.1-2.4-2.2c1-0.1,5.6,0.2,11.1,0.5c5.8,0.3,12.6,0.7,17.4,0.5c21.2-0.7,36.7-10.3,36.9-23
				C656.9,4.7,642.8,5.6,634.8,6.1"/>
		</defs>
		<use xlink:href="#SVGID_1_"  style="overflow:visible;fill:#FFDD00;"/>
		<clipPath id="SVGID_2_">
			<use xlink:href="#SVGID_1_"  style="overflow:visible;"/>
		</clipPath>
	</g>
</g>
</svg>
