<?xml version="1.0" encoding="utf-8"?>
<!-- Generator: Adobe Illustrator 19.2.1, SVG Export Plug-In . SVG Version: 6.00 Build 0)  -->
<svg version="1.1" id="Layer_1" xmlns="http://www.w3.org/2000/svg" xmlns:xlink="http://www.w3.org/1999/xlink" x="0px" y="0px"
	 viewBox="0 0 1000 180" style="enable-background:new 0 0 1000 180;" xml:space="preserve">
<g>
	<defs>
		<path id="SVGID_1_" d="M544.8,109.1c-25.2,18.4-28.2,25.9-51.8,47.5c-10.3,9.5-24.4,16-29.9,17.7l3.5,5.6
			c5.5-1.6,19.6-8.2,29.9-17.7c23.5-21.6,26.5-29.1,51.8-47.5c6.5-4.7,13.1-9.3,20-13.4l-3.5-5.6
			C557.9,99.7,551.3,104.3,544.8,109.1 M482.4,121.2c-2.2,5.5-5.3,19.1-11,25.2c-5.8,6.1-14.5,13.2-13.8,18.6
			c0.4,3.2,2.6,5.9,3.9,5.9c0.2,0,17-5.9,28.9-17c13.8-12.9,25.3-25.2,27.5-27.1l-20.1-39C490.2,100.8,485.3,114.1,482.4,121.2
			 M501.6,85.1l19.7,38c9.4-8.3,22-18.6,41.5-30.8l-9.5-15.6l-3,4.1c-6.9,9.2-9,7.9-10.8,5.6c-4.2-5.1-6.7-10.8-9-16.7L501.6,85.1z
			 M500.7,80.2l26.9-14.4l-26.9-1.7L500.7,80.2z M506.4,60l23.2,1.3l1-15.9L506.4,60z M665.8,44.5l-27.4,31.9L629,44.5h-46.9
			l15.4,52.9l-10.2,42.6c0.1,0.1,46.6,0,46.6,0l11.6-42.6l43.8-52.9H665.8z M697.5,44.5l-25.3,95.5h79l4.7-17.8h-34.7l5.8-21.9h23.1
			l4.7-18h-23l5.3-20.4H772l4-17.3H697.5z M817.2,78.7l2.5,29.4h-20.6L817.2,78.7z M818.2,44.5l-59,95.5h20.1l9.3-14.8l32.7-0.1
			l1.8,14.9h43.2l-8.8-95.5H818.2z M943.4,59.3l6.1,0.1c2.1,0.2,3.9,0.9,4.9,3c0.5,1.7,0.3,3.8-0.1,5.4c-1.9,7.4-2.6,15.3-6.9,21.7
			c-1.5,1.7-3.5,2.5-5.7,2.8l-6.7,0L943.4,59.3z M902.4,44.5l-24.7,95.5h44.6l8.3-30.7c1.2,0,2.6-0.3,3.6,0.3
			c1.1,0.5,1.5,1.6,1.8,2.7l7,27.7h44.9l-11.1-37c4.9-1.5,9.4-4,13.4-7.9c8.7-9.2,12.5-23,7.8-35.3c-3.2-8.8-12.4-15.1-21.4-15.2
			H902.4z M400.8,125.3l17.4-66c0.9,0.1,1.9,0.1,3,0.1c3.3,0,7.1-0.1,8.3,2.7c1,1.9,0,4.1-0.1,6.1c0,0-12.4,48.8-13.2,50.8
			c-0.8,2-3.7,5.7-6.6,6.1c-1.5,0.2-3.1,0.3-4.7,0.3C403.5,125.5,402.1,125.4,400.8,125.3 M352.1,140.2h51.5
			c9.6,0.2,19.4,0.1,28-2.5c19-5,40.4-29.1,39.1-60.4c-0.4-9.2-6.6-27.2-24.1-31.2c-5.6-1.2-14.3-1.6-17.3-1.7l-51.5,0L352.1,140.2z
			 M58.3,40.2c-19.8,2-34.9,11-43.3,22.1c-18.4,24.5-18.5,48.5-7.8,63c7,9.5,15.5,13.8,30.3,14.4h58.3L109,86.3H65.8L55,125.5
			c-1.1-0.1-2.3,0-3.5,0.1c-3.8,0.2-7.6,0.4-8.8-4c-1-3.7,13.6-55.8,13.6-55.8c1.3-3.4,2.3-7.6,6.2-9.2C74.1,50.6,90.3,62,90.3,62
			c2.7-4.6,5.3-9.4,7.8-14.1c-8.3-5.9-20.3-8.2-30.8-8.2C64.1,39.6,61.1,39.8,58.3,40.2 M163.6,127.3c-1.7-1.6-1.7-4.2-1.4-6.4
			l16.1-61c1.1-2.7,3.4-5.6,6.3-6.1c2.4-0.4,5.3-0.4,7,1.4c1.6,1.8,1.7,5.4,1,7.3l-15.8,60.1c-0.7,2.7-2.8,5.5-5.6,6.2
			c-0.8,0.2-1.7,0.4-2.6,0.4C166.7,129.2,164.9,128.6,163.6,127.3 M141.5,54.1c-13.8,10.7-21.2,25.5-21.8,41.7
			c-0.9,24.3,10.3,32.7,15.4,37c14.5,10.2,34.4,12.7,52.3,8.3c10.1-3.2,19.7-7.6,27.9-15.5c16.1-15.8,22.7-39.6,15.4-61
			c-5.1-13.7-19.7-22.3-33.3-24.3c-3.7-0.5-7.3-0.7-11-0.7C170,39.5,154.4,44.6,141.5,54.1 M285,127.3c-1.7-1.6-1.6-4.2-1.4-6.4
			l16.1-61c1.1-2.7,3.4-5.6,6.3-6.1c2.4-0.4,5.3-0.4,6.9,1.4c1.6,1.8,1.7,5.4,1.1,7.3l-15.8,60.1c-0.7,2.7-2.8,5.5-5.6,6.2
			c-0.8,0.2-1.7,0.4-2.6,0.4C288.1,129.2,286.3,128.6,285,127.3 M263,54.1c-13.8,10.7-21.2,25.5-21.8,41.7
			c-0.9,24.3,10.2,32.7,15.4,37c14.5,10.2,34.3,12.7,52.3,8.3c10.1-3.2,19.7-7.6,27.9-15.5c16.1-15.8,22.7-39.6,15.4-61
			c-5.1-13.7-19.7-22.3-33.3-24.3c-3.7-0.5-7.3-0.7-10.9-0.7C291.4,39.5,275.8,44.6,263,54.1 M488,43L498,59.7l30.1-18
			c-1.9-3.6-3.4-11.4,0.6-23.4L488,43z M545.1,39c-0.4-0.9-3.6-2.3-2.9-2.8c0.4-0.2,1.5,0.2,2.6,0.2c1.4,0,1.9,0.3,2.1,0.5
			c0.3,0.5,0.3,1.7,0.4,2.6c0.1,1.4,0.7,2.7,0.2,2.8c0,0,0,0,0,0C546.9,42.4,545.5,39.8,545.1,39 M553.2,23.3
			c-0.7-0.2-1-0.2-0.9-0.7c0.1-0.5,4.6-1.3,6.9-5.4c0.7-1.3,3.8-0.5,5.8-1c2.8-0.7,3.7-3.5,6.4-3.2c2.7,0.3,5.1,0.7,5.5,0.9
			c0.4,0.2,0.2,0.6,0,0.8c-1.1,0.9-3.3,0.9-4.6,1.5c-1.4,0.6-3,3.4-6,3.8c-1.1,0.2-1.9,0.1-2.6,0.1c-1.1-0.1-1.9-0.1-2.7,0.8
			c-1.4,1.5-3.3,2.7-5.8,2.7C554.5,23.5,553.9,23.4,553.2,23.3 M635.1,4.2C621.9,5,608.5,4.3,596,3.7c-23-1.1-43-2.3-53.1,5.3
			c-19.1,14.3-11.1,32.5-7.3,37.9c-1.2,8.7-1,20.1,1.8,25.7c2.1,4.1,4.6,8.4,7.6,6.6c3.1-1.7,5.8-7.1,7.8-14c0.3-0.9,0.5-2.5,2-2.2
			c1.4,0.9,4.1,4,6.3,2.4c1.9-1.4,2.3-5.4,3-9c0.4-1.8,1.4-1,2.8-0.2c1.4,0.8,3.1,1.6,4.6-0.4c2.9-4,2.9-14.4,2.9-15.4
			c0-0.6,0.4-1.2,1.2-0.9c11.4,3.6,20-1.9,20.5-3.3c0.6-1.7-2-2.4-1.2-2.7c0.8-0.2,9.5-1.9,12.6-5.6c1.1-1.2-0.6-2.1-3-2.9
			c-2.7-0.9-3.5-2.2-2.4-2.3c1.1-0.1,5.7,0.2,11.2,0.5c5.8,0.3,12.7,0.7,17.6,0.5c21.4-0.7,37.1-10.4,37.2-23.2
			C657.5,2.8,643.2,3.7,635.1,4.2"/>
	</defs>
	<use xlink:href="#SVGID_1_"  style="overflow:visible;fill:#FFDD00;"/>
	<clipPath id="SVGID_2_">
		<use xlink:href="#SVGID_1_"  style="overflow:visible;"/>
	</clipPath>
</g>
</svg>
