<?xml version="1.0" standalone="no"?>
<!DOCTYPE svg PUBLIC "-//W3C//DTD SVG 1.1//EN" "http://www.w3.org/Graphics/SVG/1.1/DTD/svg11.dtd" >
<svg xmlns="http://www.w3.org/2000/svg" xmlns:xlink="http://www.w3.org/1999/xlink" version="1.1">
<metadata></metadata>
<defs>
<font id="block_bqextra_condensed" horiz-adv-x="894" >
<font-face units-per-em="2048" ascent="1536" descent="-512" />
<missing-glyph horiz-adv-x="425" />
<glyph unicode="&#xfb01;" d="M6 1022q0 43 29 43h10h10t8 0.5t7.5 2.5t5 5t3.5 8.5t1 12.5q0 24 -3 63.5t-3 61.5q0 24 0.5 38.5t4.5 41.5t11.5 44.5t23.5 39t38 34.5t57.5 22t79.5 9h137q44 0 59 -17.5t15 -60.5q0 -18 1 -50t1 -50q0 -1 1 -18.5t-0.5 -26t-5 -22.5t-13 -20.5t-25.5 -6.5 q-10 0 -26.5 3t-26.5 3q-44 0 -44 -56v-6q0 -34 4.5 -42.5t28.5 -8.5q10 0 26 1t25 1q56 0 56 -57v-70q0 -18 1 -48t1 -48v-2q0 -2 0.5 -4.5t0.5 -6t-1 -7t-2.5 -7.5t-4 -7t-6 -5.5t-8.5 -4t-12 -1.5q-6 0 -16 1t-15 1q-34 0 -44.5 -12.5t-10.5 -36.5v-76q0 -44 4 -158 q0 -57 2 -90q4 -50 4 -67v-52q0 -15 -1 -39t-1 -38v-91q0 -19 2 -49t2 -49q0 -49 -55 -49h-8q-27 0 -101 4q-16 0 -45 -2t-47 -2q-35 0 -51 7.5t-16 31.5q0 26 4 72.5t4 74.5q0 34 -2 92t-2 93t2 94t2 94q0 27 -2 70.5t-2 68.5q0 2 -1 31t1 31q0 5 1 12.5t1 11.5 q0 10 -8 17.5t-17 7.5l-5 -1q-4 0 -9 -0.5t-11 1t-10.5 4.5t-8 10t-3.5 17v20q0 15 1 40.5t1 39.5q0 16 -2 42t-2 42zM543 74v4q0 64 3 172t3 172q0 27 -1 74.5t-1 74.5q0 38 4 140q0 21 -1 54t-1 54q0 27 2 75t2 75q0 23 -2 63t-2 64q0 22 14 34.5t24 14.5t19 2q16 0 41 -3 t39 -3q22 0 60 3t61 3h4q55 0 55 -62q-1 -22 -4.5 -69.5t-3.5 -77.5q0 -36 2 -96.5t2 -96.5q0 -31 -2 -85t-2 -85q0 -33 2 -88t2 -88q0 -25 -2.5 -77t-1.5 -86q0 -30 4 -82t4 -82q0 -68 -55 -68q-11 0 -31 2t-32 2q-26 0 -70 -3t-70 -3q-31 0 -48 13.5t-17 58.5zM549 1401 q0 57 57 57q17 0 44 -2t42 -2q23 0 64.5 2t66.5 2q13 0 21 -5.5t10.5 -18t3 -18t0.5 -17.5q0 -29 -2 -43q0 -12 2 -34t2 -36q0 -39 -47 -39q-8 0 -23 1t-24 1h-8q-31 0 -83 -3t-81 -3h-2q-14 1 -23 9t-12 22t-3.5 20.5t-0.5 20.5v12q0 13 -2 37t-2 37z" />
<glyph unicode="&#xfb02;" d="M6 1022q0 43 29 43h10h10t8 0.5t7.5 2.5t5 5t3.5 8.5t1 12.5q0 24 -3 63.5t-3 61.5q0 24 0.5 38.5t4.5 41.5t11.5 44.5t23.5 39t38 34.5t57.5 22t79.5 9h137q44 0 59 -17.5t15 -60.5q0 -18 1 -50t1 -50q0 -1 1 -18.5t-0.5 -26t-5 -22.5t-13 -20.5t-25.5 -6.5 q-10 0 -26.5 3t-26.5 3q-44 0 -44 -56v-6q0 -34 4.5 -42.5t28.5 -8.5q10 0 26 1t25 1q56 0 56 -57v-70q0 -18 1 -48t1 -48v-2q0 -2 0.5 -4.5t0.5 -6t-1 -7t-2.5 -7.5t-4 -7t-6 -5.5t-8.5 -4t-12 -1.5q-6 0 -16 1t-15 1q-34 0 -44.5 -12.5t-10.5 -36.5v-76q0 -44 4 -158 q0 -57 2 -90q4 -50 4 -67v-52q0 -15 -1 -39t-1 -38v-91q0 -19 2 -49t2 -49q0 -49 -55 -49h-8q-27 0 -101 4q-16 0 -45 -2t-47 -2q-35 0 -51 7.5t-16 31.5q0 26 4 72.5t4 74.5q0 34 -2 92t-2 93t2 94t2 94q0 27 -2 70.5t-2 68.5q0 2 -1 31t1 31q0 5 1 12.5t1 11.5 q0 10 -8 17.5t-17 7.5l-5 -1q-4 0 -9 -0.5t-11 1t-10.5 4.5t-8 10t-3.5 17v20q0 15 1 40.5t1 39.5q0 16 -2 42t-2 42zM547 55q0 24 3 64.5t3 64.5q0 26 -2 69t-2 69q0 37 2 100t2 100q0 45 -2 121t-2 121q0 35 2 94.5t2 95.5q0 16 -1 48t-1 47q0 45 1 120.5t1 120.5 q0 16 -2 45t-2 47q0 70 67 70q16 0 44 -3t45 -3t47 2t49 2q37 0 51 -18t14 -54q0 -16 -2.5 -40t-3.5 -31q-2 -37 -2 -99v-112q0 -40 -2 -108.5t-2 -108.5q0 -21 1.5 -74t0.5 -86q0 -23 -2 -64.5t-2 -66.5t2 -70t2 -72q1 -43 -2 -117t-2 -118q0 -9 3 -55.5t3 -75.5 q0 -25 -0.5 -34t-6 -23.5t-19 -19.5t-37.5 -5q-15 0 -38 2t-38 2h-10q-19 0 -51 -2t-50 -2q-61 0 -61 57z" />
<glyph horiz-adv-x="0" />
<glyph horiz-adv-x="682" />
<glyph unicode=" "  horiz-adv-x="425" />
<glyph unicode="&#x09;" horiz-adv-x="425" />
<glyph unicode="&#xa0;" horiz-adv-x="425" />
<glyph unicode="!" horiz-adv-x="425" d="M49.5 1401.5q0.5 12.5 7.5 23.5q6 11 19 17q6 3 18.5 4t23.5 1t26 -0.5t18 -0.5q9 0 28 -1t29 -1q19 0 56 3t55 3q69 0 69 -51q0 -19 -4 -47l-14 -166q-4 -48 -6.5 -137t-5.5 -127q-2 -49 -12.5 -141.5t-12.5 -108.5q-8 -103 -10 -152q0 -60 -8 -74q-18 -24 -43 -24 q-7 0 -21.5 1t-21.5 1q-12 0 -38 1t-38 1q-54 0 -66 20q-6 8 -6 25q0 15 1.5 61t0.5 70q-10 163 -14 197l-8 78l-6 90q-5 77 -5 96l-4 98q-4 78 -4 119v84q-4 25 -3.5 37.5zM51 94q2 29 2 86q0 55 -2 82q-3 45 0 55q5 18 17 26.5t22 8.5q6 1 16.5 -0.5t12.5 -1.5 q29 -2 86 -2q59 0 90 2q47 0 61 -12q7 -8 10 -20.5t3 -22.5t-1 -31.5t-1 -34.5q0 -84 2 -125q0 -8 1 -25.5t1 -25.5q0 -11 -3 -22.5t-17 -23t-36 -11.5q-17 0 -45 4q-20 2 -61 2q-17 0 -49 -1t-49 -1q-44 0 -56 14q-8 12 -4 80z" />
<glyph unicode="&#x22;" horiz-adv-x="610" d="M53 1294v33v35l2 16v27q0 68 70 68h4h18l27 -3h47q16 -3 29 -26l6 -14l4 -29q2 -10 2 -25l-2 -10v-37l2 -8q0 -4 -1 -14t-1 -15q-3 -20 -6 -26l-6 -21l-6 -24l-6 -39q0 -1 -1.5 -9t-1.5 -14q0 -4 -1 -11.5t-1 -10.5l-6 -33v-17q0 -3 -6 -40q-4 -32 -4 -48 q-3 -40 -12 -54.5t-29 -14.5l-14 2h-10h-13h-16q-8 2 -15.5 12.5t-7.5 22.5l-2 22q0 15 -2 29q-3 15 -8 82q-1 8 -1.5 17.5t-1 14.5t-1.5 9l-4 24q-4 24 -4 39l-6 35l-7 14q-3 7 -6 23q-2 8 -2 18zM348 1294l2 47l-2 19l2 16v29q0 21 8.5 38.5t20.5 18.5l18 4l27 4h18h27h20 q30 -2 38.5 -6t17.5 -22l6 -15q4 -8 4 -28v-23q2 -10 2 -24q0 -70 -8 -86l-6 -23l-6 -24l-7 -39q0 -2 -1 -9t-1 -12q-2 -12 -2 -24l-6 -31v-29l-6 -31q-4 -20 -4 -45q-3 -40 -12 -54.5t-29 -14.5h-14h-11l-12 2h-16q-22 3 -25 57l-2 27q0 2 -0.5 6.5t-1.5 13t-2 15.5 q-4 28 -4 47q-1 7 -1.5 17t-1 15t-1.5 9l-4 26q-4 20 -4 39q-4 25 -9 33l-6 14l-4 23q-2 8 -2 20z" />
<glyph unicode="#" horiz-adv-x="997" d="M31 465q0 13 2 29l6 77q5 34 16.5 50t34.5 16h21q10 -2 20 -2h27l30 2q10 0 19.5 9t11.5 20l4 24l4 33l6 39l5 24q1 2 1.5 6t1 11t1.5 12v10q0 25 -17 25h-14l-27 2l-20 -2l-21 -2h-37q-17 0 -22.5 8.5t-5.5 30.5v10l2 16l6 66q6 49 14 65.5t27 16.5h10q14 -2 47 -2h31 l23 2q26 2 30 6q12 6 15 41l6 45l4 33l6 41l2 37l6 43v24q0 1 4 33q1 6 2 13.5t1.5 11.5t0.5 6l4 14q5 28 12.5 38.5t24.5 10.5h15q24 -4 37 -4q5 0 26.5 1t36.5 1h12q34 0 44 -6t10 -29q0 -25 -9 -80q-6 -37 -6 -49q-1 -11 -2 -20.5t-1.5 -14t-0.5 -6.5l-8 -37l-2 -24 q0 -4 -2 -8q0 -3 -1 -10.5t-1 -10.5q0 -6 -2 -16q0 -17 -4 -33q-2 -14 -2 -31q0 -18 20 -18h27h12h10q25 0 35.5 8.5t13.5 28.5l2 18l5 31l4 47l2 18l4 31l4 25l1 10q1 10 1 20l4 41l6 31l6 41q5 39 47 39h7q97 -3 98 -2q23 2 29 2q36 0 36 -45v-8l-2 -17l-4 -22l-4 -33 l-2 -29l-4 -26l-6 -43l-6 -43l-4 -37l-4 -23q-1 -2 -5 -22q-2 -8 -2 -19q0 -16 13 -20h8l33 -2h16h12q5 0 13 2h10q21 0 29 -6.5t8 -24.5v-14l-2 -27l-6 -45q-1 -6 -2 -14.5t-2 -13.5t-1 -9q-3 -38 -14 -50.5t-41 -12.5h-35q-14 2 -37 2q-18 0 -25.5 -8.5t-10.5 -30.5 l-9 -74l-8 -47q-4 -12 -4 -28q0 -29 27 -29h8h20q8 -2 13 -2l28 2h11l10 -2q29 -3 29 -37v-6l-5 -29l-2 -22q0 -8 -6 -35q0 -5 -1 -14t-1 -13q-1 -26 -6.5 -36t-19.5 -15q-8 -4 -56 -4h-8h-41h-6q-20 0 -27 -7t-8 -32l-8 -72l-4 -35l-2 -20q0 -8 -2 -18q0 -11 -2 -29l-6 -82 q-11 -129 -48 -129h-20l-8 -2q-9 0 -15 4h-81h-11l-20 2l-6 2q-2 2 -6 2q-9 0 -15 9t-6 22v12l2 37l4 12l8 72q0 6 9 53q0 5 1 13t1 10q0 6 0.5 11.5t1.5 8.5v4l4 15l2 22q0 13 4 25q6 60 6 63q0 35 -27 35l-16 -2l-12 2l-17 -2l-16 -2q-7 0 -14 -8t-9 -17l-4 -18l-4 -19 l-4 -40l-8 -58l-2 -18l-6 -45l-6 -39q-7 -44 -7 -49l-4 -35l-6 -33q-9 -47 -35 -47h-20l-51 -4q-39 0 -66 8q-4 0 -7 1l-3 1q-12 3 -12 4q-1 0 -8 10l-5 9q-4 8 -4 28v8l2 17l2 18l5 33l4 33l12 61l12 82l4 35l6 53v6q0 25 -22 25h-6l-13 -2h-8q-8 0 -16 2h-21h-18 q-32 0 -42.5 8t-10.5 31zM436 670q0 -35 25 -35h39h26q24 0 27 31l10 57l2 14l4 33l9 57v2q0 9 -7 16t-16 7l-16 2l-21 2l-18 -2h-21q-16 0 -20 -18l-2 -21l-6 -31q-4 -9 -7 -36q0 -1 -1 -8.5t-1 -14.5q-6 -37 -6 -55z" />
<glyph unicode="$" horiz-adv-x="768" d="M61 98q0 21 1 55.5t1 53.5v67q0 10 2.5 27t2.5 27q0 27 2 30q30 37 65 37q7 0 13.5 -3t18 -10.5t23.5 -12.5q65 -33 115 -33q59 0 82 33t23 71q0 10 -1.5 19t-6 18t-7.5 15.5t-11 15.5l-12 13.5t-15 16t-15 15.5q-136 152 -141 158q-79 96 -108.5 178.5t-29.5 189.5 q0 278 201 359q31 10 33 12q3 2 15.5 3.5t15.5 4.5q4 4 4 37v94q0 88 45 88q23 0 34 -0.5t27 -3t23 -7.5t12.5 -14.5t5.5 -23.5q0 -15 -1 -42t-1 -44q0 -7 1 -18.5t1 -18.5q0 -4 -1 -11.5t-1 -12.5q0 -11 17 -11h12q3 0 35.5 -2t36.5 -2q43 -5 58.5 -12t31.5 -33 q6 -12 6 -65q0 -16 -1 -43t-1 -43q0 -13 2 -33t2 -31q0 -30 -17 -48.5t-33 -23t-30 -4.5q-8 0 -15.5 3.5t-15.5 8.5t-14 7q-48 14 -82 14q-50 0 -72 -24t-22 -56q0 -15 3 -27.5t13 -27t15.5 -20.5t24 -25t24.5 -25q93 -101 131 -147q90 -110 121.5 -198t31.5 -212 q0 -248 -202 -358q-15 -8 -29 -13.5t-18.5 -5t-8.5 -7t-4 -15v-33.5v-53q0 -107 -12 -121q-13 -16 -47 -16q-8 0 -22.5 1t-22.5 1q-43 0 -43 41q0 18 1 50t1 52v39q0 4 1 12t1 13q0 8 -6 8q-17 3 -43.5 4.5t-38.5 3.5q-20 2 -94 21q-2 1 -19.5 5t-22 5.5t-17.5 7.5 t-17.5 12.5t-9.5 17.5t-5 25z" />
<glyph unicode="%" horiz-adv-x="1449" d="M35 885q0 19 2 54t2 52t-1 49t-1 47q0 115 12 173t53 106q46 53 90.5 70.5t108.5 17.5h14q5 0 11 -1t16 -3l20 -4q1 0 11.5 -2t17.5 -3.5t20.5 -6.5t24 -11.5t24 -17.5t25.5 -25q18 -28 27 -47q7 -14 12.5 -27t9 -27.5t6.5 -24t5 -26.5t3.5 -23t2 -26t1 -24t1 -27 t0.5 -26q4 -114 4 -154q0 -11 -1 -34t-1 -35q0 -9 1 -28.5t1 -29.5q0 -65 -14.5 -118.5t-45.5 -97t-85.5 -67.5t-128.5 -24q-42 0 -76.5 9.5t-57.5 23t-41.5 36t-28.5 40.5t-18 44t-10.5 39.5t-5.5 34.5q-10 70 -10 144zM244 1114q0 -44 2 -117.5t2 -117.5q0 -13 -1 -37 t-1 -39t1.5 -25.5t6 -25t16 -22.5t29.5 -7q16 0 34.5 16t18.5 45q0 10 -2 27t-2 27q0 21 1 54t1 52q0 38 -1 101.5t-1 101.5v12v25t-3 23.5t-8.5 24t-17 14.5t-28.5 7q-47 0 -47 -65v-74zM502 29q0 12 4 24q3 22 12 57t12 52l13 59q2 9 7 27t7 31q3 14 6 37.5t6 37.5 q7 41 23.5 109.5t23.5 109.5q7 34 17.5 94t17.5 97q5 20 17 64t18 73q4 20 7.5 40t7 44t6.5 41l12 53q12 53 39 193q7 42 19.5 96t15.5 59q8 17 18 21h8q13 0 33 -3t33 -3q5 0 13 1t13 1q11 0 20 -11t9 -22q0 -10 -8.5 -43.5t-20 -75t-12.5 -43.5q-7 -32 -12.5 -63t-11 -70 t-9.5 -63q-5 -33 -47 -222q-3 -13 -8.5 -48.5t-11.5 -57.5q-5 -18 -15.5 -47.5t-15.5 -48.5q-11 -46 -35 -187q-11 -56 -24 -133q-7 -51 -13 -84q-8 -49 -25 -119t-20 -73q0 -1 -1.5 -4l-2.5 -5t-3 -5t-4 -5t-5 -4t-6.5 -3t-7.5 -1q-6 0 -16 1t-15 1q-9 0 -25.5 -1t-25.5 -1 q-19 0 -28 4.5t-9 18.5zM888.5 501q-0.5 42 0 59t1 50.5t3 48.5t6 40.5t10 40t15.5 34.5t21 36t28 32q68 71 184 71q90 0 148 -43q34 -27 56.5 -68.5t31 -91t11 -87t3.5 -81.5v-18q0 -17 1 -43.5t1 -42.5q0 -18 -1 -54t-1 -54v-56q0 -139 -69 -221.5t-210 -79.5 q-155 3 -210 136q-9 23 -19 79q-10 53 -10 144v106q0 21 -0.5 63zM1096 270q0 -18 1 -27t5 -26.5t16 -26t31 -8.5q24 0 38.5 18t14.5 42q0 8 -1 22.5t-1 22.5q0 21 1 55t1 55q0 35 -1 93.5t-1 93.5v32q0 39 -3.5 51t-22.5 33q-2 4 -11.5 8.5t-17.5 4.5q-17 0 -33 -16.5 t-16 -43.5v-129q0 -28 1 -76t1 -77q0 -19 -1 -51t-1 -50z" />
<glyph unicode="&#x26;" horiz-adv-x="1024" d="M25 440q0 106 34 187t131 172q2 2 20.5 15.5t29.5 24.5t12 19q1 6 -6.5 19t-21 33.5t-21.5 35.5q-41 74 -41 152q0 40 12 92q14 64 45.5 112.5t66 74.5t75.5 42t68 20.5t48 4.5q76 0 136.5 -19t97.5 -49t62 -70.5t34.5 -79.5t9.5 -79q0 -46 -6.5 -80.5t-26.5 -82.5 t-64.5 -105.5t-115.5 -128.5q59 -85 103 -185q30 46 30 101q0 7 -1 19.5t-1 19.5q0 6 1 11.5t3 10t4 8t6 7t6 5.5t6.5 4.5t6 3.5t6.5 3l4 2q10 4 150 4h8q70 0 74 -59q0 -5 -1.5 -14.5t-4 -25.5t-3.5 -28q0 -1 -3.5 -27t-6.5 -43t-11 -51t-17.5 -62t-25.5 -64t-36 -68 q-5 -9 -14 -21t-14 -19.5t-5 -11.5q-1 -5 2 -11t10.5 -18l12.5 -20q13 -23 35.5 -60.5t34.5 -60.5q17 -29 20 -37q4 -8 4 -22v-2q0 -43 -78 -43q-20 0 -52 2t-50 2q-17 0 -45 -2t-45 -2q-9 0 -16.5 3t-11.5 6.5t-9 9t-8 8.5q-2 1 -9.5 10.5t-9.5 9.5q-1 0 -22 -14 q-1 0 -47 -23q-67 -26 -146 -26q-156 0 -235 57q-43 24 -92 90q-44 59 -65 130t-21 183zM328 430q0 -42 21.5 -76t47.5 -53q21 -14 41 -14q43 0 64 30l-123 232q-51 -65 -51 -119zM434 1126q0 -7 1 -14t1.5 -12.5t3 -13.5t4 -12.5t5.5 -13t5.5 -12t6.5 -13.5t6 -12.5t7 -13 t7 -12.5l31 27q53 53 53 109q0 26 -15 47.5t-54 21.5q-27 0 -42.5 -19t-17.5 -38z" />
<glyph unicode="'" horiz-adv-x="315" d="M53 1294v33v35l2 16v27q0 68 70 68h4h18l27 -3h47q16 -3 29 -26l6 -14l4 -29q2 -10 2 -25l-2 -10v-37l2 -8q0 -4 -1 -14t-1 -15q-3 -20 -6 -26l-6 -21l-6 -24l-6 -39q0 -1 -1.5 -9t-1.5 -14q0 -4 -1 -11.5t-1 -10.5l-6 -33v-17q0 -3 -6 -40q-4 -32 -4 -48 q-3 -40 -12 -54.5t-29 -14.5l-14 2h-10h-13h-16q-8 2 -15.5 12.5t-7.5 22.5l-2 22q0 15 -2 29q-3 15 -8 82q-1 8 -1.5 17.5t-1 14.5t-1.5 9l-4 24q-4 24 -4 39l-6 35l-7 14q-3 7 -6 23q-2 8 -2 18z" />
<glyph unicode="(" horiz-adv-x="536" d="M43 664q0 239 52.5 440.5t140.5 296.5l4 4q19 21 43 43q94 70 194 70q22 0 30.5 -8t8.5 -29v-13q0 -2 -1 -5.5t-1 -4.5v-2l2 -16v-17v-24l-2 -41q0 -22 2 -47v-51l-2 -29q0 -16 -20 -33q-32 -23 -54 -57q-7 -11 -26 -54q-26 -77 -31 -213l-6 -137l-4 -94q0 -3 -1 -16 t-1 -23q0 -15 1 -35t1 -24v-88q0 -47 8.5 -113t19.5 -100q23 -71 78 -111q18 -12 24 -21t9 -30l2 -68v-4q0 -10 1 -38t1 -46v-4v-12v-10l-4 -19v-2q0 -2 1 -7.5t1 -8.5v-8v-7v-2q0 -45 -37 -45h-6h-25h-12q-44 0 -90 27l-2 2l-18 10q-67 36 -121.5 111.5t-79.5 163.5l-6 22 l-17 45q-26 72 -41.5 203.5t-15.5 278.5z" />
<glyph unicode=")" horiz-adv-x="536" d="M20 59l3 29q0 16 22 33q34 27 51 57q12 19 27 53q26 68 31 213l6 138l6 94v39q0 47 -2 59l2 88q0 48 -9.5 113.5t-21.5 99.5q-20 70 -76 111q-19 12 -25 21.5t-9 29.5l-2 68v4q0 35 -3 84v4v12q0 2 1.5 5.5t1.5 4.5l2 19v2q0 10 -2 16v8v6v3q0 45 38 45h7h24h10 q48 0 91 -27l4 -2l18 -10q66 -37 121 -112t80 -163l6 -22l16 -45q25 -73 40.5 -205t15.5 -277q0 -239 -52.5 -440.5t-140.5 -296.5l-2 -4q-36 -36 -45 -43q-94 -70 -195 -70q-22 0 -29 7.5t-7 29.5v12v11v2v16l-3 17v24l3 41v47q-3 18 -3 51z" />
<glyph unicode="*" horiz-adv-x="598" d="M-4 1083q-1 6 2 10.5t9 8t11.5 5.5t11.5 3l7 2q10 6 30 15.5t31 17.5q16 8 13 14l-103 49q-10 10 -10 15t5 12.5t14.5 19.5t15.5 21q9 15 22 40.5t19 35.5l10 24q3 6 8 6t17.5 -8t35 -25t35.5 -26q5 -2 10.5 -6t9 -6t5.5 -2q4 0 4 12q0 19 -4 52t-4 52q0 23 12 23 q15 0 42 -2t44 -2h82q12 0 12 -14q0 -16 -3 -44t-3 -45q0 -24 8 -24q3 0 14 8.5t13 9.5t21.5 15t37.5 26.5t19 12.5q5 -1 32 -56l39 -65q3 -6 9.5 -15.5t11 -16t4.5 -7.5q1 -9 -4.5 -15.5t-13 -9t-16.5 -5t-11 -3.5q-6 -4 -51 -29q-23 -9 -23 -12q-1 -4 15 -11.5t43 -18 t40 -17.5q2 -1 8.5 -2.5t10.5 -5t4 -10.5q0 -3 -11 -21t-28 -45t-27 -45l-12 -24t-12.5 -23.5t-9.5 -7.5q-3 0 -13 6.5t-19.5 13.5t-20 15.5t-11.5 9.5q-4 3 -22 12q-17 14 -19 12q-6 0 -6 -22q0 -17 5 -47t5 -47t-14 -17q-4 0 -11.5 1t-11.5 1h-65q-15 0 -42 -1t-42 -1 q-14 0 -14 12q0 20 5 54t5 55q0 16 -6 16q-7 0 -78 -57q-1 -1 -7.5 -6t-12 -8.5t-9.5 -3.5q-5 0 -9.5 7.5t-9.5 21t-9 20.5q-6 11 -60 98q-1 1 -5.5 5t-4.5 9z" />
<glyph unicode="+" horiz-adv-x="978" d="M66 508q0 1 1 8.5t1 13.5v9q2 8 2 16v29l2 24q0 4 -2 6v17l-2 14v4v2l2 23v6q-2 10 -2 18q0 15 11.5 25t31.5 10q4 0 8 -2q24 -6 35 -6q10 0 22 2q4 0 11 1t8 1q2 0 7.5 -1t8.5 -1l12 -2h8h11l24 2h4h4h7q8 0 14 -2h18h11h20q10 0 14 4q2 0 2 10v6v5v12v33v16q7 51 7 74 q0 10 -1 28t-1 23q-3 15 -3 20l3 25l2 27q0 8 10 18q9 12 26 12q9 0 15 -2l8 -2h10h6q4 -2 17 -2h10l45 4h4h4l29 -4q8 -2 18 -2q25 0 35 -10q14 -14 14 -39v-29q-2 -6 -2 -32q-2 -12 -2 -29v-8l2 -15v-8q0 -6 -2 -16v-21v-8q0 -4 1 -10.5t1 -9.5q0 -1 -1 -9t-1 -14 q-4 -16 -4 -27q0 -13 7 -17.5t28 -4.5q17 0 25 2q3 1 6 1.5t5 1t3 1t2 0.5l21 -4h34l15 -2h32q21 0 31 2q14 2 27 2l18 -2h8q20 -4 27 -16l4 -7l6 -10q4 -4 4 -16l-2 -4v-15v-6v-4v-6v-6v-12l-2 -7v-6v-4l-2 -8l-2 -14v-23v-8v-27v-6v-6l-2 -12q0 -11 -12 -19t-29 -8h-6h-14 h-11l-10 -2l-18 -2h-15q-10 0 -18 2h-12q-2 2 -8 2l-33 -2l-33 2h-18q-11 0 -15 2l-14 2h-2q-10 0 -16.5 -8t-6.5 -20v-13v-24q0 -17 -2 -23l-2 -12l-1.5 -9t-0.5 -5l4 -39v-19q0 -14 2 -20l2 -13v-26v-4l-2 -25l2 -29q0 -8 -12 -20q-13 -16 -27 -16q-12 0 -26 2 q-16 4 -37 4h-10h-4q-4 0 -4 -2h-7q-2 0 -9.5 -1t-16.5 -1l-27 2l-24 -2h-2q-48 0 -48 39v22v2l-2 25v24l-2 25l4 43l-2 26l4 21v14v4l-2 15v2q0 8 2 16q3 9 3 17q0 20 -21 20q-1 0 -5.5 -1t-6.5 -1q-18 -2 -53 -2q-27 0 -43 4q-28 4 -33 4h-6l-29 -2h-4h-10h-23h-12 q-1 0 -3.5 -1t-4.5 -1h-13q-13 0 -22 14q-10 10 -10 23z" />
<glyph unicode="," horiz-adv-x="382" d="M29 63q0 16 4 53t4 50q0 16 2 55t2 53v27v4q0 55 72 55h4l16 -2h19h36h19q1 0 23.5 3.5t48.5 3.5q62 0 75 -23q6 -6 13 -33l2 -19q2 -20 2 -42v-31l-4 -76v-12q0 -71 -54 -195q-2 -4 -7.5 -19.5t-12.5 -27.5q-20 -34 -41 -55q-8 -14 -64 -14q-2 0 -19 1t-22 1h-26h-35 q-10 0 -19.5 8t-9.5 22t17 33l35 49q14 28 14 48q0 8 -2 14q-5 12 -21 12l-18 4q-53 0 -53 53z" />
<glyph unicode="-" horiz-adv-x="454" d="M23 442q0 15 2 33v37v16v47v13v10q4 36 4 37q0 2 4 14q9 25 33 25h4l26 -2h6h33h68h22q14 -2 29 -2h2q6 -2 18 -2h29h10l17 2q31 2 39 2q36 0 49.5 -13t13.5 -47v-24q-2 -14 -2 -74v-12v-10q0 -55 -3.5 -73t-16.5 -28q-15 -10 -50 -10h-14h-24h-5l-6 2h-26h-13l-22 -2h-2 h-8l-6 1q-6 1 -11 1q-12 2 -22 2q-21 0 -41 -2q-29 -3 -47 2h-2h-5q-6 0 -14 -2q-5 0 -10 -1l-4 -1h-6q-26 0 -37.5 14t-11.5 47z" />
<glyph unicode="." horiz-adv-x="382" d="M29 291q0 57 47 57q23 0 59.5 -2t57.5 -2q20 0 53.5 2t53.5 2t26 -4l16 -16q8 -8 8 -29t-1 -56t-1 -55t1 -54.5t1 -55.5q0 -63 -24 -77q-9 -5 -21 -5q-6 0 -16.5 1t-16.5 1h-112q-14 0 -39 -1t-41 -1q-22 0 -35.5 10.5t-13.5 42.5q0 15 1 41t1 43v109q0 9 -2 25t-2 24z " />
<glyph unicode="/" horiz-adv-x="681" d="M-2 29q0 24 14 59q2 8 265.5 689.5t267.5 688.5q0 1 2 4t3.5 5t4.5 5t5.5 5t6.5 4t8 2q2 2 7 2q11 0 47.5 -15.5t46.5 -25.5q13 -13 10 -35q0 -7 -65 -180q-11 -30 -50.5 -134t-64.5 -169l-291 -758q-11 -27 -26 -69t-25 -71t-12 -32l-5 -10q-1 -1 -7 -13t-14.5 -18 t-23.5 -6q-7 0 -41.5 12.5t-40.5 18.5l-12 10q-10 7 -10 31z" />
<glyph unicode="0" d="M55 711q0 28 1 81.5t1 79.5v46v50.5t1 50t3.5 54t7.5 51.5t11.5 54.5t17 50t24 51.5t31.5 46.5t40 45.5q86 86 210 96q12 2 33 2q212 0 312 -139q50 -67 70 -192.5t20 -317.5q0 -57 -4.5 -234.5t-8.5 -213.5q-12 -82 -28 -129q-35 -92 -113 -160q-46 -39 -108 -62 t-92.5 -26.5t-53.5 -3.5q-78 0 -142.5 26t-101.5 62q-23 23 -59 92q-28 55 -42.5 118t-17.5 103t-6 119q-8 140 -6 199zM381 479q0 -29 0.5 -42t2 -37t5.5 -35.5t11 -25t18.5 -19t27.5 -5.5q29 0 46.5 21.5t17.5 62.5q0 10 -1 28t-1 28v137q0 50 -2 136t-2 136q0 24 2 64 t2 63v15v22t-1 24t-3.5 26t-7.5 23t-12.5 20.5t-18.5 12t-25 3.5q-57 -4 -57 -95v-73q0 -12 -1 -32.5t-1 -33.5t1 -34t1 -33q0 -29 -1 -77t-1 -75v-205z" />
<glyph unicode="1" d="M86 1055q0 15 10.5 30.5t37 43.5t40.5 45q18 21 47.5 60t50.5 62q17 19 44.5 47t37.5 39q2 2 18.5 20.5t24.5 24.5q25 19 45 19q25 0 65.5 -3t63.5 -3q10 0 28 1t28 1q16 0 25.5 -2t20.5 -8t16 -21t5 -39q0 -46 -3 -125t-3 -125q0 -21 2 -54t2 -52q0 -27 -2 -70.5 t-2 -68.5q0 -21 1 -57t1 -58t-1 -60t-1 -61q0 -38 1 -102t1 -101q0 -25 -3 -69.5t-3 -71.5t3 -79t3 -79v-8v-21.5v-20t-0.5 -16.5t-1 -16.5t-2.5 -13.5t-4 -13.5t-5.5 -10.5t-8.5 -10.5t-11 -8.5q-4 -4 -43 -4q-24 0 -63.5 3t-61.5 3q-15 0 -38 -1t-37 -1h-4q-56 0 -56 70 q0 28 8 106v94q0 77 3.5 207t3.5 207v209q0 25 2 68t2 69q0 8 -6 8q-7 0 -11 -3t-8.5 -10.5t-7.5 -10.5q-18 -19 -38.5 -48t-34 -44.5t-25.5 -16.5q-10 -1 -21 5t-18.5 13.5t-19.5 20.5t-19 19q-4 3 -18.5 15t-27 22.5t-18.5 17.5q-14 21 -14 37z" />
<glyph unicode="2" d="M68 229q0 19 6.5 33.5t15 23t35 33t47.5 46.5q19 21 68.5 81t60.5 76q10 16 24.5 41.5t18.5 32.5q10 18 34.5 58.5t40.5 67t33.5 61.5t26.5 61q21 65 21 194v9q0 102 -64 102q-76 0 -76 -162q0 -13 2.5 -33t2.5 -32q0 -24 -15 -39q-18 -15 -28.5 -18t-37.5 -3h-10h-108 q-56 0 -67 18t-11 88v13q0 97 12.5 181.5t30.5 119.5q40 83 121 127q86 47 205 47q41 0 78 -8t53.5 -15.5t46.5 -21.5q39 -20 55 -31q64 -48 99.5 -141t35.5 -221q0 -75 -6 -129l-8 -33q-2 -6 -2 -16t-2 -15q-8 -31 -21.5 -64t-23.5 -52.5t-24.5 -45.5t-16.5 -30 q-6 -11 -15.5 -31.5t-15.5 -32.5q-12 -22 -25.5 -44t-28.5 -42.5t-26 -35.5t-27 -33.5t-23 -27t-21.5 -24.5t-16.5 -18q-4 -4 -10 -8t-8.5 -6.5t-1.5 -5.5q0 -9 26 -9q6 0 15.5 1t15.5 1q18 0 46 -2t44 -2q19 0 51 3t50 3q38 0 54 -13t17 -50q1 -21 -2.5 -55t-3.5 -51 q0 -11 1 -31t1 -33q0 -18 -1.5 -30t-6.5 -27t-18 -23t-33 -8q-13 0 -33.5 2.5t-26.5 3.5q-43 2 -116 2q-26 0 -72 -2t-74 -2q-32 0 -99 2.5t-110 1.5q-19 0 -52 -2t-52 -2t-30.5 7.5t-16 22.5t-5.5 25t-1 27v6q0 9 1 27t1 26q0 17 -2 43t-2 43z" />
<glyph unicode="3" d="M47 176q0 12 12 32.5t37.5 56.5t40.5 61q1 1 10 16.5t18 30t13 18.5q10 8 43 8q20 0 29 -6t19 -20.5t24 -24.5q35 -31 82 -31q40 0 66.5 14t38.5 40t16 50.5t4 59.5q0 60 -27.5 103t-89.5 43q-15 0 -38 -4.5t-38 -4.5q-20 0 -38.5 14.5t-18.5 47.5q0 12 1 34t1 34 q0 20 -3 55t-3 55q0 64 57 72q10 0 27.5 -4t27.5 -4q57 0 97.5 37t40.5 94q0 44 -32 75t-77 31q-47 0 -86 -33q-6 -5 -21 -29t-34 -24q-12 0 -21.5 5.5t-14.5 11.5t-19.5 25t-24.5 32q-12 15 -29 35.5t-27 33t-12 15.5q-8 11 -8 31q0 13 2.5 22.5t4.5 13.5t10.5 13.5 t11.5 13.5q39 48 125 92.5t178 44.5h4q37 0 82 -6q86 -10 146.5 -44.5t111.5 -121.5q21 -34 35 -76q3 -10 7.5 -53t4.5 -80q0 -141 -92 -231q-15 -15 -45 -35q5 -4 25.5 -20.5t32.5 -27.5t30.5 -33.5t32.5 -49.5q14 -30 30.5 -90.5t16.5 -116.5q0 -65 -1 -87.5t-9.5 -58.5 t-28.5 -87q-15 -44 -39 -80q-12 -17 -41 -51q-51 -54 -74 -68q-84 -55 -239 -55q-51 0 -80 3.5t-86.5 26.5t-128.5 70q-42 25 -58 47q-12 12 -12 39z" />
<glyph unicode="4" d="M47 369q0 11 1 31t1 32q0 142 8 160q2 9 12 22t13 19q2 4 22 43q21 44 48 115t38 96l56 121q3 6 14 32t19 43q7 16 19 41.5t17 36.5q21 52 50 105q7 17 20.5 40.5t17.5 30.5q26 50 33 60l6 12q2 2 5 8.5t4 7.5l10 11q15 10 39 10q21 0 58 -3t60 -3q14 0 39 2t39 2 q43 0 43 -60q0 -39 -2 -104t-2 -104v-21q0 -31 -1 -83t-1 -83q0 -25 2 -74t2 -73q0 -30 -2 -82t-2 -82q0 -56 4 -62q4 -10 21 -10q10 0 26 1t25 1q37 0 37 -39q0 -27 -1 -74.5t-1 -76.5q0 -12 1 -31t1 -31q0 -49 -45 -49q-8 0 -21.5 2t-21.5 2q-19 0 -23 -12q-4 -4 -4 -68 q0 -30 4 -79.5t4 -77.5q0 -74 -53 -74q-18 0 -46 3t-44 3q-26 0 -70 -2t-71 -2q-22 0 -32.5 17t-10.5 40q0 13 3 37t3 39v103v7q0 29 -1.5 40.5t-10 19.5t-27.5 8q-121 0 -191 -2q-16 0 -45 -2t-45 -2q-51 0 -51 62zM283 623q0 -8 7.5 -14.5t18.5 -6.5h41q58 0 70 9 q10 7 10 22q0 10 -1 27.5t-1 27.5q0 18 3 51t3 52q0 27 -2 73t-2 72q0 3 1 8.5t1 9.5l-4 11q-4 6 -10 -2q-5 -7 -27 -72q-35 -97 -67 -166q-4 -10 -14.5 -31t-14.5 -35q-12 -24 -12 -36z" />
<glyph unicode="5" d="M51 184q0 18 7.5 34.5t19.5 32.5t14 19q4 7 18 28t21 34t16 30t14.5 26.5t10.5 14.5q9 13 31 17q13 0 33 -10q10 -8 25 -28t24 -28q39 -35 92 -37q59 -2 95 41t36 129q0 3 0.5 30t0 38t-3 36.5t-7.5 40.5t-15 33.5t-24 32.5q-43 37 -103 37q-16 0 -29 -2.5t-19.5 -4.5 t-18.5 -7.5t-17 -7.5q-33 -29 -49 -31q-12 -1 -37.5 14t-38.5 27q-4 4 -4 14q0 31 4.5 83.5t4.5 84.5q0 29 -1 80t-1 80v176q0 22 -3.5 61.5t-3.5 63.5q0 21 4.5 34.5t9 19t19.5 22.5q14 14 27 14h4q19 0 50 -3t50 -3q24 0 66.5 2t68.5 2q39 0 104.5 -2t104.5 -2q15 0 42 3 t42 3q21 0 36 -15t15 -36v-19q0 -28 2.5 -77t2.5 -78q0 -66 -64 -66q-10 0 -27.5 2t-27.5 2q-12 0 -31 -1t-31 -1q-23 0 -63.5 3.5t-65.5 3.5q-22 0 -35.5 -6t-19 -19t-7 -24.5t-1.5 -30.5q0 -50 12 -72q2 -4 19 -4q10 0 26.5 1t26.5 1q88 0 138.5 -24t96.5 -78 q27 -33 39 -55.5t25 -63.5q39 -114 41 -289q4 -232 -121 -377q-51 -60 -119 -96q-84 -43 -188 -43q-165 0 -297 102q-2 2 -10 8t-10.5 8t-9 7t-9 7.5t-7.5 8t-7 9t-5 8.5t-4.5 9.5t-2.5 10.5t-1 12z" />
<glyph unicode="6" d="M61 625q0 137 16 257t36 185q50 163 131 236l18 16q20 21 34.5 32t53.5 35q36 22 63.5 34t77 22.5t109.5 9.5q40 0 55 -0.5t43 -2.5t38.5 -8t24.5 -16.5t18.5 -27.5t4.5 -41q0 -22 -1 -60t-1 -61q0 -9 1 -25.5t1 -25.5q0 -29 -12 -43l-12 -6q-6 -11 -25 -11q-6 0 -12 2 t-13 5t-12 4q-46 12 -69 12q-82 0 -126.5 -29t-76.5 -86q-31 -58 -31 -102v-4q0 -17 2 -25q33 29 80 44.5t86 15.5q56 0 116 -37t101 -99q34 -53 44 -119t10 -198q0 -177 -21 -252q-10 -36 -24.5 -69t-42.5 -71.5t-64 -66t-91.5 -46.5t-121.5 -19q-82 0 -148.5 22.5 t-107.5 55.5t-71 82t-44 91.5t-22 94.5t-9 79.5t-1 58.5v15q-5 132 -5 142zM393 415.5q0 -12.5 1.5 -41.5t6 -41.5t11.5 -29t19 -23.5t28 -8q71 -5 71 144q0 7 -1 20.5t-1 20.5v10q0 2 0.5 20.5t0.5 33t-1.5 37t-6 39t-12 32.5t-20.5 24.5t-30 8.5q-24 0 -38.5 -12.5 t-20 -43.5t-6.5 -51t-1 -66v-26v-47.5z" />
<glyph unicode="7" d="M86 1194q0 23 5 60.5t5 58.5q0 14 -2 35.5t-2 33.5q0 30 16 48t33 18q6 0 17.5 -2t17.5 -2q50 -4 70 -4q13 0 40 2t42 2q24 0 98 -4q16 0 44 1t46 1q12 0 34 -1t34 -1q67 0 108 2q12 0 30 2t30 2q55 0 55 -51q0 -9 -1 -24.5t-1 -24.5v-31q0 -24 -2.5 -37.5t-6 -21 t-13 -28.5t-19.5 -50q-11 -31 -19 -61t-16 -67t-14 -61q-5 -22 -16.5 -59t-16.5 -58q-7 -31 -19 -87t-20 -89q-5 -18 -17 -59.5t-18 -67.5q-8 -34 -16.5 -90t-13.5 -80q-4 -24 -16 -79t-17.5 -93.5t-5.5 -79.5q0 -12 2 -33.5t2 -35.5q0 -56 -31 -72q-16 -8 -39 -8 q-21 0 -56 2t-55 2q-22 0 -58 -1t-58 -1q-45 0 -61.5 24t-16.5 52q0 18 7.5 63t8.5 49q21 132 57.5 266t120.5 377q13 36 42.5 114.5t43 119t13.5 55.5q0 25 -23 25q-12 0 -32.5 -2t-34.5 -2h-49q-10 0 -29 -1t-29 -1q-16 0 -45 2t-47 2h-29q-57 0 -57 51z" />
<glyph unicode="8" d="M39 397q0 75 10 120t31 95q1 1 5 11.5t10 25t11 25.5q32 56 107 131q-74 53 -105.5 129.5t-31.5 155.5q0 40 8 83t34 97.5t66 96t111.5 70.5t163.5 29q170 0 264 -94q1 -1 25 -31q54 -63 69 -129q8 -31 8 -100q0 -63 -9 -111t-31.5 -89t-39 -63t-53.5 -65l41 -41 q119 -122 119 -329q0 -159 -68 -256q-26 -38 -69 -72q-55 -47 -113 -70q-66 -26 -151 -26t-153.5 23t-109.5 55q-50 38 -90 108q-40 69 -49 129q-10 41 -10 92zM360 430q3 -119 89 -119q21 0 40 17q24 20 32.5 45t8.5 73q0 118 -90 181l-22 -29q-58 -82 -58 -168zM369 1110 q0 -87 90 -145q24 24 28 30q45 51 45 115q0 40 -21 70t-62 30q-38 0 -59 -32t-21 -68z" />
<glyph unicode="9" d="M61 946q0 144 16.5 222t63.5 149q99 143 281 143q95 0 153 -20q48 -17 86.5 -45t63.5 -57t43.5 -71t28.5 -73.5t17 -79t9 -72.5t4 -69q1 -17 4 -62.5t3 -74.5q0 -35 -0.5 -63.5t-2 -54t-2 -41t-3.5 -38.5t-4 -32.5t-5 -36.5t-6 -38l-3 -23q-2 -23 -6 -47t-9 -46 q-46 -179 -160 -293q-135 -131 -336 -131q-44 0 -66 1t-49.5 6t-40 15.5t-21.5 29.5t-9 48q0 22 1 61.5t1 63.5q0 8 -1 24t-1 25q0 27 15.5 40t33.5 13q8 0 26.5 -6.5t24.5 -7.5q28 -8 59 -8q75 0 123 31q49 32 78 89.5t29 106.5q0 3 -1 9.5t-1 9.5l-17 -13q-30 -23 -73 -36 t-78 -13q-61 0 -129 47q-23 16 -42 35t-32.5 37.5t-24 39.5t-17.5 39.5t-11.5 39t-7 35.5t-3.5 32t-1 26v20l1 10q-2 39 -2 104zM362 975q0 -41 2.5 -71t10 -61t23.5 -46.5t40 -14.5q13 1 24 7t17.5 14t11.5 21.5t7 24t3 26.5t1 24v21.5v15.5q0 164 -10 184q-6 13 -9.5 20 t-17.5 18t-33 11q-18 0 -29 -8q-13 -7 -24 -28q-17 -43 -17 -158z" />
<glyph unicode=":" horiz-adv-x="425" d="M53 33q-2 13 0 34t2 27q0 20 1 61t1 62t-4 57q-3 39 6 54q9 18 28.5 20t35.5 -2q16 -2 47 -2q67 0 102 2q7 0 23 1t24 1q29 3 43 -16q1 -1 3.5 -4.5t4.5 -8t3 -8.5v-61q0 -12 -2.5 -75t0.5 -75q3 -78 -17 -94q-7 -5 -16 -7t-15 -2t-17 0.5t-15 0.5h-49h-105q-6 0 -20 -1 t-21.5 -0.5t-17 3.5t-15.5 10q-8 10 -10 23zM53 729q0 16 2 49t2 51q0 72 -2 109q-5 52 15 72q6 6 15 8.5t15 2.5t17.5 -0.5t15.5 -0.5h76q43 0 63 2h41q27 0 41 -8q10 -7 15 -17t5.5 -16.5t-0.5 -21.5t-1 -21v-94q0 -66 2 -99q4 -46 -17 -65q-11 -8 -51 -8h-190 q-42 0 -56 18q-5 5 -6 10.5t-1 14.5t-1 14z" />
<glyph unicode=";" horiz-adv-x="425" d="M51 55q0 21 3 64t3 65q0 10 -1 32t-1 32q-2 12 -2 39q0 69 66 69q13 0 38 -2t38 -2q17 0 51 3t53 3q24 0 39 -6q39 -16 39 -71l-1 -34q0 -34 1 -34q2 -18 2 -57q0 -7 -1 -22.5t-1 -22.5q0 -66 -4 -91q-11 -55 -45 -116q-11 -19 -21 -31.5t-16.5 -19.5t-18.5 -10t-17 -3.5 t-21 0t-23 0.5q-53 0 -82 -2q-7 0 -13.5 -0.5t-9.5 -1t-6.5 0t-7.5 1.5q-20 7 -20 25q0 21 16 33q25 17 31 24q12 14 12 35q0 15 -8 25q-8 12 -30 20.5t-30 17.5q-12 14 -12 37zM53 729q0 7 2 23t2 24q2 12 2 41q0 61 -2 92q-4 36 -4 56q0 43 35 53q8 2 21.5 2t37 -1 t39.5 -1q17 0 36 1t42.5 2.5t36.5 2.5q43 0 59 -16q21 -18 19 -56q-4 -58 -4 -88q0 -32 4 -114q4 -62 -35 -76q-13 -4 -25 -4t-33.5 2t-41.5 2q-22 0 -64 -3t-63 -3q-36 0 -50 18.5t-14 42.5z" />
<glyph unicode="&#x3c;" horiz-adv-x="978" d="M100 565q-2 13 2 37q4 28 2 33l-4 22l2 23l-2 18v4q0 14 6.5 28.5t14.5 19.5l29 10l22 10l18 8l31 15l37 18l41 18l27 15l16 8l12 4l23 16q4 4 18 7q11 3 11 4q4 0 22 12l14 8l23 12l14 7l21 12l45 20l22 15l29 12q8 2 20 10l21 13l22 14l35 16l23 15l16 12l27 8l18 10 q8 4 15 4q13 0 16.5 -9t5.5 -44v-26v-48l2 -14l-2 -41l2 -18l-2 -39q0 -15 -2 -23q-3 -15 -39 -33l-26 -12l-86 -43l-35 -14l-13 -4l-49 -25l-22 -8l-47 -20q-5 -2 -11 -6t-10 -5l-24 -10l-21 -12l-8 -2q-9 -1 -16 -7.5t-7 -11.5q0 -19 58 -35q2 0 6 -2l24 -10l56 -24 l53 -25l14 -6l62 -27q65 -33 90 -43q51 -17 51 -45l2 -26v-17l-2 -43l6 -31l-2 -22l-2 -19l-2 -38l2 -37q0 -25 -27 -25q-18 0 -63 25l-6 4l-8 4l-17 8l-32 19l-31 16l-17 6q-14 5 -77 39l-19 12q-11 3 -14 6q-16 13 -19 13l-14 2l-18 14l-25 10l-14 8l-17 3l-30 16l-27 14 l-12 6l-23 11l-22 12l-19 4l-63 33l-23 4l-6 4q-5 3 -10 8l-19 6q-3 1 -6.5 2t-5 1.5t-2.5 0.5q0 3 -12 15q-2 3 -5 6.5t-4.5 5t-1.5 2.5q0 13 -2 33z" />
<glyph unicode="=" horiz-adv-x="978" d="M63 375l3 6v4l2 8l-2 15v8l2 6l2 10v8v25v8v6l6 10l2 7q3 9 16 15.5t27 6.5h12q15 0 21 2l18 2h12q13 0 21 -2q14 -2 18 -2h4l31 2l35 -2h16h17h18h6l6 2l56 2h6h26l17 -2h31h4h4q4 0 6 2h26l27 -2l25 2l18 -2l19 2h4h18h8l8 2h37q25 0 43 -4q6 -1 13 -2l10.5 -1.5 t7.5 -0.5t8 2h29h2h12h23h12q1 0 3.5 1t4.5 1h10q15 0 25 -12q8 -11 8 -25v-22l-2 -8v-15v-30l-2 -25v-6l2 -17l2 -14v-4v-2l-2 -21v-6v-20q0 -29 -41 -29h-2l-6 2l-8 -2l-10 2l-19 -2l-22 2l-21 -2q-6 0 -12 2q-4 0 -12 1t-9 1h-10l-24 -2h-4h-5h-6q-8 0 -14 2h-18h-13 q-3 0 -7 -0.5t-7 -0.5t-6 1q-6 0 -6 -2l-7 -2h-20q-2 2 -6 2q-1 0 -3 -1t-3 -1q-7 0 -11 -2q-4 2 -10 2h-8q-5 0 -9 1t-5 1t-5 -1t-8 -1l-41 -2l-4 2h-4h-33l-4 2h-4h-10h-18q-4 2 -15 2h-30l-46 -2h-16l-14 -2h-21h-30l-17 2h-31q-20 0 -30 -2q-14 -2 -27 -2l-18 2h-9h-2 q-10 0 -12 2q-2 0 -6 4l-10 9v8l-6 10q-4 4 -4 10v10v15v6v6v4v6v13zM63 719q0 1 1.5 7.5t1.5 12.5l2 11v14v29l2 24v8l-2 15l-2 14v4v2l2 21v8q0 5 -1 11t-1 7q0 15 12.5 24t32.5 9h6l8 -2l10 -4l19 2l20 -2l23 2h12l12 -2q2 0 4.5 -1t3.5 -1t5 1t6 1l24 2h4l4 -2h7h14 q8 -2 18 -2h13q8 2 18 2h8l6 2h21h6h6q6 2 10 2q5 0 11 -2h24h8l41 2h6l5 -2h32h4h5h10l18 -2h15q16 -2 30 -2l43 4h17l16 2h21q12 -2 28 -2h2h17q1 0 11 -1t17 -1q9 0 19.5 1t13.5 1q24 3 27 2l18 -2h8q17 0 27 -16l4 -7l6 -10q2 -2 2 -10l2 -10l2 -15v-6v-4v-4v-8v-10v-9 l-2 -6v-6l-2 -8l2 -12l-2 -9v-8l-2 -8v-10v-25v-6v-8l-2 -12q0 -11 -12 -19t-29 -8h-6h-18h-17l-18 -2q-2 0 -7 -1t-8 -1q-1 0 -6.5 1t-11.5 1q-12 2 -20 2h-3l-32 -2l-33 2h-18l-15 2l-18 -2h-6l-7 -2h-55l-8 -2h-25l-16 2q-12 2 -31 2q-1 0 -2 -1t-2 -1h-6h-4 q-6 -2 -29 -2l-24 2l-25 -2l-18 2l-19 -2l-6 2h-16q-2 -2 -8 -2h-11q-12 -2 -30 -2h-19q-13 0 -29 4q-14 4 -30 4h-8l-29 -2h-4h-10h-23h-12q-4 0 -8 -2h-11q-13 0 -24 14q-11 15 -11 25z" />
<glyph unicode="&#x3e;" horiz-adv-x="978" d="M160 940l4 23v18l2 39v39q0 22 24 22q20 0 64 -24l6 -4l8 -4l19 -9l32 -18q19 -12 29 -14l19 -9q17 -6 75 -38q2 -1 21 -11l12 -8l19 -12l14 -2l18 -15l25 -8l14 -10l17 -2l30 -16l27 -15l12 -6l23 -10l24 -12l17 -5l65 -32l21 -4q1 0 3 -1.5t6.5 -4.5t8.5 -5q3 -4 17 -8 l14 -4q2 0 12 -14q10 -10 10 -15q2 -12 2 -32l5 -60q2 -13 -2 -37q-4 -30 -3 -32l5 -21l-2 -24l2 -19v-4q0 -13 -6.5 -27.5t-14.5 -17.5l-29 -12l-20 -11l-21 -6l-30 -16l-37 -19l-41 -18l-27 -14l-16 -6l-12 -7l-21 -16q-2 0 -8.5 -2.5t-11.5 -3.5q-2 -1 -6 -2t-5 -2 q-2 0 -22 -10l-14 -11l-23 -12l-14 -6l-21 -12l-43 -19l-24 -16q-11 -6 -29 -10l-21 -11l-20 -14l-23 -14l-34 -17q-8 -3 -23 -14q-13 -10 -16 -10l-25 -9l-18 -12q-8 -4 -17 -4q-12 0 -16 10.5t-6 42.5v27v49l-2 14l2 39v21v37q2 14 2 24q3 13 39 31l26 12l86 43l35 15 l13 6l51 24l20 6q20 8 47 23q6 3 21 8l24 10l21 13l8 2q9 2 17 8t8 12q0 16 -60 33q-1 0 -3 1t-3 1l-24 12l-56 23l-53 27l-14 4q-29 11 -62 28q-55 27 -90 41q-51 20 -51 45v27l-2 16l2 45z" />
<glyph unicode="?" horiz-adv-x="598" d="M61 1149.5q0 7.5 1 24t1 30.5v125q0 4 -0.5 18.5t-0.5 21.5t3.5 19.5t10.5 20t21 15.5t34 12q98 14 145 14q102 -2 173 -41q24 -15 45 -33q41 -41 55 -94q8 -27 8 -78v-43q4 -41 2 -65q-8 -101 -88 -265q-23 -46 -32.5 -68.5t-20 -77.5t-10.5 -126q0 -14 1 -37.5 t0.5 -35.5t-2 -26.5t-6.5 -23t-14 -12.5q-8 -4 -18.5 -4.5t-30.5 1t-33 1.5q-11 0 -32 -0.5t-31.5 -0.5t-24 1.5t-22 5t-13.5 10.5q-7 7 -14 49q-10 80 -10 115q0 101 37 248q5 19 13 48t12 44t8 33.5t6 32t2 24.5q0 46 -21.5 66t-50.5 20q-11 0 -29 -6q-24 -12 -35 -12 q-16 0 -28 14q-6 9 -8.5 18.5t-2.5 17zM130 59q0 7 1.5 21.5t1.5 23.5q0 19 1 58.5t1 60.5q0 17 -1.5 41.5t-1 38t4.5 23.5q9 20 39 24q15 0 31 -2q10 -2 33 -2h73q9 0 28.5 -1t29.5 -1h35q53 0 53 -57q0 -11 -1 -34t-1 -34q-2 -31 -2 -92q-1 -16 -1.5 -39.5t-1 -38 t-1.5 -18.5q-9 -28 -43 -33h-84h-74q-12 0 -30.5 -0.5t-28 -1t-21 1t-19 5.5t-12.5 11q-4 6 -6 12.5t-2.5 16t-0.5 16.5z" />
<glyph unicode="@" horiz-adv-x="1382" d="M59 754q0 37 4 45l7 28v41l6 35l8 43l12 33l13 49q3 14 16 27l10 16l17 39l24 37q15 15 25 41l14 29l33 34l-2 -4l24 37l23 12l18 23l33 27l27 22l37 14l8 7q0 -2 2 0q30 27 47 30l-2 -2l37 15h-4l20 6q8 8 25 8q8 0 41 10h-2q35 14 82 14h34l29 3h16q95 0 127 -11 l41 -12l17 -4l57 -19l33 -14l33 -20l16 -11l25 -18l40 -33l33 -37l15 -10l20 -27l27 -32l32 -51l17 -35l14 -47l4 -23l-2 2l21 -47l2 -35q3 -8 10 -45l6 -24l4 -39l2 -33v-31v-26q0 -15 2.5 -40.5t0 -46t-12.5 -55.5l-14 -57l-4 -19l-21 -59q-21 -43 -43 -65l2 4 q-13 -20 -27.5 -35t-21.5 -20.5t-27 -18.5h2q-53 -35 -165 -39q-47 -1 -91.5 23t-64.5 61l-6 10q0 -1 -1 -3t-1 -3l-6 -10l-13 -12l-30 -25l-23 -16h2q-26 -16 -59 -21l-27 -8l-29 -2q-27 0 -106 24l-53 29l-29 21l-20 28l-17 23l-16 30v-2q-20 23 -29 68v-2l-8 18l-14 50 l4 -9q-1 4 -1 21.5t-1 28.5q-2 14 -2 45v24l2 41l8 25q0 22 6 43l14 32q2 3 2 5q2 9 7.5 20t15.5 28t14 23l-2 -4l12 21l11 14l-2 -4q29 36 41 45l14 8l18 16q22 16 64.5 31t75.5 15q63 0 122 -25q25 -13 31 -14l37 -27v-2l10 18q7 21 23 27q8 4 24 4h27q15 0 23 -4h4l16 -4 v-2q26 -6 35.5 -19.5t9.5 -48.5l-6 -45l-10 -53l-4 -21l-7 -43q0 -12 -4 -34.5t-4 -26.5l-4 -22l-4 -35l-4 -62q-2 -14 -2 -45q0 -46 12 -67q1 -3 13 -17l6 -8q17 -10 24 -10q42 0 56 14q12 12 22 36.5t13.5 38t11.5 48.5v-2q0 3 2 8t2 6q12 58 12 142l-4 20l-8 70l-4 26 l-9 33l2 -4l-22 57l-8 33l-15 29l2 -2l-22 35l-6 26v-2q-29 38 -41 49l-41 45l4 -4l-29 17h2l-20 12l-70 27l2 -2l-24 2l-27 14q-7 0 -25.5 1t-21.5 1l-29 6q-6 0 -15.5 -1t-14.5 -1l-47 -6l-19 -8l-61 -21q-46 -14 -74 -33l-19 -10h-2q-5 -4 -10 -8.5t-9 -9.5t-5 -6 l-29 -25l-24 -33v2q-7 -6 -15 -20l-55 -84q-35 -53 -57.5 -125.5t-22.5 -144.5q2 -5 2 -9l2 -45l-2 -47l2 -22l4 -17l17 -59q15 -63 32 -105l-2 3q11 -27 31 -60.5t35 -48.5l53 -61l39 -37l25 -27q5 -4 41 -16q33 -20 79.5 -33.5t67.5 -13.5h21l51 -2l39 4l26 4l58 12l-2 -2 l36 14v2l25 6l37 13l16 12l41 21l-2 -3l8 7l35 24q21 21 51 21h8h7t6 -0.5t6.5 -1l6 -2t6 -3.5t5 -5t6 -7.5t5.5 -9.5t6 -12l12 -31l4 -14l-4 14q19 -30 19 -55q0 -36 -33 -62l-31 -18l-31 -23l-26 -16l-31 -14l-33 -9l-33 -10q-6 -1 -17 -5t-15 -5l-23 -6l-41 -13h-18 q-3 0 -9.5 -1t-9.5 -1h-24l-27 -6l-41 2l-26 -2h-29h-33h-24l-27 2l-31 4l-37 13h-30l-33 10l-12 4l-41 21l-43 26l-41 25q-29 18 -33 22l-27 15l-33 41h3l-25 22l-27 21l-24 34l-15 25q-24 30 -32 51l-15 51l-30 74q-13 28 -25 96l-4 25q-10 29 -10 45v22l-6 33v39l-5 33v8 q0 3 -1 11t-1 12zM553 688q0 -77 34.5 -131.5t86.5 -54.5q23 0 49.5 11t32.5 24l18 24l10 19q4 6 17 65l2 6q0 2 1 8t1 7l2 8q0 2 1 7.5t1 8.5v37v61q0 48 -18 80q-16 20 -23 27l-16 16q-1 1 -3 1t-6 0.5t-8 2.5q-1 0 -4 1.5t-4 1.5l-14 4l-29 4q-3 3 -29 -4l-16 -7 q-2 -2 -13 -9.5t-14 -12.5q-4 -2 -4.5 -2.5t-1.5 -3t-4 -6.5l-20 -47v6l-11 -25l-2 -2l-2 -20l-10 -31l-2 -12l-2 -25v-37z" />
<glyph unicode="A" horiz-adv-x="854" d="M-4 43q0 24 9 73.5t22.5 108.5t15.5 72q13 66 27.5 172t19.5 135q4 30 10 59t14 64.5t13 60.5q15 81 41 203q39 172 53 240q4 23 13 72.5t14 78.5t6 31q1 1 4 7.5t5.5 9.5t7.5 8t11.5 7.5t14.5 2.5q25 0 68 -2t67 -2t65 1t66 1q24 0 33.5 -2t19.5 -12q9 -10 15 -41.5 t12 -84.5t12 -83q2 -15 8.5 -38t8.5 -32l14 -94q7 -35 20.5 -92.5t20.5 -92.5q32 -170 64 -413q11 -88 24 -176q7 -43 18.5 -97t18 -87.5t6.5 -51.5q0 -24 -16 -36.5t-39 -12.5q-17 0 -47 2t-49 2q-21 0 -56 -4t-55 -4h-4q-39 0 -55.5 13.5t-16.5 51.5v11q0 17 -4 67 q0 109 -74 109h-5h-3q-9 0 -29.5 -5t-27.5 -10l-15 -18q-10 -13 -13.5 -39.5t-3.5 -57t-1 -38.5v-4q1 -5 1 -9.5t-1 -11.5t-3 -13.5t-6.5 -14t-10.5 -13.5q-14 -14 -54 -14q-16 0 -44 3t-44 3h-4q-22 0 -58 -3t-57 -3h-16q-51 0 -51 43zM375 594q0 -33 55 -33h4q51 0 51 41 q0 6 -17 134t-19 136q-1 1 -1.5 14.5t-1.5 14.5q-2 2 -3.5 6t-3 6.5t-4 4.5t-5.5 2l-4 -7q-33 -194 -33 -196q-18 -106 -18 -123z" />
<glyph unicode="B" horiz-adv-x="854" d="M47 1010q0 33 3 88t3 88q0 22 -2 65t-2 64v14q0 35 2 51.5t11 34.5t29.5 24.5t55.5 6.5q23 0 60.5 -3t58.5 -3q39 0 104.5 3t104.5 3q98 0 166 -26t106 -77.5t54 -118t16 -157.5q0 -62 -18 -122t-37 -89q-26 -38 -57 -57q83 -70 110 -151.5t27 -239.5q0 -52 -9 -104.5 t-31 -112t-68 -106t-111 -67.5q-40 -13 -164 -16q-24 0 -66.5 -1t-68.5 -1q-16 0 -45.5 2t-47.5 2q-17 0 -46 -2t-46 -2q-60 0 -74 19.5t-14 80.5q0 24 1 63t1 62q0 37 -2 100.5t-2 100.5q0 20 1 55t1 56q0 48 2 131t2 131q0 44 -3.5 112.5t-4.5 98.5zM366.5 373.5 q0.5 -5.5 2 -19.5t5.5 -20.5t10.5 -15t17 -11.5t24.5 -2q25 0 45 17q22 18 29.5 43t7.5 71v64q0 75 -45 104q-14 14 -43 14q-22 -4 -33 -12q-20 -16 -20 -57v-139q0 -1 -0.5 -16t0 -20.5zM367 991q0 -51 5 -59q8 -12 40 -12q31 0 47 16q41 33 41 106q0 55 -27 88t-61 33 q-30 0 -37.5 -19t-7.5 -65q0 -8 1 -24t1 -23v-6q0 -6 -1 -17.5t-1 -17.5z" />
<glyph unicode="C" horiz-adv-x="681" d="M43 723q0 318 41 442q26 74 68 131q19 29 36.5 48t24.5 25t31 24q47 33 96 50t125 17q47 0 76 -2t62 -9t49 -24.5t16 -44.5q0 -10 -1 -27.5t-1 -27.5q0 -25 3 -68.5t3 -70.5q0 -36 -16.5 -54t-41.5 -18q-18 0 -46 6t-46 6q-82 0 -123 -67q-12 -19 -19.5 -98t-9 -136.5 t-1.5 -99.5q0 -50 1 -83t3.5 -73t8.5 -66t15.5 -54t24.5 -44.5t35.5 -31t48.5 -21t63 -6.5q67 0 86 -18t19 -70q0 -14 -1 -39t-1 -39q0 -18 1 -49t1 -49v-6q0 -31 -22.5 -56.5t-69.5 -25.5q-257 0 -361 84q-12 9 -45 47q-44 50 -61 82q-10 19 -19 43q-24 61 -37 157.5 t-14.5 157.5t-1.5 158z" />
<glyph unicode="D" d="M51 530q0 26 2 76t2 76v24q0 39 -2 94.5t-2 93.5v24q1 37 4.5 124t3.5 142q0 28 -3 75t-3 74q0 64 18.5 87.5t82.5 23.5q15 0 42 -2t40 -2h34q20 0 52.5 -1t50.5 -1q24 0 62.5 1t60.5 1q78 0 139 -33t96 -78q11 -14 43 -80q22 -43 30 -62t18 -59.5t16 -97.5 q16 -180 16 -285q0 -67 -6 -149q-1 -19 -4 -48t-4 -46q-1 -4 -2 -27t-4 -53t-7 -53q-12 -72 -47 -154q-31 -73 -61 -104q-9 -10 -20.5 -20.5t-22.5 -18t-19.5 -13t-16.5 -9.5l-7 -5q-88 -47 -211 -47q-16 0 -44 1t-44 1q-34 0 -93 -2t-94 -2q-49 0 -71.5 29.5t-22.5 58.5 q0 26 3 68.5t3 66.5q0 59 -4 156.5t-4 154.5zM369 500q0 -135 10 -150q15 -22 35 -22q19 0 34 7.5t25 18.5t17.5 29.5t11.5 32.5t7 36.5t3.5 34t1 31t0.5 21.5q2 29 2 77v60q0 14 1 39t1 39q0 31 -8 129q-5 106 -6 112q-12 73 -23 90q-1 1 -4 7t-6.5 11.5t-10 12t-14.5 10.5 q-24 12 -45 2q-6 -3 -11 -7t-8.5 -7.5t-5.5 -10.5t-3 -11t-1.5 -13.5t-0.5 -14.5v-17.5v-18.5q0 -20 1 -56t1 -57q0 -19 -1 -49t-1 -47q0 -15 1 -39t1 -37v-100q0 -27 -2 -72t-2 -71z" />
<glyph unicode="E" horiz-adv-x="768" d="M49 1370q0 74 72 74q15 0 38 -2t38 -2h16q38 0 93 4q67 4 102 4q28 0 76 -2t77 -2q13 0 37 1t37 1q52 0 69 -23t17 -75v-127q0 -47 -17.5 -67.5t-66.5 -20.5q-8 0 -25 1t-26 1h-35q-8 0 -24.5 1t-24.5 1q-4 0 -33 -2t-33 -2h-28q-13 -4 -17 -7q-20 -17 -20 -55v-113 q1 -3 1 -7.5t1 -8t4 -6.5q17 -25 61 -25h27q30 0 82.5 2t83.5 2q16 0 29 -1.5t22 -6t15.5 -7.5t10.5 -12t6.5 -13t3.5 -17t1 -17.5v-21v-20.5v-107q0 -52 -20.5 -75t-71.5 -23q-23 0 -61 3t-60 3q-30 0 -62 -4t-36 -8q-27 -18 -27 -47q0 -11 2 -31t2 -33v-8q0 -9 -1 -26.5 t-1 -26.5q0 -18 1 -28.5t5.5 -25.5t17 -22.5t31.5 -7.5h31q15 0 38 -1t36 -1q11 0 30.5 1t32.5 1q40 0 62.5 -1t41 -7t26 -11.5t12.5 -23t5.5 -32t0.5 -48.5v-117q0 -47 -20 -71.5t-68 -24.5q-30 0 -83 1t-83 1h-88q-18 0 -50 2t-51 2q-34 0 -90 -3t-90 -3q-33 0 -53.5 22 t-20.5 56q0 46 2 125.5t2 126.5q-1 56 -5 160q-4 85 -3 145v26q0 21 1 55t1 54q0 30 -1 81t-1 79q0 31 1 83.5t1 82.5q0 51 -3 138.5t-3 139.5z" />
<glyph unicode="F" horiz-adv-x="681" d="M47 57q0 32 4 86.5t4 85.5q0 22 -3 61.5t-3 63.5v150q0 40 3 107.5t3 107.5q0 47 -4 141t-4 141q0 40 2 109t2 109q0 29 -1 77.5t-1 75.5q0 26 6.5 43t19.5 24t23 9t25 2q13 0 36 -1t36 -1q27 0 74.5 2t76.5 2h80q82 0 131 2q39 3 56 3q9 0 12 -1t7.5 -2t7 -2t8 -5 t11.5 -11q21 -21 21 -71v-13q0 -14 -2 -42t-2 -42q0 -7 1 -22.5t1 -22.5q0 -25 -6 -41t-13.5 -25t-29 -13t-36 -4.5t-50.5 -0.5h-19q-9 0 -24 1t-23 1q-10 0 -27 -1t-26 -1q-37 0 -46 -23t-9 -82v-7q0 -78 11.5 -96t70.5 -18q31 0 85 5.5t85 5.5q15 0 31 -12t16 -38 q0 -10 -1 -27.5t-1 -29.5q0 -15 2 -39t2 -39q0 -8 -1 -23t-1 -24q0 -6 1 -18.5t1 -18.5q0 -9 -2.5 -21t-16.5 -27t-37 -15h-36q-18 0 -47 1t-46 1q-25 0 -39 -2q-2 0 -13.5 0.5t-21.5 -3t-22 -14.5q-14 -11 -14 -38q0 -8 1 -22.5t1 -22.5t-1 -26.5t-1 -27.5q0 -26 2 -69 t2 -68q0 -15 -2 -42t-2 -42q0 -23 5 -61t5 -60q1 -30 0.5 -50t-11 -30t-36.5 -12q-13 -1 -34.5 1.5t-29.5 2.5q-14 0 -36 -2t-35 -2q-10 0 -29.5 1t-28.5 1q-36 -4 -49 -4q-49 0 -49 55z" />
<glyph unicode="G" d="M29 678q0 43 4.5 111t9.5 115t6 48q0 5 9.5 46t32 105t48.5 103q0 2 23 31t24 29q3 3 7 9q45 54 80 82l14 11q17 13 36 23.5t35 18t34.5 13.5t31.5 9.5t29.5 7t24.5 4.5l20 2.5t14 1.5q56 8 84 8q50 0 118 -10t77 -16q14 -5 24 -17q14 -16 14 -41q2 -6 2 -153 q0 -74 -6 -86q-6 -7 -14 -13l-8 -6q-1 0 -6.5 -3t-13.5 -6t-13 -3q-12 -1 -32 6t-25 8q-41 10 -88 10q-34 0 -54 -4q-58 -8 -82 -24.5t-59 -61.5q-1 -1 -9 -12t-10 -14t-8.5 -13.5t-9.5 -18t-7 -19t-7 -23.5q-4 -16 -6.5 -37t-3 -35.5t-1.5 -38.5t-1 -34q-1 -19 -5 -61 t-4 -68q0 -35 4 -79.5t17 -112.5t45.5 -112.5t79.5 -44.5q51 0 51 78q0 24 -4 98q0 58 -2 64q-1 4 -1 11t-1 13t-4 11q-9 16 -27 16h-4q-2 0 -8.5 -1t-9.5 -1h-10t-16.5 7t-10.5 22v18q0 9 -1 24.5t-1 24.5q0 8 1 25t1 25q0 141 6 149q2 4 14 18q2 3 11.5 7t17.5 4 q35 0 93 -1t93 -1q18 0 47 2t47 2q44 -1 58 -27t14 -88q0 -21 -2 -57t-2 -58q0 -26 2 -69t2 -68v-362q0 -19 1 -50t1 -49q0 -48 -26 -71q-41 -41 -224 -41q-226 0 -331 61q-124 72 -187 236t-63 393z" />
<glyph unicode="H" d="M49 438q0 13 2 40t2 42v154q-1 33 -3 101q-2 49 -1 85v27q1 47 5.5 142.5t4.5 156.5q0 33 -3 89.5t-3 90.5q0 26 6 42.5t18 23.5t23 9.5t27 2.5q10 0 27.5 -1t27.5 -1q22 0 58.5 2t56.5 2h6q78 0 78 -60v-4q0 -59 -4 -227q-4 -58 -4 -76v-6q0 -15 2 -38t2 -36 q0 -5 -1 -16t-1 -16q0 -41 47 -41q66 0 76 10q4 4 6 7t3.5 6l2.5 5l6 76q2 10 2 40q0 22 -1 56q-3 78 -3 97v137q0 1 -0.5 10.5t0 15.5t2 16.5t6.5 18t12.5 14.5t20.5 11t31 4q16 0 41 -3t41 -3q18 0 47 3t47 3q45 0 63.5 -19.5t18.5 -64.5q0 -38 -4 -102.5t-4 -102.5 q0 -69 3 -187t3 -188q0 -43 -2 -115t-2 -114q0 -26 2 -88q1 -37 0 -66v-36q0 -25 -1 -70t-1 -70t3 -68.5t3 -68.5q0 -55 -20 -73.5t-60 -18.5q-18 0 -55.5 2.5t-61.5 1.5q-12 0 -33.5 -2t-35.5 -2q-20 0 -32.5 5t-19.5 12t-10 24t-3.5 30t-0.5 42q0 27 3 74t3 75q0 14 -1 38 t-1 38q0 28 3 75t3 74v43q0 4 -2.5 18t-3.5 15q-1 2 -1 9.5t-1 9.5q-13 16 -23 21t-34 5q-55 0 -69.5 -10.5t-14.5 -50.5q0 -15 -2 -39.5t-2 -38.5q0 -25 5 -69t5 -70q1 -27 -3 -81q-3 -42 -3 -71v-16q0 -20 3 -52t3 -51q0 -61 -53 -61q-17 -1 -43 1.5t-39 2.5q-22 0 -58 -2 t-57 -2q-43 0 -59.5 16t-16.5 47v234q0 27 -2 73t-2 72z" />
<glyph unicode="I" horiz-adv-x="425" d="M39 74v6q0 53 3 141.5t3 140.5q0 28 -1 75t-1 73q0 46 4 125.5t4 126.5q0 26 -1 71t-1 72q0 29 3 78t3 78q0 25 -1 67t-1 66v76q0 18 -1 50t-1 50q0 46 15 61t49 15q19 0 50 -2t50 -2q21 0 58.5 2t60.5 2q49 0 49 -60q0 -10 -2.5 -29t-3.5 -24q-2 -23 -2 -63 q-2 -94 -2 -254v-86q0 -12 -1 -34t-1 -34q0 -18 1 -48t1 -48v-57q0 -29 -2 -78t-2 -78q0 -18 1 -52t1 -50v-22q-1 -42 -3 -106q-4 -83 -3 -118q0 -27 3 -74.5t3 -75.5q0 -23 -16 -39t-50 -16q-10 0 -27 1t-26 1q-29 0 -81 -1t-83 -1q-49 0 -49 74z" />
<glyph unicode="J" horiz-adv-x="512" d="M8 43q0 8 2 22.5t2 22.5q0 7 -1 21.5t-1 21.5q0 15 2 39t2 39q0 10 -1 27.5t-1 29.5q0 3 0.5 7.5t3 15.5t7.5 20t15.5 16t24.5 7h23q12 0 20.5 1.5t19 6.5t16 18.5t5.5 34.5v123q0 38 -2 103.5t-2 103.5v274q0 248 -8 353q-4 32 -4 41q0 28 13 40.5t30 12.5q4 0 12.5 -1 t12.5 -1h86q1 0 26 0.5t48 1t46 -0.5t27 -3q18 -12 19 -13q5 -5 7.5 -12.5t3.5 -17.5t1.5 -16.5t0 -17.5t-0.5 -13v-125q0 -31 2 -83t2 -81q0 -15 -1 -42t-1 -40q-1 -3 -1 -36v-41q1 -72 1 -75v-4q0 -13 2 -35t2 -36q0 -25 1 -65.5t1 -63.5v-93q0 -38 -3 -102t-3 -102 q0 -18 1 -50.5t1 -52.5q0 -75 -25 -117q-23 -41 -72 -74.5t-114 -33.5h-199q-20 0 -34.5 12t-14.5 33z" />
<glyph unicode="K" horiz-adv-x="854" d="M53 47v7.5v5.5v3v7q0 35 2 94.5t2 95.5q0 20 -1 56.5t-1 58.5q1 45 3 140q2 68 1 118v37q0 43 -2 116.5t-2 116.5q0 29 1 78t1 76t-1 73t-1 74q0 34 -1 91t-1 91q0 22 5.5 33.5t19.5 20.5q16 3 33.5 3t62.5 -2.5t70 -2.5q14 0 37 3t36 3q23 0 36.5 -13t16.5 -24.5 t3 -22.5q0 -26 -5.5 -72t-5.5 -73q0 -17 2.5 -48t2.5 -48q0 -8 -2.5 -23t-2.5 -24q0 -7 4 -16t7 -11q6 -1 24 46t46.5 130.5t39.5 114.5q19 55 33 67q17 17 49 17q17 0 44 -2t44 -2q21 0 55.5 4t53.5 4q53 0 55 -39q1 -5 -7 -27t-22.5 -58.5t-21.5 -57.5q-6 -15 -15 -43 t-17.5 -49.5t-18.5 -43.5q-8 -19 -30.5 -62.5t-33.5 -72.5q-9 -21 -28 -77q-2 -7 -10 -26t-11.5 -32t-3.5 -26q0 -19 5 -35t21 -52t25 -59q15 -40 32.5 -102t25.5 -88q9 -27 29 -81.5t30 -88.5q9 -27 21.5 -73.5t19.5 -70.5q8 -23 20.5 -54t17 -46.5t3.5 -30.5 q0 -9 -2.5 -19t-14 -22t-30.5 -12q-17 0 -44 1t-44 1q-85 0 -105 -2q-7 0 -20 -2t-21 -2q-16 0 -27.5 8t-19.5 26.5t-13 34.5t-12 45.5t-12 45.5t-13 40.5t-14 44t-10 40.5q-15 58 -20 84l-37 167q-4 11 -12 11q-3 0 -6.5 -5.5t-3.5 -11.5v-18q0 -7 -1 -18.5t-1 -18.5 q0 -32 3 -86t3 -68q1 -24 1 -67t1 -68q1 -19 5.5 -58.5t4.5 -64.5q0 -30 -14 -45.5t-35 -17.5q-6 0 -15.5 1t-15.5 1q-74 4 -100 4q-17 0 -48.5 -3t-50.5 -3q-9 0 -16 2t-12 5t-9 7t-6.5 8.5t-4 9.5t-2.5 9.5t-1 9.5z" />
<glyph unicode="L" horiz-adv-x="641" d="M55 430v14q0 20 1 62t1 63v215q0 9 -1 26t-1 26t2 25t2 24v80q0 15 -1 38t-1 37q0 45 3 121t3 121q0 20 -3 55t-3 56q0 57 49 57q8 0 16 -1t18 -2.5t16 -2.5q23 -2 63 -2q19 0 53 3t54 3q31 0 45 -14.5t14 -36.5q0 -18 -4 -54q-4 -98 -4 -133q0 -48 3 -131t3 -131 q0 -28 -2 -74t-2 -73q0 -21 1 -57.5t1 -57.5q0 -47 -1 -128t-1 -128v-9q0 -19 0.5 -29.5t4 -28t10.5 -27.5t21.5 -17.5t35.5 -7.5q24 0 63 5.5t61 5.5q28 0 44 -16t19 -33t3 -42q0 -16 -2 -42.5t-2 -41.5q0 -13 2 -36.5t2 -36.5q0 -76 -80 -76q-17 0 -44 3t-44 3t-48 -2 t-48 -2q-21 -1 -54.5 0.5t-46.5 1.5q-27 0 -70.5 -3t-70.5 -3q-29 0 -53.5 19.5t-24.5 64.5q0 22 1 59t1 58v94q0 25 -2 68.5t-2 70.5z" />
<glyph unicode="M" horiz-adv-x="1150" d="M53 1319q0 68 4 76l1 4l4 8t5.5 9.5t7.5 10.5t9.5 9.5t12 7t14.5 2.5q21 0 57 -2t57 -2q24 0 63.5 2t61.5 2q19 0 31.5 -5t19.5 -16t10.5 -20t7 -26.5t5.5 -24.5q10 -31 29.5 -80t27.5 -72q9 -26 35 -127q2 -7 7 -19.5t7 -19.5q20 -76 29 -78q7 -1 15 14t13.5 33t10.5 35 l4 17l23 59q38 97 57 162q1 3 8 33t14 56.5t11 31.5q0 1 2 6.5t5.5 12.5t8.5 12q20 16 45 16q26 0 72.5 -1t73.5 -1q20 0 55 1t57 1q62 0 62 -55q0 -34 -3 -91.5t-3 -91.5q0 -29 1 -76.5t1 -74.5q0 -37 2 -100.5t2 -100.5q0 -44 -2 -119t-2 -119q0 -36 2 -97t2 -97 q0 -33 -3 -87t-3 -87q0 -30 4 -82t4 -82q0 -21 -1.5 -33t-7.5 -26t-20 -20.5t-37 -6.5q-20 0 -54 1t-54 1q-16 0 -41 -1t-41 -1q-76 0 -76 72q0 26 3 68.5t3 66.5q0 21 -1 55t-1 55q0 32 3 86t3 84q0 16 -2 41t-2 39v56q0 13 1 35t1 36q0 6 -1 16.5t-1 16.5v12q0 9 -6 9 q-12 0 -16 -9q-1 -1 -5.5 -16t-11 -39t-10.5 -37q-34 -118 -92 -237q-3 -6 -8 -18t-10 -21t-11 -17q-9 -14 -22 -14q-15 0 -27 6.5t-20 15.5t-15.5 24t-11 24.5t-8.5 26t-6 20.5q-8 23 -23.5 57t-22.5 51q-8 23 -18.5 59.5t-13.5 47.5q-25 76 -33 76q-5 2 -9.5 -5t-4.5 -16 q0 -7 1 -18t1 -17q0 -44 4 -119t4 -120q0 -3 -0.5 -59t0.5 -60q0 -20 2 -54t2 -53q0 -17 -1 -49t-1 -47q0 -18 2 -46t2 -44q0 -49 -59 -49q-8 0 -16.5 1t-19 2.5t-16.5 2.5q-46 4 -61 4h-16q-17 0 -45.5 -2t-43.5 -2q-26 0 -38.5 13t-12.5 48q0 59 1 157t1 157q0 66 -1 180 t-1 182q0 36 1 97.5t1 97.5q0 28 -1 74t-1 73q0 19 1 57t1 56q-4 98 -4 129z" />
<glyph unicode="N" horiz-adv-x="980" d="M53 59q0 25 1 67t1 67v61q0 44 -1 120.5t-1 121.5q0 66 3 177t3 177q-1 30 -3 91q-2 44 -1 76v25q4 114 4 154q0 35 -3 92.5t-3 91.5q0 58 58 58h30q34 0 92.5 2t92.5 2q35 0 47 -8q14 -10 26.5 -33.5t19.5 -43.5t19 -63.5t19 -64.5q8 -28 24.5 -73.5t22.5 -65.5 q8 -26 39 -144q6 -23 19.5 -68t21.5 -73q1 -5 4 -20.5t6 -24.5q1 -7 5.5 -13t6.5 -6q2 1 3.5 13.5t2.5 24.5v12q0 53 -6 144t-6 144q0 19 1 56t1 55q0 38 -6 101t-6 100q0 49 39 49q8 0 21 -2t20 -2h84q44 0 71 2q3 0 19.5 3t25.5 3q54 0 54 -51v-66q0 -65 -2 -177t-2 -179 q0 -28 1 -75.5t1 -74.5q0 -41 -3.5 -112t-3.5 -113q0 -37 3.5 -99.5t3.5 -99.5q0 -21 -2 -73q-1 -31 0 -55v-29q0 -29 2 -78t2 -76q0 -46 -13 -66t-45 -20q-19 0 -52 2t-54 2q-43 0 -68 -2q-3 0 -19.5 -3t-25.5 -3q-11 0 -19.5 4t-12.5 8.5t-9.5 12.5t-7.5 10 q-6 9 -82.5 255.5t-87.5 284.5l-16 64q-23 100 -33 100q-6 -3 -6 -57q0 -43 3 -117t3 -117q0 -30 -2 -80.5t-2 -78.5q0 -43 7 -115.5t7 -114.5q0 -32 -15 -45.5t-46 -13.5h-54q-16 0 -40.5 1t-38.5 1q-17 0 -43 -2t-43 -2q-56 0 -56 65z" />
<glyph unicode="O" d="M45 717q0 17 1 44t1 44v6q0 19 -1 50t-1 50q0 97 10 212.5t37 166.5q20 39 52.5 71t66.5 50t52.5 26.5t33.5 12.5q40 9 109 14h6q7 1 15 1h21t27 -0.5t31 -1.5t34 -3t35 -5.5t35 -8t33.5 -11t30.5 -14.5q38 -21 65 -47t35.5 -41t20.5 -39q23 -46 34.5 -104.5t14 -96 t3.5 -148t3 -165.5q0 -20 3 -105.5t3 -139.5q0 -194 -35.5 -307t-134.5 -181q-47 -33 -105 -49t-149 -16q-204 0 -301 135q-28 37 -49 86q-1 2 -16 69q-2 8 -4.5 23t-3.5 18t-2.5 14t-1.5 16t-1 18t-1.5 25.5t-0.5 33.5q0 16 -1 44t-1 44q-4 156 -4 209zM369 920 q0 -39 1 -105.5t1 -105.5q0 -267 4 -299q3 -40 12 -58l3 -8q4 -7 5.5 -9t5.5 -8.5t8 -9.5t10 -7t13.5 -5.5t16.5 -1.5q36 0 56.5 29t20.5 84q0 28 -1 76t-1 77q0 38 2 114t2 114q0 17 -3.5 148.5t-4.5 141.5q-7 44 -14 52q-26 35 -58 35h-4q-17 -3 -34 -13q-12 -8 -19.5 -21 t-9.5 -20.5t-2 -11.5q-10 -23 -10 -188z" />
<glyph unicode="P" d="M55 49q0 10 2.5 27.5t3.5 23.5v64q0 18 -2 49t-2 49t1 50t1 50q0 23 1 60.5t1 58.5q0 31 -2 85t-2 85v6q0 19 1 52t1 53v104q0 16 -2 40t-2 40q-1 20 1.5 51.5t2.5 46.5q4 126 4 170q0 26 -3 72t-3 72q0 20 1.5 29.5t8 23t23.5 19.5t45 6h60q41 0 111.5 3t111.5 3 q104 0 161.5 -14.5t110.5 -51.5q64 -44 98 -100q11 -21 29 -66q24 -60 28 -77.5t13 -100.5q10 -82 10 -147q0 -9 -3.5 -66.5t-4.5 -64.5q-1 -10 -14 -60q-13 -63 -25 -90q-19 -42 -76 -108q-33 -43 -53 -58q-25 -18 -78.5 -33.5t-83.5 -15.5q-13 0 -49 4q-51 0 -75.5 -23.5 t-24.5 -74.5q0 -16 4 -62l4 -106q0 -13 2 -33t2 -33v-4q0 -59 -65 -61q-18 -1 -47 1.5t-41 2.5q-24 0 -64 -3t-63 -3q-58 0 -58 55zM377 1018q0 -33 1 -89.5t1 -90.5v-17q0 -100 61 -100q30 0 51.5 19t31.5 48.5t14 53.5t4 45q0 180 -58 227q-21 17 -45.5 19.5t-42.5 -13.5 t-18 -49v-53z" />
<glyph unicode="Q" horiz-adv-x="937" d="M45 821q0 108 1 161.5t5.5 127.5t16 119.5t30.5 75.5q44 69 146 120q103 39 243 39q191 0 281 -100q19 -22 45 -70q27 -52 35 -80q12 -41 17.5 -88.5t6 -85t0.5 -141.5q0 -50 3.5 -135.5t3.5 -136.5q0 -123 -17 -336q17 10 33 10q37 0 37 -55q0 -28 -2 -78t-2 -80 q0 -9 1 -24t1 -23q0 -49 -51 -49q-25 0 -67.5 17t-84.5 52q-55 -39 -120.5 -60t-162.5 -21q-154 0 -242 64t-122 167q-13 41 -21 94.5t-10.5 155.5t-3 152.5t-0.5 207.5zM371 973q0 -16 1 -42.5t1 -41.5v-361q0 -172 18 -200q1 -1 3.5 -4.5t4 -5t4.5 -5t6 -5l7 -3.5t8.5 -3 t9.5 -1q8 0 8 6q0 4 -2.5 8.5t-7 10.5t-6.5 10l-6 8q-6 9 -11.5 20.5t-5.5 18.5q0 24 22.5 39.5t45.5 15.5q15 0 33 -12q4 -4 21.5 -27t19.5 -26v221q0 58 1 157t1 158q0 180 -8 201q0 5 -6.5 18.5t-16.5 22.5q-9 8 -22.5 12t-23.5 4h-9q-30 0 -49 -9.5t-26.5 -27 t-9.5 -34.5t-3 -41v-11q0 -14 -1 -36t-1 -35z" />
<glyph unicode="R" horiz-adv-x="937" d="M61 74q0 18 1 50t1 50q0 37 2.5 99.5t2.5 99.5v10q0 42 -1 113.5t-1 113.5v240l4 395v72v22v22t1 19t2.5 18.5l5 15t8 14t12 10t17 8.5t22 4t28.5 2q22 0 58 -2t57 -2q27 0 71 3.5t64 4.5q51 2 141 2h6q62 0 113.5 -19.5t101.5 -72.5q29 -30 49.5 -64t31 -60.5t16 -66 t6.5 -61t1 -66t1 -61.5q1 -12 3.5 -52.5t2.5 -66.5q0 -68 -22.5 -141t-69.5 -129q-9 -10 -27 -25.5t-27 -25.5q-6 -7 -6 -19q-1 -8 3 -17t11 -20.5t9 -17.5l31 -67q16 -36 36.5 -98.5t36.5 -98.5q7 -18 19.5 -46t17.5 -40.5t9.5 -28t4.5 -26.5q0 -26 -18 -45t-57 -19h-6 q-3 0 -51.5 2t-51.5 2q-20 0 -52 -3t-50 -3t-29.5 3.5t-18 13t-9 16t-6 22.5t-5.5 23l-16 57q-10 28 -37.5 97t-40.5 114q0 1 -2.5 12.5t-4 19t-6 20t-9.5 19.5t-13 13t-18 6q-11 0 -18 -4.5t-9 -9.5t-3.5 -12t-2.5 -9l-2 -122v-13q1 -37 5 -91q6 -64 5 -99q0 -80 -61 -80 h-4q-18 0 -51.5 3t-53.5 3q-18 0 -50 -5t-52 -5q-26 0 -41 21t-15 59zM379 1094q0 -4 1 -11.5t1 -11.5q0 -6 1 -18.5t1 -18.5q0 -4 -1.5 -41t-1.5 -71q0 -8 -1 -17q-1 -26 1 -51q2 -34 7 -43q8 -13 13.5 -20t19 -13.5t31.5 -5.5q48 2 78 31t30 78q0 24 -4 94q0 42 -2 67 q0 21 -6 45l-2 5q-2 6 -4.5 11.5t-6.5 13t-10 14.5t-14 12q-18 12 -59 12q-41 1 -56.5 -12t-15.5 -41v-8z" />
<glyph unicode="S" horiz-adv-x="724" d="M25 1049q0 113 17.5 170.5t68.5 117.5q6 7 13.5 16.5t11 13.5t10 10.5t16.5 13.5q31 24 103 44.5t151 20.5h12q32 0 91.5 -4t72.5 -12q12 0 26 -17q4 -4 8 -11t6 -12l1 -5q4 -12 4 -107v-98q0 -20 -5.5 -33t-10.5 -17.5t-21 -15.5q-2 -2 -15 -7t-22 -5q-8 0 -29 8.5 t-24 9.5q-45 15 -76 15q-94 0 -94 -84q0 -26 14 -51q115 -123 121 -129q14 -14 41 -40t43 -44q69 -77 107 -175q1 -4 2 -6q16 -41 20 -53q21 -69 21 -186q0 -110 -38.5 -184.5t-107.5 -129.5q-53 -43 -92 -59q-84 -27 -170 -27q-82 0 -172 23q-4 1 -20 4.5t-21 5.5 t-17.5 6.5t-17.5 9.5t-12 13.5t-9.5 19.5t-2.5 25q0 7 1 19.5t1 19.5q0 23 -1 63t-1 62q0 3 2 25t2 24v29l4 14q6 10 17 18l12 7q12 12 34 12q9 0 28.5 -12t33.5 -17q61 -31 109 -31h8q29 1 50 13t30 29.5t12.5 31.5t3.5 27q0 31 -17 57t-59 65.5t-55 53.5q-11 12 -29 34.5 t-29 35.5q-56 65 -65 79q-17 23 -43 76q-18 37 -27.5 60.5t-17.5 68.5t-8 101z" />
<glyph unicode="T" horiz-adv-x="681" d="M8 1231q0 13 2 36t2 36t-1 35.5t-1 37.5q0 44 22.5 57t84.5 13q15 0 39 -2t37 -2q19 0 50 2t48 2t47 1t47 1q9 0 29 -1t30 -1h48q15 0 43 1t45 1q52 0 64 -6t24 -43q4 -16 4 -207q0 -82 -60 -82q-8 0 -23.5 2t-23.5 2q-44 0 -55.5 -7.5t-11.5 -39.5q0 -45 3.5 -114.5 t4.5 -98.5q0 -22 -2 -66t-2 -65v-22q0 -41 2 -99q4 -76 4 -115q0 -40 -2 -107.5t-2 -107.5q0 -38 3 -102t3 -102q0 -72 -64 -72q-16 0 -45 3t-47 3q-22 0 -92 -4q-36 -6 -37 -6q-19 0 -35 14.5t-16 34.5q0 7 2 19.5t2 19.5q2 27 2 70v22q0 94 -1 255.5t-1 256.5q0 33 1 89.5 t1 90.5v195q0 24 -9 36.5t-18.5 14.5t-25.5 2q-11 0 -30 -2t-31 -2q-35 0 -52 25q-6 6 -6 98z" />
<glyph unicode="U" d="M41 692q0 54 4 147t4 148q0 9 -1 27.5t-1 27.5q0 16 2 44t2 44q-1 34 -4.5 111.5t-3.5 126.5q0 38 14.5 60t40.5 22t69 -2t69 -2q14 0 35.5 2t33.5 2q68 0 68 -59v-72q0 -33 -1 -88t-1 -86v-168q-4 -136 -4 -184v-13q0 -26 3 -70t3 -69q0 -16 -1 -44t-1 -46q0 -29 -1 -78 t-1 -78q0 -43 15 -64.5t58 -21.5q30 0 49.5 9t26.5 25.5t8.5 27.5t1.5 28q0 36 -1 98t-1 99q0 42 1 112.5t1 112.5q0 39 -2 105.5t-2 105.5q0 34 1 92.5t1 92.5q0 35 -3 93t-3 93q0 49 66 49q18 0 50 -1t50 -1h6q17 0 44 1t42 1q30 0 47.5 -15.5t21 -29.5t3.5 -29 q0 -14 -1 -35.5t-1 -33.5q0 -27 2 -76t2 -76v-104q0 -23 1 -62t1 -63q0 -29 -2 -77t-2 -75q0 -24 1 -71t1 -70q0 -34 -3 -90.5t-3 -89.5q0 -24 2 -63.5t2 -61.5q0 -166 -141 -273q-61 -45 -119 -60t-133 -15q-124 0 -198 24.5t-128 83.5q-24 26 -39.5 51t-24 51t-12.5 55.5 t-5 63.5t-1 76v92q-1 29 -4.5 98.5t-3.5 114.5z" />
<glyph unicode="V" d="M-2 1403q0 41 47 41q15 0 42 -2t40 -2q21 0 61.5 3t61.5 3h10q40 0 57 -23q6 -6 11.5 -27.5t11 -58t10 -69.5t10.5 -82.5t9 -75.5q15 -110 16 -117q5 -40 10 -103.5t6 -76.5q26 -242 27 -250q0 -5 3.5 -42t4.5 -40q2 -7 6 -12t9 -4q4 1 7.5 16t7 42.5t5.5 53t5 61.5t5 54 q5 62 18.5 166t18.5 166q2 19 3 53t3 53q2 14 7.5 38t7.5 38q1 7 2.5 49t4 80t5.5 47q9 37 14 43q21 21 72 21q25 0 65.5 -3t63.5 -3q14 0 39 1t39 1q47 0 48 -60q0 -11 -12 -57t-16 -78q-8 -49 -15.5 -128.5t-12.5 -117.5q-3 -24 -25 -137l-33 -192q-9 -53 -21.5 -144.5 t-21.5 -144.5q-6 -36 -19.5 -95t-19.5 -95q-3 -19 -9 -60t-9.5 -63t-7.5 -27q-5 -11 -7.5 -15.5t-9.5 -14t-18 -13.5t-25 -4q-15 0 -61 4q-37 2 -96 2q-30 0 -80 -2t-78 -2q-23 0 -41 22q-5 8 -13.5 44.5t-22 106t-19.5 95.5q-5 23 -21 90t-24 111q-40 230 -50 283 q-7 40 -25.5 127.5t-27.5 144.5q-8 45 -15.5 116t-12.5 105q-4 25 -11 64t-10.5 60.5t-3.5 35.5z" />
<glyph unicode="W" horiz-adv-x="1323" d="M-2 1378q0 60 45 60q15 0 42 -2t44 -2q43 0 70 2q10 0 27.5 2t29.5 2q13 0 23 -1t17.5 -4.5t13 -6t9.5 -10.5t6.5 -12.5t4.5 -17t2.5 -19t2.5 -24.5t3 -28q5 -49 24 -166q7 -38 19 -105.5t18.5 -105t15.5 -94.5t15 -111q1 -7 3.5 -36t6.5 -46q1 -4 1 -11t1 -11q0 -6 7 -6 q16 0 16 16q0 12 1 18t4.5 17t6.5 26l17 78q25 109 34 164l-24 150q-25 180 -27 192q-18 92 -18 113q0 19 13 29t32 10q14 0 39 -2t41 -2q28 0 77.5 2t79.5 2q12 0 21 -1t16 -5t11.5 -6.5t8.5 -10.5t6 -12.5t4.5 -17t3 -19t2.5 -24t3 -25.5q9 -96 12 -119q7 -64 21.5 -177 t21.5 -181q2 -21 4 -56t5 -62.5t8 -55.5q1 -5 0 -14.5t0 -14.5q1 -1 3 -5t4.5 -7.5t4.5 -3.5q3 0 6.5 16t7 47.5t6 58t6.5 68t5 57.5q3 29 11 77t11 75q3 26 5.5 66.5t3.5 56.5l10 92q11 156 12 158t4 7.5t4.5 8t4 6.5t6 6t8 4.5t10.5 3.5t14 1q30 0 83 -2.5t83 -2.5 q12 0 34 1t34 1q51 0 51 -49q0 -27 -14.5 -102.5t-16.5 -87.5q-6 -38 -12 -101t-12 -100q-1 -6 -27 -139q-26 -161 -27 -164q-6 -34 -18 -87.5t-16 -72.5q-5 -27 -17 -107.5t-24 -131.5q-4 -19 -13.5 -50.5t-13.5 -50.5q-1 -3 -6.5 -45.5t-13 -79.5t-15.5 -45 q-17 -20 -47 -20q-21 0 -55 2t-53 2q-24 0 -63.5 -2t-61.5 -2q-34 0 -50 22q-10 11 -26 125q-5 34 -12 66t-16 71t-15 66q-3 13 -7 36t-7 36q0 20 -7 20q-12 0 -12 -14q0 -6 -7 -48.5t-17.5 -106.5t-16.5 -103q0 -6 -9.5 -66.5t-12.5 -64.5q-18 -37 -52 -37q-18 0 -46.5 2 t-45.5 2q-65 0 -104 -2q-32 -4 -45 -4q-14 0 -25 5t-16.5 10t-10 17t-6 18.5t-3.5 21.5t-3 18q-1 7 -16 96q-10 54 -30.5 141.5t-29.5 135.5q-13 73 -32.5 198t-32.5 197q-6 33 -24.5 120t-26.5 142z" />
<glyph unicode="X" d="M0 35q0 14 7 38t15.5 44.5l25.5 61.5t28 67q18 49 47 123l37 82q17 41 33 80.5t35 88t32 80.5q5 13 11.5 26.5t9.5 21t4 16.5q1 16 -11 48t-37 90t-38 91q-14 35 -40.5 109.5t-45.5 120.5q-12 29 -32 73.5t-30 70t-10 38.5q0 17 7 26.5t23 12.5t30 3t40 -1.5t41 -1.5 q25 0 65.5 2t63.5 2q18 0 30.5 -3.5t20 -7.5t14 -14.5t8.5 -17t7 -23t8 -24.5l35 -92l23 -68q0 -3 1 -9t2.5 -17.5t5 -18.5t7.5 -6q2 0 3.5 8.5t3.5 22t3 20.5q7 33 22 85t27 87.5t13 38.5q3 4 4 6.5t1.5 4t2.5 4t6 6.5q15 12 47 12q20 0 56 -2t57 -2q16 0 47 1t45 1h8h7h9 t9 -0.5t10 -1.5t9.5 -2t8.5 -4t6.5 -6t5 -8t1.5 -11q0 -22 -105 -270l-86 -205q-7 -18 -20.5 -48t-23.5 -54.5t-19 -49.5q-6 -6 -10 -26q-1 -8 0 -15.5t5.5 -18.5t7 -18t11 -24.5t12.5 -26.5q18 -40 45 -108q37 -89 134 -348q6 -17 22 -53t23 -60q6 -24 6 -33q0 -51 -60 -51 h-6q-17 0 -46 1t-46 1q-23 0 -64 -2t-65 -2q-33 0 -51 18q-12 12 -51.5 128.5t-44.5 140.5q0 6 -7 35.5t-12 29.5q-3 0 -6.5 -17t-3.5 -20l-14 -80q-31 -123 -45 -161q-1 -2 -3 -12t-4.5 -19t-5.5 -12q-2 -4 -3.5 -6.5t-2 -3.5t-2.5 -3l-6 -6q-12 -12 -35 -12q-9 0 -24.5 2 t-24.5 2q-66 4 -88 4q-20 0 -86 -4q-6 0 -17.5 -1t-17.5 -1q-45 0 -45 37z" />
<glyph unicode="Y" horiz-adv-x="854" d="M-8 1389q0 43 39 51h10q19 0 51.5 -3t52.5 -3q24 0 67 3t69 3q17 0 28.5 -6t18.5 -14t12 -25.5t7 -29.5t5.5 -38t5.5 -41q5 -27 17.5 -80t17.5 -86q2 -11 4.5 -26.5t4.5 -27.5t6 -24q0 -2 2.5 -14t6.5 -24t7 -11q5 5 31 148q32 150 32 153q2 15 3.5 40t2.5 41t3 20 q7 21 16 30q19 17 53 17q21 0 58.5 -3t60.5 -3q20 0 54 2t53 2q18 0 29 -2t21.5 -12t10.5 -29q0 -23 -15 -63.5t-16 -45.5q-6 -21 -14 -59t-14 -60q-11 -36 -34 -96t-34 -96q-11 -37 -26 -100.5t-27 -100.5q-3 -11 -42 -120t-44 -136q-6 -54 -6 -227q0 -39 3.5 -99.5 t4.5 -87.5q0 -10 1 -26.5t1 -26.5q0 -55 -64 -55q-18 0 -50 2t-50 2q-22 0 -60 -4t-61 -4q-21 0 -37 15t-16 48q0 13 3 37t3 37q0 27 -2 71.5t-2 69.5q0 40 4 107.5t4 107.5q0 12 -1 24t-4.5 27t-6 26t-9.5 31.5t-11.5 32.5t-14.5 41t-16 46q-10 28 -22 72t-19 65 q-5 17 -15.5 42t-15.5 38q-17 48 -68 207l-43 157q-23 81 -24 93z" />
<glyph unicode="Z" horiz-adv-x="811" d="M18 219v10q0 23 3.5 39.5t8.5 27.5t18.5 38.5t25.5 56.5q10 25 24.5 63.5t26.5 69.5t27 62q11 26 32 68.5t33 68.5q9 22 24 60t27 67t27 59q11 22 36.5 67.5t39.5 74.5l16 45q1 2 4 7.5t5.5 11.5t2.5 11q0 15 -12 15h-16q-25 0 -65.5 1t-63.5 1q-20 0 -52 -2t-51 -2h-22 q-20 0 -31.5 2t-22 13t-10.5 32q0 17 1 48t1 50q0 16 -1 45t-1 45q0 24 7 39.5t19.5 21.5t21.5 7.5t22 1.5q15 0 41 -2t41 -2h6q14 0 39 1t37 1q36 0 97.5 -2t98.5 -2q74 0 117 2q14 0 37 1t37 1h15q25 0 35 -0.5t24 -4t18.5 -10t10 -21t6.5 -34.5t1 -51q0 -13 1 -33t1 -33 q0 -16 -3 -30t-7 -22.5t-12.5 -25t-13.5 -28.5l-43 -102q-40 -95 -70 -160q-13 -28 -35 -74.5t-35 -73.5q-15 -35 -37.5 -92t-35.5 -88q-9 -24 -27 -62.5t-27 -62.5l-26 -76q-3 -6 -9 -12.5t-6 -13.5q0 -10 11 -10q5 0 14 1t14 1t15 -1t16 -1q15 0 41 3t41 3q12 0 41.5 -1.5 t48.5 -0.5q15 0 42 3t42 3q35 0 50.5 -18.5t15.5 -39.5q0 -23 -2.5 -60t-2.5 -58v-6q0 -12 1 -32.5t1 -33.5q0 -82 -65 -82q-21 0 -56 2t-55 2q-24 0 -63.5 -1t-61.5 -1q-21 0 -58 2t-58 2q-35 0 -94.5 -3t-94.5 -3q-6 0 -20 1t-21 1q-10 0 -26.5 -1t-26.5 -1q-17 0 -29 3 t-19.5 10.5t-12 13t-6 18.5t-2 19t0 22t0.5 21q0 21 -1 55t-1 55z" />
<glyph unicode="[" horiz-adv-x="512" d="M72 49q0 31 2 47q0 54 2 60v22v72q0 11 2 80.5t4 113.5v5v16l2 205v30v95v92q0 8 1 19t1 14v30v29q-2 70 -2 113q4 20 4 30v4v15l-2 18q0 15 -1 30t-1 17v21v8q-2 4 -2 25q0 25 -4 45q0 3 -1 7t-1 5l2 41q0 6 -2 14v19q0 58 22 77l21 19q12 4 33 4q24 0 51 -4 q23 -2 39 -2l10 -2h18q10 0 43 2h39h27q8 0 18 2q21 6 45 6q66 0 66 -72v-30q-2 -18 -2 -35q0 -11 2 -23v-39q0 -18 -4 -32q-22 -31 -47 -31h-13q-23 -1 -31.5 -5t-17.5 -18q-14 -28 -14 -43v-100l-2 -55v-13v-77v-78l-2 -156l2 -154v-24v-25l2 -75v-74l-2 -35v-80v-4v-39 v-12q0 -25 3 -35t13 -20q12 -12 33 -15q10 0 10 -2h6h2q3 -1 6 -3l5 -1l8 2h4q39 0 39 -82v-12v-25v-8v-45l-2 -39q-1 -22 -26 -35.5t-62 -13.5h-15l-24 2h-35q-14 2 -33 2h-30h-7h-22l-41 -2l-49 2l-19 4l-22 4l-17 8l-2 3l-8 6l-10 22l-8 19l2 24l-4 51v31v25q-2 6 -2 18z " />
<glyph unicode="\" horiz-adv-x="681" d="M-2 1419q0 28 30 50t68 22q25 0 37 -14.5t29 -65.5l4 -8q0 -6 2 -8q4 -18 41 -107l31 -76l14 -38l47 -119l8 -23l33 -82l31 -82l61 -161l21 -56l22 -55l43 -109q10 -33 43 -114q6 -24 12 -33l11 -27q0 -3 1 -6t1 -4l26 -63l4 -15l15 -37l4 -12l4 -10l2 -6l4 -8 q39 -92 39 -125q0 -20 -9 -29.5t-34 -17.5q-12 -3 -33 -15q-24 -8 -30 -8q-18 0 -29 13.5t-25 52.5q-1 1 -2 4.5t-2 5.5l-4 10l-24 70l-9 22l-12 29l-20 55l-50 127l-32 90l-99 254l-36 96l-56 142l-47 119l-45 120l-10 31l-12 29q-3 8 -6 17t-5 13.5t-2 6.5l-10 24l-4 12 l-6 13l-19 47l-4 14q-12 35 -12 45z" />
<glyph unicode="]" horiz-adv-x="512" d="M2 29q0 18 4 32q22 31 47 31h13q25 1 33 5t16 18q14 23 14 43l2 100l2 55l-2 13v77l2 78v156l-2 154v24v25l-2 75v74l2 35v80v4l2 39v12q0 25 -3 35t-15 20q-12 12 -33 15q-4 0 -7 1l-3 1h-6h-3q-4 4 -8 4l-10 -2h-4q-39 0 -39 82v12v25v8v45l2 39q1 22 26 35.5t62 13.5 h14l25 -2h35q16 -2 33 -2h30h7h24l39 2l51 -2l17 -4l22 -2l17 -10q2 0 2 -3l8 -6l10 -22l8 -19v-22l2 -53v-31q0 -11 2 -25v-20q0 -12 -1 -51t-1 -54l-2 -22v-72q0 -83 -6 -194v-5v-16l-2 -205v-30v-95v-92v-30l-2 -33v-29q2 -70 2 -113l-4 -30v-4v-15l2 -16q2 -27 2 -49 v-21l2 -8v-25q1 -7 2 -23t2 -22q2 -6 2 -12l-2 -41q0 -1 1 -5t1 -7v-21q0 -58 -22 -77l-21 -19q-12 -4 -33 -4q-24 0 -49 4q-23 2 -41 2l-10 2h-18q-10 0 -43 -2h-39h-27q-6 0 -18 -2q-21 -6 -45 -6q-66 0 -66 72q0 20 2 30v35v25q-2 12 -2 37z" />
<glyph unicode="^" horiz-adv-x="978" d="M88 764q0 16 21 63l4 7l2 8l8 16l16 33l13 31l6 16q3 13 32 76l11 20l6 13l10 18l2 14l12 19l7 22l8 17l2 14l14 33l10 24l7 13l10 22l8 25l4 16l29 64l4 20l8 18q2 3 10 33l6 15q2 6 13 10h24l60 4l28 -4l86 4l19 -2q12 -1 15.5 -4.5t8.5 -14.5l11 -28l8 -21l6 -18 l14 -31l17 -37l16 -41q10 -23 10 -24q1 -1 8 -19l15 -32l8 -17l4 -12l10 -21l6 -18l13 -18l6 -15l10 -20l17 -43l14 -25q1 -1 2 -4t3.5 -9.5t4.5 -12.5q11 -34 16 -41l9 -9l12 -24l6 -23q4 -11 12 -22q4 -6 11 -19l8 -24l8 -19q4 -8 4 -12q0 -14 -8.5 -19t-36.5 -6h-22h-48 l-12 -2l-35 2l-16 -2l-51 2h-21l-10 11q-14 17 -16 28q0 1 -0.5 3t-1.5 5.5t-2 6.5l-23 61l-12 35l-4 12l-23 49l-6 21l-6 14l-8 19l-2 6l-7 14q-8 22 -8 23l-10 20q-4 8 -4 12q-10 23 -19 23q-8 0 -14 -21l-14 -43l-2 -8l-8 -22l-17 -41l-20 -53q-1 -1 -2.5 -6.5t-3.5 -8.5 q-3 -13 -9 -26l-14 -35l-18 -49q-14 -49 -37 -52h-25l-12 -2h-51l-33 -4l-19 2l-16 2h-33h-32q-9 0 -15 7t-6 18z" />
<glyph unicode="_" horiz-adv-x="1024" d="M-39 -352q4 29 4 76q0 29 9 40t32 11q3 0 14.5 -1t20.5 -1h27l75 2l47 -6l91 4l75 -2l39 2q6 1 66 -2h86l86 4q37 3 121 0l129 -6q78 0 96 2q5 0 15.5 1t15.5 1q21 0 37 -22t16 -50v-14v-27l-2 -68l4 -14v-6q0 -29 -8 -45q-6 -15 -18.5 -19t-61.5 -4l-43 2h-39h-39 q-10 -4 -18 -4q-5 0 -13 2h-4h-43q-5 0 -33 4q-6 3 -10 3l-39 -7l-39 4l-30 -4h-15h-22h-39h-19h-4q-24 0 -98 4h-14q-15 0 -27 -2q-5 0 -20.5 -1t-28.5 -1l-94 4l-41 -2l-21 -4h-32h-11l-20 6l-29 -2l-33 -4l-14 -2l-47 11h-14l-21 67l-2 25v45z" />
<glyph unicode="`" horiz-adv-x="425" d="M20 1425q0 20 23 23h39q31 0 47 -2q80 0 121 2q7 0 21.5 1t21.5 1q29 -4 37 -16q7 -7 20 -52q16 -37 23 -59q3 -6 7 -18.5t7 -18.5q4 -10 11.5 -24.5t7.5 -20.5h-3q0 -11 -7 -17t-21 -7.5t-27.5 -1t-35.5 2t-36 1.5h-67q-5 2 -11 7.5t-17.5 19.5t-16.5 20l-55 55 q-54 54 -62 61l-7 6q-6 6 -13 16.5t-7 20.5z" />
<glyph unicode="a" horiz-adv-x="768" d="M16 387q0 153 35 246.5t121 138.5q52 31 119 31q17 0 32.5 -3t30 -8t17.5 -6t13.5 -6.5t20.5 -9.5t15 -4q10 2 18 11t8 24q0 27 -8 45.5t-19.5 28.5t-30.5 15.5t-35 7t-40 1.5q-47 0 -100 -16q-14 -5 -27.5 -13t-22 -12t-16.5 -4q-22 0 -49 27q-8 11 -8 47q0 10 1 26.5 t1 26.5t-1 30.5t-1 32.5q0 33 15 47t63 29q81 21 137 21q25 1 63 3q4 0 9 1q39 -1 117 -11q88 -12 137 -40q52 -32 76 -74q24 -43 24 -178q0 -18 -1 -49t-1 -48q0 -23 1 -64t1 -65q0 -30 -1 -89t-1 -87v-161q0 -17 1 -52t1 -53t-2 -49t-2 -51v-29q0 -47 -53 -47 q-18 0 -50.5 2t-52.5 2q-17 0 -44.5 -3t-43.5 -3q-15 0 -21.5 4t-6.5 20q0 33 -13 33q-3 0 -11 -7.5t-19.5 -18t-22.5 -15.5q-40 -24 -100 -24q-99 0 -158 49q-35 28 -59.5 74.5t-35.5 99t-15.5 94.5t-4.5 82zM299 442q0 -6 1 -18t1 -18v-5q0 -1 -0.5 -18.5t-0.5 -27.5 t2 -29t6.5 -31t11.5 -25t19 -19.5t28 -6.5q34 0 49.5 30t15.5 62v131q0 47 -27 68t-53 12q-23 -7 -38 -37t-15 -68z" />
<glyph unicode="b" horiz-adv-x="811" d="M33 59q0 21 2 55t2 54q0 33 1 89t1 87q0 28 -2 74t-2 74t2 75t2 74q1 41 -3 119q-3 61 -3 104v23q0 36 2 108t2 109v160q0 25 -2 69.5t-2 71.5q0 21 10 33t41 12q20 0 52 -3t50 -3t50 5t51 5q27 0 42 -16t15 -43q0 -17 -3 -47.5t-3 -49.5q0 -24 2 -63t2 -61q0 -13 -2 -33 t-2 -31q0 -18 16 -18q4 0 13 5t23 14t26 15q45 23 106 23q97 0 156 -59q104 -107 104 -494q0 -12 -10 -154q-1 -17 -2 -62.5t-2.5 -69t-7.5 -64.5t-16 -69t-29.5 -61.5t-46.5 -60.5q-69 -69 -162 -69q-32 0 -61.5 8.5t-40.5 14.5t-37 22l-7 6q-8 6 -12 6q-6 -1 -9.5 -15.5 t-4.5 -15.5t-4 -5.5t-4 -5t-4 -2.5t-7 -2.5t-10 -0.5q-17 0 -47 1t-47 1h-8q-19 0 -52 -2t-53 -2q-65 0 -65 65zM338 614q0 -39 3.5 -139t8.5 -113l4 -8q4 -8 7.5 -12t9.5 -10.5t14 -9.5t18 -3q23 0 37.5 19t17.5 33t3 20q1 8 6.5 98t5.5 99q0 196 -22 231q-9 15 -25 31 q-16 8 -29 8q-19 -3 -35 -27q-22 -28 -22 -90q0 -23 -1 -63t-1 -64z" />
<glyph unicode="c" horiz-adv-x="555" d="M33 571q0 387 129 512q60 58 147 70q27 3 101 5q11 0 20 1q58 0 80 -8q25 -18 25 -45v-180q0 -80 -62 -80q-11 0 -25.5 0.5t-19 0.5t-12.5 -1.5t-14 -6t-15 -12.5q-43 -41 -43 -264q0 -24 4 -102q0 -139 101 -139q6 0 20 2t20 2q50 0 50 -60q0 -25 -3.5 -66.5t-3.5 -64.5 q0 -13 1.5 -33.5t1.5 -31.5q0 -78 -91 -78q-12 0 -35 2t-36 2h-27q-118 0 -190 72q-79 77 -101 184.5t-22 318.5z" />
<glyph unicode="d" horiz-adv-x="811" d="M33 592q0 32 3 84t3 65q2 55 5.5 88t14.5 85.5t36.5 95.5t64.5 77q66 60 151 60q36 0 88 -17q4 -1 19 -9.5t24 -8.5q12 0 17.5 9t6.5 18.5t1 29.5v7v36q0 32 -1 86t-1 86q0 66 57 66q18 0 50 -4t51 -4t53 3t53 3q57 0 57 -55q0 -23 -2.5 -59t-3.5 -48q-1 -45 -4.5 -148 t-3.5 -169q0 -46 -1 -124.5t-1 -123.5q0 -35 2 -94.5t2 -94.5q0 -48 -1 -130.5t-1 -131.5v-20q0 -38 2 -102.5t2 -102.5q0 -49 -63 -49q-17 0 -47 2t-48 2h-8q-16 0 -41 -2t-39 -2q-36 0 -36 27q0 28 -17 30q-3 0 -12.5 -7.5t-23.5 -18.5t-25 -17q-44 -26 -117 -26 q-88 0 -156 65q-36 35 -59.5 86.5t-32.5 112t-12 104.5t-4 99v18q-2 45 -2 123zM334 446q0 -163 69 -163q33 0 50 34q16 24 16 181v8q0 17 -1 48t-1 46q0 2 1 27t1.5 47t-2.5 52.5t-9.5 52t-21 37t-35.5 15.5q-65 0 -65 -124v-148q0 -19 -1 -57t-1 -56z" />
<glyph unicode="e" horiz-adv-x="811" d="M37 573v7q0 25 3 65.5t3 50.5v4q0 23 0.5 43.5t6.5 70t18 90t38.5 90t63.5 83t97.5 57t135.5 23.5q109 0 173 -33t112 -104q76 -108 76 -285q0 -24 -2.5 -123.5t-5.5 -105.5q-10 -24 -28 -42t-40 -18q-10 0 -27.5 2.5t-27.5 2.5h-2q-20 0 -52.5 -2.5t-50.5 -2.5 q-20 0 -53 1.5t-53 1.5h-41q-28 0 -38.5 -11.5t-10.5 -40.5q0 -53 38.5 -89t118.5 -36q60 0 115 19q6 2 22.5 9.5t31 13t22.5 5.5q20 2 40.5 -13.5t20.5 -37.5t-2 -60t-2 -61v-57q0 -19 -3 -26t-13 -19q-24 -24 -98 -38.5t-160 -14.5q-131 0 -212 40t-136 122 q-40 62 -64 157q-14 72 -14 262zM330 748q0 -29 4 -41q5 -9 7.5 -12.5t10 -7t19.5 -3.5h20q6 0 17.5 -1t17.5 -1q14 0 22 1.5t16 7t11.5 17.5t3.5 31l1 21q0 20 -0.5 29t-2.5 29.5t-7 31.5t-13 25t-22 20t-32 6q-12 0 -21.5 -3.5t-16.5 -8.5t-13 -14.5t-9.5 -17t-6 -20 l-4 -20t-2 -21t-0.5 -18.5v-18v-12z" />
<glyph unicode="f" horiz-adv-x="512" d="M6 1022q0 43 29 43h10h10t8 0.5t7.5 2.5t5 5t3.5 8.5t1 12.5q0 24 -3 63.5t-3 61.5q0 24 0.5 38.5t4.5 41.5t11.5 44.5t23.5 39t38 34.5t57.5 22t79.5 9h137q44 0 59 -17.5t15 -60.5q0 -18 1 -50t1 -50q0 -1 1 -18.5t-0.5 -26t-5 -22.5t-13 -20.5t-25.5 -6.5 q-10 0 -26.5 3t-26.5 3q-44 0 -44 -56v-6q0 -34 4.5 -42.5t28.5 -8.5q10 0 26 1t25 1q56 0 56 -57v-70q0 -18 1 -48t1 -48v-2q0 -2 0.5 -4.5t0.5 -6t-1 -7t-2.5 -7.5t-4 -7t-6 -5.5t-8.5 -4t-12 -1.5q-6 0 -16 1t-15 1q-34 0 -44.5 -12.5t-10.5 -36.5v-76q0 -44 4 -158 q0 -57 2 -90q4 -50 4 -67v-52q0 -15 -1 -39t-1 -38v-91q0 -19 2 -49t2 -49q0 -49 -55 -49h-8q-27 0 -101 4q-16 0 -45 -2t-47 -2q-35 0 -51 7.5t-16 31.5q0 26 4 72.5t4 74.5q0 34 -2 92t-2 93t2 94t2 94q0 27 -2 70.5t-2 68.5q0 2 -1 31t1 31q0 5 1 12.5t1 11.5 q0 10 -8 17.5t-17 7.5l-5 -1q-4 0 -9 -0.5t-11 1t-10.5 4.5t-8 10t-3.5 17v20q0 15 1 40.5t1 39.5q0 16 -2 42t-2 42z" />
<glyph unicode="g" horiz-adv-x="768" d="M20 618q0 20 2.5 60t2.5 59v6q0 57 8 113q6 45 12.5 75t22.5 72t46 75t74 55q56 28 97 28q53 0 98 -31q11 -7 20 -17.5t14.5 -16.5t10.5 -6q1 -6 10 10q2 4 4 19t8 23.5t21 8.5q19 0 52 -4t52 -4q17 0 47.5 3t49.5 3q59 0 59 -57q0 -35 -1 -95t-1 -96q0 -33 1 -115 q1 -49 1 -88v-47q0 -38 -4 -102.5t-4 -102.5q0 -22 2.5 -58t3.5 -46q2 -51 2 -137q0 -147 -20 -191q-37 -83 -140 -129.5t-249 -46.5q-76 0 -140 8q-58 6 -80 20.5t-22 53.5v113q0 71 49 80q21 2 35 -7q4 -1 29.5 -10t52.5 -15.5t53 -6.5q33 0 74 12t59 39q8 16 8 65 q0 9 -4 17t-10 8q-4 0 -9 -5.5t-11 -8.5l-29 -17q-48 -24 -88 -24t-78 14t-59 29q-26 22 -58 67q-24 37 -41 86q-12 38 -22.5 126.5t-10.5 135.5zM311 735q0 -7 1 -22.5t1 -22.5v-45q0 -37 2 -67.5t7.5 -63t18 -51t30.5 -17.5q8 1 15.5 4.5t12.5 9t8.5 10.5t6.5 9l2 4 q8 18 8 234q0 135 -49 143q-20 3 -34 -12t-19.5 -40t-8 -43t-2.5 -30z" />
<glyph unicode="h" horiz-adv-x="811" d="M37 72q0 26 1 70t1 69q0 38 -1 101.5t-1 101.5q0 190 2 303q0 23 1 61t1 60q0 18 -2 55t-2 55v10q0 44 3 120t3 120q0 36 -2 97.5t-2 97.5q0 63 49 63q15 0 38 -1t36 -1q26 0 69 3t68 3q24 0 37.5 -14.5t13.5 -38.5q0 -15 -2 -40t-2 -40t1 -46t1 -48t-1 -48t-1 -50 q0 -37 16 -37q6 0 11.5 4t9.5 9.5t6 6.5l31 17q42 26 112 26q33 0 66 -7t45 -13q45 -17 73.5 -42.5t41 -59t16.5 -62.5t4 -70q0 -25 -1 -68t-1 -69q0 -32 -1 -86t-1 -84v-84q0 -49 1 -132t1 -132q0 -18 -1 -53t-1 -52t2 -45t2 -43q0 -59 -61 -59q-20 0 -55.5 2t-57.5 2 q-16 0 -44 -3t-44 -3q-35 0 -45 11.5t-10 56.5q0 14 1 35.5t1 33.5v162q0 38 -2 102.5t-2 102.5q0 120 2 192q1 8 3.5 38.5t2.5 49.5q0 78 -51 78q-21 0 -34 -7.5t-17 -15t-11 -24.5q-8 -16 -8 -156q0 -61 3 -165t3 -166q0 -27 -3 -73t-3 -71q0 -24 4 -86q1 -8 3.5 -26 t2.5 -29q0 -43 -45 -43q-19 0 -52 2t-52 2t-51 -3t-52 -3q-38 0 -52.5 13.5t-14.5 62.5z" />
<glyph unicode="i" horiz-adv-x="382" d="M31 74v4q0 20 2 55t2 57q2 86 2 232q0 27 -1 74.5t-1 74.5q0 38 4 140q0 21 -1 54t-1 54q0 27 2 75t2 75q0 23 -3 63t-3 64q0 25 17 38t42 13q16 0 41 -3t39 -3q23 0 60.5 3t60.5 3h6q53 0 53 -62q0 -28 -3 -74.5t-3 -72.5q0 -36 1 -96.5t1 -96.5q0 -31 -2 -85t-2 -85 q0 -33 2 -103q2 -50 2 -87v-27q-4 -94 -4 -122q1 -23 4.5 -76.5t3.5 -87.5q0 -68 -55 -68q-11 0 -31 2t-32 2q-26 0 -70 -3t-70 -3q-32 0 -48.5 13.5t-16.5 58.5zM37 1401q0 57 59 57q15 0 41 -2t43 -2q24 0 65 2t66 2q13 0 21 -5.5t10.5 -18t3 -18t0.5 -17.5q0 -8 -1 -22 t-1 -21q0 -12 2 -34t2 -36q0 -39 -47 -39q-8 0 -23 1t-24 1h-8q-31 0 -83 -3t-81 -3h-2q-39 4 -39 72v12q0 13 -2 37t-2 37z" />
<glyph unicode="j" horiz-adv-x="425" d="M0 -100q0 27 2 71.5t2 69.5q0 16 -2 41t-2 39q0 41 37 41l9 -1q10 -1 16.5 0t15 4t13.5 13t5 25q0 34 -3 92t-3 92v80q0 29 2 81t2 81q0 35 -2 92.5t-2 91.5q0 27 2 71t2 70t-4 69t-4 69q0 19 12 35t41 16q13 0 35 -2t35 -2q17 0 48 1t48 1l11 1q11 2 21 3t11 0 q11 0 19 -4q28 -17 28 -62q0 -29 -1 -77t-1 -76q0 -25 1 -69.5t1 -70.5q0 -28 -1 -76t-1 -75q0 -25 2 -66t2 -65q0 -28 -2 -79t-2 -81q0 -46 1 -125t1 -125q0 -206 -131 -252q-11 -4 -22 -5.5t-16.5 -2t-27 -1.5t-30.5 -1q-40 -4 -57 -4q-40 0 -75.5 16t-35.5 56zM88 1386 q0 37 11 51.5t36 14.5q13 0 35 -1t35 -1h45q20 0 50 2.5t46 1.5t27 -8q18 -11 18 -37v-53q0 -13 1 -33.5t1 -32.5q0 -47 -59 -47q-18 0 -47 2t-47 2q-20 0 -52.5 -2t-50.5 -2q-31 0 -41 21q-8 8 -8 122z" />
<glyph unicode="k" horiz-adv-x="768" d="M29 53q0 19 4 50t4 49q0 16 -1 42t-1 42q0 30 1 82t1 83q0 48 -1 129t-1 129v101q0 20 -1 52t-1 50v217q0 57 -2 155t-2 155q0 35 16 45t49 10q24 0 66.5 -1t68.5 -1q11 0 31 2t33 2q9 0 18 -2.5t19 -13.5t10 -31q0 -7 -1 -20.5t-1 -20.5q0 -43 -1 -115.5t-1 -114.5 q0 -45 -1 -122t-1 -123v-66q-2 -14 4 -14q3 0 11.5 10t10.5 14q64 93 64 226v28q0 60 51 60q12 0 30 -3t21 -3q25 -2 68 -2h14q19 0 49.5 1t47.5 1t26.5 -11t11.5 -19.5t2 -14.5q0 -45 -25.5 -138t-72.5 -198q-8 -18 -21.5 -44t-19.5 -40q-3 -6 -10 -14.5t-10 -14.5 q-4 -8 -4 -18q0 -18 6.5 -38.5t23 -58.5t27.5 -67q20 -55 45 -131q6 -16 20 -49.5t21 -55.5q8 -22 17.5 -57.5t13.5 -48.5q3 -11 7 -23.5t6 -19t3.5 -14.5t1.5 -15q0 -47 -61 -47q-16 0 -44 2t-46 2q-21 0 -58 -3t-59 -3q-31 0 -45 20q-6 6 -18 53.5t-29 123t-29 118.5 q-9 41 -20 68q0 2 -11 24.5t-12 22.5q-6 0 -6 -25t1 -69t1 -70q0 -20 -2 -52t-2 -52q0 -18 4 -50t4 -51q0 -61 -51 -61q-15 0 -39 2t-39 2q-23 0 -63 -3t-62 -3q-59 0 -59 59z" />
<glyph unicode="l" horiz-adv-x="382" d="M35 55q0 24 3 64.5t3 64.5q0 26 -2 69t-2 69q0 37 2 100t2 100q0 45 -2 121t-2 121q0 35 2 94.5t2 95.5q0 16 -1 48t-1 47q0 45 1 120.5t1 120.5q0 16 -2 45t-2 47q0 70 67 70q16 0 44 -3t45 -3t47 2t47 2q20 0 33.5 -6.5t19.5 -12t9 -20.5t3 -17v-16q0 -32 -3 -86 t-3 -84v-112q0 -40 -2 -108.5t-2 -108.5q0 -19 2 -69q1 -30 0 -53v-28q0 -25 -1 -69.5t-1 -71.5q0 -89 2 -142v-21q0 -34 -2 -83t-2 -83v-21q0 -29 4 -78.5t4 -79.5q0 -24 -1 -34.5t-7 -24t-20 -18.5t-39 -5q-13 0 -36 2t-38 2h-8q-20 0 -52.5 -2t-50.5 -2q-61 0 -61 57z " />
<glyph unicode="m" horiz-adv-x="1193" d="M37 61q0 27 4 74t4 74q0 36 -3 97t-3 97q0 52 2 140t2 139q0 13 -1 41t-1 43q0 24 1 64t1 63q0 80 -2 125q-4 40 -4 55q0 60 67 60q11 0 32 -1.5t34 -1.5q38 0 88 3q7 0 19.5 2t19.5 2q35 0 35 -29q0 -41 16 -41q3 -1 6.5 0.5t3.5 3.5q5 3 28 21t48 30q48 23 99 23 q72 0 149 -47q6 -4 16.5 -13.5t16.5 -13.5q1 0 4 -1t4 -1q17 15 27 21q29 17 49 24q69 33 131 33q38 0 70.5 -8t55 -18.5t40 -30.5t28.5 -35t19 -41t11 -39t5 -38.5t2 -31v-24.5q0 -30 -2 -80.5t-2 -79.5q0 -40 1 -107.5t1 -107.5q0 -36 -1 -97.5t-1 -97.5v-135q0 -19 2 -49 t2 -47v-8q0 -17 -1.5 -28.5t-7 -23t-17.5 -17t-31 -5.5t-49 3t-47 3q-20 0 -53 -3t-52 -3q-10 0 -18.5 1.5t-14 5.5t-10 6.5t-7 9.5t-4.5 10.5t-2.5 13t-0.5 12v13.5v12q0 23 2 60.5t2 58.5q0 20 -1 62.5t-1 64.5q0 30 2 83t2 85q0 20 -2 55t-2 55q0 26 1 69t1 68v37 q0 80 -43 80q-57 0 -57 -110q0 -44 2 -119t2 -119q0 -22 -2 -59t-2 -58v-135q0 -20 2 -52t2 -52v-9q0 -15 1 -40t1 -41q0 -17 -2 -27t-8.5 -20.5t-22.5 -15.5t-41 -5h-8q-19 0 -53.5 1t-55.5 1h-6q-9 0 -29 -1t-30 -1q-37 0 -48.5 20.5t-11.5 57.5q0 39 3 99.5t3 76.5 q0 29 -2 90t-2 92q0 66 3.5 179t3.5 178q0 37 -9.5 54t-33.5 17q-58 0 -58 -108q0 -12 1 -31t1 -31v-92q0 -18 -1 -52t-1 -52v-127q0 -11 1 -31t1 -31t-1.5 -41.5t-0.5 -50.5q0 -14 3 -39t3 -41q0 -86 -8 -108q-12 -31 -47 -31q-17 0 -45 2t-45 2q-21 0 -56 -2t-55 -2 q-27 0 -44 13.5t-17 51.5z" />
<glyph unicode="n" horiz-adv-x="768" d="M37 1081q0 56 59 56q15 0 40.5 -2t41.5 -2q19 0 50 2t48 2q24 0 39 -11q3 -6 7 -10q1 -2 0 -7t0 -7q2 -2 4 -12t10 -11q3 0 12.5 5.5t23.5 14.5t25 15q39 20 103 29q30 0 57 -6q42 -9 73.5 -29.5t49 -48.5t28.5 -52.5t14.5 -56.5t4 -45t0.5 -32v-5q1 -18 -1 -66 q-1 -28 -1 -52v-27q0 -15 1 -39t1 -37v-119q4 -94 4 -131q1 -29 -1 -97q-1 -41 -1 -73v-39q0 -21 1 -58t1 -60q0 -26 -6 -41.5t-21 -21.5t-27 -7.5t-38 -1.5q-12 0 -30.5 1t-28.5 1q-22 1 -54 -1t-50.5 -1.5t-26.5 6.5q-5 4 -15 14t-10 41q0 33 2 89.5t2 89.5q0 36 -2 97 t-2 97q0 50 2 137.5t2 137.5v22.5v23.5v22t-1 21.5t-2.5 18.5t-5 16t-7.5 12t-10.5 8.5t-14.5 2.5q-47 0 -47 -106q0 -13 1 -34t1 -32v-158q0 -26 -1 -70t-1 -69q0 -31 3 -86t3 -86q0 -15 -1 -39t-1 -37q0 -10 1 -26.5t1 -26.5q0 -49 -15 -66.5t-50 -17.5q-19 0 -49.5 2 t-47.5 2q-16 0 -44 -3t-46 -3q-28 0 -41.5 18t-13.5 45v95q0 44 2 118.5t2 118.5q0 29 -2 81t-2 81q0 31 2 82t2 82q0 57 -4 213q0 4 0.5 52t-0.5 50q0 9 -1 23.5t-1 23.5z" />
<glyph unicode="o" horiz-adv-x="811" d="M33 639q0 145 8 200q24 181 139 261q10 9 49 26q79 33 185 37q54 0 110 -12q58 -14 105.5 -48t69 -63.5t36.5 -60.5q39 -88 39 -428q0 -247 -24 -332q-44 -103 -97 -151q-89 -82 -250 -82q-211 0 -301 145q-13 22 -30.5 75t-22.5 79q-16 82 -16 354zM338 752q0 -20 2 -53 t2 -52v-143q0 -18 -0.5 -46.5t-1 -47.5t0 -39t2.5 -33t5 -19q0 -1 2 -5t3 -5t3 -5t3.5 -5.5t4 -4.5t5 -4.5t6 -3.5t7 -3t8 -1.5t9.5 -0.5q25 0 41 13t21.5 37.5t6.5 37t1 34.5v13q0 45 -3 121t-3 120q0 19 1 50t1 49q0 112 -66 112q-37 0 -49 -29.5t-12 -86.5z" />
<glyph unicode="p" horiz-adv-x="811" d="M38.5 1067q-0.5 15 0 19t2 17t5.5 18t9.5 12.5t15.5 10.5t23 3q23 0 59.5 -3t59.5 -3q13 0 36 2t36 2q14 0 20 -3t14 -12l5 -8q2 -2 2 -6t2 -6q1 -1 1 -4.5t0.5 -7t3 -6t5.5 -2.5q4 -1 8.5 2.5t9 9t6.5 6.5q8 6 13 10.5t6 5.5t6 4t16 9q37 23 93 23q18 0 39 -3 q47 -6 86.5 -27t64 -50t39 -52.5t23.5 -48.5q36 -99 36 -444q0 -200 -26 -299q-11 -47 -33 -91q-25 -53 -50 -80.5t-75 -48.5q-52 -18 -92 -18h-4q-50 0 -96 16q-14 4 -26.5 11.5t-21.5 7.5q-18 0 -18 -31q0 -8 2.5 -20.5t3.5 -16.5q8 -62 8 -84q0 -17 -11 -27t-20 -12 t-14 -2q-12 0 -30 3t-21 3q-27 2 -67 2q-19 0 -53.5 -2t-53.5 -2q-18 0 -29 9.5t-13.5 19t-2.5 18.5q0 10 2 28t2 28q2 27 2 73q0 42 -2 113t-2 113q0 13 1 37t1 39q0 17 -1 51t-1 53q0 30 -1 83t-1 83q0 35 2 93t2 93q0 31 -1 86t-1 88v25q0 13 -2 36t-2 38q0 1 -0.5 16z M342 430q0 -125 70 -125q29 0 46 28t17 73v10q0 14 1 41.5t1 42.5v164q0 35 -5 97t-15 75q-12 20 -31 26q-22 11 -47 -6q-7 -4 -12 -10t-9 -13t-7 -13t-4.5 -15.5t-2.5 -15t-1.5 -16t-0.5 -14v-13.5v-11q0 -41 1 -110.5t1 -110.5q0 -14 -1 -39t-1 -41v-4z" />
<glyph unicode="q" horiz-adv-x="811" d="M33 578q0 144 14.5 261t38.5 167q1 1 7 12t11.5 19t14.5 20t20.5 24t24.5 23q69 55 147 55q70 0 109 -26q10 -6 23 -18t21.5 -20.5t10.5 -7.5q4 0 8 9.5t7.5 21t3.5 12.5q18 15 36 15q15 0 39 -2t37 -2q21 0 55.5 3t53.5 3q27 0 40.5 -12.5t16 -26.5t2.5 -39 q0 -57 -2 -153t-2 -152q0 -31 2 -82t2 -80q0 -14 -1 -39t-1 -41t1 -41t1 -41q0 -22 -2 -60t-2 -61q0 -17 1 -47t1 -49q0 -37 -2 -101t-2 -102q0 -53 2 -86q0 -3 3 -19.5t3 -25.5q0 -45 -53 -45h-6q-19 0 -51 2t-50 2q-20 0 -55 -4t-55 -4q-26 0 -36.5 13.5t-10.5 29.5 q0 23 7 60.5t7 58.5q0 31 -16 31q-8 0 -30.5 -10.5t-23.5 -10.5q-48 -16 -92 -16q-15 0 -35 2t-63.5 19t-71.5 46q-19 19 -41 62q-26 46 -40.5 105t-18 99.5t-6.5 104.5q-2 53 -2 144zM338 631q0 -25 1 -69t1 -70v-56v-12v-16.5t0.5 -18.5t2.5 -20.5t4.5 -19t7.5 -18.5 t11 -14t15 -10.5t20 -3.5q72 0 72 123v45q0 31 -1 86t-1 86q0 19 1 50t1 50q0 43 -7 66.5t-26 42.5q-9 14 -37 14q-22 -4 -36 -18q-5 -4 -10 -12.5t-7 -14.5l-2 -6q-10 -42 -10 -184z" />
<glyph unicode="r" horiz-adv-x="512" d="M33 324q0 30 2 81t2 82v342q0 46 -2 123.5t-2 122.5v4q0 13 1.5 21.5t7 18.5t19 15t33.5 5h80q17 0 44 1t42 1h8q17 0 26.5 -1.5t19.5 -11t10 -28.5q0 -4 -1 -12t-1 -13q0 -19 3 -49.5t3 -38.5q54 164 129 164q19 0 30.5 -12t13 -21t1.5 -16q0 -8 -2 -21t-2 -20 q-2 -27 -2 -72q0 -37 3 -101t3 -102q0 -41 -35 -41q-5 0 -15.5 2.5t-15.5 2.5q-20 0 -41 -21q-47 -44 -47 -156q0 -19 1 -52t1 -52v-10q0 -21 -1 -62t-1 -61v-160q0 -20 5 -52t5 -50q0 -41 -15 -57.5t-44 -16.5q-14 0 -39 2t-41 2q-21 0 -58.5 -3t-60.5 -3q-37 0 -55 18 q-3 4 -5 12.5t-3 22.5t-1 26t0.5 32t0.5 30q0 35 -2 93t-2 92z" />
<glyph unicode="s" horiz-adv-x="641" d="M18 74q0 17 2.5 48t2.5 50v6q0 14 -2.5 40t-2.5 40q0 21 16 39t38 18q12 0 29 -8.5t26 -9.5q7 -3 41.5 -6.5t44.5 -3.5q4 0 9.5 0.5t19.5 4t24.5 9t19 18.5t7.5 31q0 19 -10 37t-20 28t-32.5 30l-31.5 28q-61 54 -90 102q-26 39 -50 103t-24 131q0 112 51 197 q21 37 47 63q82 82 232 82q30 0 108 -8q5 0 22.5 -1t26.5 -2t23.5 -5.5t21.5 -11.5t13 -19.5t6 -30.5q0 -15 -1 -39t-1 -39v-10q0 -15 1 -39t1 -39q0 -33 -21.5 -47t-40.5 -14q-15 0 -47 16q-4 1 -13 4t-17.5 4.5t-20.5 1.5q-36 0 -53 -15.5t-17 -39.5q0 -9 3.5 -18t13 -21 t17.5 -21.5t26 -29t30 -33.5l15 -16q35 -40 45 -52t39.5 -53t41 -69t23 -74.5t11.5 -95.5q0 -107 -41 -184q-18 -37 -31 -54q-15 -22 -53.5 -51.5t-85.5 -46.5q-47 -14 -136 -14q-125 0 -182 16q-3 1 -13.5 4t-16 5t-13.5 7t-14 11q-17 20 -17 47z" />
<glyph unicode="t" horiz-adv-x="468" d="M-4 846q0 18 2 47t2 47q0 14 -1 39t-1 39v35q0 26 27 26q2 0 12.5 -1t16 -0.5t11 5.5t5.5 15v86q0 19 -3.5 53t-3.5 55q0 29 13 54.5t43 25.5q19 0 51 -2t51 -2q17 0 44 3t44 3q62 0 62 -65q0 -8 -1 -22.5t-1 -22.5q0 -12 1 -31t1 -31q0 -18 -2 -47t-2 -47q0 -21 4 -26 t24 -5h29q8 0 14.5 -1.5t10.5 -5t6 -7t3 -8.5t1 -7.5v-7.5v-4q0 -12 -1 -30.5t-1 -28.5q0 -25 2 -69t2 -70q0 -37 -31 -37q-7 0 -18.5 1t-18.5 1q-8 0 -16 -7t-8 -22v-35q0 -15 2 -41t2 -41q0 -23 -2 -60t-2 -60v-56q0 -25 2 -67t2 -66q0 -3 -1 -9.5t-1 -10.5 q0 -16 10 -22.5t18 -6.5q3 0 11 1.5t15 1t11 -4.5q13 -13 17 -22t4 -31q0 -18 -1 -47t-1 -47t1 -48t1 -47q0 -26 -12 -38.5t-29 -12.5q-14 0 -36 1t-34 1q-23 0 -59.5 -3t-57.5 -3q-81 0 -124.5 45t-43.5 160q0 38 3.5 103t3.5 104q0 278 2 342q0 5 1 13t1 13q0 23 -27 23 q-2 0 -9.5 -0.5t-10.5 0l-9 1.5t-8.5 4t-5.5 7.5t-4.5 12t-1.5 18.5z" />
<glyph unicode="u" horiz-adv-x="811" d="M31 1053q0 86 59 86q18 0 50 -3t50 -3t49 4t48 4q12 0 22.5 -3.5t20.5 -17t10 -35.5q0 -17 -2 -46t-2 -46q0 -33 4 -97q3 -49 2 -84v-19q0 -35 -3 -94t-3 -93q0 -33 1 -89t1 -89v-86q0 -55 61 -55q41 0 54.5 31t13.5 96q0 24 -2 64t-2 63v123q0 196 -2 313q0 17 -2 44 t-2 44v7v10t1 11.5t3 13t6 12t10 10.5t15.5 7t21.5 3q18 0 47 -4.5t45 -4.5q8 0 53 5q3 0 21 3t29 3q63 0 63 -54q0 -27 -2 -74t-2 -75v-8q0 -25 2 -67t2 -66v-197q0 -39 -3 -107t-3 -108q0 -24 2 -64t2 -63v-8q0 -12 -1 -33t-1 -33q0 -20 3 -55t3 -55q0 -74 -57 -74 q-17 0 -44 2t-44 2q-21 0 -57 -3t-58 -3q-27 0 -39 12q-1 2 -2 5.5t-2 4.5q-2 2 -1.5 7.5t-0.5 7.5q-1 1 -1 5.5t-1.5 8t-5.5 4.5q-3 1 -6 -1.5t-8.5 -8t-12.5 -8.5q0 -3 -45 -25q-31 -13 -52 -16.5t-75 -3.5h-8q-60 0 -94 14q-125 50 -125 215v8q0 20 2 57.5t2 55.5 q0 24 -3 66t-3 67q0 45 2 121t2 121q0 166 -4 264q0 13 -1 36t-1 38z" />
<glyph unicode="v" horiz-adv-x="768" d="M4 1094q0 18 11 29t19.5 12.5t16.5 1.5q10 0 27.5 -1t27.5 -1h23q3 0 36 -0.5t34 0.5q9 0 25.5 2t25.5 2h6q25 0 39 -4.5t21 -20t8.5 -25.5t2 -41.5t1.5 -48.5q2 -37 9 -99t9 -99q2 -22 5 -90t9 -111q10 -76 23 -76q8 0 15.5 60t15.5 160t14 143q2 19 8 50.5t8 51.5 t3.5 48.5t2.5 48t3 22.5q6 11 9 15t13 10t23 6q18 0 49 -3t49 -3q22 0 59 2t58 2q49 0 49 -43q0 -14 -3.5 -34t-10 -47t-7.5 -32q-5 -28 -12 -79t-12 -79q-31 -158 -64 -307q-5 -23 -16 -65t-16 -68l-21 -117q-16 -68 -20 -94q0 -4 -10 -65t-11 -64l-2 -7q-2 -6 -6 -12.5 t-10 -11.5t-15.5 -7.5t-15 -3t-18.5 0.5h-13q-23 0 -62 1t-61 1t-57 -1t-57 -1q-30 0 -45 23q-12 17 -47 260l-25 116q-39 191 -47 242l-15 113l-24 127l-16 104q-1 6 -10 48.5t-9 58.5z" />
<glyph unicode="w" horiz-adv-x="1150" d="M-2 1098q0 28 18 35.5t64 7.5h59q17 0 45 2t45 2q44 0 64 -29q3 -4 3 -8t1 -8q1 -1 7 -66.5t16 -160t18 -152.5q5 -49 20 -141q27 -204 27 -205l18 82q4 17 8.5 43t9 47t9.5 43q3 13 10 34.5t10.5 38.5t4.5 35q0 16 -3.5 38.5t-10 61t-11.5 70.5q-3 21 -12.5 90 t-18.5 113q0 3 -3 14t-3 21q0 33 37 33q7 0 18.5 -1t18.5 -1h74q14 0 39 1t41 1q23 0 37.5 -5.5t23 -12t12 -25.5t4 -33t0.5 -47v-10q0 -100 16 -322t31 -319q4 25 7 48.5t5.5 54t4.5 48.5l18 158q5 45 15 116t16 128t6 116v31q2 9 1.5 15.5t0.5 9.5q9 27 19 34q11 11 59 11 q23 0 62 -2.5t63 -2.5q12 0 31 1.5t30 1.5q56 0 56 -50q0 -4 -6 -35l-15 -77.5t-14 -77.5q-42 -262 -64 -387q-19 -116 -22 -131q-3 -14 -11.5 -50t-11.5 -59q0 -3 -4.5 -33t-10 -62t-12 -68t-13.5 -61.5t-13 -31.5q-12 -12 -41 -12t-81 3t-83 3q-13 0 -36 -2t-37 -2 q-31 0 -43 14q-7 8 -16 50t-16 85t-13.5 88.5t-6.5 47.5q-3 16 -8 28q-11 -41 -28.5 -113t-29.5 -117.5t-16 -51.5q-8 -11 -12.5 -16t-16 -10t-26.5 -5q-20 0 -55 1t-55 1h-5q-21 0 -54 -2t-52 -2q-14 0 -23.5 4t-13.5 7.5t-12 13.5q-6 8 -21.5 98t-30 192t-27 194.5 t-13.5 96.5q-5 31 -15.5 85t-15.5 85q-5 35 -10.5 94.5t-10.5 94.5q-3 22 -8 54.5t-8.5 55t-3.5 25.5z" />
<glyph unicode="x" horiz-adv-x="811" d="M6 33q0 10 4 22.5t8 22t15 31.5l18 36q11 24 21 48.5t21.5 55t19.5 50.5q8 19 23.5 49.5t23.5 48.5l43 101l47 88q6 6 6 16q0 6 -15 41t-34 75.5t-19 41.5q-17 34 -41.5 93t-40.5 93q-7 16 -23 47t-24 51q-14 42 -14 52q0 11 5.5 18.5t11.5 11t18 5.5t18 2.5t18 0 t13 -0.5h72q10 0 27.5 1t27.5 1h55q33 0 47.5 -27t26.5 -86t27 -94q0 -2 2.5 -11t7.5 -18t10 -8t9.5 20.5t4.5 24.5q4 15 16.5 49.5t18.5 56.5q2 6 5 23t6.5 25.5t10 20.5t18 17t28.5 5h31q10 0 30.5 1t30.5 1h6q15 0 39 1t39 1q63 0 63 -45q0 -6 -5.5 -23.5t-16 -47 t-16.5 -46.5q-16 -48 -29 -78q-6 -16 -19 -39.5t-16 -30.5q-14 -29 -45 -106q-7 -15 -22 -47.5t-21 -48.5t-6 -23q0 -10 4.5 -24.5t10 -27.5t17.5 -38.5t19 -42.5q14 -34 31.5 -88.5t27.5 -79.5q19 -47 66 -158q5 -12 15.5 -35t15.5 -38q0 -1 1.5 -7t3 -15t1.5 -15 t-1.5 -11.5t-4.5 -9t-6 -6t-8 -4t-8.5 -2.5t-9.5 -1.5t-8.5 -0.5h-8.5h-7q-17 0 -48 1t-48 1q-18 0 -50 -1t-52 -1q-27 0 -39 12q-10 10 -15 18t-6.5 13.5t-4.5 19.5t-7 27q-3 11 -6.5 22t-8 24t-7.5 22q-5 16 -13 42.5t-12 39.5q-16 43 -20 43q-4 1 -8 -11t-9.5 -35 t-7.5 -30l-23 -53l-16 -60q-2 -5 -5.5 -20.5t-6 -22t-8 -18t-12.5 -17t-18 -10t-26 -4.5h-28q-10 0 -27.5 -1t-26.5 -1h-30q-14 0 -35 1t-35 1q-7 0 -18.5 -1t-18.5 -1q-41 0 -41 35z" />
<glyph unicode="y" horiz-adv-x="811" d="M-2 1100q0 41 65 41q14 0 38 -1t36 -1h14q26 0 63 3q47 3 71 3q18 0 29.5 -4.5t17 -10.5t8.5 -19.5t3 -24v-32.5t1 -36q2 -31 10 -81.5t11 -74.5q3 -25 6.5 -66t7 -73t8.5 -66l8 -39q1 -5 2.5 -15t2.5 -17t2.5 -14t3.5 -11t4 -4q5 0 9.5 16t4.5 21q9 31 15 67t8 57.5 t3 50t1 30.5l12 92q1 13 6 104q0 5 4.5 61.5t5.5 59.5l3 4q3 5 5 8t6 7t8.5 6t10.5 2q18 0 49 -2t49 -2q20 0 74 4q4 0 21 3t28 3q66 0 66 -39q0 -23 -7 -67.5t-17.5 -98t-12.5 -65.5q-4 -19 -8.5 -46.5t-9 -51t-9.5 -46.5q-3 -19 -11.5 -49.5t-10.5 -38.5 q-26 -121 -39 -176q-4 -19 -12.5 -47t-12.5 -43q-10 -36 -24.5 -100.5t-24.5 -102.5q-5 -23 -30 -105.5t-33 -101.5q-29 -58 -56 -82q-36 -34 -84 -46.5t-131 -12.5q-68 0 -114 8q-18 3 -26.5 4.5t-24.5 7t-24 12.5t-15 20.5t-7 31.5v27q0 27 -2 71.5t-2 71.5v4q0 38 12 54 t39 16q16 0 39 -16.5t39 -16.5q24 0 33.5 13.5t9.5 27.5q1 12 -10.5 57t-25 94t-15.5 58q-18 78 -29 117q-5 20 -18.5 64t-20.5 71q-35 128 -41 159l-6 43q-6 40 -20 99q-1 6 -20 83t-19 89z" />
<glyph unicode="z" horiz-adv-x="681" d="M24.5 47q-0.5 4 0 22t0.5 23q0 49 2 76q0 23 2 35q2 19 4 28q1 3 5 13t11 26t12 27q8 18 18.5 47t16.5 43l35 80q5 13 20 54.5t27 66.5q4 8 24.5 47t36.5 70.5t30 67t14 50.5q0 12 -9 18.5t-20 6.5q-7 0 -19.5 -1t-19.5 -1h-4q-11 0 -29 2t-30 2q-10 0 -28 -5t-28 -5 q-20 0 -34.5 12.5t-14.5 40.5q0 8 2 22.5t2 22.5q2 29 2 76q0 11 -2 30.5t-2 32.5q0 17 6 28.5t13.5 17.5t22 8.5t22.5 3t24 0.5q17 0 44 -2.5t42 -2.5q17 0 47 2.5t47 2.5q13 0 34 -1t34 -1q16 0 41.5 1t40.5 1h6q10 0 27.5 -1t29.5 -1q10 0 31 1t31 1h4q15 0 25 -6t15 -13 t7.5 -24t3 -28.5t0.5 -36.5v-7q0 -47 -4 -75t-8.5 -39.5t-18.5 -38t-24 -50.5q-7 -18 -21.5 -59t-25.5 -66q-8 -20 -24.5 -53.5t-24.5 -54.5q-9 -20 -33 -86q-1 -3 -16 -42t-26 -71t-11 -43q0 -14 10 -21.5t20 -8.5l9 -1q13 0 34 -1t33 -1q32 0 55 4q5 0 14 2t15 2 q14 1 23.5 -3t14.5 -9.5t8 -16.5t3.5 -18t1 -20t0.5 -17q2 -23 2 -122q0 -9 1 -26t1 -26q0 -14 -2.5 -24t-8.5 -16t-11 -10t-13.5 -5.5t-12.5 -2t-13 0.5h-8h-6q-26 0 -72 3t-72 3q-66 0 -250 -4q-70 -4 -92 -4q-17 0 -29 1.5t-19.5 7t-12 8.5t-6.5 14.5t-2.5 15.5z" />
<glyph unicode="{" horiz-adv-x="532" d="M10 580v8v24v25v18v21l2 22v31v16v21q0 4 8 16q11 11 15 11l22 4q19 3 37 18q10 7 10 8q2 0 9 11q9 24 14 43l6 28q2 12 2 92v11v16v16v41v39q2 18 2 25v6v23v16v27v26l2 31l4 20l4 19q0 1 1 3t2.5 7t3.5 10l6 21q8 26 15 39t24 30l12 13l10 10q5 5 29 20q11 7 35 15 l18 4q16 4 39 4q12 0 14 2l23 2h24l25 -2h23q37 0 58 -20.5t21 -57.5q0 -15 -2 -29v-24v-8v-15v-18v-8q0 -74 -41 -80q-39 -6 -51 -24t-12 -72q0 -3 1 -12t1 -13v-57l-2 -33v-45v-23v-14v-45v-19l-4 -43l-6 -34l-2 -19l-4 -12q-9 -23 -19 -37q-7 -15 -24.5 -28.5 t-32.5 -18.5q-25 -6 -29 -10q-8 -4 -8 -19q0 -9 27 -14q26 -7 45 -29l10 -12l14 -18q1 0 12 -27q7 -21 7 -33q2 -6 2 -12l6 -19l2 -34l2 -15v-20v-19l2 -43l-4 -30q0 -27 2 -54q0 -6 1 -24t1 -29q0 -18 -2 -51v-12q0 -72 45 -72h16h2q41 0 41 -70v-32l2 -27l-2 -25l2 -36 q0 -28 -15 -46t-38 -18h-26l-15 -2h-10h-21h-16l-16 2h-17q-30 0 -60.5 6.5t-39.5 14.5l-8 6l-29 18l-10 12l-12 13q-11 11 -27 43l-12 30l-6 21q-1 4 -2 8.5t-2 6.5t-1 3l-4 19l-4 20l-2 31v27v26v13l-2 28l2 33l-2 14v25v16v64v14q-2 10 -2 39v6q0 25 -2 33q0 4 -2 8 l-4 16q-6 33 -23.5 57t-38.5 29l-22 5q-29 9 -29 43z" />
<glyph unicode="|" horiz-adv-x="448" d="M66 -55l4 41v26v29l-2 43l2 51v45v21v82l2 63v29l2 41l-2 92l2 24v48v41l2 57v45q0 27 2 35q2 20 2 35l-2 22l2 53v90l2 29q2 5 -2 45v82v51v39q3 75 -2 96l-4 35l-2 21l2 51l-6 25l6 20q0 8 6 14l10 9l6 6q13 10 27 10q3 0 9 -1t9 -1q32 -4 39 -4l23 4l28 -2l60 2h8 q44 0 62.5 -12t19.5 -43l2 -45v-31l-4 -21v-49q0 -17 -2 -35q0 -24 -2 -47v-51v-47l-2 -59v-105l-4 -70v-14q-2 -14 -2 -51q0 -12 4 -102l-2 -142l-2 -73v-56v-45q2 -16 2 -59q0 -150 4 -209q0 -13 1 -28t1 -17l-2 -53l2 -21v-22v-25l-2 -49q0 -42 -21.5 -60t-72.5 -18h-9 h-57h-57l-37 4l-27 4q-6 0 -18 21q-8 19 -8 26v6l2 27z" />
<glyph unicode="}" horiz-adv-x="532" d="M2 -92q0 2 1 12.5t1 18.5v22l2 10v15l-2 18v6q0 73 41 82q40 6 52 24t12 70v25q-3 49 -3 59l3 31q2 12 2 47l-2 23l2 12l-2 45l2 21l2 43l6 34l2 19l4 12l18 37q8 14 25.5 28.5t32.5 18.5q27 7 28 8q11 4 11 19q0 11 -29 16q-26 7 -45 29l-10 12l-15 16l-12 29 q-6 18 -6 33q0 6 -2 10l-4 21l-4 34l-2 15v20v17l-2 45l4 28q2 6 -2 54v53v53v10q0 74 -45 74q-6 -2 -17 -2h-2q-19 0 -30 19t-11 53v30v27v27v34q0 30 14.5 48t38.5 18h25l14 2h11h20h18l15 -2h16q31 0 61.5 -7t39.5 -16l8 -6l28 -18l11 -10l12 -13q13 -13 27 -45 q9 -14 12 -28l6 -21l6 -20l2 -17l4 -20l2 -33v-27v-26l2 -13v-26l-2 -33l2 -16v-23l2 -18l-2 -62q0 -8 2 -14v-41v-6q0 -7 1 -18t1 -13q0 -1 1.5 -3.5t1.5 -4.5l4 -16q6 -33 23.5 -57t37.5 -29l23 -7q30 -6 30 -43v-6q-2 -12 -2 -24l2 -25v-18v-21l-4 -22l2 -33l-2 -14v-23 q0 -6 -8 -14q-7 -10 -14 -13l-23 -4q-17 -3 -37 -16q-10 -7 -10 -8l-8 -13q-8 -19 -12 -43l-7 -26q-4 -12 -4 -92v-11q0 -5 1 -11l1 -5l-2 -16v-41v-39q-2 -18 -2 -27v-4v-22v-17v-27v-26l-2 -31l-4 -20l-2 -19l-8 -20l-6 -21q-8 -26 -15 -39t-24 -30l-10 -13l-13 -12 l-28 -18q-17 -10 -35 -15l-17 -4q-15 -6 -41 -6h-14l-22 -2h-25h-25h-22q-37 0 -58.5 20.5t-21.5 57.5z" />
<glyph unicode="~" horiz-adv-x="978" d="M53 563q0 20 15 45q6 8 16 22.5t14 18.5l23 27l16 20q0 1 29 33q31 29 72 51l24 13q26 7 41 8q14 4 37 4q36 0 84 -29l29 -16l24 -15l8 -6l33 -20l47 -31l6 -2l17 -6q2 -2 12 -2q28 -4 31 -4q29 0 47 18l16 17l13 12l4 14q0 1 8 13l14 16q12 20 35 20q11 0 20 -6l27 -20 l21 -10l30 -29l25 -17q13 -7 23 -23.5t10 -29.5q0 -17 -13 -37l-20 -37l-14 -22l-15 -16l-8 -11l-14 -18l-35 -31l-21 -18l-16 -10l-16 -15l-19 -6l-16 -8q-30 -19 -68 -19h-4l-20 2l-41 3l-19 6l-12 4q-15 0 -39 20l-33 21l-20 10l-23 14l-26 15l-25 18l-27 8q-20 4 -26 4 h-6q-17 -6 -23 -10q-19 -11 -20 -14l-6 -10l-13 -13l-8 -12l-14 -23q-18 -26 -47 -26q-13 0 -22.5 4t-29.5 22l-36 31l-33 35q-23 26 -23 53z" />
<glyph unicode="&#xa1;" horiz-adv-x="425" d="M27 53q0 15 2 23q0 33 2 47l8 57l6 86q3 46 9 171.5t12 193.5q2 24 10 94t12 118t4 93v26t2.5 22.5t8 22t16 13.5t26.5 8q8 0 25 -1t25 -1q9 0 28.5 -1t28.5 -1q10 -1 22.5 -1h17.5t12 -1.5t13 -5.5q17 -11 17 -31q0 -17 -1 -50t-1 -50q0 -9 2 -28t2 -28l6 -114 q12 -138 16 -203q3 -91 9 -178l6 -123q0 -12 -0.5 -33.5t-0.5 -39.5t1 -34q0 -9 2 -27.5t2 -27.5q-1 -19 -9.5 -30t-28.5 -14t-37 -3t-49.5 2t-51.5 2q-17 0 -50 -3t-49 -3q-3 0 -10 1t-10 1q-9 0 -19.5 2.5t-23 15t-12.5 33.5zM57 1155.5q0 10.5 1 33.5t1 38q0 125 -2 149 q-9 78 58 78q21 0 61 -4q14 -2 45 -2q16 0 40 1t39 1.5t31.5 0t26.5 -4.5t15 -12q5 -9 5 -28t-2.5 -52t-2.5 -54q0 -45 4 -131v-9.5v-10t-0.5 -8.5t-1.5 -9.5t-3 -8t-5 -8.5t-7 -7q-6 -5 -15 -7t-15.5 -2t-17.5 0.5t-15 0.5q-50 4 -70 4q-6 0 -17 -1t-17 -1h-56 q-1 0 -7 -0.5t-13 -1t-15 0.5t-16 4t-14 9q-8 7 -11.5 19t-3.5 22.5z" />
<glyph unicode="&#xa2;" horiz-adv-x="555" d="M47 575q0 408 148 525q31 24 90 45q2 43 2 121v30v5v5.5v5.5t0.5 6t1.5 5.5t2.5 5t3.5 4t5 3.5t6.5 2t8.5 1q4 0 11.5 -1t11.5 -1q3 0 8 1t8 1h4q6 0 17.5 1t17.5 1q10 0 18.5 -7t8.5 -21v-156h35q65 0 65 -45q0 -4 -1 -11t-1 -11q0 -6 1 -17.5t1 -17.5v-115 q0 -18 -1.5 -30t-7 -28.5t-19 -25t-35.5 -8.5q-31 0 -45 -7t-33 -36q-29 -45 -29 -209q0 -143 9 -188q17 -78 69 -84q4 0 34.5 2t31.5 -4q26 -16 26 -58q0 -25 -3 -65.5t-3 -63.5q0 -13 1 -34t1 -33q0 -25 -10.5 -41.5t-27.5 -22.5t-27 -8t-21 -2h-12q0 -22 -1 -59t-1 -58 q0 -6 1 -16.5t1 -16.5q0 -18 -10 -27.5t-21 -9.5q-12 0 -29.5 2.5t-27.5 2.5q-4 0 -11.5 -1t-11.5 -1q-9 0 -16.5 7t-7.5 21v23q0 19 -1 51.5t-1 52.5v41q-46 14 -60 23q-34 20 -70 62.5t-55 80.5q-14 31 -30 104q-19 100 -19 299z" />
<glyph unicode="&#xa3;" d="M31 25q0 114 49 184q25 36 50.5 56.5t40.5 25.5t27.5 14t17.5 32t5 71q0 34 -9 93.5t-19 92.5q-2 6 -3 17.5t-4 16.5t-10 5q-5 0 -13 -1t-13 -1q-7 0 -19.5 1t-19.5 1q-6 0 -16.5 -1t-16.5 -1q-12 0 -21.5 9t-9.5 28q0 6 1 17t1 17v43q0 9 -1 26t-1 26q0 13 7 19 t15.5 6.5t30.5 0.5q4 0 13 -1t14 -1q10 0 10 10q0 13 -8 29l-4 29l-3 23q-2 24 -4.5 56t-2.5 54q0 177 97.5 289t279.5 112q16 0 27 -0.5t42.5 -4.5t55.5 -11.5t58 -24t59.5 -39.5t50 -60.5t38.5 -84.5q3 -5 9 -33t6 -47q0 -39 -41 -39h-179q-18 0 -30 6q-7 7 -16 26t-19 26 q-24 20 -59 20q-53 0 -79 -39t-26 -88q0 -16 10 -89t15 -85q1 -2 0.5 -10t1.5 -10q0 -5 2 -5q2 -6 20 -6q5 0 13.5 1t13.5 1q10 0 27.5 -1t27.5 -1h115q5 0 13.5 1t13.5 1q30 0 30 -32q0 -10 -2 -29t-2 -29q0 -15 2 -39t2 -39v-2q0 -26 -30 -26q-20 0 -53 2t-52 2 q-13 0 -34 -1t-34 -1h-14q-12 0 -12 -6q0 -9 8 -37q12 -68 12 -105q0 -72 -37 -159q0 -1 -7 -9.5t-7 -15.5q0 -6 4 -8.5t9 -3.5t13.5 -2.5t14.5 -3.5q2 -1 15 -8.5t22 -11.5t25 -8.5t30 -4.5q28 0 42.5 9t29.5 28q3 4 9.5 21t15 29.5t20.5 12.5q14 0 35 -2t35 -2q21 0 55 2 t53 2q29 0 29 -31q0 -10 -1.5 -24t-6 -47.5t-18 -65.5t-33.5 -67.5t-56 -64.5t-82 -46q-41 -14 -82 -14q-21 0 -41 2t-38 6.5t-29.5 8t-28 9.5t-20.5 7q-78 27 -99 28q-11 1 -18.5 -0.5t-11 -3.5t-9 -7t-8.5 -7q-2 -1 -4 -11t-8 -18t-19 -8q-5 0 -14.5 1t-15.5 1 q-16 0 -41 1t-41 1q-18 0 -50 -2t-51 -2q-5 0 -10.5 1.5t-13.5 8.5t-8 19z" />
<glyph unicode="&#xa4;" horiz-adv-x="1134" d="M78 1034q0 20 13.5 43.5t33.5 36.5l14 10q1 0 19 21q23 23 45 33q15 6 22 6q17 0 37 -17t33 -45q9 -17 24 -28t27 -11q1 0 4.5 1t5.5 1l9 5l10 6l16 6l17 10h18l12 8l19 4l20 11l31 4l22 6q9 0 17 -2h18h19q20 5 43 0l12 -6q2 -2 20 -2q11 0 29 -9q20 -10 23 -10l18 -2 l10 -8l27 -12l14 -11q1 0 3 -1t3 -1h2q15 3 29 17l14 20l11 10l22 31q4 8 25 15q13 8 26 8q22 0 60 -35l18 -17q64 -58 64 -88q0 -10 -4 -14l-6 -10l-9 -21l-10 -14l-27 -27l-12 -10q-20 -16 -20 -41q0 -5 8 -16q5 -30 20 -66q18 -41 25 -90q0 -12 2 -14v-6q4 -10 4 -51 l-2 -39l-2 -21q-1 -8 -2 -15t-1.5 -10t-0.5 -4l-6 -30l-10 -45q0 -1 -1.5 -4l-4.5 -9t-5 -12l-8 -22q-4 -13 -14 -25q-13 -23 -13 -29q0 -19 29 -39q60 -43 60 -94q0 -28 -37 -65l-25 -23l-16 -14q-12 -13 -35 -23t-39 -10q-27 0 -39 18l-18 31l-13 15l-16 28q-3 10 -14 10 q-9 0 -29 -10q-13 -6 -21 -8l-38 -14q-44 -14 -89 -21q-32 -4 -34 -4q-3 0 -9 1t-8 1q-23 7 -26 4l-23 -2l-24 4l-29 8l-6 5q-6 2 -17 0q-4 0 -16 4l-23 10q-3 2 -41 16q-12 4 -26 4q-12 0 -17.5 -5.5t-17.5 -30.5q-15 -28 -38 -46t-44 -18q-15 0 -25 6.5t-36 30.5 q-2 4 -19 16q-24 21 -30.5 29t-16.5 31q-10 18 -10 34v7q0 8 2 14q1 7 8 20l17 15l24 26q1 1 6 4.5t8 4.5q21 16 21 26q0 7 -4 19l-21 39l-4 14l-16 27q-6 18 -8 36q0 5 -4 21l-7 35l-8 69l2 29l4 33l4 26l5 25q2 16 18 51l14 35l7 18l6 13q12 19 12 28q0 10 -4.5 16 t-20.5 17q-28 20 -46.5 45.5t-18.5 44.5zM326 649l6 -16q3 -6 0 -21q0 -10 2 -14l4 -8q0 -1 0.5 -3.5t1.5 -8t2 -11.5l6 -20q14 -36 23 -45l8 -8l33 -37q11 -14 34 -23l17 -8l10 -10l16 -4l17 -9l49 -6l18 -2l11 4h20h6q6 0 25 11l14 8l19 8q25 11 57 33q10 7 12 12l8 16 q2 0 9 11l4 6l24 37l6 20q1 4 2 9t2 8t1 4l6 8v16v19l6 30v9q0 13 -6 43q-9 47 -19 61l-8 8l-10 31l-33 37l-22 18l-17 15q-49 41 -131 41q-24 0 -33 -3l-47 -16l-12 -2l-18 -12l-15 -11l-33 -28l-14 -10l-18 -23l-11 -29l-8 -8l-8 -16q-8 -31 -10 -47l-4 -49z" />
<glyph unicode="&#xa5;" horiz-adv-x="854" d="M-8 1389q0 51 55 51q19 0 52 -3t53 -3q24 0 65 3t66 3q12 0 21.5 -2.5t16 -9.5t10.5 -12t7.5 -19t5 -21t4 -27.5t4.5 -29.5q4 -30 16.5 -79t16.5 -73q5 -23 11.5 -62.5t11.5 -62.5q1 -3 2.5 -11t3 -13.5t3.5 -11.5t3.5 -9t3.5 -2q3 1 8 27t13 68.5t12 62.5q3 17 15 62.5 t15 74.5q3 17 4.5 41.5t2.5 41t2 18.5q0 18 12 30q21 21 55 21q23 0 62 -3t61 -3q20 0 55 2t56 2h4q51 0 51 -41q0 -17 -5 -34.5t-13 -38.5t-11 -34q-8 -26 -18.5 -69.5t-18.5 -69.5q-9 -30 -32.5 -94t-34.5 -105q-2 -5 -11.5 -46.5t-9.5 -45.5q0 -14 29 -14q6 0 18 2t19 2 q31 0 31 -35v-26q0 -13 1 -35t1 -35q0 -33 -31 -33q-10 0 -26.5 1t-26.5 1q-52 0 -60 -4l-8 -10q-4 -3 -20.5 -47.5t-16.5 -48.5q0 -5 2 -8.5t6 -5.5t7.5 -3t10 -1.5t10.5 -0.5h11.5h10.5q10 0 30.5 1t30.5 1h16q25 0 37.5 -11.5t12.5 -27.5q0 -6 -1 -17.5t-1 -17.5v-40 q0 -24 -12.5 -37t-45.5 -13q-11 0 -31 2t-32 2q-74 0 -82 -4q-10 -5 -10 -28q0 -8 1 -21.5t1 -21.5v-52q0 -42 8 -174q0 -9 1 -24t1 -23q0 -57 -64 -57q-20 0 -53 2t-53 2q-24 0 -61.5 -2.5t-47.5 -3.5q-57 0 -57 57q0 14 1 40t1 42q0 21 -1 56t-1 55q0 19 1 49t1 47v8 q0 5 1 14.5t1 14.5q0 9 -9 15.5t-18 6.5q-19 0 -53 -1t-53 -1q-39 0 -52.5 13.5t-13.5 40.5q0 5 1 14t1 14q0 56 12.5 69t69.5 13q9 0 25.5 -2t26.5 -2h30q25 0 25 12q0 2 -2 7.5t-5.5 14.5t-4.5 13q0 1 -6.5 20t-10.5 25q-1 2 -1.5 8t-2.5 9q-1 1 -1.5 4.5t-2.5 5.5 q-1 1 -2 3.5t-6 4.5q-4 4 -53 4q-9 0 -25.5 -2t-26.5 -2q-22 0 -32.5 11t-10.5 26v31q0 11 -1 30.5t-1 32.5q0 31 35 31q5 0 15 -1t17 -1t14.5 1t11.5 4.5t4 10.5q0 5 -6.5 24t-17.5 48.5t-17 48.5q-38 104 -64 203q-6 19 -14.5 53t-14.5 55q-5 19 -12.5 40t-10.5 32.5 t-3 22.5z" />
<glyph unicode="&#xa6;" horiz-adv-x="440" d="M66 1335q-4 17 2 45q0 7 1 17t1 12l-2 37q0 19 18.5 32t44.5 13h72h47q8 2 26 2q54 0 72.5 -17t18.5 -69v-10l-2 -33v-84l-5 -55v-33l2 -33l-2 -39v-53v-41v-35q0 -1 1 -8t2 -19.5t2 -25.5q4 -46 4 -76q0 -64 -4 -88q-5 -15 -21 -29t-31 -14l-26 -2l-15 -2l-51 2h-33h-30 h-4q-35 0 -54.5 18t-19.5 52v14q0 30 -2 55q-4 42 -2 50l2 47l-2 34l2 9l2 26q0 9 -2 17q-3 21 0 55v14v35v53l-4 25v37l-2 12v21zM76 -74l2 33v84l4 55v33l-2 33l2 39v53v41v37l-4 51v78l-2 67q0 24 16 43t37 19l27 2h14h51h33h35h4q74 0 74 -72v-14q-2 -25 -2 -53l2 -52 l-2 -45l2 -34q0 -7 -2 -9q-3 -21 -3 -24q0 -7 3 -19q3 -31 0 -55v-14l2 -35l-2 -55l4 -23v-37l4 -14l-2 -19l2 -32v-45l2 -15q2 -6 2 -14q0 -40 -19 -62t-53 -22l-65 2q-29 0 -47 -2h-27q-54 0 -72 17t-18 69v10z" />
<glyph unicode="&#xa7;" horiz-adv-x="811" d="M8 535q0 78 30.5 153t61.5 117q4 5 37 43q2 3 7 7t6 7q0 5 -10 16t-11 13q-6 9 -18 37q-12 21 -24.5 62t-12.5 81q0 109 35 188t92 121q15 12 31 21t32 15t17 7q32 13 45 17.5t46 10t74 5.5h37q41 0 111 -7t86 -22q10 -8 14.5 -12t8.5 -13t4 -22q0 -12 -2.5 -29.5 t-2.5 -27.5l-4 -82q0 -63 -4 -72q-8 -19 -10 -22t-14 -14q-13 -13 -37 -13q-12 0 -25.5 5t-24 11t-12.5 7t-10 5.5t-13 6.5t-14 5.5t-19 5t-21 1.5q-34 0 -61 -21t-27 -56q0 -22 8.5 -40.5t29 -37.5t39 -33t55.5 -39.5t62 -44.5l41 -33l30 -22q30 -23 42 -35q25 -25 41 -51 q59 -81 59 -179q0 -44 -20 -103.5t-35.5 -90t-28.5 -51.5q-8 -13 -23.5 -32t-25.5 -31.5t-10 -14.5l2 -14q5 -11 17.5 -33t17.5 -37q36 -91 36 -164q0 -81 -27.5 -144.5t-71.5 -102t-104.5 -63.5t-120.5 -34.5t-126 -9.5q-31 0 -102.5 6.5t-86.5 15.5q-1 1 -7.5 6.5 t-10.5 10t-8 13t-4 17.5q0 13 2.5 33.5t3.5 26.5l4 88q1 13 1.5 32.5t1 32t1.5 15.5q12 22 23 33q19 14 45 14q10 0 19 -4t20.5 -12.5t19.5 -12.5q2 -1 12 -5.5t19.5 -8.5t22.5 -9t27.5 -7.5t27.5 -2.5q41 0 73.5 22t32.5 64q0 26 -27 64q-17 24 -53.5 52t-59 41.5 t-30.5 17.5l-53 38q-15 10 -28 18.5t-18 11.5t-15 12t-27 26q-50 48 -80.5 103t-30.5 133zM258 637q0 -10 3.5 -19.5t7 -15t9 -13t7.5 -9.5q26 -32 225 -166q2 4 8.5 15.5t8.5 15.5t6 12.5t5 16t1 15.5q0 21 -13 43q-13 19 -48.5 45t-91.5 65t-99 75q-13 -17 -19 -31 q-10 -17 -10 -49z" />
<glyph unicode="&#xa8;" horiz-adv-x="425" d="M-68.5 1395q-0.5 13 0.5 20q5 35 43 37q10 1 28.5 -0.5t23.5 -1.5q37 -3 71 0q30 3 49 1t27 -13t8 -64q0 -8 1 -25t1 -26q0 -17 -2 -25v-4q1 -5 0.5 -8.5t-1 -9.5t-2.5 -11t-5 -10t-8.5 -8.5t-13.5 -5.5q-4 -1 -13 -1t-19.5 0.5t-13.5 0.5q-12 0 -34 -1t-33 -1h-51 q-13 0 -23 2.5t-15.5 8.5t-9 11t-5 13.5t-2 12.5t0 12.5t0.5 9.5q0 16 -1 44.5t-1.5 41.5zM248 1393q-3 25 4 39q9 18 35 18q24 0 68.5 -1t66.5 -1q9 0 23 0.5t20 0.5t13 -2t11 -7q9 -9 9 -43q0 -7 -1 -21.5t-1 -21.5v-35q0 -5 1 -17t0.5 -18.5t-2.5 -15t-8 -14.5t-16 -9 q-18 -8 -111 -8h-59q-46 0 -49 27v14q-1 15 -1.5 35t-0.5 33q0 31 -2 47z" />
<glyph unicode="&#xa9;" horiz-adv-x="1654" d="M98 727q0 120 36 231t103 200t156 155.5t201 102.5t233 36q200 0 367.5 -96t264.5 -262.5t97 -364.5v-10q-3 -151 -61 -285.5t-155 -231t-231 -152.5t-284 -56t-284.5 57.5t-231.5 155t-154 233.5t-57 287zM164 723q0 -181 88 -333.5t240.5 -241.5t332.5 -89 q181 0 334 88t242.5 240.5t89.5 331.5q0 184 -87.5 337t-239 241.5t-333.5 88.5q-138 0 -261.5 -52t-212.5 -140t-141 -211t-52 -260zM537 666v51q0 16 4 110q5 111 23 168.5t67 112.5q27 32 88 63q57 29 143 29q3 0 9 -1t8 -1l39 -2q9 -1 19.5 -2t15.5 -1.5t8 -0.5 q12 -2 36 -21q7 -14 7 -22v-12q0 -6 -1.5 -14.5t-1.5 -14.5t1.5 -24t1.5 -27q2 -12 2 -33q0 -51 -41 -51h-2l-35 6q-10 2 -33 2q-36 0 -63.5 -17t-34.5 -44q-17 -53 -17 -197q0 -56 2 -70l4 -41q7 -73 41 -105t103 -32h16q37 0 49.5 -12t12.5 -47v-19v-26v-27v-27 q2 -8 2 -16q0 -26 -19 -40.5t-53 -14.5q-15 0 -25 2q-84 3 -135 12q-86 14 -127 55l-6 9l-14 12q-33 33 -45 57q-19 34 -33 100.5t-14 124.5v29z" />
<glyph unicode="&#xaa;" horiz-adv-x="598" d="M63 981q0 85 19.5 146t75.5 96q45 22 90 20q13 0 45 -8q19 -12 29 -12q12 0 12 18q0 31 -17 43t-61 12q-23 0 -68 -10q-6 -2 -17 -9t-19 -7q-41 0 -41 49v74q0 8 1 14.5t4.5 11t6 7.5t9 6t9.5 4t12.5 4t12.5 4q33 12 80 12q2 0 30 0.5t39.5 0t40 -2.5t45 -7t38.5 -13 t38 -22t27 -32q16 -24 16 -114q0 -12 -1 -31t-1 -31q0 -16 1 -41t1 -41q0 -18 -1 -55t-1 -55v-101q0 -11 1 -32t1 -33q0 -13 -1 -33.5t-1 -32.5v-14q0 -15 -8.5 -23.5t-15.5 -10t-13 -1.5q-13 0 -33 1t-32 1q-10 0 -28 -2t-28 -2q-6 0 -9.5 1t-4.5 2t-3 5l-3 6 q-1 0 -1.5 11.5t-2.5 11.5q-4 0 -13.5 -10.5t-17.5 -14.5q-36 -16 -65 -16q-45 0 -78.5 18t-51.5 44t-29.5 63t-14.5 67t-3 64zM250 968.5q0 -5.5 0.5 -15.5t2 -17t4 -16t6.5 -14.5t10 -9t14 -3.5q21 0 30 18t9 37v80q0 19 -11.5 36t-31.5 13q-15 -1 -24 -20t-9 -43v-23v-9 v-13.5z" />
<glyph unicode="&#xab;" horiz-adv-x="641" d="M21 667q0 11 2 15q2 14 28 37l33 29q11 11 31.5 31t36.5 36t30 31q70 70 74 72q12 8 14 6q6 0 10.5 -7t4.5 -14q0 -10 -4 -26v-158q4 -24 4 -43q0 -7 -1.5 -12.5t-3 -9.5t-7 -10t-8.5 -9t-13.5 -12.5t-15.5 -14.5q-3 -3 -27.5 -26t-36.5 -37q6 -10 39 -43l31 -33 q26 -26 30 -31q7 -7 9.5 -15t3 -14t-0.5 -22.5t-1 -28.5v-75q0 -42 2 -62q4 -32 4 -49q0 -8 -5 -13t-10 -5q-4 0 -8 2l-4 2q-5 4 -15 14.5t-24.5 26t-27.5 28.5q-14 14 -59 59.5t-68 71.5q-4 3 -7.5 6.5t-8 8.5t-7.5 8q-2 0 -9.5 9t-10.5 16t-3 24.5t1.5 48t1.5 49.5 q0 66 -2 99q0 2 -1 15.5t-1 24.5zM344 655q0 6 3 11.5t6.5 9.5t12.5 13.5t15 15.5q28 31 59 59l17 12l16 19l14 14q16 19 35 35l47 47q13 18 25 18t12 -20q0 -7 -1 -19t-1 -18q-2 -25 -2 -72q0 -41 2 -61q4 -28 4 -45q0 -11 -3.5 -20t-7 -13t-18 -17.5t-22.5 -21.5 t-21.5 -21t-24 -23.5t-19.5 -20.5l40 -45q3 -3 9 -9.5t11 -11t9 -8.5q9 -9 20 -18.5t16.5 -15.5t8.5 -11q4 -7 4.5 -17t-1 -28.5t-1.5 -30.5v-59q0 -53 2 -78q4 -20 4 -35q0 -16 -18 -16q-10 0 -16 5t-23 25q-14 14 -16 17q-24 24 -29 28l-45 45l-68 70q-41 37 -45 45 q-5 11 -5.5 17t0.5 20.5t1 26.5q0 15 -1 47t-1 47v65q0 7 -2 21.5t-2 21.5z" />
<glyph unicode="&#xac;" horiz-adv-x="978" d="M47 510q0 12 2 22v9q2 8 2 14l-2 31l2 24v6l-2 17v14l-2 4v2l2 23v6v18q0 15 11.5 25t31.5 10q1 0 3 -1t3 -1q27 -6 37 -6q11 0 23 2h18h14l15 -2h6h12l23 2h6h4h6l4 -1q4 -1 8 -1h21h10q29 0 39 -2q15 -3 18 0l15 2q2 0 4.5 1t3.5 1q2 0 6 -1t6 -1l9 -2q2 -2 10 -2h8h8 q6 0 14 2q12 2 43 2h7h4l28 -4h7l4 -2h10h16l21 2q2 0 12 1t18 1h19l16 2q4 2 15 2h2l18 -2h35l14 -2h13h28q17 0 25 2q12 2 26 2l19 -2h6q18 -4 27 -16l6 -9l6 -8q2 -4 2 -16v-6v-13l-2 -6v-6v-4v-6v-12v-7v-6l-2 -4v-10l-2 -12v-23v-8v-27v-6v-6l-2 -14l-2 -4v-35l-2 -6 v-17v-12q2 -6 2 -12q0 -4 -1 -12t-1 -11q-4 -14 -4 -26l4 -39v-21v-18l2 -15v-24v-4v-25v-28q0 -12 -11 -23q-6 -16 -30 -16l-25 2h-14h-33h-2h-6q-2 0 -6 -2h-27l-24 2l-25 -2l-4 -2q-49 0 -49 43q0 3 1 11t1 11v2l-2 25v24l-2 25l4 43l-2 26l2 21q0 2 1 7t1 7l-2 4v15v2 q0 8 2 16q2 6 2 17q0 20 -21 20l-5 -1q-5 -1 -9 -1h-8l-8 -2l-21 2h-29l-16 2l-24 -6q-1 0 -17 4h-22l-17 -4l-24 4h-11h-14l-27 -4l-32 6q-16 0 -39 -2h-31q-25 0 -41 2q-24 6 -33 6q-1 0 -3 -1t-3 -1h-28h-5h-12l-20 -2h-13h-10q-2 0 -5 -1t-5 -1q-14 0 -25 14 q-8 11 -8 25z" />
<glyph unicode="&#xad;" horiz-adv-x="454" d="M23 442q0 15 2 33v37v16v47v13v10q4 36 4 37q0 2 4 14q9 25 33 25h4l26 -2h6h33h68h22q14 -2 29 -2h2q6 -2 18 -2h29h10l17 2q31 2 39 2q36 0 49.5 -13t13.5 -47v-24q-2 -14 -2 -74v-12v-10q0 -55 -3.5 -73t-16.5 -28q-15 -10 -50 -10h-14h-24h-5l-6 2h-26h-13l-22 -2h-2 h-8l-6 1q-6 1 -11 1q-12 2 -22 2q-21 0 -41 -2q-29 -3 -47 2h-2h-5q-6 0 -14 -2q-5 0 -10 -1l-4 -1h-6q-26 0 -37.5 14t-11.5 47z" />
<glyph unicode="&#xae;" horiz-adv-x="1654" d="M98 727q0 120 36 231t103 200t156 155.5t201 102.5t233 36q200 0 367.5 -96t264.5 -262.5t97 -364.5v-10q-3 -151 -61 -285.5t-155 -231t-231 -152.5t-284 -56t-284.5 57.5t-231.5 155t-154 233.5t-57 287zM164 723q0 -181 88 -333.5t240.5 -241.5t332.5 -89 q181 0 334 88t242.5 240.5t89.5 331.5q0 184 -87.5 337t-239 241.5t-333.5 88.5q-138 0 -261.5 -52t-212.5 -140t-141 -211t-52 -260zM549 299v27v34q0 3 1 8t1 7v14v2v45v23v194v158q1 72 2 134.5t1.5 91t0.5 30.5v10v8q0 85 6 93l6 8q15 12 31 12h104h21h10q3 0 15 1t18 1 q14 2 33 2h10l12 2h84q45 0 76 -8q66 -21 113 -88q27 -36 34 -72q3 -12 9 -135q0 -1 1 -9.5t1 -14.5q4 -46 4 -52q0 -130 -94 -202q-17 -14 -17 -23q0 -8 10 -20l2 -7q5 -5 5 -6l2 -2l2 -4q0 -3 6 -12q5 -14 8 -17l31 -71l6 -19l8 -22l4 -6l4 -8l2 -7q39 -72 39 -96 q0 -41 -55 -41h-31q-14 2 -47 2q-17 0 -35 -2q-10 0 -22 -1t-15 -1q-23 0 -32 8.5t-15 34.5q-5 22 -12 41l-8 18q-2 10 -23 56l-8 18q-15 30 -22 60q-11 47 -35 47q-17 0 -21 -12.5t-4 -65.5v-8v-6v-11v-10v-22l2 -23v-16l2 -13q0 -2 1 -7.5t1 -8.5q0 -8 1 -18t1 -13 q0 -51 -43 -51q-4 0 -13.5 1t-14.5 1q-25 2 -47 2q-20 0 -52 -4l-18 -2h-6q-41 0 -41 43zM776 831q0 -38 11.5 -54.5t37.5 -16.5q35 0 57.5 21t22.5 53q0 10 -2 22v23v36q0 49 -17 71t-55 22q-35 0 -45 -7t-10 -32q0 -15 2 -27v-6q2 -6 2 -14q0 -15 -2 -23q-2 -41 -2 -68z " />
<glyph unicode="&#xaf;" horiz-adv-x="425" d="M-35 1280q0 6 1 16t1 15v43q0 33 12.5 46t36.5 13q11 0 31 -1t33 -1q17 0 53 3t55 3q12 0 30 -2t30 -2h4q26 0 70 3t69 3q35 0 51.5 -8.5t16.5 -30.5v-49q0 -86 -51 -86q-7 0 -19.5 1t-19.5 1q-17 0 -44 -1t-44 -1q-13 0 -37.5 1t-36.5 1q-27 0 -72 -4t-72 -4 q-98 0 -98 41z" />
<glyph unicode="&#xb0;" horiz-adv-x="704" d="M49 1243q0 5 4 17q2 6 2 10v8l4 18l2 17l7 12l4 18l8 17l6 10l10 21l6 14q3 6 9 12l14 15l18 12l9 12l10 6l14 15l41 22l19 10l10 2l16 7l25 4l28 8l27 2h16h4q13 0 21 -2l31 -6q12 -6 16 -6l25 -5l14 -6l23 -12l26 -12q24 -6 47 -39l19 -21q8 -4 12 -8l10 -16l15 -23 l18 -51l2 -10q0 -1 4 -21q6 -15 6 -37v-16l2 -18q2 -6 -2 -23q-1 -3 -2 -6.5t-1.5 -5t-0.5 -2.5l-2 -15l-4 -18v-10l-23 -56l-2 -6q0 -2 -8 -14l-30 -41l-31 -31l-15 -12q-15 -17 -39.5 -29t-43.5 -12h-9l-14 -6l-31 -6q-6 -2 -12 -2h-14l-21 -2q-1 0 -3 -1t-3 -1 q-14 0 -29 6q-4 1 -9 2l-7.5 1.5t-3.5 0.5l-17 2q-6 0 -16 2l-12 4l-41 19q-15 6 -19 10l-10 12l-8 4l-25 23l-10 8l-8 10l-8 12l-13 9l-4 16l-10 12l-4 13l-14 20l-6 14l-2 19q0 2 -1 4t-2 5t-2 5q-6 9 -6 14q-2 2 -2 19q0 21 -2 31q0 7 -1 14t-1 8zM180 1225l2 -15l6 -30 l5 -15l12 -26l12 -19l10 -6q2 0 11 -12q14 -21 43 -31l20 -4l21 -10l12 4l8 -4q15 0 29 2l22 4l8 4l15 4q20 0 43 27l8 10l12 6l13 23l10 12l4 12q0 1 6 19q6 12 6 34q2 6 2 15q2 6 2 10q0 2 -0.5 3.5l-1.5 4.5l-2 6l-4 17l-2 10v14l-8 15l-6 14l-19 14l-10 17l-10 8l-8 10 l-21 8l-14 9q-4 4 -13 4q-1 0 -3 0.5t-6 1t-9 0.5l-18 4q-10 2 -23 2h-4l-33 -8l-12 -2l-14 -9l-15 -6l-18 -12l-12 -8l-7 -13l-26 -30q-13 -16 -13 -31l-4 -35z" />
<glyph unicode="&#xb1;" horiz-adv-x="978" d="M66 662q0 1 1 7.5t1 12.5v8q2 8 2 17v28l2 25q0 4 -2 8v14l-2 15v4v2l2 22v6q-2 10 -2 21q0 27 41 27h6q4 -2 8 -2q6 0 14 2h19h20l23 2l12 -2l12 -2h8h11l24 2h4h4h7q8 0 14 -2h18h11h20q13 3 14 4q2 0 2 10v6v4v14v31v17q5 31 5 45l-3 47l-2 16v21l2 26v27q0 7 11 18 q13 13 26 13q2 0 7.5 -1t7.5 -1l8 -3l10 -2h8h15h10l45 5h4l6 -3l27 -4h20q25 0 35 -12q14 -17 14 -37q0 -2 -1 -11.5t-1 -16.5q0 -3 -1 -14t-1 -19l-2 -23l6 -14v-8v-4q0 -7 -2 -13v-20v-8q0 -4 1 -10.5t1 -8.5t-1 -10t-1 -14q-4 -16 -4 -27q0 -23 35 -23q4 0 12.5 1.5 t12.5 1.5q3 1 6 1.5t5 1t3 1t2 0.5q8 -2 21 -2l34 -2l15 -3h32q16 0 31 3q14 2 27 2l18 -2h8q17 0 27 -17l4 -6l6 -10q4 -4 4 -17l-2 -4v-14v-6v-4v-6v-7v-12l-2 -6v-4v-6l-2 -8l-2 -15v-22v-8v-27v-6v-6l-2 -13q0 -11 -12 -18.5t-29 -7.5h-6h-14h-11h-10l-18 -2 q-4 -2 -15 -2q-10 0 -18 2l-12 2h-8l-33 -2l-33 2h-18q-11 0 -15 2l-14 2h-2q-10 0 -16.5 -8.5t-6.5 -20.5v-12v-21q0 -16 -2 -26q-3 -18 0 -27l4 -20v-19v-18l2 -15v-24v-4v-27v-27q0 -9 -10 -22l-8 -6q0 -2 -14 -6h-9q-9 -3 -24 0l-14 2h-33h-2h-6q-3 0 -7 -2h-26l-25 2 l-24 -2h-4q-48 0 -48 39q0 10 3 22v2l-3 25v22l-2 25l5 24q0 6 -3 27q-3 12 0 21v10v8l-2 14v2q0 9 2 17q3 9 3 16q0 21 -21 21q-8 0 -12 -2q-27 -3 -53 -3q-23 0 -43 5q-28 4 -33 4h-6l-29 -2h-4h-10h-23h-12q-4 0 -8 -2h-13q-11 0 -22 14q-10 10 -10 25zM68 39q0 10 2 20 v11q2 6 2 14v31l2 22q0 1 -1 3.5t-1 4.5v17l-2 12v4v4l2 19v8q-2 8 -2 18q0 33 43 33h8l6 -2l12 -2h17h22h23h10l14 -2h6h13l22 2h6h4l7 -2h14q8 -2 18 -2q7 0 11 2h20h8l6 2h21h6h6q6 2 10 2q5 0 11 -2h22h10l41 2h5h6l30 -2h7h4h10l18 -2h13q16 -2 32 -2l43 4h17l14 2h21 q8 0 18 -1t12 -1h17h30h33q5 1 11.5 2t10 1.5t5.5 0.5l18 -4h8l11 -2h10l8 -8q4 -4 4 -8l4 -15l2 -2v-6v-12l4 -15v-4v-6v-4l-2 -8v-10v-9v-6v-6l-2 -8l2 -12l-2 -9v-8l-2 -8v-10v-25v-6l-2 -6v-14q0 -10 -13 -18.5t-28 -8.5h-6h-18h-17l-18 -2h-14h-21q-10 2 -18 2h-2 l-33 -2l-33 2l-18 2h-15l-20 -2h-4l-9 -2h-53l-8 -2h-25l-16 2q-12 2 -31 2h-4l-6 -2h-4q-6 -2 -29 -2l-24 2l-25 -2l-18 2l-19 -2l-6 2h-18q-2 -2 -6 -2h-11q-12 -2 -30 -2h-19l-28 4q-14 4 -33 4h-6l-29 -2h-4h-12h-21h-12h-10q-2 -2 -11 -2q-13 0 -24 14q-8 11 -8 25z " />
<glyph unicode="&#xb2;" horiz-adv-x="622" d="M43 551q0 47 2 72v4q0 14 -2 20v8q0 34 33 58q20 12 35 30l10 13l24 24l5 4l8 9l16 20l14 14l11 17l6 8l31 35q1 2 9 11.5t13 16.5l12 19q2 2 4 5t3.5 4.5t1.5 2.5l18 35l31 49q11 19 18.5 61.5t7.5 84.5q0 34 -14 53.5t-39 19.5q-38 0 -47 -55l-4 -18q-2 -8 -2 -29v-8 l2 -13v-4v-18q0 -15 -10 -27t-23 -12h-31l-30 -2h-15h-8h-16h-23q-45 0 -45 43v20l2 19v8v27l4 43l4 34q2 29 31 82q20 32 21 33l22 25q39 34 43 35l23 6l51 16l20 4h35q3 0 8.5 1t8.5 1q104 0 174.5 -78t70.5 -192q0 -15 -2 -27v-12l-4 -37l-2 -37v-6v-6q-1 -1 -1.5 -3 t-1.5 -6.5t-3 -8.5l-4 -17q-10 -40 -41 -92l-8 -14l-8 -15l-9 -16q-6 -14 -49 -68q-17 -22 -45 -47q-11 -8 -29 -26l-26 -27l-10 -8l-2 -2h79h11h4h10h6h8q3 0 11 -1t10 -1t6.5 1t7.5 1l35 2h16q39 0 39 -33q0 -2 -1 -7t-1 -9q-3 -25 0 -88v-13v-8v-4q0 -41 -33 -41 q-16 0 -22 2l-31 2h-16h-41h-23l-26 -2h-45h-17h-10h-20l-23 2h-49h-33h-6h-6q-1 0 -3.5 -1t-4.5 -1q-14 -2 -37 -2h-8q-2 0 -6 1t-5 1t-3.5 -1t-4.5 -1h-4h-4q-39 0 -39 37z" />
<glyph unicode="&#xb3;" horiz-adv-x="622" d="M37 674q0 16 10 31l4 6l17 20q4 8 10 14l12 19l4 6l25 18q16 13 22 13q20 0 37 -31q39 -57 84 -57q37 0 59.5 31t22.5 85q0 35 -24.5 58.5t-61.5 23.5h-16q-6 -2 -17 -2q-35 0 -35 43l3 11v14v10v8q0 3 -1.5 11t-1.5 12v16q0 47 25 47h12h9h4q30 0 54 18.5t28 45.5l2 10 l2 12q0 1 1 4t1 5q0 35 -13.5 57t-33.5 22q-23 0 -45.5 -12t-32.5 -31l-17 -26q-11 -19 -30 -19q-9 0 -15.5 6t-19.5 27l-6 6l-2 4q-15 19 -21 23l-20 16l-6 8q-15 20 -15 31q0 33 55 82l13 12l8 9l20 14l9 6q21 20 65.5 33.5t83.5 13.5q97 0 161 -67.5t64 -171.5 q0 -53 -12.5 -89t-42.5 -71q-18 -21 -18 -33q0 -13 18 -31q45 -42 62.5 -82t17.5 -102q0 -74 -16 -117q-2 -8 -13 -30q-27 -49 -34 -54l-33 -32q-42 -40 -107 -56l-16 -6q-16 -4 -66 -4q-66 0 -108 18.5t-86 67.5q-39 42 -39 76z" />
<glyph unicode="&#xb4;" horiz-adv-x="425" d="M23 1245q0 7 16 47l29 80l16 39q1 1 3 6.5t3 7t3.5 6t4.5 6l6 4.5t8 4.5t10 3t13 1.5q13 0 37 -2t37 -2q65 -3 147 4h3q44 0 44 -25q0 -9 -5 -19t-10 -15.5t-16 -15.5t-14 -13l-32 -35l-27 -27l-78 -81q-4 -2 -18 -2t-38 1t-38 1q-16 0 -35.5 -1.5t-30.5 -1.5t-20 3 q-18 7 -18 26z" />
<glyph unicode="&#xb5;" horiz-adv-x="811" d="M31 1053q0 86 59 86q18 0 50 -3t50 -3t49 4t48 4q12 0 22.5 -3.5t20.5 -17t10 -35.5q0 -17 -2 -46t-2 -46q0 -33 3.5 -96.5t2.5 -103.5q0 -35 -3 -94t-3 -93q0 -33 1 -89t1 -89v-86q0 -55 61 -55q41 0 54.5 31t13.5 96q0 24 -2 64t-2 63v123q0 196 -2 313q0 17 -2 44 t-2 44v7v10t1 11.5t3 13t6 12t10 10.5t15.5 7t21.5 3q18 0 47 -4.5t45 -4.5q8 0 53 5q3 0 21 3t29 3q63 0 63 -54q0 -27 -2 -74t-2 -75v-8q0 -25 2 -67t2 -66v-197q0 -39 -3 -107t-3 -108q0 -24 2 -64t2 -63v-8q0 -12 -1 -33t-1 -33q0 -20 3 -55t3 -55q0 -74 -57 -74 q-17 0 -44 2t-44 2q-21 0 -57 -3t-58 -3q-31 0 -37 12q-2 1 -3.5 4.5t-2.5 3.5q-2 1 -1 6t-1 7q-1 1 -1 4.5v7t-2 6.5t-5 4q-2 1 -6 -3t-9 -10l-4 -5q-3 -3 -12 -14t-18.5 -17t-24.5 -6q-7 0 -11.5 1t-6.5 2.5t-5 5t-6 5.5q-1 1 -1 3q0 1 -0.5 2t-2.5 1q-1 1 -1 4.5t-1 4.5 q-4 3 -6.5 5.5t-4 3t-9.5 1.5q0 -6 3 -36.5t3 -49.5v-41q0 -6 2 -16t2 -15q0 -18 -13 -32.5t-40 -14.5q-17 0 -44 3t-42 3q-21 0 -58 -3t-59 -3q-47 0 -47 49q0 23 3 61.5t3 61.5q1 26 -0.5 64t-1.5 53l-4 209q-1 14 -3.5 62.5t-2.5 78.5q0 45 2 122t2 122v28q0 148 -4 236 q0 13 -1 36t-1 38z" />
<glyph unicode="&#xb6;" horiz-adv-x="1015" d="M92 973v28l2 52v41l6 39l11 53l14 28l6 19l4 12l10 21l15 34l33 31l12 17l47 34l22 17l56 22l30 6l27 9l37 4l16 2h47h19q14 0 20 2q32 4 35 2l17 -2h6q6 -1 17 -1.5t24 -0.5h20h31l55 4l45 -2l29 4h33q40 0 56.5 -13t16.5 -44v-31v-39q0 -17 -11.5 -29t-27.5 -14h-22 q-19 0 -23 -25v-12l-2 -6v-25q0 -13 -2 -36v-29l2 -25v-33v-59v-49l-4 -111v-45v-51v-35l-2 -51v-82l2 -59v-35l-2 -61l2 -43v-60v-39l-2 -37l4 -59l-2 -49q0 -5 4 -29q0 -7 1 -17t1 -12v-34l2 -72v-39v-20v-31v-47l-2 -31l4 -90v-23v-34q-1 -22 -23 -30.5t-75 -8.5 q-42 0 -56.5 15t-14.5 58v7q0 1 1 21t1 38q2 23 2 45q2 10 2 20q0 11 -2 25q0 2 -1 18.5t-1 32.5v41v103q6 86 2 118q-2 20 -2 37l2 49l-2 66v10v33q0 35 1 71l1 37l2 31v68v22l-2 64l2 143q2 38 -2 133v47v35v29l-2 74v22q0 6 -2 17.5t-3 25.5q0 3 -1 9.5t-1 9.5v18 q0 11 -6 23q-8 22 -26 26h-35h-12q-26 0 -43 -16t-19 -41v-31l-2 -20l1 -6q1 -7 1 -13q2 -8 2 -39q-2 -12 -2 -24l2 -39v-51l-4 -54v-30v-33l4 -25v-39v-28l2 -29l-2 -82v-47l-4 -45v-33q-2 -39 -2 -65v-17l2 -61l-2 -64v-35v-55v-16l2 -39v-62l2 -20l-4 -72l2 -61l-2 -27 l2 -28v-15v-28v-35l2 -29q0 -13 -2 -25q-3 -28 0 -43q2 -16 2 -26l-2 -17q0 -10 2 -16q2 -10 2 -27q0 -22 -16 -30t-58 -8q-58 0 -67 6q-29 14 -29 73q0 17 2 23l-2 51l2 60l2 53v28v17v31l2 43l-2 32l2 41l-2 29v27l2 47l2 26l-2 35v53l-2 37v27v43v80q0 22 -12 43l-14 24 l-19 9l-12 12q0 2 -16 8q-12 3 -33.5 20t-38.5 37l-21 25l-12 20l-16 25l-17 29l-6 10l-12 27l-8 43l-11 34z" />
<glyph unicode="&#xb7;" horiz-adv-x="382" d="M33 414v22l2 4v6v56v20v21v47v14v23v2q-2 12 -2 35q0 25 7.5 36t27.5 15h4l18 -2h25h22h60h32l13 2h2q33 -3 51 2h2h2h4h2q21 0 34 -13t13 -32v-15l-2 -8v-20v-35v-23l-2 -6q0 -4 1 -24t1 -37q2 -33 2 -60q0 -77 -37 -77h-30h-23h-22h-21h-51h-16h-21h-6q-6 -2 -19 -2 q-4 0 -12 -1.5t-12 -1.5q-22 0 -37 15q-12 12 -12 37z" />
<glyph unicode="&#xb8;" horiz-adv-x="425" d="M84 -315q0 37 6 53l8 16q14 19 27 19q4 0 16 -4.5t15 -4.5q15 0 22 7q10 10 10 32q0 6 -6 14t-12 11q-30 13 -37 22q-12 15 -6 39q4 26 12 39q4 7 13 27.5t14 28.5q24 43 29 61q6 5 24 14l29 -2h24h15q6 0 10 -4t4 -6q0 -14 -25 -59q-5 -6 -10.5 -19.5t-5.5 -17.5 q-6 -19 10 -29l25 -16q22 -19 33 -39q16 -29 16 -88q0 -36 -8 -60q-3 -11 -13.5 -31.5t-17.5 -27.5q-22 -27 -63 -41q-37 -13 -84 0q-6 1 -24 9.5t-23 11.5q-27 18 -27 45z" />
<glyph unicode="&#xb9;" horiz-adv-x="622" d="M47 1239q0 30 16 41l25 20q6 3 80 68q104 90 168 90q4 0 39 -6l16 -2l17 -4l10 -2q15 -2 26 -17.5t11 -35.5v-19q-2 -6 -2 -16q0 -9 2 -13v-22q0 -13 -2 -21v-61v-12v-13v-8q2 -16 2 -43v-26v-19q-2 -12 -2 -20q0 -2 1 -9t1 -10v-10v-2v-18q-2 -8 -2 -19q0 -10 2 -16 q0 -10 0.5 -19t0.5 -13l1 -5l-1 -5q-1 -5 -1 -11v-19v-18l2 -13v-6v-10l-2 -16v-19v-10q3 -9 0 -51v-47l2 -35l-2 -31q0 -41 2 -53v-37v-14v-21v-6q0 -23 -9.5 -32t-35.5 -9h-13q-67 6 -73 6l-39 -4h-8q-23 0 -32 12t-9 43v15l4 51l-2 43l2 98v13q0 6 2 14q2 6 2 26v7l-2 49 l2 41v18v2v21v22q-2 2 -2 6l4 56v24v43q0 49 -23 49q-17 0 -37 -12q-6 -6 -8 -6l-18 -12l-8 -4l-4 -5q-20 -10 -29 -10q-3 0 -19 4l-8 11q-9 6 -12 12l-23 51l-6 10q-6 24 -6 31z" />
<glyph unicode="&#xba;" horiz-adv-x="598" d="M61 1068.5v32v25.5q0 42 1 70t6.5 65t15 62t27.5 51.5t43 42.5t63 27.5t86 13.5q41 0 72 -8q26 -7 47.5 -18.5t37.5 -23t28 -31t20 -34.5t13 -43.5t8 -47t4.5 -56t1.5 -59.5v-68q0 -128 -14.5 -194.5t-65.5 -112.5q-55 -51 -158 -51q-120 0 -182 80q-9 12 -16 27.5 t-12.5 30t-9.5 36t-6.5 36t-4.5 39.5t-3 37t-1.5 38t-0.5 33.5zM260 963q0 -3 0.5 -10.5t1.5 -11.5t2.5 -10.5t4 -10.5t6 -7.5t9 -5.5t11.5 -2q39 0 39 72q0 29 -1 80t-1 80v61q0 68 -37 68h-4q-8 0 -12 -2q-19 -14 -19 -68q0 -12 1 -33t1 -33v-47q0 -20 -1 -52t-1 -50v-8 v-10z" />
<glyph unicode="&#xbb;" horiz-adv-x="641" d="M23 907q0 19 18 19q4 0 10 -4t10.5 -9t10 -11t6.5 -7l22 -21q13 -17 25 -26l20 -21l45 -47l58 -55q6 -6 15 -14t13 -13t7 -10q4 -6 4.5 -16.5t-1 -29t-1.5 -30.5q0 -73 2 -110q4 -50 4 -78q0 -15 -8 -25q-4 -6 -15 -15.5t-12 -10.5l-29 -29l-69 -65l-78 -76 q-6 -6 -13.5 -16t-13 -14t-12.5 -5q-5 1 -8 6t-3 10l-1 4q0 5 2 15t2 14q2 25 2 72q0 28 -4 86q-4 20 -4 31q0 7 2.5 13.5t8.5 14t11 12t16.5 15t18.5 16.5l35 37l26 29l-59 61q-3 3 -9.5 10t-12.5 13t-11 10q-18 14 -23.5 25t-4.5 32q4 58 4 82q0 57 -2 84q0 7 -2 23t-2 24 zM348 905q0 8 4 14.5t10 6.5t27 -21l10 -10q14 -14 17 -16l28 -31l31 -31q15 -18 33 -33l57 -61q3 -3 14 -12.5t19.5 -18.5t11.5 -14q4 -10 4 -25t-2 -40t-2 -44q0 -32 4 -110q0 -5 0.5 -18t0.5 -19.5t-1.5 -16.5t-5.5 -18q-3 -6 -6 -10t-11.5 -11t-15.5 -14l-36 -37l-4 -4 l-70 -65l-35 -37l-18 -16q-31 -39 -47 -39q-13 2 -13 39q2 8 2 24q2 20 2 64q0 54 -2 81q-4 43 -1.5 52.5t24.5 31.5l26 27q7 7 20 19.5t23.5 23t18.5 19.5l-74 77q-37 41 -39 45q-3 7 -3 16.5t1.5 26t1.5 29.5q2 23 2 70q0 44 -2 67q-4 24 -4 39z" />
<glyph unicode="&#xbc;" horiz-adv-x="1392" d="M55 1237q0 29 15 41l26 18l78 68q104 90 168 90q2 0 7 -0.5t14.5 -1.5t19.5 -2l14 -4l19 -2l10 -2q14 -3 25.5 -19t11.5 -34q0 -1 -1 -8t-1 -11v-16v-13q0 -5 0.5 -10t1 -8t0.5 -4t-1 -9t-1 -14v-59q-2 -8 -2 -14q0 -1 1 -5t1 -6v-10q0 -9 1 -23t1 -18q0 -16 -2 -28v-17 v-20v-19v-10v-4v-16v-19v-16q2 -23 2 -37v-19q0 -3 -1 -8.5t-1 -7.5q0 -3 1 -9t1 -9v-13v-6v-12v-17v-16v-10v-51v-47v-35v-31v-55q2 -18 2 -35l-2 -14q0 -9 2 -21v-8q0 -23 -10 -32t-35 -9q-10 0 -14 2q-68 6 -74 6l-37 -4h-8q-25 0 -34 11.5t-9 43.5v15l6 49l-2 43l2 100 v12v13q4 16 4 28l-2 7v49l2 41v18v2v19q-2 12 -2 22v8l4 56l-2 22v43q0 51 -21 51t-38 -14l-7 -4l-20 -12q-4 -4 -6 -4l-6 -5q-20 -12 -27 -12q-9 0 -18 6l-11 8q-10 10 -10 15l-24 51l-5 10q-6 9 -6 31zM457 23v4l10 57l2 12q0 1 1 4.5t3.5 12t5.5 18.5l2 10q2 4 2 9l15 67 q0 6 6 21l8 28l2 8q0 9 2 23l4 35q2 12 8 37l9 39l14 65l2 10l2 11l2 10l12 49l2 16l4 25l5 18l2 19l8 41l2 12l4 18l6 41l4 15l6 24l13 49l4 15l6 31l6 22l6 29l10 55q0 1 1 6t1 10q6 37 15 78q9 34 12 62l2 10l17 76l4 22l16 80q3 19 8 35q4 12 4 20l4 13l2 12l2 10 q0 11 9.5 20t19.5 9h6q2 -2 6 -2q32 -4 58 -4h10h12q11 0 20 -9.5t9 -21.5q0 -19 -18 -78q0 -2 -1 -4.5t-2 -6.5t-2 -7q-2 -4 -2 -10l-6 -17q-16 -46 -20 -86l-8 -55q0 -3 -1 -10t-1 -13q-2 -8 -4 -17.5t-3 -12.5l-4 -31q-8 -47 -35 -168l-14 -64l-4 -22l-4 -23l-4 -22 l-8 -39l-13 -41l-12 -33q-4 -12 -12 -53l-8 -35l-11 -53l-10 -68q0 -12 -8 -39l-6 -41l-8 -47l-7 -32l-2 -15l-6 -41q0 -3 -16 -78q0 -3 -1 -8.5t-1 -7.5q-6 -24 -6 -33l-6 -16l-9 -31v-2q0 -1 -1 -3t-1 -3l-6 -18q-4 -11 -12 -17q-6 -4 -14 -4h-15q-8 2 -20 2h-11 q-8 -2 -30 -2q-26 0 -35.5 4t-9.5 15zM762 229q0 13 2 19q0 8 1 18.5t1 12.5q0 6 -2 10l-2 39v4q0 42 37 112q27 52 37 76q21 55 30 72l23 33l6 10l6 14l12 23l17 33l12 22q15 23 19 35q2 4 5 8t4.5 6.5t2.5 5.5l2 6l6 11l4 24l6 8l13 21l12 14l16 35q12 23 22 31t27 8h13 l12 -1q11 -1 22 -1h21h35q12 2 28 2h11h2q19 0 25.5 -9.5t6.5 -37.5q0 -15 -2 -21v-16v-4v-6v-4q0 -4 -2 -6v-11l-2 -8v-10v-12v-9v-28q0 -8 1 -27t1 -31q0 -16 -1 -40.5t-1 -32.5v-35v-19q2 -12 2 -26v-8v-17q0 -10 -2 -22q-2 -16 -2 -51q0 -36 4.5 -48t16.5 -12h8h12 q28 0 37.5 -6.5t9.5 -26.5q0 -1 -1 -7.5t-1 -12.5v-17v-14v-45v-14l-2 -21q0 -26 -22 -26h-2h-11l-10 2h-10h-2q-20 0 -23 -17q-4 -32 -4 -55q0 -14 2 -37q2 -16 2 -43t-8.5 -38t-30.5 -11h-16q-10 2 -51 2h-17h-8h-16l-6 -2h-6h-19q-15 0 -24 10t-9 27q0 14 2 24l3 11l2 10 v14v10v31v25v12q0 12 -9.5 20.5t-23.5 8.5h-2l-41 -2l-29 -2l-24 2h-19l-18 2h-13h-6q-14 -2 -28 -2h-17h-4h-4l-4 -2h-2h-8h-4h-7q-11 0 -17.5 8.5t-6.5 21.5zM926 408q3 -11 20 -11h6h9l10 -2h8h4h14h15h10h2q19 0 27 7t8 24v6v6q0 26 4 62q2 12 2 22v25q0 6 -1 11.5 t-1 6.5v6v7q0 2 1 7t1 9v24q0 29 -10 29q-7 0 -13 -10l-18 -33q-12 -20 -14 -26l-17 -31q-1 -2 -2 -5.5t-2 -4.5l-8 -25q0 -4 -8 -12q0 -1 -2 -4t-6 -9.5t-7 -13.5q0 -2 -2 -4l-2 -4q0 -2 -2 -4l-6 -10l-6 -15q-1 -3 -4.5 -8t-3.5 -6z" />
<glyph unicode="&#xbd;" horiz-adv-x="1392" d="M41 1239q0 19 3 27t13 14l25 20q2 1 10 8t28.5 25t41.5 35q104 90 168 90q5 0 39 -6l16 -2l16 -4l11 -2q15 -2 26 -17.5t11 -35.5q0 -7 -3 -19v-16v-13q3 -18 3 -22q0 -9 -3 -21v-61v-12v-13v-8q3 -24 3 -43v-26q0 -13 -3 -19v-20v-19q3 -9 3 -10v-2q0 -6 -3 -18v-19v-16 q3 -35 3 -37v-16v-19v-18l2 -13v-6l-2 -10v-16v-19v-10v-51v-47v-35v-31v-53q2 -18 2 -37l-2 -14q0 -1 0.5 -3.5t1 -7.5t0.5 -10v-6q0 -23 -9.5 -32t-35.5 -9h-13q-70 6 -76 6l-36 -4h-9q-25 0 -34 12t-9 43q0 3 1 8t1 7l5 51l-3 43l3 98v13q0 6 2 14q0 3 1 12.5t1 13.5v7 l-2 49l2 41v18v2v21q0 18 -2 22v6l4 56v24v43q0 49 -23 49q-21 0 -37 -12l-8 -6l-20 -12l-7 -4l-4 -5q-20 -10 -28 -10q-3 0 -19 4l-10 11q-8 8 -10 12l-23 51l-6 10q-6 12 -6 31zM438 23v4l11 57l2 12q0 1 1 4.5t3.5 12t5.5 18.5l2 10q2 4 2 9l14 67q0 6 6 21l7 28l4 8 q0 9 2 23q0 15 4 35q1 5 3.5 18.5t2.5 18.5l10 39l12 65l5 10l2 11l2 10l12 49l2 16l4 25l2 18l4 19l8 41l2 12l5 18l6 41l4 15l6 24l12 49l4 15l6 31l7 22l6 29l10 55q0 8 2 16q2 23 14 78l13 62l2 10l16 76l4 22l15 80l10 35l4 20l4 13l2 12v10q2 11 11.5 20t19.5 9h6 q2 -2 6 -2q28 -4 55 -4h13h10q12 0 21.5 -9.5t9.5 -21.5q0 -16 -19 -78q-1 -2 -2 -8.5t-2 -9.5q-1 -2 -2 -5.5t-2 -4.5l-4 -17q-17 -50 -21 -86l-8 -55q0 -3 -4 -23q-4 -28 -4 -30l-4 -31q-8 -47 -35 -168l-14 -64l-4 -22l-4 -23l-5 -22l-8 -39l-12 -41l-12 -33 q-7 -20 -13 -53l-8 -35l-10 -53l-10 -68q0 -3 -1 -8t-3 -14t-4 -17l-7 -41l-8 -47l-6 -32l-2 -15l-6 -41q0 -2 -2 -10.5t-6.5 -28.5t-8.5 -39q0 -3 -1 -8.5t-1 -7.5q-6 -24 -6 -33l-6 -16q-4 -10 -8 -31v-2q0 -1 -1 -3t-1 -3l-6 -18q-2 -6 -13 -17q-8 -4 -14 -4h-14 q-8 2 -23 2h-8q-8 -2 -31 -2q-26 0 -35.5 4t-9.5 15zM795 35q0 11 1 34.5t1 36.5v5q0 14 -2 18v8q0 35 34 58q1 1 14 13t19 19l10 13l25 22q0 3 6 6l6 8l17 21l14 14l12 15l4 8l33 37l21 28l12 19l10 12l19 35l28 47q11 19 19 61.5t8 85.5q0 34 -14 54t-39 20q-35 0 -47 -55 l-5 -21q-2 -6 -2 -26v-10l2 -11v-6v-16q0 -16 -9.5 -28.5t-22.5 -12.5h-31h-31h-14l-8 -2l-17 2h-22q-45 0 -45 43q0 10 2 20v19v6v29l4 43l4 32q5 40 33 84l18 33l23 23q37 32 43 34l22 9l51 16q4 2 21 2l35 2h16q104 0 175 -77.5t71 -192.5v-27q0 -2 -1 -6t-1 -6l-2 -37 l-4 -37v-4v-6q0 -7 -6 -19l-5 -16q-12 -47 -40 -94l-9 -12l-8 -17l-6 -14q-9 -19 -51 -68q-17 -22 -45 -47l-29 -26q-7 -7 -14 -14.5t-10 -10.5t-3 -4l-10 -8l-2 -2h80q6 2 10 2h6h9h8h8q4 -2 20 -2h15l33 2q6 2 16 2q39 0 39 -33q0 -10 -2 -16q-3 -27 0 -91v-10v-10v-4 q0 -39 -33 -39h-22l-31 2h-17l-41 2h-22l-27 -2h-45h-14h-10h-23h-22q-12 2 -50 2h-32l-6 -2h-7h-8q-12 -2 -37 -2h-8h-10h-8h-4l-4 -2q-39 0 -39 39z" />
<glyph unicode="&#xbe;" horiz-adv-x="1392" d="M29 674q0 16 10 31q0 2 4 6q0 1 1.5 3t5.5 7t7 10q2 3 5 6.5t4.5 5t1.5 2.5l14 19q1 1 2 3q1 3 2 3l25 18q13 13 22 13q20 0 37 -31q39 -57 82 -57q38 0 61 31t23 85q0 35 -24.5 58.5t-61.5 23.5h-19q-6 -2 -14 -2q-35 0 -35 43v11v14v10v8v23v16q0 47 25 47h12h6h6 q29 0 52.5 18t29.5 46l2 10l2 12v9q0 36 -12.5 57.5t-34.5 21.5t-43.5 -12t-31.5 -31l-17 -26q-11 -19 -31 -19q-9 0 -16 6t-20 27l-5 6l-4 4q-11 18 -18 23l-21 16l-6 8q-14 19 -14 31q0 33 55 82l13 12q6 6 6 9l22 14l6 6q23 20 67 33.5t83 13.5q98 0 161.5 -67.5 t63.5 -171.5q0 -53 -12 -89t-41 -71q-18 -21 -18 -33q0 -13 18 -31q44 -41 61 -81t17 -103q0 -77 -15 -117q-4 -14 -14 -30q-20 -41 -33 -54l-34 -32q-39 -39 -105 -56l-18 -6q-16 -4 -64 -4q-66 0 -108 18.5t-86 67.5q-39 42 -39 76zM483 23v4l11 57l2 12q0 1 1 4.5t3.5 12 t5.5 18.5l2 10q2 4 2 9l14 67q0 6 6 21l9 28l2 8q0 9 2 23l4 35q2 12 8 37l8 39l15 65l2 10l2 11l2 10l12 49l4 16l2 25l4 18l2 19l8 41l2 12l5 18l8 41l2 15l6 24l12 49l4 15l7 31l6 22l6 29l10 55q0 1 1 6t1 10q9 54 14 78q11 41 13 62l2 10l16 76l6 22l15 80q3 19 8 35 l6 20l2 13l2 12l2 10q0 11 9 20t20 9h6q2 -2 6 -2q32 -4 57 -4h11h12q11 0 20 -9.5t9 -21.5q0 -16 -19 -78q0 -2 -4 -18q-2 -4 -2 -10l-6 -17q-17 -50 -21 -86l-8 -55q0 -3 -1 -10t-1 -13l-6 -30l-4 -31q-2 -22 -35 -168q-1 -8 -6 -30t-8 -34l-4 -22l-4 -23l-5 -22l-8 -39 q0 -9 -12 -41l-12 -33q-7 -20 -13 -53l-8 -35l-10 -53l-10 -68q0 -9 -6 -39q-6 -22 -9 -41l-8 -47l-6 -32l-2 -15l-6 -41q0 -2 -1.5 -10.5t-5.5 -28t-7 -39.5q-5 -15 -5 -16q-3 -28 -6 -33l-4 -16q-8 -22 -10 -31v-2q0 -4 -2 -6l-6 -18q-3 -10 -13 -17q-6 -4 -14 -4h-14 q-8 2 -21 2h-10q-8 -2 -31 -2q-26 0 -35.5 4t-9.5 15zM788 229q0 10 3 19q0 8 1 18.5t1 12.5v10l-2 39l-3 4q0 42 37 112q27 52 37 76q18 46 31 72l22 33l7 10l6 14l12 23l16 33l15 22q12 23 16 35q2 4 5 8t4.5 6.5t2.5 5.5l2 6l7 11l4 24l6 8l12 21l12 14l19 35 q10 23 20 31t27 8h12l12 -1q12 -1 23 -1h23h32q14 2 29 2h10h2q19 0 26 -10t7 -37q0 -15 -2 -21v-16v-4v-6v-4q0 -4 -2 -6v-11l-2 -8v-10v-12v-9v-28q2 -18 2 -58q0 -55 -2 -73v-35v-19q2 -12 2 -26v-8v-17q0 -10 -2 -22q0 -8 -1 -25.5t-1 -25.5q0 -37 4 -48.5t16 -11.5h9 h12q28 0 37.5 -6.5t9.5 -26.5q0 -10 -2 -20v-17v-14v-45v-14l-2 -21q0 -26 -23 -26h-2h-10l-10 2h-10h-2q-18 0 -21 -17q-6 -24 -6 -55q0 -14 2 -37q2 -16 2 -43t-8.5 -38t-30.5 -11h-14q-12 2 -53 2h-17h-8h-16l-7 -2h-6h-18q-14 0 -23.5 10t-9.5 27q0 3 1 11t1 13l2 11 l2 10v14v10v31v25v12q0 12 -9 20.5t-24 8.5h-2l-41 -2l-28 -2l-25 2h-18l-19 2h-12h-6q-14 -2 -29 -2h-16h-4h-4l-4 -2h-3h-8h-4h-6q-11 0 -18 8.5t-7 21.5zM950 401q3 -12 21 -12h6h8h10h9h4h14h14l11 -2h2q34 0 34 31v8v6q0 26 4 62q3 18 3 22v25q0 5 -1.5 11t-1.5 7v4v6 q0 1 1.5 8t1.5 11v22q0 31 -11 31q-6 0 -12 -10l-18 -33q-3 -6 -8.5 -15t-6.5 -12l-16 -30q-1 -2 -2 -6t-2 -5l-8 -24q0 -3 -9 -12q0 -1 -1.5 -4t-5.5 -10t-7 -15q0 -2 -2 -2l-2 -4q0 -2 -2 -4l-6 -13l-6 -12q-1 -3 -4.5 -8t-4.5 -6z" />
<glyph unicode="&#xbf;" horiz-adv-x="598" d="M48.5 307.5q-0.5 21.5 0 34t3.5 36.5t9 48q27 89 70 178q33 65 41 84q17 52 23 117q4 46 4 65q0 14 -1 40.5t-1 39.5q0 16 0.5 23t3.5 19t11 18.5t21 9.5q12 1 14 1.5t15 -1t23 -2.5q9 0 27.5 1t27.5 1q4 0 21.5 0.5t22.5 0t17 -3t17 -7.5t10.5 -15t7.5 -24q0 -1 2.5 -22 t5 -48.5t2.5 -46.5q0 -125 -34 -256q-6 -23 -16 -60.5t-14.5 -55t-8.5 -39t-4 -35.5q0 -42 22.5 -63t48.5 -21q15 0 27 6q1 0 15 5t22 5q31 0 39 -35v-92q0 -70 2 -107q0 -48 -8 -63q-11 -25 -43 -33q-24 -8 -78.5 -13t-89.5 -5q-124 0 -205 67q-51 42 -68 109q-4 23 -4 61 v52q0 5 -0.5 26.5zM147 1155q0 23 3 47v74q4 32 4 51q0 10 -1 31t-1 33q0 47 53 55q7 0 21.5 -1t21.5 -1h131h20.5h19t15 -0.5t14 -2t10 -4.5t9.5 -7q5 -8 6 -22.5t-0.5 -43.5t-1.5 -45v-150q5 -46 -12 -63q-12 -12 -30 -13.5t-34 1.5q-1 0 -15 1t-24 1q-1 0 -35.5 -1 t-35.5 1q-8 0 -24.5 1t-24.5 1q-6 0 -18.5 -1.5t-22 -1t-17.5 4.5q-31 11 -31 55z" />
<glyph unicode="&#xc0;" horiz-adv-x="854" d="M-4 43q0 24 9 73.5t22.5 108.5t15.5 72q13 66 27.5 172t19.5 135q4 30 10 59t14 64.5t13 60.5q15 81 41 203q39 172 53 240q4 23 13 72.5t14 78.5t6 31q1 1 4 7.5t5.5 9.5t7.5 8t11.5 7.5t14.5 2.5q25 0 68 -2t67 -2t65 1t66 1q24 0 33.5 -2t19.5 -12q9 -10 15 -41.5 t12 -84.5t12 -83q2 -15 8.5 -38t8.5 -32l14 -94q7 -35 20.5 -92.5t20.5 -92.5q32 -170 64 -413q11 -88 24 -176q7 -43 18.5 -97t18 -87.5t6.5 -51.5q0 -24 -16 -36.5t-39 -12.5q-17 0 -47 2t-49 2q-21 0 -56 -4t-55 -4h-4q-39 0 -55.5 13.5t-16.5 51.5v11q0 17 -4 67 q0 113 -79 109h-3q-9 0 -29.5 -5t-27.5 -10l-15 -18q-10 -13 -13.5 -39.5t-3.5 -57t-1 -38.5v-4q1 -5 1 -9.5t-1 -11.5t-3 -13.5t-6.5 -14t-10.5 -13.5q-14 -14 -54 -14q-16 0 -44 3t-44 3h-4q-22 0 -58 -3t-57 -3h-16q-51 0 -51 43zM174 1772q0 19 23 22h39q31 0 47 -2 q79 0 120 2q7 0 21.5 1t21.5 1q29 -4 37 -16q9 -9 21 -51q12 -28 22 -60q3 -6 7.5 -18.5t7.5 -18.5q3 -10 10.5 -24t7.5 -21h-2q0 -11 -7 -17t-21 -7.5t-27.5 -1t-35.5 2t-36 1.5h-68q-5 2 -11 7.5t-17.5 19.5t-16.5 20l-55 55q-4 4 -25.5 27t-35.5 35l-7 6q-6 6 -13 16.5 t-7 20.5zM375 594q0 -33 55 -33h4q51 0 51 41q0 6 -17 134t-19 136q-1 1 -1.5 14.5t-1.5 14.5q-2 2 -3.5 6t-3 6.5t-4 4.5t-5.5 2l-4 -7q-33 -194 -33 -196q-18 -106 -18 -123z" />
<glyph unicode="&#xc1;" horiz-adv-x="854" d="M-4 43q0 24 9 73.5t22.5 108.5t15.5 72q13 66 27.5 172t19.5 135q4 30 10 59t14 64.5t13 60.5q15 81 41 203q39 172 53 240q4 23 13 72.5t14 78.5t6 31q1 1 4 7.5t5.5 9.5t7.5 8t11.5 7.5t14.5 2.5q25 0 68 -2t67 -2t65 1t66 1q24 0 33.5 -2t19.5 -12q9 -10 15 -41.5 t12 -84.5t12 -83q2 -15 8.5 -38t8.5 -32l14 -94q7 -35 20.5 -92.5t20.5 -92.5q32 -170 64 -413q11 -88 24 -176q7 -43 18.5 -97t18 -87.5t6.5 -51.5q0 -24 -16 -36.5t-39 -12.5q-17 0 -47 2t-49 2q-21 0 -56 -4t-55 -4h-4q-39 0 -55.5 13.5t-16.5 51.5v11q0 17 -4 67 q0 113 -79 109h-3q-9 0 -29.5 -5t-27.5 -10l-15 -18q-10 -13 -13.5 -39.5t-3.5 -57t-1 -38.5v-4q1 -5 1 -9.5t-1 -11.5t-3 -13.5t-6.5 -14t-10.5 -13.5q-14 -14 -54 -14q-16 0 -44 3t-44 3h-4q-22 0 -58 -3t-57 -3h-16q-51 0 -51 43zM319 1593q0 5 17 47l29 80l16 39 q1 1 3 6.5t3 7t3.5 6t4.5 6l6 4.5t8 4.5t10 3t13 1.5q12 0 37 -2t37 -2q65 -3 147 4h6h8t7.5 -0.5t8 -1.5t6.5 -2.5t6 -4t3.5 -6.5t1.5 -9q0 -9 -5.5 -19.5t-9.5 -15.5t-16 -16t-14 -13l-32 -35q-2 -2 -12 -11t-15 -15l-78 -82q-4 -2 -18 -2t-38 1t-38 1q-16 0 -35.5 -1.5 t-30.5 -1.5t-20 3q-19 7 -19 26zM375 594q0 -33 55 -33h4q51 0 51 41q0 6 -17 134t-19 136q-1 1 -1.5 14.5t-1.5 14.5q-2 2 -3.5 6t-3 6.5t-4 4.5t-5.5 2l-4 -7q-33 -194 -33 -196q-18 -106 -18 -123z" />
<glyph unicode="&#xc2;" horiz-adv-x="854" d="M-4 43q0 24 9 73.5t22.5 108.5t15.5 72q13 66 27.5 172t19.5 135q4 30 10 59t14 64.5t13 60.5q15 81 41 203q39 172 53 240q4 23 13 72.5t14 78.5t6 31q1 1 4 7.5t5.5 9.5t7.5 8t11.5 7.5t14.5 2.5q25 0 68 -2t67 -2t65 1t66 1q24 0 33.5 -2t19.5 -12q9 -10 15 -41.5 t12 -84.5t12 -83q2 -15 8.5 -38t8.5 -32l14 -94q7 -35 20.5 -92.5t20.5 -92.5q32 -170 64 -413q11 -88 24 -176q7 -43 18.5 -97t18 -87.5t6.5 -51.5q0 -24 -16 -36.5t-39 -12.5q-17 0 -47 2t-49 2q-21 0 -56 -4t-55 -4h-4q-39 0 -55.5 13.5t-16.5 51.5v11q0 17 -4 67 q0 113 -79 109h-3q-9 0 -29.5 -5t-27.5 -10l-15 -18q-10 -13 -13.5 -39.5t-3.5 -57t-1 -38.5v-4q1 -5 1 -9.5t-1 -11.5t-3 -13.5t-6.5 -14t-10.5 -13.5q-14 -14 -54 -14q-16 0 -44 3t-44 3h-4q-22 0 -58 -3t-57 -3h-16q-51 0 -51 43zM170 1589q0 13 18 37q4 4 10.5 13.5 t10.5 13.5q23 34 41 57q9 15 31 45q1 2 5 9t5.5 9t6 7t8 7t10 5t14.5 4q11 1 14 0.5t15.5 -2t25.5 -2.5q7 0 20 0.5t24 0.5t20 -1h22q71 6 90 0q11 -4 19.5 -13t24.5 -33l24 -36q10 -17 51 -70l7.5 -10t6.5 -9l5 -7.5t4.5 -7.5t3 -6.5t2 -7t0.5 -7.5q0 -7 -9 -16 q-5 -4 -11 -5.5t-10 -1.5t-11.5 0.5t-10.5 0.5h-22q-8 0 -24 0.5t-29.5 0.5t-24.5 -1q-6 -1 -20.5 -4t-22.5 -3q-29 0 -43 29q-1 2 -5 12.5t-7.5 18t-10 14t-14.5 6.5q-9 0 -16 -12q-7 -9 -11.5 -29.5t-15.5 -29.5q-4 -3 -9 -4t-8 -1t-12 1.5t-14 1.5q-25 0 -37 2 q-15 0 -44.5 -2t-45.5 -2q-22 0 -37 6t-14 22zM375 594q0 -33 55 -33h4q51 0 51 41q0 6 -17 134t-19 136q-1 1 -1.5 14.5t-1.5 14.5q-2 2 -3.5 6t-3 6.5t-4 4.5t-5.5 2l-4 -7q-33 -194 -33 -196q-18 -106 -18 -123z" />
<glyph unicode="&#xc3;" horiz-adv-x="854" d="M-4 43q0 24 9 73.5t22.5 108.5t15.5 72q13 66 27.5 172t19.5 135q4 30 10 59t14 64.5t13 60.5q15 81 41 203q39 172 53 240q4 23 13 72.5t14 78.5t6 31q1 1 4 7.5t5.5 9.5t7.5 8t11.5 7.5t14.5 2.5q25 0 68 -2t67 -2t65 1t66 1q24 0 33.5 -2t19.5 -12q9 -10 15 -41.5 t12 -84.5t12 -83q2 -15 8.5 -38t8.5 -32l14 -94q7 -35 20.5 -92.5t20.5 -92.5q32 -170 64 -413q11 -88 24 -176q7 -43 18.5 -97t18 -87.5t6.5 -51.5q0 -24 -16 -36.5t-39 -12.5q-17 0 -47 2t-49 2q-21 0 -56 -4t-55 -4h-4q-39 0 -55.5 13.5t-16.5 51.5v11q0 17 -4 67 q0 113 -79 109h-3q-9 0 -29.5 -5t-27.5 -10l-15 -18q-10 -13 -13.5 -39.5t-3.5 -57t-1 -38.5v-4q1 -5 1 -9.5t-1 -11.5t-3 -13.5t-6.5 -14t-10.5 -13.5q-14 -14 -54 -14q-16 0 -44 3t-44 3h-4q-22 0 -58 -3t-57 -3h-16q-51 0 -51 43zM98 1606l6 20q11 46 39 78q56 70 160 70 q20 0 119 -17q45 -8 70 -10q24 -4 36 -4q23 0 39 16q15 19 21 21q1 0 6 -1t13 -2.5t14 -2.5l79 -13q54 -9 54 -20q0 -9 -17 -47q-48 -125 -196 -125q-20 0 -121 16q-61 12 -78 12q-25 0 -37 -8q-4 -2 -16 -14t-21 -12q-1 0 -7 1l-15 2.5l-15 2.5l-51 8q-20 4 -30 4 q-1 0 -11.5 1t-18 2.5t-14.5 7t-8 14.5zM375 594q0 -33 55 -33h4q51 0 51 41q0 6 -17 134t-19 136q-1 1 -1.5 14.5t-1.5 14.5q-2 2 -3.5 6t-3 6.5t-4 4.5t-5.5 2l-4 -7q-33 -194 -33 -196q-18 -106 -18 -123z" />
<glyph unicode="&#xc4;" horiz-adv-x="854" d="M-4 43q0 24 9 73.5t22.5 108.5t15.5 72q13 66 27.5 172t19.5 135q4 30 10 59t14 64.5t13 60.5q15 81 41 203q39 172 53 240q4 23 13 72.5t14 78.5t6 31q1 1 4 7.5t5.5 9.5t7.5 8t11.5 7.5t14.5 2.5q25 0 68 -2t67 -2t65 1t66 1q24 0 33.5 -2t19.5 -12q9 -10 15 -41.5 t12 -84.5t12 -83q2 -15 8.5 -38t8.5 -32l14 -94q7 -35 20.5 -92.5t20.5 -92.5q32 -170 64 -413q11 -88 24 -176q7 -43 18.5 -97t18 -87.5t6.5 -51.5q0 -24 -16 -36.5t-39 -12.5q-17 0 -47 2t-49 2q-21 0 -56 -4t-55 -4h-4q-39 0 -55.5 13.5t-16.5 51.5v11q0 17 -4 67 q0 113 -79 109h-3q-9 0 -29.5 -5t-27.5 -10l-15 -18q-10 -13 -13.5 -39.5t-3.5 -57t-1 -38.5v-4q1 -5 1 -9.5t-1 -11.5t-3 -13.5t-6.5 -14t-10.5 -13.5q-14 -14 -54 -14q-16 0 -44 3t-44 3h-4q-22 0 -58 -3t-57 -3h-16q-51 0 -51 43zM155.5 1718.5q-0.5 12.5 0.5 20.5 q5 35 43 37q10 1 28 -0.5t23 -1.5q38 -3 72 0q30 3 48.5 0.5t26.5 -13.5q9 -13 9 -63q0 -8 1 -25t1 -26q0 -17 -2 -25v-4v-6t-0.5 -8.5t-1.5 -9.5t-3 -9t-5.5 -8.5t-8.5 -7t-12 -4.5h-45q-12 0 -34 -1t-34 -1h-51q-13 0 -23 2.5t-15.5 8t-9 10.5t-4.5 13.5t-1.5 13t0 12.5 t0.5 9q0 16 -1 45t-1.5 41.5zM375 594q0 -33 55 -33h4q51 0 51 41q0 6 -17 134t-19 136q-1 1 -1.5 14.5t-1.5 14.5q-2 2 -3.5 6t-3 6.5t-4 4.5t-5.5 2l-4 -7q-33 -194 -33 -196q-18 -106 -18 -123zM471 1716q-3 25 4 39q9 19 35 19q24 0 68.5 -1t66.5 -1q8 0 19 0.5t17 0.5 t13 -0.5t11.5 -3t7.5 -6.5q8 -8 8 -43q0 -7 -1 -21.5t-1 -21.5v-35q0 -3 1 -20.5t0 -23.5t-7.5 -15.5t-18.5 -13.5q-18 -8 -110 -8h-60q-46 0 -49 26l-1 15q0 14 -0.5 34t-0.5 33q0 31 -2 47z" />
<glyph unicode="&#xc5;" horiz-adv-x="854" d="M-4 43q0 24 9 73.5t22.5 108.5t15.5 72q13 66 27.5 172t19.5 135q4 30 10 59t14 64.5t13 60.5q15 81 41 203q39 172 53 240q4 23 13 72.5t14 78.5t6 31q1 1 4 7.5t5.5 9.5t7.5 8t11.5 7.5t14.5 2.5q25 0 68 -2t67 -2t65 1t66 1q24 0 33.5 -2t19.5 -12q9 -10 15 -41.5 t12 -84.5t12 -83q2 -15 8.5 -38t8.5 -32l14 -94q7 -35 20.5 -92.5t20.5 -92.5q32 -170 64 -413q11 -88 24 -176q7 -43 18.5 -97t18 -87.5t6.5 -51.5q0 -24 -16 -36.5t-39 -12.5q-17 0 -47 2t-49 2q-21 0 -56 -4t-55 -4h-4q-39 0 -55.5 13.5t-16.5 51.5v11q0 17 -4 67 q0 113 -79 109h-3q-9 0 -29.5 -5t-27.5 -10l-15 -18q-10 -13 -13.5 -39.5t-3.5 -57t-1 -38.5v-4q1 -5 1 -9.5t-1 -11.5t-3 -13.5t-6.5 -14t-10.5 -13.5q-14 -14 -54 -14q-16 0 -44 3t-44 3h-4q-22 0 -58 -3t-57 -3h-16q-51 0 -51 43zM215 1702q0 58 39 104q39 39 59 49 q48 29 117 29q47 0 96 -14q12 -3 72 -43q29 -23 44 -53.5t15 -83.5q0 -68 -26 -109q-37 -48 -94 -68q-15 -7 -28 -11t-26 -5.5t-19.5 -2t-19 0t-14.5 0.5q-39 0 -74 12q-32 9 -62 27t-40 35q-24 40 -27 59q-1 7 -4.5 22t-5.5 27.5t-2 24.5zM360 1686q0 -33 31 -48 q28 -14 47 -14q48 0 66 39q4 8 4 35q0 29 -19 45t-61 16q-7 0 -31 -8q-19 -11 -32 -47zM375 594q0 -33 55 -33h4q51 0 51 41q0 6 -17 134t-19 136q-1 1 -1.5 14.5t-1.5 14.5q-2 2 -3.5 6t-3 6.5t-4 4.5t-5.5 2l-4 -7q-33 -194 -33 -196q-18 -106 -18 -123z" />
<glyph unicode="&#xc6;" horiz-adv-x="1110" d="M-2 49q0 23 8 67.5t20.5 101.5t14.5 69q9 42 15 82t12.5 91.5t11.5 82.5q8 47 24 121t23 110q17 97 29 154q40 166 57 258q6 33 17 91.5t18 96t8 39.5l2 7q3 8 8 12q14 14 56 14q16 0 45 -1t47 -1q21 0 57.5 1t58.5 1q16 0 41 -1t39 -1q24 0 64 1t63 1q25 0 68 -2t69 -2 q12 0 30 1t28 1h61q76 0 76 -76q0 -18 -1 -46t-1 -44v-70q0 -18 -3 -31.5t-11.5 -21.5t-13.5 -13t-20.5 -7t-20.5 -2.5t-25 0t-23 0.5q-109 0 -172 2q-10 2 -28 2q-27 0 -27 -17q0 -13 10.5 -101t14.5 -99q8 -13 20 -13h14q27 0 72 4t70 4q10 0 28.5 -1t28.5 -1q6 0 16.5 1 t16.5 1q21 0 34 -18t13 -49q0 -191 -8 -211q-8 -16 -15 -23q-18 -18 -71 -18q-28 0 -72.5 3t-52.5 3q-20 4 -29 4q-29 0 -29 -31q0 -43 14 -134t36 -107q11 -8 73 -8q17 0 53 1t54 1h7h11.5t13.5 -1t14.5 -3.5t13 -7.5t12 -11.5t7.5 -17.5t3 -25q0 -9 -2 -25.5t-2 -25.5 q-2 -35 -2 -96q0 -69 -3 -78q-1 -2 -2 -5.5t-2 -5.5t-4 -6t-8 -8q-8 -6 -50.5 -10t-62.5 -4h-73q-31 0 -82 2t-82 2q-23 0 -62 -3t-63 -3q-17 0 -29.5 4t-19.5 7.5t-11.5 12.5t-6 13t-3 17t-2.5 16q0 4 -1 38.5t-4 61.5t-9 37q-27 39 -74 39q-26 0 -44.5 -8t-27.5 -18.5 t-14 -29.5t-6 -32t-1 -36t-1 -32q0 -3 -0.5 -17.5t-3 -24.5t-8.5 -17q-13 -16 -24.5 -21.5t-35.5 -5.5q-18 0 -50.5 3t-51.5 3q-23 1 -59 -2.5t-54 -3.5q-1 0 -8.5 -0.5t-11 0l-10.5 1.5t-10.5 4.5t-8 8.5t-6.5 14t-2 21zM373 600q0 -45 59 -45q58 0 60 45q0 6 -2 16.5 t-3 22.5q-1 6 -3.5 27t-2.5 34q-3 25 -8.5 93.5t-11.5 111.5q0 1 -2 14.5t-2 22.5v6q0 8 -6.5 13t-12.5 0q-11 -12 -22 -103l-23 -117l-9 -40.5t-9 -51.5q-2 -18 -2 -45v-4z" />
<glyph unicode="&#xc7;" horiz-adv-x="681" d="M47 713q0 96 9.5 232.5t27.5 197.5q13 55 57 129q41 66 78 96l33 25q56 40 103.5 52.5t115.5 12.5h33t33 -1t35.5 -3t31.5 -5.5t29.5 -9.5t21 -14t16.5 -20t5 -27q0 -10 -2 -26.5t-2 -26.5q0 -26 2 -71.5t2 -73.5q0 -35 -16.5 -51.5t-41.5 -16.5q-16 0 -44 6t-46 6 q-112 0 -135 -110q-18 -59 -18 -295q0 -140 13 -218t58 -118q21 -21 33 -21q31 -18 113 -18q23 0 29 -2q3 -1 11 -3t13 -5q19 -11 26 -23.5t7 -40.5v-190q0 -35 -22 -61.5t-76 -26.5q-38 0 -58 2q-27 0 -33 -8q-16 -20 -16 -37q-6 -19 10 -31l27 -16q22 -19 35 -39 q16 -29 16 -90q0 -38 -8 -62q-3 -11 -14.5 -32.5t-18.5 -28.5q-21 -26 -65 -41q-41 -13 -88 0q-32 8 -50 20q-28 16 -28 47q0 38 6 54l8 16q13 21 29 21q4 0 17 -4.5t16 -4.5q16 0 22 6q10 10 10 33q0 6 -6 14t-12 11q-33 15 -39 24q-12 15 -6 39q4 26 12 41q21 36 29 56 q7 13 2 22q-2 7 -21 12q-74 20 -116 47q-26 19 -58 56q-84 92 -109.5 222t-25.5 372z" />
<glyph unicode="&#xc8;" horiz-adv-x="768" d="M49 1370q0 74 72 74q15 0 38 -2t38 -2q42 -1 109 3.5t102 4.5q28 0 76 -2t77 -2q13 0 37 1t37 1q52 0 69 -23t17 -75v-127q0 -47 -17.5 -67.5t-66.5 -20.5q-8 0 -25 1t-26 1h-35q-8 0 -24.5 1t-24.5 1q-4 0 -33 -2t-33 -2h-28q-13 -4 -17 -7q-20 -17 -20 -55v-113 q1 -3 1 -7.5t1 -8t4 -6.5q17 -25 61 -25h27q30 0 82.5 2t83.5 2q16 0 29 -1.5t22 -6t15.5 -7.5t10.5 -12t6.5 -13t3.5 -17t1 -17.5v-21v-20.5v-107q0 -52 -20.5 -75t-71.5 -23q-23 0 -61 3t-60 3q-30 0 -62 -4t-36 -8q-27 -18 -27 -47q0 -11 2 -31t2 -33v-8q0 -9 -1 -26.5 t-1 -26.5q0 -18 1 -28.5t5.5 -25.5t17 -22.5t31.5 -7.5h31q15 0 38 -1t36 -1q11 0 30.5 1t32.5 1q40 0 62.5 -1t41 -7t26 -11.5t12.5 -23t5.5 -32t0.5 -48.5v-117q0 -47 -20 -71.5t-68 -24.5q-30 0 -83 1t-83 1h-88q-18 0 -50 2t-51 2q-34 0 -90 -3t-90 -3q-33 0 -53.5 22 t-20.5 56q0 46 2 125.5t2 126.5q0 56 -4.5 160t-3.5 171q0 21 1 55t1 54q0 30 -1 81t-1 79q0 31 1 83.5t1 82.5q0 51 -3 138.5t-3 139.5zM117 1772q0 19 22 22h39q31 0 47 -2q80 0 121 2q7 0 21.5 1t21.5 1q29 -4 37 -16q8 -8 20 -51q15 -35 23 -60q3 -6 7 -18.5t7 -18.5 q4 -10 11.5 -24.5t7.5 -20.5h-2q0 -11 -7 -17t-21 -7.5t-27.5 -1t-35.5 2t-36 1.5h-68q-5 2 -11 7.5t-17.5 19.5t-16.5 20l-55 55q-7 7 -19 19.5t-22.5 23t-20.5 19.5l-7 6q-6 6 -12.5 16.5t-6.5 20.5z" />
<glyph unicode="&#xc9;" horiz-adv-x="768" d="M49 1370q0 74 72 74q15 0 38 -2t38 -2q42 -1 109 3.5t102 4.5q28 0 76 -2t77 -2q13 0 37 1t37 1q52 0 69 -23t17 -75v-127q0 -47 -17.5 -67.5t-66.5 -20.5q-8 0 -25 1t-26 1h-35q-8 0 -24.5 1t-24.5 1q-4 0 -33 -2t-33 -2h-28q-13 -4 -17 -7q-20 -17 -20 -55v-113 q1 -3 1 -7.5t1 -8t4 -6.5q17 -25 61 -25h27q30 0 82.5 2t83.5 2q16 0 29 -1.5t22 -6t15.5 -7.5t10.5 -12t6.5 -13t3.5 -17t1 -17.5v-21v-20.5v-107q0 -52 -20.5 -75t-71.5 -23q-23 0 -61 3t-60 3q-30 0 -62 -4t-36 -8q-27 -18 -27 -47q0 -11 2 -31t2 -33v-8q0 -9 -1 -26.5 t-1 -26.5q0 -18 1 -28.5t5.5 -25.5t17 -22.5t31.5 -7.5h31q15 0 38 -1t36 -1q11 0 30.5 1t32.5 1q40 0 62.5 -1t41 -7t26 -11.5t12.5 -23t5.5 -32t0.5 -48.5v-117q0 -47 -20 -71.5t-68 -24.5q-30 0 -83 1t-83 1h-88q-18 0 -50 2t-51 2q-34 0 -90 -3t-90 -3q-33 0 -53.5 22 t-20.5 56q0 46 2 125.5t2 126.5q0 56 -4.5 160t-3.5 171q0 21 1 55t1 54q0 30 -1 81t-1 79q0 31 1 83.5t1 82.5q0 51 -3 138.5t-3 139.5zM266 1593q0 5 17 47l28 80l17 39q1 1 3 6.5t3 7t3.5 6t4.5 6l6 4.5t8 4.5t10 3t13 1.5q12 0 36.5 -2t37.5 -2q65 -3 147 4h6h8 t7.5 -0.5t8 -1.5t6.5 -2.5t6 -4t3.5 -6.5t1.5 -9q0 -9 -5.5 -19.5t-9.5 -15.5t-16 -16t-14 -13l-33 -35l-26 -26l-78 -82q-4 -2 -18 -2t-38 1t-38 1q-16 0 -35.5 -1.5t-30.5 -1.5t-20 3q-19 7 -19 26z" />
<glyph unicode="&#xca;" horiz-adv-x="768" d="M49 1370q0 74 72 74q15 0 38 -2t38 -2q42 -1 109 3.5t102 4.5q28 0 76 -2t77 -2q13 0 37 1t37 1q52 0 69 -23t17 -75v-127q0 -47 -17.5 -67.5t-66.5 -20.5q-8 0 -25 1t-26 1h-35q-8 0 -24.5 1t-24.5 1q-4 0 -33 -2t-33 -2h-28q-13 -4 -17 -7q-20 -17 -20 -55v-113 q1 -3 1 -7.5t1 -8t4 -6.5q17 -25 61 -25h27q30 0 82.5 2t83.5 2q16 0 29 -1.5t22 -6t15.5 -7.5t10.5 -12t6.5 -13t3.5 -17t1 -17.5v-21v-20.5v-107q0 -52 -20.5 -75t-71.5 -23q-23 0 -61 3t-60 3q-30 0 -62 -4t-36 -8q-27 -18 -27 -47q0 -11 2 -31t2 -33v-8q0 -9 -1 -26.5 t-1 -26.5q0 -18 1 -28.5t5.5 -25.5t17 -22.5t31.5 -7.5h31q15 0 38 -1t36 -1q11 0 30.5 1t32.5 1q40 0 62.5 -1t41 -7t26 -11.5t12.5 -23t5.5 -32t0.5 -48.5v-117q0 -47 -20 -71.5t-68 -24.5q-30 0 -83 1t-83 1h-88q-18 0 -50 2t-51 2q-34 0 -90 -3t-90 -3q-33 0 -53.5 22 t-20.5 56q0 46 2 125.5t2 126.5q0 56 -4.5 160t-3.5 171q0 21 1 55t1 54q0 30 -1 81t-1 79q0 31 1 83.5t1 82.5q0 51 -3 138.5t-3 139.5zM117 1589q0 13 18 37q4 4 10.5 13.5t10.5 13.5q23 34 41 57q12 21 30 45q1 2 5 9t5.5 9t6 7t8 7t10 5t14.5 4q11 1 14.5 0.5t16 -2 t25.5 -2.5h63h23q71 6 90 0q11 -4 19.5 -13t23.5 -32.5t24 -36.5q7 -13 52 -70q28 -39 28 -55q0 -8 -8 -16q-5 -4 -11 -5.5t-10 -1.5t-11.5 0.5t-10.5 0.5h-22q-8 0 -24 0.5t-29.5 0.5t-24.5 -1q-6 -1 -20.5 -4t-22.5 -3q-29 0 -43 29q-1 2 -5 12.5t-7.5 18t-10 14 t-14.5 6.5q-9 0 -16 -12q-7 -9 -11.5 -29.5t-15.5 -29.5q-4 -3 -9 -4t-8 -1t-12 1.5t-14 1.5q-25 0 -37 2q-16 0 -45 -2t-45 -2q-22 0 -37 6t-14 22z" />
<glyph unicode="&#xcb;" horiz-adv-x="768" d="M49 1370q0 74 72 74q15 0 38 -2t38 -2q42 -1 109 3.5t102 4.5q28 0 76 -2t77 -2q13 0 37 1t37 1q52 0 69 -23t17 -75v-127q0 -47 -17.5 -67.5t-66.5 -20.5q-8 0 -25 1t-26 1h-35q-8 0 -24.5 1t-24.5 1q-4 0 -33 -2t-33 -2h-28q-13 -4 -17 -7q-20 -17 -20 -55v-113 q1 -3 1 -7.5t1 -8t4 -6.5q17 -25 61 -25h27q30 0 82.5 2t83.5 2q16 0 29 -1.5t22 -6t15.5 -7.5t10.5 -12t6.5 -13t3.5 -17t1 -17.5v-21v-20.5v-107q0 -52 -20.5 -75t-71.5 -23q-23 0 -61 3t-60 3q-30 0 -62 -4t-36 -8q-27 -18 -27 -47q0 -11 2 -31t2 -33v-8q0 -9 -1 -26.5 t-1 -26.5q0 -18 1 -28.5t5.5 -25.5t17 -22.5t31.5 -7.5h31q15 0 38 -1t36 -1q11 0 30.5 1t32.5 1q40 0 62.5 -1t41 -7t26 -11.5t12.5 -23t5.5 -32t0.5 -48.5v-117q0 -47 -20 -71.5t-68 -24.5q-30 0 -83 1t-83 1h-88q-18 0 -50 2t-51 2q-34 0 -90 -3t-90 -3q-33 0 -53.5 22 t-20.5 56q0 46 2 125.5t2 126.5q0 56 -4.5 160t-3.5 171q0 21 1 55t1 54q0 30 -1 81t-1 79q0 31 1 83.5t1 82.5q0 51 -3 138.5t-3 139.5zM106 1718.5q-1 13.5 0 20.5q5 34 44 37q10 1 28 -0.5t23 -1.5q37 -3 71 0q30 3 49 0.5t27 -13.5t8 -63q0 -8 1 -25t1 -26q0 -17 -2 -25 v-4q1 -5 0.5 -8.5t-1 -9.5t-2.5 -11t-5 -10t-8.5 -8.5t-13.5 -5.5q-4 -1 -13 -1t-19 0.5t-13 0.5q-11 0 -34 -1t-34 -1h-51q-13 0 -23 2.5t-15.5 8t-9 10.5t-4.5 13.5t-1.5 13t0 12.5t0.5 9q0 17 -1 45t-2 41.5zM422 1716q-3 25 4 39q10 19 35 19q24 0 68.5 -1t66.5 -1 q8 0 19 0.5t17 0.5t13 -0.5t11.5 -3t7.5 -6.5q8 -8 8 -43q0 -7 -1 -21.5t-1 -21.5v-35q0 -3 1 -20.5t0 -23.5t-7.5 -15.5t-18.5 -13.5q-18 -8 -110 -8h-60q-46 0 -49 26v15q-1 14 -1.5 34t-0.5 33q0 31 -2 47z" />
<glyph unicode="&#xcc;" horiz-adv-x="425" d="M-49 1772q0 19 22 22h39q31 0 47 -2q80 0 121 2q7 0 21.5 1t21.5 1q29 -4 37 -16q9 -9 21 -51q12 -28 22 -60q3 -6 7 -18.5t7 -18.5q4 -10 11.5 -24.5t7.5 -20.5h-2q0 -11 -7 -17t-21 -7.5t-27.5 -1t-35.5 2t-36 1.5h-68q-5 2 -11 7.5t-17.5 19.5t-16.5 20l-55 55 q-7 7 -19 19.5t-22.5 23t-20.5 19.5l-7 6q-6 6 -12.5 16.5t-6.5 20.5zM39 74v6q0 53 3 141.5t3 140.5q0 28 -1 75t-1 73q0 46 4 125.5t4 126.5q0 26 -1 71t-1 72q0 29 3 78t3 78q0 25 -1 67t-1 66v76q0 18 -1 50t-1 50q0 46 15 61t49 15q19 0 50 -2t50 -2q21 0 58.5 2 t60.5 2q49 0 49 -60q0 -10 -2.5 -29t-3.5 -24q-2 -23 -2 -63q-2 -94 -2 -254v-86q0 -12 -1 -34t-1 -34q0 -18 1 -48t1 -48v-57q0 -29 -2 -78t-2 -78q0 -18 1 -52t1 -50q1 -45 -2.5 -128t-3.5 -118q0 -27 3 -74.5t3 -75.5q0 -23 -16 -39t-50 -16q-10 0 -27 1t-26 1 q-29 0 -81 -1t-83 -1q-49 0 -49 74z" />
<glyph unicode="&#xcd;" horiz-adv-x="425" d="M39 74v6q0 53 3 141.5t3 140.5q0 28 -1 75t-1 73q0 46 4 125.5t4 126.5q0 26 -1 71t-1 72q0 29 3 78t3 78q0 25 -1 67t-1 66v76q0 18 -1 50t-1 50q0 46 15 61t49 15q19 0 50 -2t50 -2q21 0 58.5 2t60.5 2q49 0 49 -60q0 -10 -2.5 -29t-3.5 -24q-2 -23 -2 -63 q-2 -94 -2 -254v-86q0 -12 -1 -34t-1 -34q0 -18 1 -48t1 -48v-57q0 -29 -2 -78t-2 -78q0 -18 1 -52t1 -50q1 -45 -2.5 -128t-3.5 -118q0 -27 3 -74.5t3 -75.5q0 -23 -16 -39t-50 -16q-10 0 -27 1t-26 1q-29 0 -81 -1t-83 -1q-49 0 -49 74zM96 1593q0 5 17 47l28 80l17 39 q1 1 3 6.5t3 7t3.5 6t4.5 6l6 4.5t8 4.5t10 3t13 1.5q13 0 37 -2t37 -2q65 -3 147 4h6h8t7.5 -0.5t8 -1.5t6.5 -2.5t6 -4t3.5 -6.5t1.5 -9q0 -9 -5.5 -19.5t-9.5 -15.5t-16 -16t-14 -13l-33 -35l-26 -26l-78 -82q-4 -2 -18 -2t-38 1t-38 1q-16 0 -35.5 -1.5t-30.5 -1.5 t-20 3q-19 7 -19 26z" />
<glyph unicode="&#xce;" horiz-adv-x="425" d="M-55 1589q0 13 18 37q4 4 10.5 13.5t10.5 13.5q23 34 41 57q12 21 30 45q1 2 5 9t5.5 9t6 7t8 7t10 5t14.5 4q11 1 14.5 0.5t16 -2t25.5 -2.5h63h23q71 6 90 0q11 -4 19.5 -13t23.5 -32.5t24 -36.5q7 -13 52 -70q28 -39 28 -55q0 -8 -8 -16q-5 -4 -11 -5.5t-10 -1.5 t-11.5 0.5t-10.5 0.5h-22q-8 0 -24 0.5t-29.5 0.5t-24.5 -1q-6 -1 -20.5 -4t-22.5 -3q-29 0 -43 29q-1 2 -5 12.5t-7.5 18t-10 14t-14.5 6.5q-9 0 -16 -12q-7 -9 -11.5 -29.5t-15.5 -29.5q-4 -3 -9 -4t-8 -1t-12 1.5t-14 1.5q-25 0 -37 2q-16 0 -45 -2t-45 -2q-22 0 -37 6 t-14 22zM39 74v6q0 53 3 141.5t3 140.5q0 28 -1 75t-1 73q0 46 4 125.5t4 126.5q0 26 -1 71t-1 72q0 29 3 78t3 78q0 25 -1 67t-1 66v76q0 18 -1 50t-1 50q0 46 15 61t49 15q19 0 50 -2t50 -2q21 0 58.5 2t60.5 2q49 0 49 -60q0 -10 -2.5 -29t-3.5 -24q-2 -23 -2 -63 q-2 -94 -2 -254v-86q0 -12 -1 -34t-1 -34q0 -18 1 -48t1 -48v-57q0 -29 -2 -78t-2 -78q0 -18 1 -52t1 -50q1 -45 -2.5 -128t-3.5 -118q0 -27 3 -74.5t3 -75.5q0 -23 -16 -39t-50 -16q-10 0 -27 1t-26 1q-29 0 -81 -1t-83 -1q-49 0 -49 74z" />
<glyph unicode="&#xcf;" horiz-adv-x="425" d="M-66 1718.5q-1 13.5 0 20.5q5 35 43 37q10 1 28.5 -0.5t23.5 -1.5q37 -3 71 0q30 3 49 0.5t27 -13.5t8 -63q0 -8 1 -25t1 -26q0 -17 -2 -25v-4q1 -5 0.5 -8.5t-1 -9.5t-2.5 -11t-5 -10t-8.5 -8.5t-13.5 -5.5h-45q-11 0 -34 -1t-34 -1h-51q-13 0 -23 2.5t-15.5 8t-9 10.5 t-4.5 13.5t-1.5 13t0 12.5t0.5 9q0 17 -1 45t-2 41.5zM39 74v6q0 53 3 141.5t3 140.5q0 28 -1 75t-1 73q0 46 4 125.5t4 126.5q0 26 -1 71t-1 72q0 29 3 78t3 78q0 25 -1 67t-1 66v76q0 18 -1 50t-1 50q0 46 15 61t49 15q19 0 50 -2t50 -2q21 0 58.5 2t60.5 2q49 0 49 -60 q0 -10 -2.5 -29t-3.5 -24q-2 -23 -2 -63q-2 -94 -2 -254v-86q0 -12 -1 -34t-1 -34q0 -18 1 -48t1 -48v-57q0 -29 -2 -78t-2 -78q0 -18 1 -52t1 -50q1 -45 -2.5 -128t-3.5 -118q0 -27 3 -74.5t3 -75.5q0 -23 -16 -39t-50 -16q-10 0 -27 1t-26 1q-29 0 -81 -1t-83 -1 q-49 0 -49 74zM250 1716q-3 25 4 39q10 19 35 19q24 0 68.5 -1t66.5 -1q8 0 19 0.5t17 0.5t13 -0.5t11.5 -3t7.5 -6.5q8 -8 8 -43q0 -7 -1 -21.5t-1 -21.5v-35q0 -3 1 -20.5t0 -23.5t-7.5 -15.5t-18.5 -13.5q-18 -8 -111 -8h-59q-46 0 -49 26v15q-1 14 -1.5 34t-0.5 33 q0 31 -2 47z" />
<glyph unicode="&#xd0;" d="M-27 696v4l4 15l-2 41l2 37v18q0 20 10 33.5t25 13.5l19 -2q20 0 20 29v26l2 50l2 16v31l2 65q0 6 1 28t1 38v37q0 40 -2 71q-4 74 -4 78q0 53 6 74t25 33q21 12 68 12q18 0 41 -2q18 -2 38 -2h84l29 -2h14h50q18 0 43 2h45q101 0 186 -64q16 -12 43 -39q21 -28 37 -65 l6 -10l4 -9q0 -3 6 -12l4 -12q20 -40 23 -49q13 -26 24 -90l2 -15l3 -14q2 -4 2 -17q4 -24 4 -26q0 -15 2 -33q0 -9 4 -67l2 -35q1 -13 2 -27.5t1.5 -22t0.5 -10.5q0 -12 1 -42t1 -40q0 -92 -10 -184l-2 -14l-1.5 -10.5t-0.5 -4.5v-10q0 -4 -1 -9t-1 -7l-2 -53v-9l-5 -34 q-6 -78 -38 -160l-5 -8l-4 -15q-16 -44 -43 -84q-28 -40 -81 -77t-103 -50q-51 -14 -135 -14q-18 0 -45 2h-43h-43h-37h-27l-18 -2h-16l-35 -2h-13q-40 0 -66 26t-26 64q0 28 4 102q2 18 2 37v27q0 9 -1 21.5t-1 15.5v37l-2 26l-2 35v47q0 2 -1 17t-1 30v33v10l2 84v4 q0 26 -7.5 35.5t-27.5 9.5q-17 0 -31 12t-14 27zM369 479q0 -47 2 -57q2 -12 2 -25v-22q0 -19 12 -33t27 -14q38 0 66.5 34.5t29.5 83.5l4 64l4 82v12v23v51l2 84v2v18l-6 76l-2 35q0 12 -2 22v21q0 14 -1 27t-1 14l-2 20l-2 21q0 1 -2 7.5t-4.5 14.5t-6.5 17l-4 16 q-9 28 -26 44t-37 16q-36 0 -47 -29q-4 -10 -4 -55v-58q2 -23 2 -86q0 -45 43 -45q12 0 20 2h6q23 0 31 -12t8 -47v-4q0 -9 -2 -21t-2 -51v-6q0 -30 -10 -42.5t-35 -12.5h-31q-17 0 -22.5 -5t-5.5 -22v-4v-25l-4 -61v-70z" />
<glyph unicode="&#xd1;" horiz-adv-x="980" d="M53 59q0 25 1 67t1 67v61q0 44 -1 120.5t-1 121.5q0 66 3 177t3 177q0 30 -2.5 91t-1.5 101q4 114 4 154q0 35 -3 92.5t-3 91.5q0 58 58 58h30q34 0 92.5 2t92.5 2q35 0 47 -8q14 -10 26.5 -33.5t19.5 -43.5t19 -63.5t19 -64.5q8 -28 24.5 -73.5t22.5 -65.5 q8 -26 39 -144q6 -23 19.5 -68t21.5 -73q1 -5 4 -20.5t6 -24.5q1 -7 5.5 -13t6.5 -6q2 1 3.5 13.5t2.5 24.5v12q0 53 -6 144t-6 144q0 19 1 56t1 55q0 38 -6 101t-6 100q0 49 39 49q8 0 21 -2t20 -2h84q44 0 71 2q3 0 19.5 3t25.5 3q54 0 54 -51v-66q0 -65 -2 -177t-2 -179 q0 -28 1 -75.5t1 -74.5q0 -41 -3.5 -112t-3.5 -113q0 -37 3.5 -99.5t3.5 -99.5q0 -21 -1.5 -72.5t-0.5 -84.5q0 -29 2 -78t2 -76q0 -46 -13 -66t-45 -20q-19 0 -52 2t-54 2q-43 0 -68 -2q-3 0 -19.5 -3t-25.5 -3q-11 0 -19.5 4t-12.5 8.5t-9.5 12.5t-7.5 10 q-6 9 -82.5 255.5t-87.5 284.5l-16 64q-23 100 -33 100q-6 -3 -6 -57q0 -43 3 -117t3 -117q0 -30 -2 -80.5t-2 -78.5q0 -43 7 -115.5t7 -114.5q0 -32 -15 -45.5t-46 -13.5h-54q-16 0 -40.5 1t-38.5 1q-17 0 -43 -2t-43 -2q-56 0 -56 65zM152 1606l6 20q11 46 39 78 q56 70 159 70q20 0 119 -17q45 -8 70 -10q24 -4 37 -4q23 0 39 16q15 20 20 21q1 0 6 -1t13 -2.5t14 -2.5l80 -13q53 -8 53 -20q0 -11 -16 -47q-48 -125 -197 -125q-20 0 -121 16q-62 12 -78 12q-25 0 -37 -8q-4 -2 -15.5 -14t-20.5 -12q-1 0 -7 1l-15 2.5l-15 2.5l-52 8 q-20 4 -30 4q-1 0 -11.5 1t-17.5 2.5t-14 7t-8 14.5z" />
<glyph unicode="&#xd2;" d="M45 717q0 17 1 44t1 44v6q0 19 -1 50t-1 50q0 97 10 212.5t37 166.5q20 39 52.5 71t66.5 50t52.5 26.5t33.5 12.5q40 9 109 14h6q7 1 15 1h21t27 -0.5t31 -1.5t34 -3t35 -5.5t35 -8t33.5 -11t30.5 -14.5q38 -21 65 -47t35.5 -41t20.5 -39q23 -46 34.5 -104.5t14 -96 t3.5 -148t3 -165.5q0 -20 3 -105.5t3 -139.5q0 -194 -35.5 -307t-134.5 -181q-47 -33 -105 -49t-149 -16q-204 0 -301 135q-28 37 -49 86q-1 2 -16 69q-2 8 -4.5 23t-3.5 18t-2.5 14t-1.5 16t-1 18t-1.5 25.5t-0.5 33.5q0 16 -1 44t-1 44q-4 156 -4 209zM182 1772 q0 19 23 22h39q31 0 47 -2q80 0 121 2q7 0 21.5 1t21.5 1q29 -4 37 -16q8 -8 20 -51q15 -35 23 -60q3 -6 7 -18.5t7 -18.5q3 -10 10.5 -24t7.5 -21h-2q0 -11 -7 -17t-21 -7.5t-27.5 -1t-35.5 2t-36 1.5h-67q-5 2 -11 7.5t-17.5 19.5t-16.5 20l-56 55q-4 4 -25.5 27t-35.5 35 l-7 6q-6 6 -13 16.5t-7 20.5zM369 920q0 -39 1 -105.5t1 -105.5q0 -267 4 -299q3 -40 12 -58l3 -8q4 -7 5.5 -9t5.5 -8.5t8 -9.5t10 -7t13.5 -5.5t16.5 -1.5q36 0 56.5 29t20.5 84q0 28 -1 76t-1 77q0 38 2 114t2 114q0 17 -3.5 148.5t-4.5 141.5q-7 44 -14 52 q-27 37 -62 35q-17 -3 -34 -13q-12 -8 -19.5 -21t-9.5 -20.5t-2 -11.5q-10 -23 -10 -188z" />
<glyph unicode="&#xd3;" d="M45 717q0 17 1 44t1 44v6q0 19 -1 50t-1 50q0 97 10 212.5t37 166.5q20 39 52.5 71t66.5 50t52.5 26.5t33.5 12.5q40 9 109 14h6q7 1 15 1h21t27 -0.5t31 -1.5t34 -3t35 -5.5t35 -8t33.5 -11t30.5 -14.5q38 -21 65 -47t35.5 -41t20.5 -39q23 -46 34.5 -104.5t14 -96 t3.5 -148t3 -165.5q0 -20 3 -105.5t3 -139.5q0 -194 -35.5 -307t-134.5 -181q-47 -33 -105 -49t-149 -16q-204 0 -301 135q-28 37 -49 86q-1 2 -16 69q-2 8 -4.5 23t-3.5 18t-2.5 14t-1.5 16t-1 18t-1.5 25.5t-0.5 33.5q0 16 -1 44t-1 44q-4 156 -4 209zM330 1593q0 7 16 47 l29 80l16 39q1 1 3 6.5t3 7t3.5 6t4.5 6l6 4.5t8 4.5t10 3t13 1.5q12 0 37 -2t37 -2q66 -3 148 4h6h8t7.5 -0.5t8 -1.5t6.5 -2.5t6 -4t3.5 -6.5t1.5 -9q0 -9 -5.5 -19.5t-9.5 -15.5t-16 -16t-14 -13l-33 -35q-2 -2 -12 -11t-15 -15l-78 -82q-4 -2 -18 -2t-38 1t-38 1 q-16 0 -35.5 -1.5t-30.5 -1.5t-20 3q-18 7 -18 26zM369 920q0 -39 1 -105.5t1 -105.5q0 -267 4 -299q3 -40 12 -58l3 -8q4 -7 5.5 -9t5.5 -8.5t8 -9.5t10 -7t13.5 -5.5t16.5 -1.5q36 0 56.5 29t20.5 84q0 28 -1 76t-1 77q0 38 2 114t2 114q0 17 -3.5 148.5t-4.5 141.5 q-7 44 -14 52q-27 37 -62 35q-17 -3 -34 -13q-12 -8 -19.5 -21t-9.5 -20.5t-2 -11.5q-10 -23 -10 -188z" />
<glyph unicode="&#xd4;" d="M45 717q0 17 1 44t1 44v6q0 19 -1 50t-1 50q0 97 10 212.5t37 166.5q20 39 52.5 71t66.5 50t52.5 26.5t33.5 12.5q40 9 109 14h6q7 1 15 1h21t27 -0.5t31 -1.5t34 -3t35 -5.5t35 -8t33.5 -11t30.5 -14.5q38 -21 65 -47t35.5 -41t20.5 -39q23 -46 34.5 -104.5t14 -96 t3.5 -148t3 -165.5q0 -20 3 -105.5t3 -139.5q0 -194 -35.5 -307t-134.5 -181q-47 -33 -105 -49t-149 -16q-204 0 -301 135q-28 37 -49 86q-1 2 -16 69q-2 8 -4.5 23t-3.5 18t-2.5 14t-1.5 16t-1 18t-1.5 25.5t-0.5 33.5q0 16 -1 44t-1 44q-4 156 -4 209zM180 1589 q0 12 19 37q4 4 10 13.5t10 13.5q23 34 41 57q9 15 31 45q1 2 5 9t5.5 9t6 7t8 7t10 5t14.5 4q11 1 14 0.5t15.5 -2t25.5 -2.5q7 0 20 0.5t24 0.5t20 -1h22q71 6 90 0q11 -4 19.5 -13t24.5 -33l24 -36q10 -17 51 -70l7.5 -10t6.5 -9l5 -7.5t4.5 -7.5t3 -6.5t2 -7t0.5 -7.5 q0 -8 -8 -16q-5 -4 -11 -5.5t-10 -1.5t-11.5 0.5t-10.5 0.5h-23q-8 0 -24 0.5t-29.5 0.5t-24.5 -1q-6 -1 -20.5 -4t-22.5 -3q-29 0 -43 29q-1 2 -5 12.5t-7.5 18t-10 14t-14.5 6.5q-9 0 -16 -12q-7 -9 -11.5 -29.5t-15.5 -29.5q-4 -3 -9 -4t-8 -1t-12 1.5t-14 1.5 q-24 0 -36 2q-16 0 -46 -2t-45 -2q-22 0 -37 6t-14 22zM369 920q0 -39 1 -105.5t1 -105.5q0 -267 4 -299q3 -40 12 -58l3 -8q4 -7 5.5 -9t5.5 -8.5t8 -9.5t10 -7t13.5 -5.5t16.5 -1.5q36 0 56.5 29t20.5 84q0 28 -1 76t-1 77q0 38 2 114t2 114q0 17 -3.5 148.5t-4.5 141.5 q-7 44 -14 52q-27 37 -62 35q-17 -3 -34 -13q-12 -8 -19.5 -21t-9.5 -20.5t-2 -11.5q-10 -23 -10 -188z" />
<glyph unicode="&#xd5;" d="M45 717q0 17 1 44t1 44v6q0 19 -1 50t-1 50q0 97 10 212.5t37 166.5q20 39 52.5 71t66.5 50t52.5 26.5t33.5 12.5q40 9 109 14h6q7 1 15 1h21t27 -0.5t31 -1.5t34 -3t35 -5.5t35 -8t33.5 -11t30.5 -14.5q38 -21 65 -47t35.5 -41t20.5 -39q23 -46 34.5 -104.5t14 -96 t3.5 -148t3 -165.5q0 -20 3 -105.5t3 -139.5q0 -194 -35.5 -307t-134.5 -181q-47 -33 -105 -49t-149 -16q-204 0 -301 135q-28 37 -49 86q-1 2 -16 69q-2 8 -4.5 23t-3.5 18t-2.5 14t-1.5 16t-1 18t-1.5 25.5t-0.5 33.5q0 16 -1 44t-1 44q-4 156 -4 209zM111 1606l6 20 q11 46 39 78q56 70 159 70q20 0 119 -17q45 -8 70 -10q24 -4 37 -4q23 0 39 16q15 20 20 21q1 0 6 -1t13 -2.5t14 -2.5l80 -13q53 -8 53 -20q0 -11 -16 -47q-48 -125 -197 -125q-20 0 -121 16q-62 12 -78 12q-25 0 -37 -8q-4 -2 -15.5 -14t-20.5 -12q-1 0 -7 1l-15 2.5 l-15 2.5l-51 8q-20 4 -31 4q-1 0 -11.5 1t-17.5 2.5t-14 7t-8 14.5zM369 920q0 -39 1 -105.5t1 -105.5q0 -267 4 -299q3 -40 12 -58l3 -8q4 -7 5.5 -9t5.5 -8.5t8 -9.5t10 -7t13.5 -5.5t16.5 -1.5q36 0 56.5 29t20.5 84q0 28 -1 76t-1 77q0 38 2 114t2 114q0 17 -3.5 148.5 t-4.5 141.5q-7 44 -14 52q-27 37 -62 35q-17 -3 -34 -13q-12 -8 -19.5 -21t-9.5 -20.5t-2 -11.5q-10 -23 -10 -188z" />
<glyph unicode="&#xd6;" d="M45 717q0 17 1 44t1 44v6q0 19 -1 50t-1 50q0 97 10 212.5t37 166.5q20 39 52.5 71t66.5 50t52.5 26.5t33.5 12.5q40 9 109 14h6q7 1 15 1h21t27 -0.5t31 -1.5t34 -3t35 -5.5t35 -8t33.5 -11t30.5 -14.5q38 -21 65 -47t35.5 -41t20.5 -39q23 -46 34.5 -104.5t14 -96 t3.5 -148t3 -165.5q0 -20 3 -105.5t3 -139.5q0 -194 -35.5 -307t-134.5 -181q-47 -33 -105 -49t-149 -16q-204 0 -301 135q-28 37 -49 86q-1 2 -16 69q-2 8 -4.5 23t-3.5 18t-2.5 14t-1.5 16t-1 18t-1.5 25.5t-0.5 33.5q0 16 -1 44t-1 44q-4 156 -4 209zM167.5 1718.5 q-0.5 12.5 0.5 20.5q5 35 43 37q10 1 28 -0.5t23 -1.5q38 -3 72 0q30 3 49 0.5t27 -13.5t8 -63q0 -8 1 -25t1 -26q0 -17 -2 -25v-4v-6t-0.5 -8.5t-1.5 -9.5t-3 -9t-5.5 -8.5t-8.5 -7t-12 -4.5q-4 -1 -13 -1t-19 0.5t-13 0.5q-12 0 -34 -1t-34 -1h-51q-13 0 -23 2.5t-15.5 8 t-9 10.5t-4.5 13.5t-1.5 13t0 12.5t0.5 9q0 16 -1 45t-1.5 41.5zM369 920q0 -39 1 -105.5t1 -105.5q0 -267 4 -299q3 -40 12 -58l3 -8q4 -7 5.5 -9t5.5 -8.5t8 -9.5t10 -7t13.5 -5.5t16.5 -1.5q36 0 56.5 29t20.5 84q0 28 -1 76t-1 77q0 38 2 114t2 114q0 17 -3.5 148.5 t-4.5 141.5q-7 44 -14 52q-27 37 -62 35q-17 -3 -34 -13q-12 -8 -19.5 -21t-9.5 -20.5t-2 -11.5q-10 -23 -10 -188zM483 1716q-3 25 4 39q9 19 35 19q24 0 68.5 -1t66.5 -1q8 0 19 0.5t17 0.5t13 -0.5t11.5 -3t7.5 -6.5q8 -8 8 -43q0 -7 -1 -21.5t-1 -21.5v-35q0 -6 1 -17.5 t0.5 -18t-2 -14.5t-7.5 -14t-16 -9q-18 -8 -111 -8h-59q-47 0 -50 26l-1 15q0 14 -0.5 34t-0.5 33q0 31 -2 47z" />
<glyph unicode="&#xd7;" horiz-adv-x="966" d="M82 385q0 12 24 33l9 6l16 18l16 17l17 18l33 27l18 20q9 8 16 13l9 6l6 6l8 10q8 8 16 12q21 14 21 23q0 10 -19 24l-18 17q-34 31 -47 53q-14 22 -25 31l-20 18q0 2 -2 4l-15 15l-16 16l-8 8l-8 6q-15 12 -15 25v8q2 11 7 18.5t22 20.5l6 4l12 10l21 21l18 16q2 0 6 4 l11 13l8 12q4 0 4 4l18 14l5 5l6 6q16 16 24 16q11 0 24 -6.5t17 -15.5l4 -7l4 -10q8 -13 29 -29l16 -14l7 -10l16 -17l2 -4l4 -4l6 -6l19 -14l2 -4l2 -4l4 -4q8 -8 10 -11q12 -14 21 -22l14 -15q8 -8 10 -8q4 0 4 2l6 4l5 4l12 13q16 16 22 20q5 8 13 13q49 37 92 84l14 16 l21 16l20 19q4 4 21 4q20 0 34 -23l4 -6q0 -1 7 -8l4 -6l6 -6l12 -13l33 -30l4 -2l2 -5l16 -24l5 -4l10 -10q14 -17 14 -27v-6q-2 -15 -8 -24t-31 -31l-24 -21l-27 -25l-10 -12q-1 -2 -19 -16q-14 -12 -20 -19q-13 -15 -33 -30q-29 -18 -29 -29q0 -9 11 -22t24 -21 q10 -5 15 -10l10 -17l33 -28l10 -13l6 -8q33 -33 43 -41q18 -15 20 -18l11 -15q3 0 6 -6q6 -6 6 -24v-4l-2 -9l-2 -12q0 -4 -12 -16l-11 -8l-6 -5l-4 -4l-2 -4l-6 -4l-8 -8l-4 -4l-4 -2l-5 -4l-8 -4q-16 -13 -20 -19l-6 -4l-7 -8l-18 -16l-4 -7l-6 -4l-10 -8q-4 -4 -17 -4 q-17 0 -35 21l-18 18l-6 6l-19 16q-14 12 -30 33l-4 6l-35 27l-21 27l-12 12l-10 12l-8 13q-6 6 -17 6q-14 0 -29 -17q-30 -30 -34 -33l-23 -14l-24 -31l-3 -3q-3 -2 -6 -4.5t-6 -6.5l-14 -12l-8 -12l-9 -9q-6 -9 -12 -12l-18 -16l-21 -21q-6 -6 -24 -6q-17 0 -24.5 4.5 t-20.5 24.5q-6 12 -31 37l-2 2l-4 4q-2 0 -4 2l-4 4l-7 4l-10 12l-16 19l-19 16q-8 8 -10 14q-10 18 -10 27z" />
<glyph unicode="&#xd8;" horiz-adv-x="937" d="M-14 82q0 5 3.5 12t12 21t14.5 24l58 101q-21 107 -21 172v20q0 49 -2 133t-2 133v19v52v72t1 79t3 89.5t5.5 85.5t9.5 83.5t14.5 68t19.5 53.5q37 64 107 109q49 33 102 47t144 14q172 0 254 -47q41 -25 77 -67q3 3 29.5 43.5t28.5 44.5q4 4 14 4q6 0 10 -1.5t6.5 -4 t9 -7.5t13.5 -10q6 -6 16.5 -11.5t14.5 -8.5q4 -4 4 -16q2 -9 -82 -150q24 -91 24 -248q0 -78 3.5 -210.5t3.5 -211.5q0 -198 -29.5 -312.5t-112.5 -184.5q-105 -86 -282 -86q-178 0 -273 77q-23 18 -51 56q-52 -81 -63 -92q-2 -4 -11 -4q-11 0 -36 20q-3 2 -9.5 5.5t-11 6 t-8.5 6.5q-8 8 -8 21zM375 471q0 -24 0.5 -42t5 -43t13 -42t26 -29t41.5 -12q28 0 53 19q24 20 30.5 46t6.5 68q0 20 -1 55t-1 56q0 37 2 101t2 102q0 16 -2 26l-176 -276v-29zM375 741q0 -20 2 -30l174 274v70q0 18 -1 30.5t-5.5 32t-12.5 32t-25 21.5t-40 9q-42 0 -70 -35 q-20 -29 -20 -211q0 -36 -1 -96.5t-1 -96.5z" />
<glyph unicode="&#xd9;" d="M41 692q0 54 4 147t4 148q0 9 -1 27.5t-1 27.5q0 16 2 44t2 44q-1 34 -4.5 111.5t-3.5 126.5q0 38 14.5 60t40.5 22t69 -2t69 -2q14 0 35.5 2t33.5 2q68 0 68 -59v-72q0 -33 -1 -88t-1 -86v-168q-4 -136 -4 -184v-13q0 -26 3 -70t3 -69q0 -16 -1 -44t-1 -46q0 -29 -1 -78 t-1 -78q0 -43 15 -64.5t58 -21.5q30 0 49.5 9t26.5 25.5t8.5 27.5t1.5 28q0 36 -1 98t-1 99q0 42 1 112.5t1 112.5q0 39 -2 105.5t-2 105.5q0 34 1 92.5t1 92.5q0 35 -3 93t-3 93q0 49 66 49q18 0 50 -1t50 -1h6q17 0 44 1t42 1q30 0 47.5 -15.5t21 -29.5t3.5 -29 q0 -14 -1 -35.5t-1 -33.5q0 -27 2 -76t2 -76v-104q0 -23 1 -62t1 -63q0 -29 -2 -77t-2 -75q0 -24 1 -71t1 -70q0 -34 -3 -90.5t-3 -89.5q0 -24 2 -63.5t2 -61.5q0 -166 -141 -273q-61 -45 -119 -60t-133 -15q-124 0 -198 24.5t-128 83.5q-24 26 -39.5 51t-24 51t-12.5 55.5 t-5 63.5t-1 76v92q-1 29 -4.5 98.5t-3.5 114.5zM180 1772q0 19 23 22h39q31 0 47 -2q80 0 121 2q7 0 21.5 1t21.5 1q28 -3 36 -16q9 -9 21 -51q12 -28 22 -60q3 -6 7.5 -18.5t7.5 -18.5q3 -10 10.5 -24t7.5 -21h-2q0 -11 -7 -17t-21 -7.5t-27.5 -1t-35.5 2t-36 1.5h-67 q-5 2 -11 7.5t-17.5 19.5t-16.5 20l-56 55q-4 4 -25.5 27t-35.5 35l-7 6q-6 6 -13 16.5t-7 20.5z" />
<glyph unicode="&#xda;" d="M41 692q0 54 4 147t4 148q0 9 -1 27.5t-1 27.5q0 16 2 44t2 44q-1 34 -4.5 111.5t-3.5 126.5q0 38 14.5 60t40.5 22t69 -2t69 -2q14 0 35.5 2t33.5 2q68 0 68 -59v-72q0 -33 -1 -88t-1 -86v-168q-4 -136 -4 -184v-13q0 -26 3 -70t3 -69q0 -16 -1 -44t-1 -46q0 -29 -1 -78 t-1 -78q0 -43 15 -64.5t58 -21.5q30 0 49.5 9t26.5 25.5t8.5 27.5t1.5 28q0 36 -1 98t-1 99q0 42 1 112.5t1 112.5q0 39 -2 105.5t-2 105.5q0 34 1 92.5t1 92.5q0 35 -3 93t-3 93q0 49 66 49q18 0 50 -1t50 -1h6q17 0 44 1t42 1q30 0 47.5 -15.5t21 -29.5t3.5 -29 q0 -14 -1 -35.5t-1 -33.5q0 -27 2 -76t2 -76v-104q0 -23 1 -62t1 -63q0 -29 -2 -77t-2 -75q0 -24 1 -71t1 -70q0 -34 -3 -90.5t-3 -89.5q0 -24 2 -63.5t2 -61.5q0 -166 -141 -273q-61 -45 -119 -60t-133 -15q-124 0 -198 24.5t-128 83.5q-24 26 -39.5 51t-24 51t-12.5 55.5 t-5 63.5t-1 76v92q-1 29 -4.5 98.5t-3.5 114.5zM330 1593q0 7 16 47l29 80l16 39q1 1 3 6.5t3 7t3.5 6t4.5 6l6 4.5t8 4.5t10 3t13 1.5q12 0 37 -2t37 -2q66 -3 148 4h6h8t7.5 -0.5t8 -1.5t6.5 -2.5t6 -4t3.5 -6.5t1.5 -9q0 -9 -5.5 -19.5t-9.5 -15.5t-16 -16t-14 -13 l-33 -35q-2 -2 -12 -11t-15 -15l-78 -82q-4 -2 -18 -2t-38 1t-38 1q-16 0 -35.5 -1.5t-30.5 -1.5t-20 3q-18 7 -18 26z" />
<glyph unicode="&#xdb;" d="M41 692q0 54 4 147t4 148q0 9 -1 27.5t-1 27.5q0 16 2 44t2 44q-1 34 -4.5 111.5t-3.5 126.5q0 38 14.5 60t40.5 22t69 -2t69 -2q14 0 35.5 2t33.5 2q68 0 68 -59v-72q0 -33 -1 -88t-1 -86v-168q-4 -136 -4 -184v-13q0 -26 3 -70t3 -69q0 -16 -1 -44t-1 -46q0 -29 -1 -78 t-1 -78q0 -43 15 -64.5t58 -21.5q30 0 49.5 9t26.5 25.5t8.5 27.5t1.5 28q0 36 -1 98t-1 99q0 42 1 112.5t1 112.5q0 39 -2 105.5t-2 105.5q0 34 1 92.5t1 92.5q0 35 -3 93t-3 93q0 49 66 49q18 0 50 -1t50 -1h6q17 0 44 1t42 1q30 0 47.5 -15.5t21 -29.5t3.5 -29 q0 -14 -1 -35.5t-1 -33.5q0 -27 2 -76t2 -76v-104q0 -23 1 -62t1 -63q0 -29 -2 -77t-2 -75q0 -24 1 -71t1 -70q0 -34 -3 -90.5t-3 -89.5q0 -24 2 -63.5t2 -61.5q0 -166 -141 -273q-61 -45 -119 -60t-133 -15q-124 0 -198 24.5t-128 83.5q-24 26 -39.5 51t-24 51t-12.5 55.5 t-5 63.5t-1 76v92q-1 29 -4.5 98.5t-3.5 114.5zM180 1589q0 12 19 37q4 4 10 13.5t10 13.5q23 34 41 57q9 15 31 45q1 2 5 9t5.5 9t6 7t8 7t10 5t14.5 4q11 1 14 0.5t15.5 -2t25.5 -2.5q7 0 20 0.5t24 0.5t20 -1h22q71 6 90 0q11 -4 19.5 -13t24.5 -33l24 -36q10 -17 51 -70 l7.5 -10t6.5 -9l5 -7.5t4.5 -7.5t3 -6.5t2 -7t0.5 -7.5q0 -8 -8 -16q-5 -4 -11 -5.5t-10 -1.5t-11.5 0.5t-10.5 0.5h-23q-8 0 -24 0.5t-29.5 0.5t-24.5 -1q-6 -1 -20.5 -4t-22.5 -3q-29 0 -43 29q-1 2 -5 12.5t-7.5 18t-10 14t-14.5 6.5q-9 0 -16 -12q-7 -9 -11.5 -29.5 t-15.5 -29.5q-4 -3 -9 -4t-8 -1t-12 1.5t-14 1.5q-24 0 -36 2q-16 0 -46 -2t-45 -2q-22 0 -37 6t-14 22z" />
<glyph unicode="&#xdc;" d="M41 692q0 54 4 147t4 148q0 9 -1 27.5t-1 27.5q0 16 2 44t2 44q-1 34 -4.5 111.5t-3.5 126.5q0 38 14.5 60t40.5 22t69 -2t69 -2q14 0 35.5 2t33.5 2q68 0 68 -59v-72q0 -33 -1 -88t-1 -86v-168q-4 -136 -4 -184v-13q0 -26 3 -70t3 -69q0 -16 -1 -44t-1 -46q0 -29 -1 -78 t-1 -78q0 -43 15 -64.5t58 -21.5q30 0 49.5 9t26.5 25.5t8.5 27.5t1.5 28q0 36 -1 98t-1 99q0 42 1 112.5t1 112.5q0 39 -2 105.5t-2 105.5q0 34 1 92.5t1 92.5q0 35 -3 93t-3 93q0 49 66 49q18 0 50 -1t50 -1h6q17 0 44 1t42 1q30 0 47.5 -15.5t21 -29.5t3.5 -29 q0 -14 -1 -35.5t-1 -33.5q0 -27 2 -76t2 -76v-104q0 -23 1 -62t1 -63q0 -29 -2 -77t-2 -75q0 -24 1 -71t1 -70q0 -34 -3 -90.5t-3 -89.5q0 -24 2 -63.5t2 -61.5q0 -166 -141 -273q-61 -45 -119 -60t-133 -15q-124 0 -198 24.5t-128 83.5q-24 26 -39.5 51t-24 51t-12.5 55.5 t-5 63.5t-1 76v92q-1 29 -4.5 98.5t-3.5 114.5zM161.5 1718.5q-0.5 12.5 0.5 20.5q5 35 43 37q10 1 28 -0.5t23 -1.5q38 -3 72 0q30 3 48.5 0.5t26.5 -13.5q9 -13 9 -63q0 -8 1 -25t1 -26q0 -17 -2 -25v-4v-6t-0.5 -8.5t-1.5 -9.5t-3 -9t-5.5 -8.5t-8.5 -7t-12 -4.5 q-4 -1 -13 -1t-19 0.5t-13 0.5q-12 0 -34 -1t-34 -1h-51q-13 0 -23 2.5t-15.5 8t-9 10.5t-4.5 13.5t-1.5 13t0 12.5t0.5 9q0 16 -1 45t-1.5 41.5zM477 1716q-3 25 4 39q9 19 35 19q24 0 68.5 -1t66.5 -1q8 0 19 0.5t17 0.5t13 -0.5t11.5 -3t7.5 -6.5q8 -8 8 -43 q0 -7 -1 -21.5t-1 -21.5v-35q0 -3 1 -20.5t0 -23.5t-7.5 -15.5t-18.5 -13.5q-18 -8 -110 -8h-60q-46 0 -49 26l-1 15q0 14 -0.5 34t-0.5 33q0 31 -2 47z" />
<glyph unicode="&#xdd;" horiz-adv-x="854" d="M-8 1389q0 43 39 51h10q19 0 51.5 -3t52.5 -3q24 0 67 3t69 3q17 0 28.5 -6t18.5 -14t12 -25.5t7 -29.5t5.5 -38t5.5 -41q5 -27 17.5 -80t17.5 -86q2 -11 4.5 -26.5t4.5 -27.5t6 -24q0 -2 2.5 -14t6.5 -24t7 -11q5 5 31 148q32 150 32 153q2 15 3.5 40t2.5 41t3 20 q7 21 16 30q19 17 53 17q21 0 58.5 -3t60.5 -3q20 0 54 2t53 2q18 0 29 -2t21.5 -12t10.5 -29q0 -23 -15 -63.5t-16 -45.5q-6 -21 -14 -59t-14 -60q-11 -36 -34 -96t-34 -96q-11 -37 -26 -100.5t-27 -100.5q-3 -11 -42 -120t-44 -136q-6 -54 -6 -227q0 -39 3.5 -99.5 t4.5 -87.5q0 -10 1 -26.5t1 -26.5q0 -55 -64 -55q-18 0 -50 2t-50 2q-22 0 -60 -4t-61 -4q-21 0 -37 15t-16 48q0 13 3 37t3 37q0 27 -2 71.5t-2 69.5q0 40 4 107.5t4 107.5q0 12 -1 24t-4.5 27t-6 26t-9.5 31.5t-11.5 32.5t-14.5 41t-16 46q-10 28 -22 72t-19 65 q-5 17 -15.5 42t-15.5 38q-17 48 -68 207l-43 157q-23 81 -24 93zM315 1593q0 5 17 47l28 80l17 39q1 1 3 6.5t3 7t3.5 6t4.5 6l6 4.5t8 4.5t10 3t13 1.5q12 0 37 -2t37 -2q65 -3 147 4h6h8t7.5 -0.5t8 -1.5t6.5 -2.5t6 -4t3.5 -6.5t1.5 -9q0 -9 -5.5 -19.5t-9.5 -15.5 t-16 -16t-14 -13l-33 -35l-26 -26l-78 -82q-4 -2 -18 -2t-38 1t-38 1q-16 0 -35.5 -1.5t-30.5 -1.5t-20 3q-19 7 -19 26z" />
<glyph unicode="&#xde;" d="M55 49q0 7 4 35q0 4 1 8l1 4v19v28v21l-2 69l-2 43l2 21v10v33l2 96v49q-2 27 -2 50v55v2v16v2q0 4 -1 17.5t-1 23.5v17v26q2 25 2 56v18v78v12v6v15q-4 46 -4 75q0 23 2 33v27l2 14v21v10q3 12 0 33q0 24 2 30v11q2 18 2 86v28v10l-2 21l-2 8q0 3 -1 9.5t-1 9.5v41 q0 45 4 55q6 20 26 27.5t63 7.5h20h29h32h21h49h41q20 0 34.5 -16t14.5 -38q0 -12 -2 -32q-4 -32 -4 -54v-4q0 -39 25 -39q8 0 14 2q1 0 4 1t8 2l10 2l39 6q10 2 31 2q91 0 180.5 -64.5t120.5 -152.5q4 -8 4 -11q14 -33 17 -41q9 -22 12 -38q4 -12 4 -19q6 -23 12 -96 q8 -60 8 -78l3 -29v-30l-7 -99l2 -14q0 -32 -12 -66q-2 -2 -3.5 -5.5t-2.5 -4.5v-8l-6 -23q-4 -28 -10 -47q-6 -14 -17 -30l-10 -19l-31 -43q-10 -15 -26 -31q-4 -4 -4 -6l-17 -18q-27 -31 -54 -46.5t-77 -27.5q-36 -8 -63 -8h-21q-12 2 -24 2q-105 0 -105 -94q0 -2 1 -17 t1 -24q2 -10 2 -25q0 -59 -69 -59q-5 0 -16 1t-17 1q-23 2 -60 2h-30l-49 -4h-7h-14q-10 -2 -20 -2q-56 0 -56 55zM385 848l2 -17v-106v-35v-12v-6v-2q0 -69 12 -97q17 -28 50 -28q44 0 73 45.5t29 114.5q0 3 -1 9t-1 13q0 5 -1 16t-1 17v16v12l-2 19l-2 16l-6 27 q-10 49 -35.5 77.5t-57.5 28.5q-59 0 -59 -63v-10v-35z" />
<glyph unicode="&#xdf;" horiz-adv-x="811" d="M29 301q0 22 4 92q1 20 3.5 91.5t2.5 115.5q0 40 -2.5 101t-3.5 79q0 34 2 91.5t2 91.5q0 20 -2 62.5t-2 64.5q0 99 31.5 173t82.5 115q13 10 29.5 19t31.5 15t28 10t22 7t10 3t24.5 5t55 10t53.5 5q26 0 64.5 -5t63.5 -10t30 -7q77 -30 134 -101.5t57 -183.5 q0 -28 -13.5 -71t-26 -70t-16.5 -33q-5 -11 -13 -28t-11.5 -26t-7 -18.5t-3.5 -15.5q0 -8 5.5 -25t18.5 -50.5t19 -49.5q14 -40 38 -103.5t32.5 -88.5t20 -63t14.5 -65t2 -57q0 -12 -0.5 -38.5t-1 -36.5l-1.5 -30t-3.5 -32t-7 -30t-11 -36t-16.5 -39q-15 -33 -29 -53.5 t-24 -29.5t-33 -27q-33 -25 -68 -37q-20 -4 -65 -4h-17h-16.5h-20.5t-20 1t-22 3.5t-19 6.5t-19.5 10.5t-15.5 15.5q-18 21 -18 49q0 16 2 42t2 42q0 20 -4 78q-4 32 -4 45q0 17 9 24.5t20 7.5q6 0 15 -2t15 -2q23 0 37 18.5t14 53.5q0 38 -10 82t-20.5 71.5t-25.5 61.5 t-17 39q-23 54 -34 117t-11 90q0 55 30 125q0 1 11.5 27t20.5 57t9 57q0 24 -12 41.5t-37 17.5q-9 0 -17 -3t-13.5 -7t-9.5 -11.5t-7 -13.5t-5 -15.5t-3 -16t-1.5 -16.5t-0.5 -14.5v-13v-9.5q0 -13 2 -32t2 -32q0 -21 -3 -58t-3 -59v-8q0 -42 4 -112t4 -111q0 -33 -3 -87 t-3 -87q0 -40 4 -107.5t4 -107.5q0 -22 -2 -58t-2 -57q0 -13 1 -36t1 -36q0 -30 -10 -45.5t-41 -15.5q-13 0 -36 2t-36 2q-24 0 -63.5 -3t-61.5 -3q-37 0 -49 16.5t-12 42.5q0 20 1 52.5t1 50.5q0 22 -2.5 68.5t-1.5 74.5z" />
<glyph unicode="&#xe0;" horiz-adv-x="768" d="M16 387q0 153 35 246.5t121 138.5q52 31 119 31q17 0 32.5 -3t30 -8t17.5 -6t13.5 -6.5t20.5 -9.5t15 -4q10 2 18 11t8 24q0 27 -8 45.5t-19.5 28.5t-30.5 15.5t-35 7t-40 1.5q-47 0 -100 -16q-14 -5 -27.5 -13t-22 -12t-16.5 -4q-22 0 -49 27q-8 11 -8 47q0 10 1 26.5 t1 26.5t-1 30.5t-1 32.5q0 33 15 47t63 29q81 21 137 21q24 2 62.5 3.5t126 -10t137.5 -40.5q52 -32 76 -74q24 -43 24 -178q0 -18 -1 -49t-1 -48q0 -23 1 -64t1 -65q0 -30 -1 -89t-1 -87v-161q0 -17 1 -52t1 -53t-2 -49t-2 -51v-29q0 -47 -53 -47q-18 0 -50.5 2t-52.5 2 q-17 0 -44.5 -3t-43.5 -3q-15 0 -21.5 4t-6.5 20q0 33 -13 33q-3 0 -11 -7.5t-19.5 -18t-22.5 -15.5q-40 -24 -100 -24q-99 0 -158 49q-35 28 -59.5 74.5t-35.5 99t-15.5 94.5t-4.5 82zM137 1425q0 20 23 23h39q31 0 47 -2q80 0 121 2q7 0 21.5 1t21.5 1q28 -3 36 -16 q9 -9 21 -52q13 -30 22 -59q3 -6 7.5 -18.5t7.5 -18.5q3 -10 10.5 -24t7.5 -21h-2q0 -11 -7 -17t-21 -7.5t-27.5 -1t-35.5 2t-36 1.5h-67q-5 2 -11 7.5t-17.5 19.5t-16.5 20l-56 55q-7 7 -18.5 19.5t-22 22.5t-20.5 19l-7 6q-7 6 -13.5 16.5t-6.5 20.5zM299 442q0 -6 1 -18 t1 -18v-5q0 -1 -0.5 -18.5t0 -27.5t2 -29t6 -31t11.5 -25t19 -19.5t28 -6.5q34 0 49.5 30t15.5 62v131q0 47 -27 68t-53 12q-23 -7 -38 -37t-15 -68z" />
<glyph unicode="&#xe1;" horiz-adv-x="768" d="M16 387q0 153 35 246.5t121 138.5q52 31 119 31q17 0 32.5 -3t30 -8t17.5 -6t13.5 -6.5t20.5 -9.5t15 -4q10 2 18 11t8 24q0 27 -8 45.5t-19.5 28.5t-30.5 15.5t-35 7t-40 1.5q-47 0 -100 -16q-14 -5 -27.5 -13t-22 -12t-16.5 -4q-22 0 -49 27q-8 11 -8 47q0 10 1 26.5 t1 26.5t-1 30.5t-1 32.5q0 33 15 47t63 29q81 21 137 21q24 2 62.5 3.5t126 -10t137.5 -40.5q52 -32 76 -74q24 -43 24 -178q0 -18 -1 -49t-1 -48q0 -23 1 -64t1 -65q0 -30 -1 -89t-1 -87v-161q0 -17 1 -52t1 -53t-2 -49t-2 -51v-29q0 -47 -53 -47q-18 0 -50.5 2t-52.5 2 q-17 0 -44.5 -3t-43.5 -3q-15 0 -21.5 4t-6.5 20q0 33 -13 33q-3 0 -11 -7.5t-19.5 -18t-22.5 -15.5q-40 -24 -100 -24q-99 0 -158 49q-35 28 -59.5 74.5t-35.5 99t-15.5 94.5t-4.5 82zM287 1245q0 7 16 47l29 80l16 39q1 1 3 6.5t3 7t3.5 6t4.5 6l6 4.5t8 4.5t10 3t13 1.5 q13 0 37.5 -2t36.5 -2q66 -3 148 4h3q44 0 44 -25q0 -9 -5 -19t-10 -15.5t-16 -15.5t-14 -13l-33 -35l-27 -27l-78 -81q-4 -2 -18 -2t-38 1t-38 1q-16 0 -35.5 -1.5t-30.5 -1.5t-20 3q-18 7 -18 26zM299 442q0 -6 1 -18t1 -18v-5q0 -1 -0.5 -18.5t0 -27.5t2 -29t6 -31 t11.5 -25t19 -19.5t28 -6.5q34 0 49.5 30t15.5 62v131q0 47 -27 68t-53 12q-23 -7 -38 -37t-15 -68z" />
<glyph unicode="&#xe2;" horiz-adv-x="768" d="M16 387q0 153 35 246.5t121 138.5q52 31 119 31q17 0 32.5 -3t30 -8t17.5 -6t13.5 -6.5t20.5 -9.5t15 -4q10 2 18 11t8 24q0 27 -8 45.5t-19.5 28.5t-30.5 15.5t-35 7t-40 1.5q-47 0 -100 -16q-14 -5 -27.5 -13t-22 -12t-16.5 -4q-22 0 -49 27q-8 11 -8 47q0 10 1 26.5 t1 26.5t-1 30.5t-1 32.5q0 33 15 47t63 29q81 21 137 21q24 2 62.5 3.5t126 -10t137.5 -40.5q52 -32 76 -74q24 -43 24 -178q0 -18 -1 -49t-1 -48q0 -23 1 -64t1 -65q0 -30 -1 -89t-1 -87v-161q0 -17 1 -52t1 -53t-2 -49t-2 -51v-29q0 -47 -53 -47q-18 0 -50.5 2t-52.5 2 q-17 0 -44.5 -3t-43.5 -3q-15 0 -21.5 4t-6.5 20q0 33 -13 33q-3 0 -11 -7.5t-19.5 -18t-22.5 -15.5q-40 -24 -100 -24q-99 0 -158 49q-35 28 -59.5 74.5t-35.5 99t-15.5 94.5t-4.5 82zM137 1243q0 12 19 37q4 4 10 13.5t10 13.5q23 35 41 57q9 15 31 45q1 2 5 9t5.5 9t6 7 t8 7t10 5t14.5 4q11 1 14 0.5t15.5 -2t25.5 -2.5h64h22q71 6 90 0q11 -4 19.5 -13t24.5 -33l24 -36q10 -17 51 -70l7.5 -10t6.5 -9l5 -7.5t4.5 -7.5t3 -6.5t2 -7t0.5 -7.5q0 -8 -8 -16q-5 -4 -11 -5.5t-10 -1.5t-11.5 0.5t-10.5 0.5h-23h-78q-6 -1 -20.5 -4t-22.5 -3 q-29 0 -43 29q-1 2 -5 12.5t-7.5 18t-10 14t-14.5 6.5q-9 0 -16 -12q-7 -9 -11.5 -29.5t-15.5 -29.5q-4 -3 -9 -4t-8 -1t-12 1.5t-14 1.5q-24 0 -36 2q-15 0 -45 -2.5t-46 -2.5q-21 0 -36.5 6.5t-14.5 22.5zM299 442q0 -6 1 -18t1 -18v-5q0 -1 -0.5 -18.5t0 -27.5t2 -29 t6 -31t11.5 -25t19 -19.5t28 -6.5q34 0 49.5 30t15.5 62v131q0 47 -27 68t-53 12q-23 -7 -38 -37t-15 -68z" />
<glyph unicode="&#xe3;" horiz-adv-x="768" d="M16 387q0 153 35 246.5t121 138.5q52 31 119 31q17 0 32.5 -3t30 -8t17.5 -6t13.5 -6.5t20.5 -9.5t15 -4q10 2 18 11t8 24q0 27 -8 45.5t-19.5 28.5t-30.5 15.5t-35 7t-40 1.5q-47 0 -100 -16q-14 -5 -27.5 -13t-22 -12t-16.5 -4q-22 0 -49 27q-8 11 -8 47q0 10 1 26.5 t1 26.5t-1 30.5t-1 32.5q0 33 15 47t63 29q81 21 137 21q24 2 62.5 3.5t126 -10t137.5 -40.5q52 -32 76 -74q24 -43 24 -178q0 -18 -1 -49t-1 -48q0 -23 1 -64t1 -65q0 -30 -1 -89t-1 -87v-161q0 -17 1 -52t1 -53t-2 -49t-2 -51v-29q0 -47 -53 -47q-18 0 -50.5 2t-52.5 2 q-17 0 -44.5 -3t-43.5 -3q-15 0 -21.5 4t-6.5 20q0 33 -13 33q-3 0 -11 -7.5t-19.5 -18t-22.5 -15.5q-40 -24 -100 -24q-99 0 -158 49q-35 28 -59.5 74.5t-35.5 99t-15.5 94.5t-4.5 82zM72 1284l6 21q11 45 39 77q56 70 159 70q26 0 119 -16q56 -10 70 -11q24 -4 37 -4 q22 0 39 17q14 18 20 20q1 0 6 -1t13 -2.5t14 -2.5l80 -12q53 -8 53 -21q0 -11 -16 -47q-48 -125 -197 -125q-14 0 -121 17q-61 12 -78 12q-24 0 -36 -8q-4 -2 -16 -14.5t-21 -12.5q-1 0 -7 1l-15 2.5l-15 2.5l-51 8q-25 5 -31 5q-1 0 -11.5 1t-17.5 2.5t-14 6.5t-8 14z M299 442q0 -6 1 -18t1 -18v-5q0 -1 -0.5 -18.5t0 -27.5t2 -29t6 -31t11.5 -25t19 -19.5t28 -6.5q34 0 49.5 30t15.5 62v131q0 47 -27 68t-53 12q-23 -7 -38 -37t-15 -68z" />
<glyph unicode="&#xe4;" horiz-adv-x="768" d="M16 387q0 153 35 246.5t121 138.5q52 31 119 31q17 0 32.5 -3t30 -8t17.5 -6t13.5 -6.5t20.5 -9.5t15 -4q10 2 18 11t8 24q0 27 -8 45.5t-19.5 28.5t-30.5 15.5t-35 7t-40 1.5q-47 0 -100 -16q-14 -5 -27.5 -13t-22 -12t-16.5 -4q-22 0 -49 27q-8 11 -8 47q0 10 1 26.5 t1 26.5t-1 30.5t-1 32.5q0 33 15 47t63 29q81 21 137 21q24 2 62.5 3.5t126 -10t137.5 -40.5q52 -32 76 -74q24 -43 24 -178q0 -18 -1 -49t-1 -48q0 -23 1 -64t1 -65q0 -30 -1 -89t-1 -87v-161q0 -17 1 -52t1 -53t-2 -49t-2 -51v-29q0 -47 -53 -47q-18 0 -50.5 2t-52.5 2 q-17 0 -44.5 -3t-43.5 -3q-15 0 -21.5 4t-6.5 20q0 33 -13 33q-3 0 -11 -7.5t-19.5 -18t-22.5 -15.5q-40 -24 -100 -24q-99 0 -158 49q-35 28 -59.5 74.5t-35.5 99t-15.5 94.5t-4.5 82zM122.5 1395q-0.5 13 0.5 20q5 35 43 37q10 1 28 -0.5t23 -1.5q37 -3 72 0q30 3 49 1 t27 -13t8 -64q0 -8 1 -25t1 -26q0 -17 -2 -25v-4v-6t-0.5 -8.5t-1.5 -9.5t-3 -9t-5.5 -8.5t-8.5 -7t-12 -4.5q-4 -1 -13 -1t-19 0.5t-13 0.5q-11 0 -33.5 -1t-34.5 -1h-51q-13 0 -23 2.5t-15.5 8t-9 11t-4.5 13.5t-1.5 13t0 13t0.5 9q0 16 -1 44.5t-1.5 41.5zM299 442 q0 -6 1 -18t1 -18v-5q0 -1 -0.5 -18.5t0 -27.5t2 -29t6 -31t11.5 -25t19 -19.5t28 -6.5q34 0 49.5 30t15.5 62v131q0 47 -27 68t-53 12q-23 -7 -38 -37t-15 -68zM438 1393q-3 25 4 39q9 18 35 18q24 0 68.5 -1t66.5 -1q9 0 23 0.5t20 0.5t13.5 -2t11.5 -7q8 -8 8 -43 q0 -7 -1 -21.5t-1 -21.5v-35q0 -6 1 -17.5t0.5 -18t-2 -15t-7.5 -14.5t-16 -9q-18 -8 -111 -8h-59q-47 0 -50 27v14q-1 15 -1.5 35t-0.5 33q0 31 -2 47z" />
<glyph unicode="&#xe5;" horiz-adv-x="768" d="M16 387q0 153 35 246.5t121 138.5q52 31 119 31q17 0 32.5 -3t30 -8t17.5 -6t13.5 -6.5t20.5 -9.5t15 -4q10 2 18 11t8 24q0 27 -8 45.5t-19.5 28.5t-30.5 15.5t-35 7t-40 1.5q-47 0 -100 -16q-14 -5 -27.5 -13t-22 -12t-16.5 -4q-22 0 -49 27q-8 11 -8 47q0 10 1 26.5 t1 26.5t-1 30.5t-1 32.5q0 33 15 47t63 29q81 21 137 21q24 2 62.5 3.5t126 -10t137.5 -40.5q52 -32 76 -74q24 -43 24 -178q0 -18 -1 -49t-1 -48q0 -23 1 -64t1 -65q0 -30 -1 -89t-1 -87v-161q0 -17 1 -52t1 -53t-2 -49t-2 -51v-29q0 -47 -53 -47q-18 0 -50.5 2t-52.5 2 q-17 0 -44.5 -3t-43.5 -3q-15 0 -21.5 4t-6.5 20q0 33 -13 33q-3 0 -11 -7.5t-19.5 -18t-22.5 -15.5q-40 -24 -100 -24q-99 0 -158 49q-35 28 -59.5 74.5t-35.5 99t-15.5 94.5t-4.5 82zM195 1415q0 58 36 103q39 39 56 49q46 28 110 28q41 0 90 -14q14 -4 66 -43 q57 -47 57 -135q0 -66 -26 -107q-33 -47 -88 -67q-40 -17 -99 -17q-32 0 -69 11q-31 9 -59 26.5t-38 34.5q-20 33 -24 59q-12 60 -12 72zM299 442q0 -6 1 -18t1 -18v-5q0 -1 -0.5 -18.5t0 -27.5t2 -29t6 -31t11.5 -25t19 -19.5t28 -6.5q34 0 49.5 30t15.5 62v131 q0 47 -27 68t-53 12q-23 -7 -38 -37t-15 -68zM332 1399q0 -32 28 -47q22 -13 43 -13q48 0 62 37q4 8 4 35q0 29 -16 45q-20 17 -58 17q-5 0 -28 -9q-23 -14 -31 -47z" />
<glyph unicode="&#xe6;" horiz-adv-x="1193" d="M12 377q0 142 27 231.5t92 143.5q68 55 158 55q38 0 78 -16q5 -2 22 -11.5t29 -9.5q28 0 28 61q0 13 -12 37q-20 22 -45.5 30.5t-71.5 8.5q-57 0 -106 -16q-5 -2 -19.5 -9.5t-27 -12.5t-19.5 -5q-11 0 -25 9.5t-16 13.5q-14 17 -14 51q0 9 1 25.5t1 25.5v45q0 12 0.5 21 t2.5 16.5t3 12.5t5.5 10t5.5 7t8.5 6t9.5 5t12 5t13 5q33 15 85.5 21.5t88.5 6.5l36 -1q72 0 114.5 -5t101.5 -24q6 -2 12.5 -4.5t10 -4t5.5 -1.5q6 -1 15 3t23 11.5t26 12.5q52 15 118 18q3 0 9.5 1t9.5 1q70 0 127.5 -20.5t93.5 -51t62.5 -74t39.5 -81t20.5 -80.5t9 -64.5 t1.5 -40.5q0 -34 -2 -91t-2 -91v-31q0 -27 -21.5 -56.5t-68.5 -29.5q-11 0 -34 2.5t-34 2.5q-15 0 -40 -2.5t-41 -2.5q-20 0 -55 3.5t-56 3.5q-48 0 -64 -8.5t-16 -43.5q0 -45 27 -77q42 -56 149 -56q41 0 96 19q1 0 10.5 5.5t18 10t21 8.5t22.5 4t22.5 -2.5t28 -17 t15.5 -39.5q0 -15 -3.5 -41t-3.5 -43q0 -14 1.5 -39t1.5 -39q0 -36 -14.5 -49.5t-67.5 -28.5q-75 -24 -164 -24q-99 0 -156 12l-22 8q-2 0 -17 -10q-4 -1 -6.5 -2t-5.5 -1.5t-8 -0.5q-20 0 -54 2t-55 2q-17 0 -45.5 -2t-44.5 -2q-27 0 -27 20v8q1 8 1 12t-3.5 9t-9.5 6 q-6 0 -10 -2q-5 -4 -19 -16.5t-24 -18.5q-40 -24 -100 -24q-49 0 -89.5 14t-68 36.5t-48 55t-32.5 66t-19 73.5t-9.5 72.5t-2.5 67.5zM292 376.5q0 -13.5 1.5 -35t6 -37t12 -30t20.5 -22t30 -6.5q21 0 35 14q22 22 27.5 45.5t5.5 75.5q0 15 -1 39t-1 39v22q0 34 -22 55 t-41 21h-5q-14 -3 -26 -12q-41 -28 -41 -119q0 -2 -0.5 -19t-0.5 -30.5zM727 727.5q0 -2.5 0.5 -7.5t1.5 -9t3 -8.5t5.5 -8t8 -6.5t11.5 -4.5t15 -1.5h14q65 0 75.5 11.5t10.5 81.5v13q0 57 -19.5 88.5t-55.5 28.5q-11 0 -27 -8q-20 -13 -30 -39t-11.5 -49t-1.5 -70v-5v-6.5 z" />
<glyph unicode="&#xe7;" horiz-adv-x="555" d="M31 520q0 150 7.5 229t29.5 156q31 117 90 176q78 78 229 78q13 0 34 -1t34 -1h22q25 0 41.5 -14t16.5 -39q0 -12 -1.5 -30t-1.5 -30q0 -20 1.5 -52t1.5 -52v-8q0 -52 -18.5 -69t-55.5 -17q-6 0 -16 1t-15 1q-28 0 -47 -23t-27 -65.5t-11 -81t-3 -90.5q0 -194 27 -230 q16 -18 31 -26t42 -8h2q8 0 22.5 2t22.5 2q48 0 48 -64q0 -23 -3.5 -59.5t-3.5 -57.5q0 -15 1 -38.5t1 -36.5q0 -36 -20.5 -57t-73.5 -21q-36 0 -43 -12q-12 -16 -12 -31q-6 -19 10 -29l25 -16q22 -19 33 -39q16 -29 16 -88q0 -36 -8 -60q-3 -11 -13.5 -31.5t-17.5 -27.5 q-22 -27 -63 -41q-37 -13 -84 0q-26 7 -48 21q-26 17 -26 45q0 37 6 53l8 16q14 19 27 19q4 0 16 -4.5t15 -4.5q15 0 22 7q10 10 10 32q0 6 -6 14t-12 11q-30 13 -37 22q-12 15 -6 39q4 26 12 39l23 43q14 27 -27 37q-65 17 -119 76q-41 41 -65 98q-12 30 -21 82 q-13 64 -17.5 111t-4.5 145z" />
<glyph unicode="&#xe8;" horiz-adv-x="811" d="M37 573v7q0 25 3 65.5t3 50.5v4q0 23 0.5 43.5t6.5 70t18 90t38.5 90t63.5 83t97.5 57t135.5 23.5q109 0 173 -33t112 -104q76 -108 76 -285q0 -24 -2.5 -123.5t-5.5 -105.5q-10 -24 -28 -42t-40 -18q-10 0 -27.5 2.5t-27.5 2.5h-2q-20 0 -52.5 -2.5t-50.5 -2.5 q-20 0 -53 1.5t-53 1.5h-41q-28 0 -38.5 -11.5t-10.5 -40.5q0 -53 38.5 -89t118.5 -36q60 0 115 19q6 2 22.5 9.5t31 13t22.5 5.5q20 2 40.5 -13.5t20.5 -37.5t-2 -60t-2 -61v-57q0 -19 -3 -26t-13 -19q-24 -24 -98 -38.5t-160 -14.5q-131 0 -212 40t-136 122 q-40 62 -64 157q-14 72 -14 262zM150 1425q0 20 22 23h39q31 0 47 -2q80 0 121 2q7 0 21.5 1t21.5 1q29 -4 37 -16q7 -7 20 -52q16 -37 23 -59q3 -6 7 -18.5t7 -18.5q4 -10 11.5 -24.5t7.5 -20.5h-3q0 -11 -6.5 -17t-20.5 -7.5t-27.5 -1t-35.5 2t-36 1.5h-68q-5 2 -11 7.5 t-17.5 19.5t-16.5 20l-55 55q-54 54 -62 61l-6 6q-7 6 -13.5 16.5t-6.5 20.5zM330 748q0 -29 4 -41q5 -9 7.5 -12.5t10 -7t19.5 -3.5h20q6 0 17.5 -1t17.5 -1q14 0 22 1.5t16 7t11.5 17.5t3.5 31l1 21q0 20 -0.5 29t-2.5 29.5t-7 31.5t-13 25t-22 20t-32 6q-12 0 -21.5 -3.5 t-16.5 -8.5t-13 -14.5t-9.5 -17t-6 -20l-4 -20t-2 -21t-0.5 -18.5v-18v-12z" />
<glyph unicode="&#xe9;" horiz-adv-x="811" d="M37 573v7q0 25 3 65.5t3 50.5v4q0 23 0.5 43.5t6.5 70t18 90t38.5 90t63.5 83t97.5 57t135.5 23.5q109 0 173 -33t112 -104q76 -108 76 -285q0 -24 -2.5 -123.5t-5.5 -105.5q-10 -24 -28 -42t-40 -18q-10 0 -27.5 2.5t-27.5 2.5h-2q-20 0 -52.5 -2.5t-50.5 -2.5 q-20 0 -53 1.5t-53 1.5h-41q-28 0 -38.5 -11.5t-10.5 -40.5q0 -53 38.5 -89t118.5 -36q60 0 115 19q6 2 22.5 9.5t31 13t22.5 5.5q20 2 40.5 -13.5t20.5 -37.5t-2 -60t-2 -61v-57q0 -19 -3 -26t-13 -19q-24 -24 -98 -38.5t-160 -14.5q-131 0 -212 40t-136 122 q-40 62 -64 157q-14 72 -14 262zM301 1245q0 7 16 47l29 80l16 39q6 14 8.5 18.5t14 12t29.5 8.5q12 0 36 -2t37 -2q66 -3 148 4h3q44 0 44 -25q0 -9 -5 -19t-10 -15.5t-16 -15.5t-14 -13l-33 -35q-22 -22 -26 -27l-78 -81q-4 -2 -18 -2t-38 1t-38 1q-16 0 -35.5 -1.5 t-31 -1.5t-20.5 3q-18 7 -18 26zM330 748q0 -29 4 -41q5 -9 7.5 -12.5t10 -7t19.5 -3.5h20q6 0 17.5 -1t17.5 -1q14 0 22 1.5t16 7t11.5 17.5t3.5 31l1 21q0 20 -0.5 29t-2.5 29.5t-7 31.5t-13 25t-22 20t-32 6q-12 0 -21.5 -3.5t-16.5 -8.5t-13 -14.5t-9.5 -17t-6 -20 l-4 -20t-2 -21t-0.5 -18.5v-18v-12z" />
<glyph unicode="&#xea;" horiz-adv-x="811" d="M37 573v7q0 25 3 65.5t3 50.5v4q0 23 0.5 43.5t6.5 70t18 90t38.5 90t63.5 83t97.5 57t135.5 23.5q109 0 173 -33t112 -104q76 -108 76 -285q0 -24 -2.5 -123.5t-5.5 -105.5q-10 -24 -28 -42t-40 -18q-10 0 -27.5 2.5t-27.5 2.5h-2q-20 0 -52.5 -2.5t-50.5 -2.5 q-20 0 -53 1.5t-53 1.5h-41q-28 0 -38.5 -11.5t-10.5 -40.5q0 -53 38.5 -89t118.5 -36q60 0 115 19q6 2 22.5 9.5t31 13t22.5 5.5q20 2 40.5 -13.5t20.5 -37.5t-2 -60t-2 -61v-57q0 -19 -3 -26t-13 -19q-24 -24 -98 -38.5t-160 -14.5q-131 0 -212 40t-136 122 q-40 62 -64 157q-14 72 -14 262zM147 1243q0 12 19 37q4 4 10 13.5t10 13.5q23 35 41 57q9 15 31 45q1 2 5 9t5.5 9t6 7t8 7t10 5t14.5 4q11 1 14 0.5t15.5 -2t25.5 -2.5h64h23q71 6 90 0q11 -4 19.5 -13t23.5 -32.5t24 -36.5q10 -17 51 -70l7.5 -10t6.5 -9l5 -7.5t4.5 -7.5 t3 -6.5t2 -7t0.5 -7.5q0 -8 -8 -16q-5 -4 -11 -5.5t-10 -1.5t-11.5 0.5t-10.5 0.5h-23q-8 0 -24 0.5t-29 0.5t-24 -1q-6 -1 -20.5 -4t-22.5 -3q-29 0 -43 29q-1 2 -5 12.5t-7.5 18t-10 14t-14.5 6.5q-10 0 -17 -12q-7 -9 -11 -29.5t-15 -29.5q-4 -3 -9 -4t-8 -1t-12 1.5 t-14 1.5q-25 0 -37 2q-15 0 -45 -2.5t-45 -2.5q-21 0 -37 6.5t-15 22.5zM330 748q0 -29 4 -41q5 -9 7.5 -12.5t10 -7t19.5 -3.5h20q6 0 17.5 -1t17.5 -1q14 0 22 1.5t16 7t11.5 17.5t3.5 31l1 21q0 20 -0.5 29t-2.5 29.5t-7 31.5t-13 25t-22 20t-32 6q-12 0 -21.5 -3.5 t-16.5 -8.5t-13 -14.5t-9.5 -17t-6 -20l-4 -20t-2 -21t-0.5 -18.5v-18v-12z" />
<glyph unicode="&#xeb;" horiz-adv-x="811" d="M37 573v7q0 25 3 65.5t3 50.5v4q0 23 0.5 43.5t6.5 70t18 90t38.5 90t63.5 83t97.5 57t135.5 23.5q109 0 173 -33t112 -104q76 -108 76 -285q0 -24 -2.5 -123.5t-5.5 -105.5q-10 -24 -28 -42t-40 -18q-10 0 -27.5 2.5t-27.5 2.5h-2q-20 0 -52.5 -2.5t-50.5 -2.5 q-20 0 -53 1.5t-53 1.5h-41q-28 0 -38.5 -11.5t-10.5 -40.5q0 -53 38.5 -89t118.5 -36q60 0 115 19q6 2 22.5 9.5t31 13t22.5 5.5q20 2 40.5 -13.5t20.5 -37.5t-2 -60t-2 -61v-57q0 -19 -3 -26t-13 -19q-24 -24 -98 -38.5t-160 -14.5q-131 0 -212 40t-136 122 q-40 62 -64 157q-14 72 -14 262zM134.5 1395q-0.5 13 0.5 20q5 35 43 37q10 1 28 -0.5t23 -1.5q37 -3 72 0q30 3 49 1t27 -13t8 -64q0 -8 1 -25t1 -26q0 -17 -2 -25v-4v-6t-0.5 -8.5t-1.5 -9.5t-3 -9t-5.5 -8.5t-8.5 -7t-12 -4.5h-45q-11 0 -33 -1t-34 -1h-52q-13 0 -23 2.5 t-15.5 8t-9 11t-4.5 13.5t-1.5 13t0 13t0.5 9q0 16 -1 44.5t-1.5 41.5zM330 748q0 -29 4 -41q5 -9 7.5 -12.5t10 -7t19.5 -3.5h20q6 0 17.5 -1t17.5 -1q14 0 22 1.5t16 7t11.5 17.5t3.5 31l1 21q0 20 -0.5 29t-2.5 29.5t-7 31.5t-13 25t-22 20t-32 6q-12 0 -21.5 -3.5 t-16.5 -8.5t-13 -14.5t-9.5 -17t-6 -20l-4 -20t-2 -21t-0.5 -18.5v-18v-12zM451 1393q-3 25 4 39q9 18 34 18q24 0 69 -1t67 -1q9 0 23 0.5t20 0.5t13 -2t11 -7q8 -8 8 -43q0 -7 -1 -21.5t-1 -21.5v-35q0 -6 1 -17.5t0.5 -18t-2 -15t-7.5 -14.5t-16 -9q-18 -8 -111 -8h-59 q-46 0 -49 27l-1 14q0 15 -0.5 35t-0.5 33q0 31 -2 47z" />
<glyph unicode="&#xec;" horiz-adv-x="382" d="M-76 1425q0 20 23 23h39q31 0 47 -2q80 0 121 2q7 0 21.5 1t21.5 1q28 -3 36 -16q9 -9 21 -52q13 -30 22 -59q3 -6 7.5 -18.5t7.5 -18.5q3 -10 10.5 -24t7.5 -21h-2q0 -11 -7 -17t-21 -7.5t-27.5 -1t-35.5 2t-36 1.5h-67q-5 2 -11 7.5t-17.5 19.5t-16.5 20l-56 55 q-7 7 -18.5 19.5t-22 22.5t-20.5 19l-7 6q-6 6 -13 16.5t-7 20.5zM31 70v4q0 30 2 79.5t2 77.5q0 34 1 92.5t1 92.5q0 26 -1 72.5t-1 74.5q0 27 2 72t2 72q0 21 -1 55t-1 55q0 29 2 80t2 80q0 21 -2 58t-2 59t13 35t24 15.5t20 2.5q14 0 35 -2t35 -2q24 0 66.5 2t68.5 2 q53 0 53 -57q0 -34 -2 -91.5t-2 -91.5q0 -28 1 -83t1 -81q0 -37 -1 -98t-1 -98q0 -27 1 -75t1 -75q0 -26 -3 -86t-1 -98q1 -20 4.5 -66.5t3.5 -76.5q0 -33 -15.5 -49.5t-37.5 -16.5q-10 0 -26 2t-25 2h-45q-21 0 -56 -3t-55 -3q-23 0 -37.5 6.5t-19 20t-5.5 20t-1 21.5z" />
<glyph unicode="&#xed;" horiz-adv-x="382" d="M31 70v4q0 30 2 79.5t2 77.5q0 34 1 92.5t1 92.5q0 26 -1 72.5t-1 74.5q0 27 2 72t2 72q0 21 -1 55t-1 55q0 29 2 80t2 80q0 21 -2 58t-2 59t13 35t24 15.5t20 2.5q14 0 35 -2t35 -2q24 0 66.5 2t68.5 2q53 0 53 -57q0 -34 -2 -91.5t-2 -91.5q0 -28 1 -83t1 -81 q0 -37 -1 -98t-1 -98q0 -27 1 -75t1 -75q0 -26 -3 -86t-1 -98q1 -20 4.5 -66.5t3.5 -76.5q0 -33 -15.5 -49.5t-37.5 -16.5q-10 0 -26 2t-25 2h-45q-21 0 -56 -3t-55 -3q-23 0 -37.5 6.5t-19 20t-5.5 20t-1 21.5zM76 1245q0 7 16 47l29 80l16 39q1 1 3 6.5t3 7t3.5 6t4.5 6 l6 4.5t8 4.5t10 3t13 1.5q12 0 37 -2t37 -2q66 -3 148 4h3q44 0 44 -25q0 -9 -5 -19t-10 -15.5t-16 -15.5t-14 -13l-33 -35l-27 -27l-78 -81q-4 -2 -18 -2t-38 1t-38 1q-16 0 -35.5 -1.5t-30.5 -1.5t-20 3q-18 7 -18 26z" />
<glyph unicode="&#xee;" horiz-adv-x="382" d="M-76 1243q0 12 19 37q4 4 10 13.5t10 13.5q23 35 41 57q9 15 31 45q1 2 5 9t5.5 9t6 7t8 7t10 5t14.5 4q11 1 14 0.5t15.5 -2t25.5 -2.5h64h22q71 6 90 0q11 -4 19.5 -13t24.5 -33l24 -36q10 -17 51 -70l7.5 -10t6.5 -9l5 -7.5t4.5 -7.5t3 -6.5t2 -7t0.5 -7.5 q0 -8 -8 -16q-5 -4 -11 -5.5t-10 -1.5t-11.5 0.5t-10.5 0.5h-23h-78q-6 -1 -20.5 -4t-22.5 -3q-29 0 -43 29q-1 2 -5 12.5t-7.5 18t-10 14t-14.5 6.5q-9 0 -16 -12q-7 -9 -11.5 -29.5t-15.5 -29.5q-4 -3 -9 -4t-8 -1t-12 1.5t-14 1.5q-24 0 -36 2q-16 0 -46 -2.5t-45 -2.5 q-21 0 -36.5 6.5t-14.5 22.5zM31 70v4q0 30 2 79.5t2 77.5q0 34 1 92.5t1 92.5q0 26 -1 72.5t-1 74.5q0 27 2 72t2 72q0 21 -1 55t-1 55q0 29 2 80t2 80q0 21 -2 58t-2 59t13 35t24 15.5t20 2.5q14 0 35 -2t35 -2q24 0 66.5 2t68.5 2q53 0 53 -57q0 -34 -2 -91.5t-2 -91.5 q0 -28 1 -83t1 -81q0 -37 -1 -98t-1 -98q0 -27 1 -75t1 -75q0 -26 -3 -86t-1 -98q1 -20 4.5 -66.5t3.5 -76.5q0 -33 -15.5 -49.5t-37.5 -16.5q-10 0 -26 2t-25 2h-45q-21 0 -56 -3t-55 -3q-23 0 -37.5 6.5t-19 20t-5.5 20t-1 21.5z" />
<glyph unicode="&#xef;" horiz-adv-x="382" d="M-88.5 1395q-0.5 13 0.5 20q5 35 43 37q10 1 28 -0.5t23 -1.5q38 -3 72 0q30 3 49 1t27 -13t8 -64q0 -8 1 -25t1 -26q0 -17 -2 -25v-4v-6t-0.5 -8.5t-1.5 -9.5t-3 -9t-5.5 -8.5t-8.5 -7t-12 -4.5q-4 -1 -13 -1t-19 0.5t-13 0.5q-12 0 -34 -1t-34 -1h-51q-13 0 -23 2.5 t-15.5 8t-9 11t-4.5 13.5t-1.5 13t0 13t0.5 9q0 16 -1 44.5t-1.5 41.5zM31 70v4q0 30 2 79.5t2 77.5q0 34 1 92.5t1 92.5q0 26 -1 72.5t-1 74.5q0 27 2 72t2 72q0 21 -1 55t-1 55q0 29 2 80t2 80q0 21 -2 58t-2 59t13 35t24 15.5t20 2.5q14 0 35 -2t35 -2q24 0 66.5 2 t68.5 2q53 0 53 -57q0 -34 -2 -91.5t-2 -91.5q0 -28 1 -83t1 -81q0 -37 -1 -98t-1 -98q0 -27 1 -75t1 -75q0 -26 -3 -86t-1 -98q1 -20 4.5 -66.5t3.5 -76.5q0 -33 -15.5 -49.5t-37.5 -16.5q-10 0 -26 2t-25 2h-45q-21 0 -56 -3t-55 -3q-23 0 -37.5 6.5t-19 20t-5.5 20 t-1 21.5zM227 1393q-3 25 4 39q9 18 35 18q24 0 68.5 -1t66.5 -1q9 0 23 0.5t20 0.5t13.5 -2t11.5 -7q8 -8 8 -43q0 -7 -1 -21.5t-1 -21.5v-35q0 -6 1 -17.5t0.5 -18t-2 -15t-7.5 -14.5t-16 -9q-18 -8 -111 -8h-59q-47 0 -50 27l-1 14q0 15 -0.5 35t-0.5 33q0 31 -2 47z" />
<glyph unicode="&#xf0;" horiz-adv-x="811" d="M35 549q0 123 8 170l2 18l10 80q0 7 4 19q0 2 13 34l6 15q21 57 51 98q28 38 81 66t99 28q60 0 105 -51q5 -8 12 -8q6 0 6 12q0 9 -4 19q-12 42 -27 65l-12 21l-8 12l-16 27q-13 20 -29 20q-12 0 -25 -10l-14 -10l-29 -17l-22 -16l-17 -11q-26 -20 -43 -20q-12 0 -30 27 q-3 6 -7 11.5t-6 8.5t-2 4l-18 21q0 1 -1 4.5t-1 5.5q0 10 6 22q4 8 8 11.5t21 15.5l28 16l17 7l24 12l11 8l10 6q12 6 12 17q0 12 -10 22l-23 19l-6 8l-10 6l-10 6l-13 10q-12 16 -12 33q0 4 4 16q14 24 25 29l10 6l12 8l6 5l9 8l8 4l16 14l8 4l21 8q10 5 14 5q23 0 53 -17 l21 -14l10 -6l49 -35q21 -14 29 -14q7 0 25 10l18 10l14 12l39 21l25 16q8 8 24 8q19 0 27 -12l10 -14q0 -3 13 -13q9 -8 16.5 -20t7.5 -20q0 -5 -2 -7q0 -13 -6 -16q0 -1 -1.5 -2t-5.5 -3.5t-7 -4.5l-37 -25l-31 -14q-20 -11 -20 -29q0 -9 8 -20l12 -15l6 -10l17 -20l8 -11 l20 -34l6 -13q18 -30 21 -45q2 -3 3.5 -8t2.5 -6l14 -23l4 -12l11 -25q7 -11 12 -28q0 -7 6 -31q18 -61 21 -86l4 -39l4 -31l2 -20l6 -49l4 -41v-41l4 -96v-15q0 -34 -2 -65q-4 -87 -4 -88l-10 -84l-2 -17q0 -4 -2 -13.5t-4.5 -23t-4.5 -22.5q-27 -112 -81 -186 q-85 -119 -261 -119q-73 0 -120 12t-86 41q-99 68 -142 234q-20 87 -20 270zM336 420q0 -90 10 -107q8 -14 22.5 -24t26.5 -10q70 0 70 120v11l-6 208v9v35q2 10 2 22q2 14 2 29q0 67 -16 95t-54 28q-32 0 -44.5 -26.5t-12.5 -94.5q0 -7 1 -21t1 -20v-45v-11v-4v-8v-55v-55 l-2 -52v-12v-12z" />
<glyph unicode="&#xf1;" horiz-adv-x="768" d="M37 1081q0 56 59 56q15 0 40.5 -2t41.5 -2q19 0 50 2t48 2q24 0 39 -11q3 -6 7 -10q1 -2 0 -7t0 -7q2 -2 4 -12t10 -11q3 0 12.5 5.5t23.5 14.5t25 15q39 20 103 29q30 0 57 -6q42 -9 73.5 -29.5t49 -48.5t28.5 -52.5t14.5 -56.5t4 -45t0.5 -32v-5q0 -19 -1.5 -66.5 t-0.5 -78.5q0 -15 1 -39t1 -37v-119q4 -94 4 -131q0 -28 -1.5 -96.5t-0.5 -112.5q0 -21 1 -58t1 -60q0 -26 -6 -41.5t-21 -21.5t-27 -7.5t-38 -1.5q-12 0 -30.5 1t-28.5 1q-22 1 -54 -1t-50.5 -1.5t-26.5 6.5q-5 4 -15 14t-10 41q0 33 2 89.5t2 89.5q0 36 -2 97t-2 97 q0 50 2 137.5t2 137.5v22.5v23.5v22t-1 21.5t-2.5 18.5t-5 16t-7.5 12t-10.5 8.5t-14.5 2.5q-47 0 -47 -106q0 -13 1 -34t1 -32v-158q0 -26 -1 -70t-1 -69q0 -31 3 -86t3 -86q0 -15 -1 -39t-1 -37q0 -10 1 -26.5t1 -26.5q0 -49 -15 -66.5t-50 -17.5q-19 0 -49.5 2t-47.5 2 q-16 0 -44 -3t-46 -3q-28 0 -41.5 18t-13.5 45v95q0 44 2 118.5t2 118.5q0 29 -2 81t-2 81q0 31 2 82t2 82q0 57 -4 213q0 4 0.5 52t-0.5 50q0 9 -1 23.5t-1 23.5zM49 1284l6 21q11 45 39 77q56 70 160 70q26 0 119 -16q57 -10 69 -11q24 -4 37 -4q22 0 39 17q14 18 21 20 q1 0 6 -1l12.5 -2.5t13.5 -2.5l80 -12q54 -9 54 -21q0 -9 -17 -47q-48 -125 -196 -125q-14 0 -121 17q-61 12 -78 12q-25 0 -37 -8q-4 -2 -16 -14.5t-21 -12.5q-1 0 -7 1l-15 2.5l-15 2.5l-51 8q-25 5 -31 5q-1 0 -11.5 1t-17.5 2.5t-14 6.5t-8 14z" />
<glyph unicode="&#xf2;" horiz-adv-x="811" d="M33 639q0 145 8 200q24 181 139 261q10 9 49 26q79 33 185 37q54 0 110 -12q58 -14 105.5 -48t69 -63.5t36.5 -60.5q39 -88 39 -428q0 -247 -24 -332q-44 -103 -97 -151q-89 -82 -250 -82q-211 0 -301 145q-13 22 -30.5 75t-22.5 79q-16 82 -16 354zM137 1425q0 20 23 23 h39q31 0 47 -2q80 0 121 2q7 0 21.5 1t21.5 1q28 -3 36 -16q9 -9 21 -52q13 -30 22 -59q3 -6 7.5 -18.5t7.5 -18.5q3 -10 10.5 -24t7.5 -21h-2q0 -11 -7 -17t-21 -7.5t-27.5 -1t-35.5 2t-36 1.5h-67q-5 2 -11 7.5t-17.5 19.5t-16.5 20l-56 55q-7 7 -18.5 19.5t-22 22.5 t-20.5 19l-7 6q-7 6 -13.5 16.5t-6.5 20.5zM338 752q0 -20 2 -53t2 -52v-143q0 -18 -0.5 -46.5t-1 -47.5t0 -39t2.5 -33t5 -19q0 -1 2 -5t3 -5t3 -5t3.5 -5.5t4 -4.5t5 -4.5t6 -3.5t7 -3t8 -1.5t9.5 -0.5q25 0 41 13t21.5 37.5t6.5 37t1 34.5v13q0 45 -3 121t-3 120 q0 19 1 50t1 49q0 112 -66 112q-37 0 -49 -29.5t-12 -86.5z" />
<glyph unicode="&#xf3;" horiz-adv-x="811" d="M33 639q0 145 8 200q24 181 139 261q10 9 49 26q79 33 185 37q54 0 110 -12q58 -14 105.5 -48t69 -63.5t36.5 -60.5q39 -88 39 -428q0 -247 -24 -332q-44 -103 -97 -151q-89 -82 -250 -82q-211 0 -301 145q-13 22 -30.5 75t-22.5 79q-16 82 -16 354zM289 1245q0 7 16 47 l29 80l16 39q1 1 3 6.5t3 7t3.5 6t4.5 6l6 4.5t8 4.5t10 3t13 1.5q13 0 37 -2t37 -2q66 -3 148 4h3q44 0 44 -25q0 -9 -5 -19t-10 -15.5t-16 -15.5t-14 -13l-33 -35l-27 -27l-78 -81q-4 -2 -18 -2t-38 1t-38 1q-16 0 -35.5 -1.5t-30.5 -1.5t-20 3q-18 7 -18 26zM338 752 q0 -20 2 -53t2 -52v-143q0 -18 -0.5 -46.5t-1 -47.5t0 -39t2.5 -33t5 -19q0 -1 2 -5t3 -5t3 -5t3.5 -5.5t4 -4.5t5 -4.5t6 -3.5t7 -3t8 -1.5t9.5 -0.5q25 0 41 13t21.5 37.5t6.5 37t1 34.5v13q0 45 -3 121t-3 120q0 19 1 50t1 49q0 112 -66 112q-37 0 -49 -29.5t-12 -86.5z " />
<glyph unicode="&#xf4;" horiz-adv-x="811" d="M33 639q0 145 8 200q24 181 139 261q10 9 49 26q79 33 185 37q54 0 110 -12q58 -14 105.5 -48t69 -63.5t36.5 -60.5q39 -88 39 -428q0 -247 -24 -332q-44 -103 -97 -151q-89 -82 -250 -82q-211 0 -301 145q-13 22 -30.5 75t-22.5 79q-16 82 -16 354zM137 1243q0 12 19 37 q4 4 10 13.5t10 13.5q23 35 41 57q9 15 31 45q1 2 5 9t5.5 9t6 7t8 7t10 5t14.5 4q11 1 14 0.5t15.5 -2t25.5 -2.5h64h22q71 6 90 0q11 -4 19.5 -13t24.5 -33l24 -36q10 -17 51 -70l7.5 -10t6.5 -9l5 -7.5t4.5 -7.5t3 -6.5t2 -7t0.5 -7.5q0 -8 -8 -16q-5 -4 -11 -5.5 t-10 -1.5t-11.5 0.5t-10.5 0.5h-23h-78q-6 -1 -20.5 -4t-22.5 -3q-29 0 -43 29q-1 2 -5 12.5t-7.5 18t-10 14t-14.5 6.5q-9 0 -16 -12q-7 -9 -11.5 -29.5t-15.5 -29.5q-4 -3 -9 -4t-8 -1t-12 1.5t-14 1.5q-24 0 -36 2q-15 0 -45 -2.5t-46 -2.5q-21 0 -36.5 6.5t-14.5 22.5z M338 752q0 -20 2 -53t2 -52v-143q0 -18 -0.5 -46.5t-1 -47.5t0 -39t2.5 -33t5 -19q0 -1 2 -5t3 -5t3 -5t3.5 -5.5t4 -4.5t5 -4.5t6 -3.5t7 -3t8 -1.5t9.5 -0.5q25 0 41 13t21.5 37.5t6.5 37t1 34.5v13q0 45 -3 121t-3 120q0 19 1 50t1 49q0 112 -66 112q-37 0 -49 -29.5 t-12 -86.5z" />
<glyph unicode="&#xf5;" horiz-adv-x="811" d="M33 639q0 145 8 200q24 181 139 261q10 9 49 26q79 33 185 37q54 0 110 -12q58 -14 105.5 -48t69 -63.5t36.5 -60.5q39 -88 39 -428q0 -247 -24 -332q-44 -103 -97 -151q-89 -82 -250 -82q-211 0 -301 145q-13 22 -30.5 75t-22.5 79q-16 82 -16 354zM70 1284l6 21 q11 45 39 77q56 70 159 70q26 0 119 -16q56 -10 70 -11q24 -4 37 -4q22 0 39 17q14 18 20 20q1 0 6 -1t13 -2.5t14 -2.5l80 -12q53 -8 53 -21q0 -11 -16 -47q-48 -125 -197 -125q-14 0 -121 17q-62 12 -78 12q-25 0 -37 -8q-5 -3 -16 -15t-20 -12q-1 0 -7 1l-15 2.5l-15 2.5 l-51 8q-25 5 -31 5q-1 0 -11.5 1t-17.5 2.5t-14 6.5t-8 14zM338 752q0 -20 2 -53t2 -52v-143q0 -18 -0.5 -46.5t-1 -47.5t0 -39t2.5 -33t5 -19q0 -1 2 -5t3 -5t3 -5t3.5 -5.5t4 -4.5t5 -4.5t6 -3.5t7 -3t8 -1.5t9.5 -0.5q25 0 41 13t21.5 37.5t6.5 37t1 34.5v13q0 45 -3 121 t-3 120q0 19 1 50t1 49q0 112 -66 112q-37 0 -49 -29.5t-12 -86.5z" />
<glyph unicode="&#xf6;" horiz-adv-x="811" d="M33 639q0 145 8 200q24 181 139 261q10 9 49 26q79 33 185 37q54 0 110 -12q58 -14 105.5 -48t69 -63.5t36.5 -60.5q39 -88 39 -428q0 -247 -24 -332q-44 -103 -97 -151q-89 -82 -250 -82q-211 0 -301 145q-13 22 -30.5 75t-22.5 79q-16 82 -16 354zM124.5 1395 q-0.5 13 0.5 20q5 35 43 37q10 1 28 -0.5t23 -1.5q37 -3 72 0q30 3 49 1t27 -13t8 -64q0 -8 1 -25t1 -26q0 -17 -2 -25v-4v-6t-0.5 -8.5t-1.5 -9.5t-3 -9t-5.5 -8.5t-8.5 -7t-12 -4.5h-45q-11 0 -34 -1t-34 -1h-51q-13 0 -23 2.5t-15.5 8t-9 11t-4.5 13.5t-1.5 13t0 13 t0.5 9q0 16 -1 44.5t-1.5 41.5zM338 752q0 -20 2 -53t2 -52v-143q0 -18 -0.5 -46.5t-1 -47.5t0 -39t2.5 -33t5 -19q0 -1 2 -5t3 -5t3 -5t3.5 -5.5t4 -4.5t5 -4.5t6 -3.5t7 -3t8 -1.5t9.5 -0.5q25 0 41 13t21.5 37.5t6.5 37t1 34.5v13q0 45 -3 121t-3 120q0 19 1 50t1 49 q0 112 -66 112q-37 0 -49 -29.5t-12 -86.5zM440 1393q-3 25 4 39q9 18 35 18q24 0 68.5 -1t66.5 -1q9 0 23 0.5t20 0.5t13.5 -2t11.5 -7q8 -8 8 -43q0 -7 -1 -21.5t-1 -21.5v-35q0 -6 1 -17.5t0.5 -18t-2 -15t-7.5 -14.5t-16 -9q-18 -8 -111 -8h-59q-47 0 -50 27v14 q-1 15 -1.5 35t-0.5 33q0 31 -2 47z" />
<glyph unicode="&#xf7;" horiz-adv-x="978" d="M63 539v6v6v4v6v12v9v6v4l3 8l-3 14l3 9v6l2 10v8v27v6v6l6 10l2 6q3 9 16.5 17t26.5 8q1 0 5 -1t7 -1q15 0 21 2l18 2h12q13 0 21 -2q8 0 13.5 -1t6.5 -1h2l33 2l33 -2h18h15h18h6l6 4h56h6h26l17 -2h30h5h6q2 0 4 2h28l25 -2l25 2l18 -2l18 2h7h16h8l10 2h35 q27 0 43 -2q24 -6 31 -6q1 0 4 1t4 1h29h4h10h23h12q1 0 3.5 1t4.5 1t6 1t6 1q12 0 23 -14q10 -13 10 -25q0 -1 -1 -8.5t-1 -13.5l-2 -9v-14v-31l-2 -24v-6l2 -17l2 -14v-4v-2l-2 -21v-6q2 -8 2 -18q0 -31 -43 -31h-2l-6 2l-8 -2l-10 2l-19 -2l-20 2l-23 -2l-4 1q-4 1 -8 1 q-8 2 -21 2h-10l-24 -2h-5h-4h-6q-8 0 -14 2h-19h-12h-18q-8 0 -8 -2l-7 -2h-20q-2 2 -6 2t-6 -2h-11h-10h-8q-8 2 -12 2q-9 0 -13 -2l-41 -2l-6 2h-4h-33l-4 2h-4h-10l-18 2h-15h-31l-43 -2h-16l-16 -2h-21h-28h-2l-15 2h-33q-20 0 -30 -2q-14 -2 -27 -2l-18 2h-9h-2 q-4 0 -8 1l-4 1q-2 0 -6 4l-8 8l-2 11l-6 8q-2 2 -2 10v10zM373 961l2 69v29q0 2 4 10l6 6q4 8 10 8q2 2 43 2l60 5l30 -5q6 0 19 -1t22 -1q28 0 40 -6.5t12 -23.5q0 -9 -3 -21v-24v-9v-18q3 -3 3 -16v-11v-8v-6v-20q-3 -21 -3 -29v-21q3 -9 3 -16v-8q-3 -3 -3 -8 q-2 -4 -2 -9l-10 -14q-2 -4 -4 -4q-4 -4 -33 -4h-8q-8 2 -14 2q-9 0 -21 -2q-5 0 -13.5 -1t-12.5 -1q-2 0 -12 1t-15 1q-12 2 -22 2q-9 0 -21 -2q-6 -2 -14 -2q-17 0 -29 12t-12 31v12q2 10 2 23v20q-2 12 -2 29q-2 14 -2 29zM375 236v28l2 70v28q0 9 8 17t12 8l5 1 q6 0 15.5 0.5t20.5 0.5l62 2q12 0 30 -2q10 -2 39 -2q54 0 54 -31q0 -3 -1 -9.5t-1 -10.5q-3 -12 -3 -25v-8l2 -6q1 -6 1 -12q0 -9 2 -17v-10v-8v-6q0 -13 -2 -21v-28v-21v-14v-10q0 -9 -5 -19q-4 -8 -8 -12q-1 -2 -2.5 -3.5t-1.5 -2.5l-11 -1q-11 -1 -20 -1h-12q-3 0 -8 1 t-6 1t-6 -1t-13 -1q-6 0 -15 -1t-11 -1q-3 0 -12 1t-17 1q-4 0 -11 1t-9 1q-1 0 -8 -1t-13 -1q-6 -2 -16 -2q-15 0 -27 12t-12 29v14v22v21q0 23 -2 29z" />
<glyph unicode="&#xf8;" horiz-adv-x="854" d="M-10 78q0 8 5 16t13.5 17t11.5 14l56 84q-14 62 -18.5 100.5t-3 60t-1.5 68.5q0 8 -3 46t-3 61v104q0 19 3 52.5t3 39.5q0 1 -0.5 11.5t-0.5 21t0.5 28t3 35.5t5.5 39t9.5 42.5t14.5 43t20.5 43t27.5 39.5q31 38 55 56q9 7 45 20q48 23 95 32t133 9q64 0 129 -24 q33 -14 43 -21q44 -25 74 -61q10 14 28 35q9 9 15 18q8 8 14 8q6 1 49 -33q3 -3 9 -6t9 -6q7 -3 7 -10q0 -8 -9.5 -23t-28.5 -40.5t-30 -43.5q8 -52 14 -125.5t8.5 -120t2.5 -59.5q0 -17 -1 -48t-1 -48v-104q0 -103 -18 -190.5t-44 -127.5q-25 -41 -61.5 -70.5t-67 -43 t-66.5 -21t-49.5 -8t-27.5 -0.5h-43q-70 0 -100 5.5t-72 24.5q-35 16 -47 23q-27 18 -64 55l-37 -43l-22 -33q-8 -8 -15 -8t-12.5 3t-14 13t-9.5 11q-3 3 -13 9t-14 11q-6 12 -6 19zM336 688q0 -24 2 -62.5t2 -60.5l16 19q30 34 99 135q5 8 17 21.5t17 23.5q9 18 9 37 q0 35 -21 58.5t-55 23.5q-22 0 -36 -5t-22 -16.5t-11 -19t-7 -23.5q-1 -3 -5.5 -65t-4.5 -66zM338 354q0 -4 0.5 -10t5 -22.5t11.5 -29t22 -22.5t35 -10q32 0 58 23.5t26 74.5q0 27 3 75t3 77v8q0 54 -4 68q-17 -21 -42 -55t-36 -48q-68 -86 -76 -100q-6 -12 -6 -29z" />
<glyph unicode="&#xf9;" horiz-adv-x="811" d="M31 1053q0 86 59 86q18 0 50 -3t50 -3t49 4t48 4q12 0 22.5 -3.5t20.5 -17t10 -35.5q0 -17 -2 -46t-2 -46q0 -33 3.5 -96.5t2.5 -103.5q0 -35 -3 -94t-3 -93q0 -33 1 -89t1 -89v-86q0 -55 61 -55q41 0 54.5 31t13.5 96q0 24 -2 64t-2 63v123q0 196 -2 313q0 17 -2 44 t-2 44v7v10t1 11.5t3 13t6 12t10 10.5t15.5 7t21.5 3q18 0 47 -4.5t45 -4.5q8 0 53 5q3 0 21 3t29 3q63 0 63 -54q0 -27 -2 -74t-2 -75v-8q0 -25 2 -67t2 -66v-197q0 -39 -3 -107t-3 -108q0 -24 2 -64t2 -63v-8q0 -12 -1 -33t-1 -33q0 -20 3 -55t3 -55q0 -74 -57 -74 q-17 0 -44 2t-44 2q-21 0 -57 -3t-58 -3q-27 0 -39 12q-1 2 -2 5.5t-2 4.5q-2 2 -1.5 7.5t-0.5 7.5q-1 1 -1 5.5t-1.5 8t-5.5 4.5q-3 1 -6 -1.5t-8.5 -8t-12.5 -8.5q0 -3 -45 -25q-31 -13 -52 -16.5t-75 -3.5h-8q-60 0 -94 14q-128 51 -125 223q0 20 2 57.5t2 55.5 q0 24 -3 66t-3 67q0 45 2 121t2 121q0 166 -4 264q0 13 -1 36t-1 38zM137 1425q0 20 23 23h39q31 0 47 -2q80 0 121 2q7 0 21.5 1t21.5 1q28 -3 36 -16q9 -9 21 -52q13 -30 22 -59q3 -6 7.5 -18.5t7.5 -18.5q3 -10 10.5 -24t7.5 -21h-2q0 -11 -7 -17t-21 -7.5t-27.5 -1 t-35.5 2t-36 1.5h-67q-5 2 -11 7.5t-17.5 19.5t-16.5 20l-56 55q-7 7 -18.5 19.5t-22 22.5t-20.5 19l-7 6q-7 6 -13.5 16.5t-6.5 20.5z" />
<glyph unicode="&#xfa;" horiz-adv-x="811" d="M31 1053q0 86 59 86q18 0 50 -3t50 -3t49 4t48 4q12 0 22.5 -3.5t20.5 -17t10 -35.5q0 -17 -2 -46t-2 -46q0 -33 3.5 -96.5t2.5 -103.5q0 -35 -3 -94t-3 -93q0 -33 1 -89t1 -89v-86q0 -55 61 -55q41 0 54.5 31t13.5 96q0 24 -2 64t-2 63v123q0 196 -2 313q0 17 -2 44 t-2 44v7v10t1 11.5t3 13t6 12t10 10.5t15.5 7t21.5 3q18 0 47 -4.5t45 -4.5q8 0 53 5q3 0 21 3t29 3q63 0 63 -54q0 -27 -2 -74t-2 -75v-8q0 -25 2 -67t2 -66v-197q0 -39 -3 -107t-3 -108q0 -24 2 -64t2 -63v-8q0 -12 -1 -33t-1 -33q0 -20 3 -55t3 -55q0 -74 -57 -74 q-17 0 -44 2t-44 2q-21 0 -57 -3t-58 -3q-27 0 -39 12q-1 2 -2 5.5t-2 4.5q-2 2 -1.5 7.5t-0.5 7.5q-1 1 -1 5.5t-1.5 8t-5.5 4.5q-3 1 -6 -1.5t-8.5 -8t-12.5 -8.5q0 -3 -45 -25q-31 -13 -52 -16.5t-75 -3.5h-8q-60 0 -94 14q-128 51 -125 223q0 20 2 57.5t2 55.5 q0 24 -3 66t-3 67q0 45 2 121t2 121q0 166 -4 264q0 13 -1 36t-1 38zM289 1245q0 7 16 47l29 80l16 39q1 1 3 6.5t3 7t3.5 6t4.5 6l6 4.5t8 4.5t10 3t13 1.5q13 0 37 -2t37 -2q66 -3 148 4h3q44 0 44 -25q0 -9 -5 -19t-10 -15.5t-16 -15.5t-14 -13l-33 -35l-27 -27l-78 -81 q-4 -2 -18 -2t-38 1t-38 1q-16 0 -35.5 -1.5t-30.5 -1.5t-20 3q-18 7 -18 26z" />
<glyph unicode="&#xfb;" horiz-adv-x="811" d="M31 1053q0 86 59 86q18 0 50 -3t50 -3t49 4t48 4q12 0 22.5 -3.5t20.5 -17t10 -35.5q0 -17 -2 -46t-2 -46q0 -33 3.5 -96.5t2.5 -103.5q0 -35 -3 -94t-3 -93q0 -33 1 -89t1 -89v-86q0 -55 61 -55q41 0 54.5 31t13.5 96q0 24 -2 64t-2 63v123q0 196 -2 313q0 17 -2 44 t-2 44v7v10t1 11.5t3 13t6 12t10 10.5t15.5 7t21.5 3q18 0 47 -4.5t45 -4.5q8 0 53 5q3 0 21 3t29 3q63 0 63 -54q0 -27 -2 -74t-2 -75v-8q0 -25 2 -67t2 -66v-197q0 -39 -3 -107t-3 -108q0 -24 2 -64t2 -63v-8q0 -12 -1 -33t-1 -33q0 -20 3 -55t3 -55q0 -74 -57 -74 q-17 0 -44 2t-44 2q-21 0 -57 -3t-58 -3q-27 0 -39 12q-1 2 -2 5.5t-2 4.5q-2 2 -1.5 7.5t-0.5 7.5q-1 1 -1 5.5t-1.5 8t-5.5 4.5q-3 1 -6 -1.5t-8.5 -8t-12.5 -8.5q0 -3 -45 -25q-31 -13 -52 -16.5t-75 -3.5h-8q-60 0 -94 14q-128 51 -125 223q0 20 2 57.5t2 55.5 q0 24 -3 66t-3 67q0 45 2 121t2 121q0 166 -4 264q0 13 -1 36t-1 38zM137 1243q0 12 19 37q4 4 10 13.5t10 13.5q23 35 41 57q9 15 31 45q1 2 5 9t5.5 9t6 7t8 7t10 5t14.5 4q11 1 14 0.5t15.5 -2t25.5 -2.5h64h22q71 6 90 0q11 -4 19.5 -13t24.5 -33l24 -36q10 -17 51 -70 l7.5 -10t6.5 -9l5 -7.5t4.5 -7.5t3 -6.5t2 -7t0.5 -7.5q0 -8 -8 -16q-5 -4 -11 -5.5t-10 -1.5t-11.5 0.5t-10.5 0.5h-23h-78q-6 -1 -20.5 -4t-22.5 -3q-29 0 -43 29q-1 2 -5 12.5t-7.5 18t-10 14t-14.5 6.5q-9 0 -16 -12q-7 -9 -11.5 -29.5t-15.5 -29.5q-4 -3 -9 -4t-8 -1 t-12 1.5t-14 1.5q-24 0 -36 2q-15 0 -45 -2.5t-46 -2.5q-21 0 -36.5 6.5t-14.5 22.5z" />
<glyph unicode="&#xfc;" horiz-adv-x="811" d="M31 1053q0 86 59 86q18 0 50 -3t50 -3t49 4t48 4q12 0 22.5 -3.5t20.5 -17t10 -35.5q0 -17 -2 -46t-2 -46q0 -33 3.5 -96.5t2.5 -103.5q0 -35 -3 -94t-3 -93q0 -33 1 -89t1 -89v-86q0 -55 61 -55q41 0 54.5 31t13.5 96q0 24 -2 64t-2 63v123q0 196 -2 313q0 17 -2 44 t-2 44v7v10t1 11.5t3 13t6 12t10 10.5t15.5 7t21.5 3q18 0 47 -4.5t45 -4.5q8 0 53 5q3 0 21 3t29 3q63 0 63 -54q0 -27 -2 -74t-2 -75v-8q0 -25 2 -67t2 -66v-197q0 -39 -3 -107t-3 -108q0 -24 2 -64t2 -63v-8q0 -12 -1 -33t-1 -33q0 -20 3 -55t3 -55q0 -74 -57 -74 q-17 0 -44 2t-44 2q-21 0 -57 -3t-58 -3q-27 0 -39 12q-1 2 -2 5.5t-2 4.5q-2 2 -1.5 7.5t-0.5 7.5q-1 1 -1 5.5t-1.5 8t-5.5 4.5q-3 1 -6 -1.5t-8.5 -8t-12.5 -8.5q0 -3 -45 -25q-31 -13 -52 -16.5t-75 -3.5h-8q-60 0 -94 14q-128 51 -125 223q0 20 2 57.5t2 55.5 q0 24 -3 66t-3 67q0 45 2 121t2 121q0 166 -4 264q0 13 -1 36t-1 38zM138.5 1395q-0.5 13 0.5 20q5 35 43 37q10 1 28 -0.5t23 -1.5q37 -3 72 0q30 3 49 1t27 -13t8 -64q0 -8 1 -25t1 -26q0 -17 -2 -25v-4v-6t-0.5 -8.5t-1.5 -9.5t-3 -9t-5.5 -8.5t-8.5 -7t-12 -4.5h-45 q-11 0 -33 -1t-34 -1h-51q-13 0 -23 2.5t-15.5 8.5t-9 11t-5 13.5t-2 12.5t0 12.5t0.5 9.5q0 16 -1 44.5t-1.5 41.5zM455 1393q-3 25 4 39q9 18 35 18q24 0 68.5 -1t66.5 -1q9 0 23 0.5t20 0.5t13 -2t11 -7q9 -9 9 -43q0 -7 -1.5 -21.5t-1.5 -21.5v-35q0 -6 1 -17.5t0.5 -18 t-2 -15t-7.5 -14.5t-16 -9q-18 -8 -111 -8h-59q-46 0 -49 27l-1 14q0 15 -0.5 35t-0.5 33q0 31 -2 47z" />
<glyph unicode="&#xfd;" horiz-adv-x="811" d="M-2 1100q0 41 65 41q14 0 38 -1t36 -1q30 -1 77 2.5t71 3.5q18 0 29.5 -4.5t17 -10.5t8.5 -19.5t3 -24v-32.5t1 -36q2 -31 10 -81.5t11 -74.5q3 -25 6.5 -66t7 -73t8.5 -66l8 -39q1 -5 2.5 -15t2.5 -17t2.5 -14t3.5 -11t4 -4q5 0 9.5 16t4.5 21q9 31 15 67t8 57.5t3 50 t1 30.5l12 92q1 13 6 104q0 5 4.5 61.5t5.5 59.5l3 4q3 5 5 8t6 7t8.5 6t10.5 2q18 0 49 -2t49 -2q20 0 74 4q4 0 21 3t28 3q66 0 66 -39q0 -23 -7 -67.5t-17.5 -98t-12.5 -65.5q-4 -19 -8.5 -46.5t-9 -51t-9.5 -46.5q-3 -19 -11.5 -49.5t-10.5 -38.5q-26 -121 -39 -176 q-4 -19 -12.5 -47t-12.5 -43q-10 -36 -24.5 -100.5t-24.5 -102.5q-5 -23 -30 -105.5t-33 -101.5q-29 -58 -56 -82q-36 -34 -84 -46.5t-131 -12.5q-68 0 -114 8q-18 3 -26.5 4.5t-24.5 7t-24 12.5t-15 20.5t-7 31.5v27q0 27 -2 71.5t-2 71.5v4q0 38 12 54t39 16 q16 0 39 -16.5t39 -16.5q24 0 33.5 13.5t9.5 27.5q1 12 -10.5 57t-25 94t-15.5 58q-18 78 -29 117q-5 20 -18.5 64t-20.5 71q-35 128 -41 159l-6 43q-6 40 -20 99q-1 6 -20 83t-19 89zM299 1245q0 7 16 47l29 80l16 39q6 14 8.5 18.5t14 12t29.5 8.5q12 0 36 -2t37 -2 q66 -3 148 4h3q44 0 44 -25q0 -9 -5 -19t-10 -15.5t-16 -15.5t-14 -13l-33 -35l-27 -27l-77 -81q-4 -2 -18.5 -2t-38.5 1t-38 1q-16 0 -35.5 -1.5t-30.5 -1.5t-20 3q-18 7 -18 26z" />
<glyph unicode="&#xfe;" horiz-adv-x="811" d="M37 1407q0 17 13.5 28t33.5 11h4l12 -2h31h19l8 -2h28q46 0 58 2h10l18 4q16 2 31 2q49 0 49 -43q0 -15 -2 -25q0 -8 -2 -14v-12q-1 -5 -2 -11.5t-1.5 -10t-0.5 -5.5l2 -12l-4 -21v-18l-2 -31l4 -30v-23v-23l2 -16v-18v-25q-2 -12 -2 -18q0 -7 6 -7q5 0 10 7 q23 28 63.5 46.5t78.5 18.5q22 0 57 -6q42 -9 90 -43q55 -38 81 -86.5t38 -136.5l2 -23l2 -10q4 -28 4 -33v-26l2 -45l2 -15v-14v-14v-54l2 -65q2 -14 2 -56q0 -115 -12.5 -215t-32.5 -141l-14 -29q-1 -1 -4 -10q-31 -69 -72 -96q-59 -43 -147 -43q-54 0 -74 10l-12 4l-13 4 l-20 9q-16 8 -21 8q-20 0 -20 -29q0 -4 0.5 -7.5l1.5 -10.5t2 -13q0 -3 1 -7t1 -5q0 -9 2 -27l2 -12l2 -14q2 -12 2 -27q0 -17 -13 -29t-32 -12q-7 0 -35 4q-25 4 -86 4h-28h-10l-17 -2h-31l-12 -2h-4q-20 0 -33.5 12t-13.5 27q0 19 2 31l2 14v4v11l2 8v41v37v4q0 53 -2 106 q-2 57 -2 105v30l2 43v27l-2 25v51v20v88l-2 27v31v28v19q0 8 2 18q0 9 1 24.5t1 18.5v19l2 55v27l-2 26v39q0 23 -2 41v37v39v10v10l-2 17l2 30l-2 39v15q2 8 2 43l-2 41v26l2 27v27v36v41v11l-2 8v4l-2 14q-2 14 -2 31zM342 438q0 -31 2 -47l2 -10q0 -19 6 -31 q17 -45 62 -45q29 0 45 26.5t16 71.5v19v18v13q0 22 2 51v12v57l-2 68v47q0 27 -2 33l-2 35l-2 43q-1 26 -20 46.5t-41 20.5q-27 0 -48 -28q-13 -17 -15.5 -41.5t-2.5 -139.5v-18v-51q2 -16 2 -56v-16q0 -25 -2 -41v-37z" />
<glyph unicode="&#xff;" horiz-adv-x="811" d="M-2 1100q0 41 65 41q14 0 38 -1t36 -1q30 -1 77 2.5t71 3.5q18 0 29.5 -4.5t17 -10.5t8.5 -19.5t3 -24v-32.5t1 -36q2 -31 10 -81.5t11 -74.5q3 -25 6.5 -66t7 -73t8.5 -66l8 -39q1 -5 2.5 -15t2.5 -17t2.5 -14t3.5 -11t4 -4q5 0 9.5 16t4.5 21q9 31 15 67t8 57.5t3 50 t1 30.5l12 92q1 13 6 104q0 5 4.5 61.5t5.5 59.5l3 4q3 5 5 8t6 7t8.5 6t10.5 2q18 0 49 -2t49 -2q20 0 74 4q4 0 21 3t28 3q66 0 66 -39q0 -23 -7 -67.5t-17.5 -98t-12.5 -65.5q-4 -19 -8.5 -46.5t-9 -51t-9.5 -46.5q-3 -19 -11.5 -49.5t-10.5 -38.5q-26 -121 -39 -176 q-4 -19 -12.5 -47t-12.5 -43q-10 -36 -24.5 -100.5t-24.5 -102.5q-5 -23 -30 -105.5t-33 -101.5q-29 -58 -56 -82q-36 -34 -84 -46.5t-131 -12.5q-68 0 -114 8q-18 3 -26.5 4.5t-24.5 7t-24 12.5t-15 20.5t-7 31.5v27q0 27 -2 71.5t-2 71.5v4q0 38 12 54t39 16 q16 0 39 -16.5t39 -16.5q24 0 33.5 13.5t9.5 27.5q1 12 -10.5 57t-25 94t-15.5 58q-18 78 -29 117q-5 20 -18.5 64t-20.5 71q-35 128 -41 159l-6 43q-6 40 -20 99q-1 6 -20 83t-19 89zM122.5 1395q-0.5 13 0.5 20q5 35 43 37q10 1 28 -0.5t23 -1.5q37 -3 72 0q30 3 49 1 t27 -13t8 -64q0 -8 1 -25t1 -26q0 -17 -2 -25v-4v-6t-0.5 -8.5t-1.5 -9.5t-3 -9t-5.5 -8.5t-8.5 -7t-12 -4.5q-4 -1 -13 -1t-19 0.5t-13 0.5q-11 0 -33.5 -1t-34.5 -1h-51q-13 0 -23 2.5t-15.5 8t-9 11t-4.5 13.5t-1.5 13t0 13t0.5 9q0 16 -1 44.5t-1.5 41.5zM438 1393 q-3 25 4 39q9 18 35 18q24 0 68.5 -1t66.5 -1q9 0 23 0.5t20 0.5t13.5 -2t11.5 -7q8 -8 8 -43q0 -7 -1 -21.5t-1 -21.5v-35q0 -6 1 -17.5t0.5 -18t-2 -15t-7.5 -14.5t-16 -9q-18 -8 -111 -8h-59q-47 0 -50 27v14q-1 15 -1.5 35t-0.5 33q0 31 -2 47z" />
<glyph unicode="&#x152;" horiz-adv-x="1236" d="M45 674v231q0 90 10.5 209.5t34.5 167.5q30 62 88 102q108 80 281 80q55 0 79.5 -2.5t48 -8t54.5 -9.5q28 -4 92 -4q16 0 41 3t39 3q35 2 94 2q21 0 55.5 -1t53.5 -1q12 0 37 1t37 1q22 0 36 -2t30 -8.5t24 -22.5t8 -41q0 -14 -1 -36t-1 -35q0 -15 1 -40t1 -40 q0 -86 -76 -86q-7 0 -23 1t-24 1q-11 0 -31 -1t-33 -1q-15 0 -40 1t-41 1q-62 0 -62 -64q0 -11 1 -30t1 -31q0 -8 -1 -21.5t-1 -21.5q0 -21 9.5 -35t25 -18.5t23 -5.5t14.5 -1q32 0 86 4.5t84 4.5q82 0 82 -66v-33q0 -22 1 -60.5t1 -62.5q0 -50 -17 -73.5t-69 -26.5 q-26 -1 -68.5 3.5t-64.5 4.5q-99 0 -99 -69q0 -9 1 -25.5t1 -24.5v-96q0 -63 84 -63q14 0 39 1t41 1q22 0 58 1t57 1q44 0 58 -25.5t14 -89.5q0 -10 -1 -27.5t-1 -29.5t1 -31t1 -31q0 -49 -19.5 -74.5t-69.5 -25.5q-20 0 -52 3t-50 3q-16 0 -46 -2t-44 -2q-27 -1 -70 1.5 t-63 2.5q-31 0 -82 -2t-82 -2h-27q-10 0 -19.5 -2t-20 -5.5t-17.5 -4.5q-1 0 -21.5 -3t-48 -5.5t-45.5 -2.5q-116 0 -190 33q-2 1 -15.5 7.5t-29.5 16t-31 21.5q-44 38 -72 87.5t-39 107t-14 99.5t-4 98v22q0 38 -1 102.5t-1 102.5zM367 909q0 -27 3 -73t3 -72q0 -30 -2 -79 t-2 -79v-168q0 -19 0.5 -27.5t2 -29t7 -32t14.5 -25.5t24 -20.5t36 -6.5q73 0 84 89v3q1 6 4.5 145t3.5 154v36q0 380 -23 411q-11 18 -23.5 27t-37.5 9q-46 0 -72 -38q-22 -27 -22 -224z" />
</font>
</defs>
</svg>
