<?xml version="1.0" encoding="utf-8"?>
<svg version="1.1" id="Layer_1" xmlns="http://www.w3.org/2000/svg" xmlns:xlink="http://www.w3.org/1999/xlink" x="0px" y="0px" viewBox="0 0 809.1 271.2" style="enable-background:new 0 0 809.1 271.2;" xml:space="preserve">
<g>
	<path class="text-width" d="M241.4,120.6l16,30.4l-9.5,5l-16-30.4L241.4,120.6z"/>
	<path class="text-width" d="M276.1,128.6c-2.9,1.2-5.3,2.1-7.1,2.8c-1.8,0.7-3.3,1.2-4.5,1.5c-1.2,0.3-2.3,0.5-3.1,0.5
		c-0.9,0-1.7-0.1-2.5-0.3c-0.8-0.2-1.6-0.9-2.5-2.1c-0.9-1.2-1.8-2.7-2.6-4.7c-0.8-2-1.4-3.7-1.5-5s-0.1-2.4,0.4-3.4
		c0.4-0.9,0.9-1.6,1.5-2.2c0.6-0.6,1.4-1.3,2.4-1.9c1-0.6,2.4-1.3,4.1-2.1c1.7-0.8,4.1-1.8,7-3c2.9-1.2,5.2-2.1,6.9-2.7
		c1.7-0.6,3.1-1,4.3-1.3c1.1-0.2,2.2-0.3,3-0.3c0.9,0.1,1.9,0.3,3.1,0.6c1,0.3,1.9,1,2.8,2c0.9,1.1,1.6,2.2,2.1,3.4l5.1,12.5
		c0.8,1.9,1.2,3.6,1.2,5.1c0,1.5-0.4,2.8-1.1,4c-0.7,1.2-1.7,2.2-3,3.1s-3,1.8-5,2.6l-23.6,9.7l-3-7.3l7-2.9l13.8-5.7
		c1.3-0.5,2.3-1,2.9-1.3c0.6-0.3,1.1-0.7,1.4-1.2c0.3-0.4,0.4-1,0.4-1.7c-0.1-0.7-0.3-1.5-0.7-2.6L276.1,128.6z M279,119.1
		c0.9-0.4,1.7-1,2.2-1.9c0.5-0.9,0.6-1.7,0.3-2.6c-0.4-1-1.1-1.6-2.1-1.8c-1-0.2-2-0.1-3,0.3l0,0l-12,4.9l0,0c-1,0.4-1.7,1-2.3,1.9
		c-0.6,0.8-0.7,1.8-0.3,2.7c0.4,0.8,1,1.4,2,1.6s1.9,0.2,2.9-0.2L279,119.1z"/>
	<path class="text-width" d="M331.7,101c1.7,0,3.1,0.4,4.2,1c1.1,0.6,1.9,1.5,2.6,2.6c0.6,1.1,1.2,2.5,1.6,4.3c0.2,0.9,0.4,1.7,0.6,2.5
		c0.1,0.8,0.2,1.6,0.3,2.5s0,1.9-0.2,2.8c-0.2,1-0.6,1.9-1.1,2.8c-0.8,1.2-2.2,2.2-4.2,3.1c-2,0.9-4.3,1.7-7.1,2.4l-23.7,6l-1.9-7.5
		l24.1-6.1c2.1-0.5,3.4-1.2,3.9-2.2c0.2-0.4,0.3-0.9,0.3-1.4c0-0.5-0.1-1.1-0.3-1.9c-0.4-1.5-1-2.4-1.8-2.9c-0.8-0.5-2.2-0.5-4.2,0
		l-23.1,5.9l-4.4-17.3c0.6-0.2,12.7-3.2,36.3-9.2l2,7.8c-14.6,3.7-23.9,6.1-28.1,7.1l0.7,2.9l17.2-4.4
		C327.8,101.3,330,101,331.7,101z"/>
	<path class="st1" d="M351.7,124.6l-6,0.8l18.4-43.8l6-0.8L351.7,124.6z"/>
	<path class="text-aspect" d="M394.3,94.7c3.1-0.1,5.6-0.1,7.5-0.1c1.9,0,3.5,0.1,4.8,0.2c1.3,0.1,2.3,0.3,3.1,0.6c0.8,0.3,1.6,0.7,2.2,1.2
		c0.7,0.5,1.2,1.5,1.7,2.9c0.4,1.4,0.7,3.2,0.7,5.3l0,0c0.1,2.2,0,4-0.3,5.3c-0.3,1.3-0.8,2.3-1.6,3.1c-0.7,0.7-1.4,1.2-2.2,1.6
		c-0.8,0.4-1.8,0.7-2.9,0.9c-1.2,0.2-2.7,0.4-4.6,0.5c-1.9,0.1-4.4,0.2-7.6,0.3l0,0c-3.1,0.1-5.6,0.1-7.4,0.1
		c-1.8,0-3.3-0.1-4.4-0.3c-1.2-0.2-2.2-0.5-3-0.9c-0.8-0.4-1.7-0.9-2.7-1.7c-0.8-0.6-1.5-1.5-1.9-2.8c-0.4-1.3-0.7-2.6-0.7-3.9
		l-0.4-13.5c-0.1-2.1,0.2-3.8,0.7-5.2c0.5-1.4,1.3-2.5,2.4-3.4c1.1-0.8,2.4-1.5,3.9-1.9c1.6-0.4,3.4-0.6,5.6-0.7l25.5-0.7l0.2,7.9
		l0,0l-7.6,0.2L390.5,90c-1.4,0-2.5,0.1-3.2,0.2c-0.7,0.1-1.3,0.3-1.7,0.6c-0.4,0.3-0.8,0.8-0.9,1.4c-0.2,0.6-0.3,1.6-0.2,2.8
		L394.3,94.7z M388.3,102.5L388.3,102.5c-1,0-1.9,0.4-2.7,1c-0.8,0.7-1.2,1.4-1.2,2.3c0,1,0.5,1.8,1.3,2.4c0.9,0.5,1.8,0.8,2.9,0.8
		l13-0.4c1.1,0,2-0.3,2.9-0.9c0.8-0.6,1.2-1.4,1.2-2.5c0-0.9-0.5-1.7-1.3-2.3c-0.8-0.6-1.8-0.9-2.8-0.9l0,0L388.3,102.5z"/>
	<path class="text-aspect" d="M456.6,97.2c1.6,0.6,2.8,1.4,3.6,2.4c0.8,1,1.3,2.1,1.5,3.3c0.2,1.3,0.2,2.8,0,4.6c-0.1,0.9-0.2,1.8-0.4,2.6
		c-0.1,0.8-0.4,1.6-0.6,2.5c-0.3,0.9-0.7,1.7-1.2,2.6c-0.5,0.8-1.2,1.6-2,2.2c-1.2,0.8-2.8,1.3-5,1.5c-2.2,0.2-4.7,0.1-7.5-0.2
		l-24.3-2.7l0.8-7.7l24.8,2.7c2.1,0.2,3.6,0,4.4-0.7c0.4-0.3,0.6-0.7,0.8-1.2c0.2-0.5,0.3-1.1,0.4-1.9c0.2-1.5,0-2.6-0.6-3.3
		c-0.6-0.7-1.9-1.2-4-1.5l-23.7-2.6l2-17.8c0.6,0.1,13,1.4,37.2,4.1l-0.9,8c-14.9-1.6-24.5-2.7-28.8-3.2l-0.3,3l17.7,1.9
		C452.9,96.1,455,96.6,456.6,97.2z"/>
	<path class="text-rim" d="M500.7,109.8c0.9-0.4,1.6-1.1,1.9-2.3c0.3-1,0.1-1.9-0.5-2.7c-0.6-0.8-1.4-1.4-2.4-1.6l-16.4-4.3l-6.5,24.9
		l-10.4-2.7l8.7-33.2l27.6,7.2c2.3,0.6,4.2,1.3,5.7,2c1.5,0.7,2.6,1.6,3.4,2.7c0.8,1,1.2,2.3,1.4,3.7c0.1,1.4-0.1,3.2-0.6,5.2
		c-0.5,2-1.2,3.7-1.9,5c-0.7,1.3-1.6,2.2-2.6,2.9c-1,0.6-2.2,1-3.6,1c-1.4,0.1-3.1-0.2-5.1-0.7l0,0.2l10.5,15.3l-11.5-3l-15.3-23.3
		l14.9,3.9C498.7,110.3,499.7,110.2,500.7,109.8z"/>
	<path class="text-rim" d="M536,106.3l-12.1,32.2l-10-3.8l12.1-32.2L536,106.3z"/>
	<path class="text-rim" d="M569.9,135c1.3,1.1,2.1,2.3,2.6,3.4c0.4,1.2,0.5,2.4,0.3,3.6c-0.2,1.3-0.8,2.7-1.5,4.3
		c-0.4,0.8-0.8,1.6-1.2,2.3c-0.4,0.7-0.9,1.4-1.4,2.1c-0.6,0.7-1.2,1.4-2,2c-0.8,0.6-1.6,1.1-2.6,1.4c-1.4,0.4-3.1,0.3-5.2-0.3
		c-2.1-0.6-4.4-1.5-7-2.8l-21.9-10.8l3.4-6.9l22.4,11c1.9,0.9,3.4,1.2,4.3,0.9c0.4-0.2,0.8-0.5,1.1-0.9c0.3-0.4,0.6-0.9,1-1.6
		c0.7-1.4,0.8-2.5,0.5-3.4c-0.3-0.9-1.4-1.8-3.2-2.7l-21.4-10.5l7.9-16.1c0.5,0.3,11.8,5.8,33.6,16.5l-3.5,7.2
		c-13.5-6.6-22.2-10.9-26-12.8l-1.3,2.7l16,7.8C566.8,132.7,568.6,133.8,569.9,135z"/>
	<g>
		<g>
			<path class="st1" d="M404.6,143.5c-99.6,0-188,49.1-242.2,124.3h2.3c54-74.2,141.4-122.5,240-122.5s186,48.3,240,122.5h2.3
				C592.5,192.6,504.2,143.5,404.6,143.5z"/>
		</g>
		<g>
			<path class="st1" d="M404.6,154.8c-93,0-175.7,44.4-228.3,113.1h2.2c52.3-67.7,134.2-111.3,226.1-111.3s173.8,43.7,226.1,111.3
				h2.2C580.3,199.1,497.5,154.8,404.6,154.8z"/>
		</g>
		<g>
			<path class="st1" d="M685.2,161.4c-75-75-174.6-116.2-280.7-116.2c-106,0-205.7,41.3-280.7,116.2
				c-31.6,31.6-57.1,67.5-76.2,106.5h2.7c18.9-38.3,44.1-73.7,75.2-104.8C200.1,88.6,299.2,47.5,404.6,47.5
				c105.4,0,204.4,41,278.9,115.5c31.1,31.1,56.3,66.5,75.2,104.8h2.7C742.4,228.9,716.8,192.9,685.2,161.4z"/>
		</g>
		<g>
			<path class="st1" d="M706.8,139.8c-39.3-39.3-85-70.1-135.9-91.6c-52.7-22.3-108.7-33.6-166.4-33.6
				c-57.7,0-113.7,11.3-166.4,33.6c-50.9,21.5-96.6,52.3-135.9,91.6C65.1,177,35.5,220.1,14.1,267.8h1
				c21.3-47.5,50.8-90.4,87.8-127.4c39.2-39.2,84.8-69.9,135.6-91.4c52.6-22.2,108.4-33.5,166-33.5c57.6,0,113.4,11.3,166,33.5
				c50.8,21.5,96.4,52.2,135.6,91.4c37.1,37.1,66.6,79.9,87.8,127.4h1C773.7,220.1,744,177,706.8,139.8z"/>
		</g>
		<g>
			<path class="st1" d="M713.9,132.7C631.3,50,521.4,4.5,404.6,4.5S177.8,50,95.2,132.7C55.6,172.2,24.6,218,3,267.8h2.9
				c21.5-49.1,52.1-94.3,91.2-133.3C179.2,52.4,288.4,7.2,404.6,7.2c116.1,0,225.3,45.2,307.5,127.4c39,39,69.7,84.2,91.2,133.3h2.9
				C784.5,218,753.5,172.2,713.9,132.7z"/>
		</g>
		<g>
			<path class="st1" d="M406.1,14.7V6.4h-1.8v8.2c0.3,0,0.6,0,0.9,0S405.8,14.7,406.1,14.7z"/>
			<path class="st1" d="M707.5,140.3l5.8-5.8l-1.3-1.3l-5.8,5.8C706.6,139.4,707,139.8,707.5,140.3z"/>
			<path class="st1" d="M104.2,139l-5.8-5.8l-1.3,1.3l5.8,5.8C103.3,139.8,103.8,139.4,104.2,139z"/>
			<path class="st1" d="M394.7,6.6l-1.8,0l0.2,8.2c0.6,0,1.2,0,1.8-0.1L394.7,6.6z"/>
			<path class="st1" d="M705.1,126.5l-1.3-1.3l-5.7,6c0.4,0.4,0.9,0.8,1.3,1.2L705.1,126.5z"/>
			<path class="st1" d="M90.4,141.3l-1.3,1.3l6,5.7c0.4-0.4,0.8-0.9,1.2-1.3L90.4,141.3z"/>
			<path class="st1" d="M383.3,7l-1.8,0.1l0.4,8.2c0.6,0,1.2-0.1,1.8-0.1L383.3,7z"/>
			<path class="st1" d="M696.8,118.7l-1.4-1.2l-5.5,6.1c0.5,0.4,0.9,0.8,1.4,1.2L696.8,118.7z"/>
			<path class="st1" d="M82.7,149.6l-1.2,1.4l6.1,5.5c0.4-0.5,0.8-0.9,1.2-1.4L82.7,149.6z"/>
			<path class="st1" d="M372,7.7l-1.8,0.1l0.6,8.2c0.6,0,1.2-0.1,1.8-0.2L372,7.7z"/>
			<path class="st1" d="M688.3,111.2l-1.4-1.2l-5.4,6.3c0.5,0.4,0.9,0.8,1.4,1.2L688.3,111.2z"/>
			<path class="st1" d="M75.1,158.2l-1.2,1.4l6.3,5.4c0.4-0.5,0.8-0.9,1.2-1.4L75.1,158.2z"/>
			<path class="st1" d="M360.6,8.7l-1.8,0.2l0.9,8.2c0.6-0.1,1.2-0.1,1.8-0.2L360.6,8.7z"/>
			<path class="st1" d="M679.5,103.9l-1.4-1.1l-5.2,6.4c0.5,0.4,0.9,0.8,1.4,1.1L679.5,103.9z"/>
			<path class="st1" d="M67.8,166.9l-1.1,1.4l6.4,5.2c0.4-0.5,0.8-0.9,1.1-1.4L67.8,166.9z"/>
			<path class="st1" d="M349.3,10.1l-1.8,0.2l1.1,8.1c0.6-0.1,1.2-0.2,1.8-0.3L349.3,10.1z"/>
			<path class="st1" d="M670.6,96.9l-1.4-1.1l-5,6.5c0.5,0.4,1,0.7,1.4,1.1L670.6,96.9z"/>
			<path class="st1" d="M60.8,175.8l-1.1,1.4l6.5,5c0.4-0.5,0.7-1,1.1-1.4L60.8,175.8z"/>
			<path class="st1" d="M338.1,11.7l-1.8,0.3l1.3,8.1c0.6-0.1,1.2-0.2,1.8-0.3L338.1,11.7z"/>
			<path class="st1" d="M661.5,90L660,89l-4.8,6.7c0.5,0.4,1,0.7,1.5,1.1L661.5,90z"/>
			<path class="st1" d="M54,184.9l-1.1,1.5l6.7,4.8c0.4-0.5,0.7-1,1.1-1.5L54,184.9z"/>
			<path class="st1" d="M326.8,13.6l-1.8,0.3l1.5,8.1c0.6-0.1,1.2-0.2,1.8-0.3L326.8,13.6z"/>
			<path class="st1" d="M652.2,83.4l-1.5-1l-4.7,6.8c0.5,0.3,1,0.7,1.5,1L652.2,83.4z"/>
			<path class="st1" d="M47.4,194.2l-1,1.5l6.8,4.7c0.3-0.5,0.7-1,1-1.5L47.4,194.2z"/>
			<path class="st1" d="M315.7,15.8l-1.8,0.4l1.7,8c0.6-0.1,1.2-0.3,1.8-0.4L315.7,15.8z"/>
			<path class="st1" d="M642.8,77.1l-1.5-1l-4.5,6.9c0.5,0.3,1,0.7,1.5,1L642.8,77.1z"/>
			<path class="st1" d="M41,203.7l-1,1.5l6.9,4.5c0.3-0.5,0.7-1,1-1.5L41,203.7z"/>
			<path class="st1" d="M304.6,18.3l-1.8,0.4l1.9,7.9c0.6-0.1,1.2-0.3,1.8-0.4L304.6,18.3z"/>
			<path class="st1" d="M633.1,71l-1.6-1l-4.3,7c0.5,0.3,1,0.6,1.5,1L633.1,71z"/>
			<path class="st1" d="M34.9,213.3l-1,1.6l7,4.3c0.3-0.5,0.6-1,1-1.5L34.9,213.3z"/>
			<path class="st1" d="M293.5,21l-1.8,0.5l2.1,7.9c0.6-0.2,1.2-0.3,1.8-0.5L293.5,21z"/>
			<path class="st1" d="M623.4,65.2l-1.6-0.9l-4.1,7.1c0.5,0.3,1,0.6,1.6,0.9L623.4,65.2z"/>
			<path class="st1" d="M29.1,223.1l-0.9,1.6l7.1,4.1c0.3-0.5,0.6-1,0.9-1.6L29.1,223.1z"/>
			<path class="st1" d="M282.6,24.1l-1.7,0.5l2.3,7.8c0.6-0.2,1.2-0.3,1.7-0.5L282.6,24.1z"/>
			<path class="st1" d="M613.5,59.6l-1.6-0.9l-3.9,7.2c0.5,0.3,1.1,0.6,1.6,0.9L613.5,59.6z"/>
			<path class="st1" d="M23.5,233l-0.9,1.6l7.2,3.9c0.3-0.5,0.6-1.1,0.9-1.6L23.5,233z"/>
			<path class="st1" d="M271.7,27.4L270,28l2.5,7.8c0.6-0.2,1.2-0.4,1.7-0.6L271.7,27.4z"/>
			<path class="st1" d="M603.4,54.3l-1.6-0.8l-3.7,7.3c0.5,0.3,1.1,0.5,1.6,0.8L603.4,54.3z"/>
			<path class="st1" d="M18.2,243l-0.8,1.6l7.3,3.7c0.3-0.5,0.5-1.1,0.8-1.6L18.2,243z"/>
			<path class="st1" d="M260.9,31.1l-1.7,0.6l2.7,7.7c0.6-0.2,1.1-0.4,1.7-0.6L260.9,31.1z"/>
			<path class="st1" d="M593.2,49.2l-1.6-0.8l-3.5,7.4c0.5,0.3,1.1,0.5,1.7,0.8L593.2,49.2z"/>
			<path class="st1" d="M13.1,253.2l-0.8,1.6l7.4,3.5c0.3-0.5,0.5-1.1,0.8-1.7L13.1,253.2z"/>
			<path class="st1" d="M250.2,35l-1.7,0.7l2.9,7.6c0.6-0.2,1.1-0.4,1.7-0.6L250.2,35z"/>
			<path class="st1" d="M582.9,44.4l-1.7-0.7l-3.3,7.5c0.6,0.2,1.1,0.5,1.7,0.7L582.9,44.4z"/>
			<path class="st1" d="M15.8,266.9l-7.4-3.3l-0.7,1.7l5.8,2.6h1.9C15.5,267.5,15.6,267.2,15.8,266.9z"/>
			<path class="st1" d="M15.4,267.8h-1.9l1.6,0.7C15.2,268.3,15.3,268.1,15.4,267.8z"/>
			<path class="st1" d="M239.6,39.2l-1.7,0.7l3.1,7.5c0.6-0.2,1.1-0.5,1.7-0.7L239.6,39.2z"/>
			<path class="st1" d="M572.4,39.9l-1.7-0.7l-3.1,7.5c0.6,0.2,1.1,0.5,1.7,0.7L572.4,39.9z"/>
			<path class="st1" d="M229.2,43.7l-1.7,0.7l3.3,7.4c0.6-0.2,1.1-0.5,1.7-0.7L229.2,43.7z"/>
			<path class="st1" d="M802.8,265.2l-0.7-1.7l-7.4,3.3c0.1,0.3,0.3,0.6,0.4,1h1.9L802.8,265.2z"/>
			<path class="st1" d="M796.9,267.8H795c0.1,0.2,0.2,0.5,0.3,0.7L796.9,267.8z"/>
			<path class="st1" d="M561.9,35.7l-1.7-0.7l-2.9,7.6c0.6,0.2,1.1,0.4,1.7,0.6L561.9,35.7z"/>
			<path class="st1" d="M218.8,48.4l-1.6,0.8l3.5,7.4c0.5-0.3,1.1-0.5,1.7-0.8L218.8,48.4z"/>
			<path class="st1" d="M798,254.9l-0.8-1.6l-7.4,3.5c0.3,0.5,0.5,1.1,0.8,1.7L798,254.9z"/>
			<path class="st1" d="M551.2,31.7l-1.7-0.6l-2.7,7.7c0.6,0.2,1.1,0.4,1.7,0.6L551.2,31.7z"/>
			<path class="st1" d="M208.6,53.4l-1.6,0.8l3.7,7.3c0.5-0.3,1.1-0.5,1.6-0.8L208.6,53.4z"/>
			<path class="st1" d="M793,244.7l-0.8-1.6l-7.3,3.7c0.3,0.5,0.5,1.1,0.8,1.6L793,244.7z"/>
			<path class="st1" d="M540.4,28l-1.7-0.6l-2.5,7.8c0.6,0.2,1.2,0.4,1.7,0.6L540.4,28z"/>
			<path class="st1" d="M198.5,58.7l-1.6,0.9l3.9,7.2c0.5-0.3,1.1-0.6,1.6-0.9L198.5,58.7z"/>
			<path class="st1" d="M787.7,234.6l-0.9-1.6l-7.2,3.9c0.3,0.5,0.6,1.1,0.9,1.6L787.7,234.6z"/>
			<path class="st1" d="M529.5,24.6l-1.7-0.5l-2.3,7.8c0.6,0.2,1.2,0.3,1.7,0.5L529.5,24.6z"/>
			<path class="st1" d="M188.6,64.2l-1.6,0.9l4.1,7.1c0.5-0.3,1-0.6,1.6-0.9L188.6,64.2z"/>
			<path class="st1" d="M782.2,224.6l-0.9-1.6l-7.1,4.1c0.3,0.5,0.6,1,0.9,1.6L782.2,224.6z"/>
			<path class="st1" d="M518.6,21.5l-1.8-0.5l-2.1,7.9c0.6,0.2,1.2,0.3,1.8,0.5L518.6,21.5z"/>
			<path class="st1" d="M178.8,70l-1.6,1l4.3,7c0.5-0.3,1-0.6,1.5-1L178.8,70z"/>
			<path class="st1" d="M776.4,214.8l-1-1.6l-7,4.3c0.3,0.5,0.6,1,1,1.5L776.4,214.8z"/>
			<path class="st1" d="M507.6,18.7l-1.8-0.4l-1.9,7.9c0.6,0.1,1.2,0.3,1.8,0.4L507.6,18.7z"/>
			<path class="st1" d="M169.1,76.1l-1.5,1l4.5,6.9c0.5-0.3,1-0.7,1.5-1L169.1,76.1z"/>
			<path class="st1" d="M770.3,205.2l-1-1.5l-6.9,4.5c0.3,0.5,0.7,1,1,1.5L770.3,205.2z"/>
			<path class="st1" d="M496.5,16.1l-1.8-0.4l-1.7,8c0.6,0.1,1.2,0.3,1.8,0.4L496.5,16.1z"/>
			<path class="st1" d="M159.7,82.4l-1.5,1l4.7,6.8c0.5-0.3,1-0.7,1.5-1L159.7,82.4z"/>
			<path class="st1" d="M764,195.7l-1-1.5l-6.8,4.7c0.3,0.5,0.7,1,1,1.5L764,195.7z"/>
			<path class="st1" d="M485.3,13.9l-1.8-0.3l-1.5,8c0.6,0.1,1.2,0.2,1.8,0.3L485.3,13.9z"/>
			<path class="st1" d="M150.3,89l-1.5,1.1l4.8,6.7c0.5-0.4,1-0.7,1.5-1.1L150.3,89z"/>
			<path class="st1" d="M757.5,186.4l-1.1-1.5l-6.7,4.8c0.4,0.5,0.7,1,1.1,1.5L757.5,186.4z"/>
			<path class="st1" d="M474.1,11.9l-1.8-0.3l-1.3,8.1c0.6,0.1,1.2,0.2,1.8,0.3L474.1,11.9z"/>
			<path class="st1" d="M141.2,95.7l-1.4,1.1l5,6.5c0.5-0.4,1-0.7,1.4-1.1L141.2,95.7z"/>
			<path class="st1" d="M750.7,177.3l-1.1-1.4l-6.5,5c0.4,0.5,0.7,1,1.1,1.4L750.7,177.3z"/>
			<path class="st1" d="M462.8,10.3l-1.8-0.2l-1.1,8.1c0.6,0.1,1.2,0.2,1.8,0.3L462.8,10.3z"/>
			<path class="st1" d="M132.3,102.8l-1.4,1.1l5.2,6.4c0.5-0.4,0.9-0.8,1.4-1.1L132.3,102.8z"/>
			<path class="st1" d="M743.7,168.3l-1.1-1.4l-6.4,5.2c0.4,0.5,0.8,0.9,1.1,1.4L743.7,168.3z"/>
			<path class="st1" d="M451.5,8.9l-1.8-0.2l-0.9,8.2c0.6,0.1,1.2,0.1,1.8,0.2L451.5,8.9z"/>
			<path class="st1" d="M123.5,110l-1.4,1.2l5.4,6.3c0.5-0.4,0.9-0.8,1.4-1.2L123.5,110z"/>
			<path class="st1" d="M736.4,159.6l-1.2-1.4l-6.3,5.4c0.4,0.5,0.8,0.9,1.2,1.4L736.4,159.6z"/>
			<path class="st1" d="M440.2,7.9l-1.8-0.1l-0.6,8.2c0.6,0,1.2,0.1,1.8,0.2L440.2,7.9z"/>
			<path class="st1" d="M114.9,117.5l-1.4,1.2l5.5,6.1c0.5-0.4,0.9-0.8,1.4-1.2L114.9,117.5z"/>
			<path class="st1" d="M728.9,151l-1.2-1.4l-6.1,5.5c0.4,0.5,0.8,0.9,1.2,1.4L728.9,151z"/>
			<path class="st1" d="M428.8,7.1L427,7l-0.4,8.2c0.6,0,1.2,0.1,1.8,0.1L428.8,7.1z"/>
			<path class="st1" d="M106.5,125.2l-1.3,1.3l5.7,6c0.4-0.4,0.9-0.8,1.3-1.2L106.5,125.2z"/>
			<path class="st1" d="M721.2,142.6l-1.3-1.3l-6,5.7c0.4,0.4,0.8,0.9,1.2,1.3L721.2,142.6z"/>
			<path class="st1" d="M417.5,6.6l-1.8,0l-0.2,8.2c0.6,0,1.2,0,1.8,0.1L417.5,6.6z"/>
		</g>
	</g>
</g>
</svg>
