<?xml version="1.0" encoding="utf-8"?>
<!-- Generator: Adobe Illustrator 19.2.1, SVG Export Plug-In . SVG Version: 6.00 Build 0)  -->
<svg version="1.1" id="Layer_1_copy" xmlns="http://www.w3.org/2000/svg" xmlns:xlink="http://www.w3.org/1999/xlink" x="0px"
	 y="0px" viewBox="0 0 721 136.6" style="enable-background:new 0 0 721 136.6;" xml:space="preserve">
<style type="text/css">
	.st0{fill:#0768B1;}
	.st1{fill:#FFFFFF;}
</style>
<g>
	<path class="st0" d="M200.7,97.3h-34V28.7h32.2c13.9,0,21.1,7,21.1,18.5c0,5.8-2.4,10.5-6.8,13.5c6,3,9.7,8.7,9.7,16.5
		C222.7,89.5,214.2,97.3,200.7,97.3 M180,40.6v15.1h18.9c4.4,0,8.3-3,8.3-7.6s-3-7.4-8.3-7.4H180z M198.7,67.5H180v17.7h18.9
		c5.2,0,10.3-2,10.3-8.7C209.2,71,205.1,67.5,198.7,67.5"/>
	<path class="st0" d="M238.4,77c1.6,6.2,6.8,10.1,12.9,10.1c4.4,0,8.9-1.8,11.1-6h14.1c-3,10.5-12.1,17.3-25,17.3
		c-14.5,0-26.8-11.9-26.8-26.6S236.7,45,251.4,45c15.5,0,28.2,11.7,26.2,31.8L238.4,77L238.4,77z M264.3,66.3
		c-1.6-5.8-6.8-9.7-12.9-9.7s-10.9,3.8-12.7,9.7H264.3z"/>
	<path class="st0" d="M316,92.5c-3.4,3.6-8.7,5.8-16.1,5.8c-11.1,0-21.1-5.4-21.1-16.5c0-11.5,9.9-14.5,21.3-15.5
		c8.7-0.8,14.7-1.8,14.7-6c0-2.6-3.4-4.8-9.5-4.8c-4.6,0-10.3,2-11.5,6.4h-13.3C281.8,52.2,291.5,45,305,45
		c21.1,0,22.7,13.3,22.7,17.3v26.6c0,2.4,0.8,6.2,1.4,8.3H317C316.6,96.1,316.4,94.5,316,92.5 M315.6,72.8
		c-2.8,1.8-7.2,2.6-12.5,3.2c-6.6,0.6-10.7,2-10.7,5.8c0,2.8,3.4,4.8,8.9,4.8c8.1,0,14.3-2.6,14.3-9.3V72.8z"/>
	<path class="st0" d="M377.4,97.3h-12.7v-4.6c-3.2,3.6-7.8,5.8-13.1,5.8c-12.3,0-20.5-9.1-20.5-22.3V46.4h13.3v29.8
		c0,2.8,1,10.1,9.7,10.1c6,0,10.1-4.4,10.1-10.1V46.4h13.3V97.3z"/>
	<path class="st0" d="M411.4,58.1c-5.4-0.6-9.9,0-12.9,3.2c-2.8,2.8-3.2,7-3.2,11.1v25h-13.3V46.4h12.7v5c4.2-5.2,10.5-7,16.9-6
		L411.4,58.1L411.4,58.1z"/>
	<path class="st0" d="M423.1,77c1.6,6.2,6.8,10.1,12.9,10.1c4.4,0,8.9-1.8,11.1-6h14.1c-3,10.5-12.1,17.3-25,17.3
		c-14.5,0-26.8-11.9-26.8-26.6S421.5,45,436.2,45c15.5,0,28.2,11.7,26.2,31.8L423.1,77L423.1,77z M449.1,66.3
		c-1.6-5.8-6.6-9.7-12.9-9.7c-6,0-10.9,3.8-12.7,9.7H449.1z"/>
	<path class="st0" d="M494,98.3c-6,0-11.3-2.2-15.1-6v27.6h-13.3V46.4h12.7v5.4c4-4,9.7-6.4,15.9-6.4c13.5,0,24.6,11.5,24.6,26.6
		C518.5,86.9,507.5,98.3,494,98.3 M492,57.3c-7.4,0-13.3,6.4-13.3,14.3c0,8.1,6,14.5,13.3,14.5c7.4,0,13.3-6.2,13.3-14.5
		C505.2,63.5,499.2,57.3,492,57.3"/>
	<path class="st0" d="M557,92.5c-3.4,3.6-8.7,5.8-16.1,5.8c-11.1,0-21.1-5.4-21.1-16.5c0-11.5,9.9-14.5,21.3-15.5
		c8.7-0.8,14.7-1.8,14.7-6c0-2.6-3.4-4.8-9.5-4.8c-4.6,0-10.3,2-11.5,6.4h-13.3c1.4-9.7,10.9-16.9,24.4-16.9
		c21.1,0,22.7,13.3,22.7,17.3v26.6c0,2.4,0.8,6.2,1.4,8.3h-12.3C557.6,96.1,557.2,94.5,557,92.5 M556.6,72.8
		c-2.8,1.8-7.2,2.6-12.5,3.2c-6.6,0.6-10.7,2-10.7,5.8c0,2.8,3.4,4.8,8.9,4.8c8.1,0,14.3-2.6,14.3-9.3V72.8L556.6,72.8z"/>
	<path class="st0" d="M586.6,40.8h-13.3V28.7h13.3V40.8z M586.6,97.3h-13.3V46.4h13.3V97.3z"/>
	<path class="st0" d="M620,58.1c-5.4-0.6-9.9,0-12.7,3.2c-2.8,2.8-3.2,7-3.2,11.1v25h-13.3V46.4h12.7v5c4.2-5.2,10.5-7,16.9-6v12.7
		C620.4,58.1,620,58.1,620,58.1z"/>
	<path class="st0" d="M632,77c1.6,6.2,6.8,10.1,12.9,10.1c4.4,0,8.9-1.8,11.1-6h14.1c-3,10.5-12.1,17.3-25,17.3
		c-14.5,0-26.8-11.9-26.8-26.6S630.2,45,645.1,45c15.5,0,28.2,11.7,26.2,31.8L632,77L632,77z M658.2,66.3c-1.6-5.8-6.6-9.7-12.9-9.7
		c-6,0-10.9,3.8-12.7,9.7H658.2z"/>
	<path class="st0" d="M698.1,98.5c-13.1,0-22.9-6.8-24.6-17.7H687c1.8,4.4,7.2,5.8,11.1,5.8c5.4,0,9.5-1.6,9.5-4.6
		c0-2.8-1.8-4-10.9-5.4c-9.3-1.4-21.7-3.8-21.7-15.3c0-8.1,7.2-16.3,22.1-16.3c11.9,0,20.7,6.4,22.5,15.9h-13.7
		c-0.8-2.4-3.6-4.2-8.7-4.2c-6.2,0-8.7,2.2-8.7,4c0,2.6,3.8,3.6,10.3,4.6c12.9,2,22.1,4.8,22.1,15.9
		C720.8,91.3,711.3,98.5,698.1,98.5"/>
</g>
<path class="st0" d="M48.8,98.4c1.4-0.2,2.9-0.2,4.3-0.2c5.9,0,10.7,1.2,15,2.3c3.6,0.9,7.1,1.8,10.6,1.8c1.3,0,2.6-0.1,3.8-0.3
	c1.4-0.2,2.6-0.5,3.8-0.8c-22.6-3.7-44.8-21.8-51.9-43.6c-8-24.5,6-44.3,31.3-44.3s52.2,19.8,60.2,44.3c3.6,11.1,2.7,21.2-1.7,29
	c1.1,0.8,1.5,1.9,1.6,2.5c0.1,0.5,0.1,1,0.1,1.4c0.2,0,0.4,0,0.5,0c3.5,0,6.1,1.6,6.6,1.9c1.6,1,2.2,3,1.6,4.8
	c-0.1,0.1-0.5,1.3-1.4,3.3c7.1-10.4,8.9-24.8,3.9-40.7c-10-32-44-57.8-75.9-57.8S11.6,27.8,21.7,59.7C26.4,74.6,36.3,88.2,48.8,98.4
	"/>
<path class="st1" d="M121.9,89.9c0,0-0.3-1.3-6-0.4c-9.1,1.4-12.6,19.9-21.7,25.5c-13.6,8.4-32.1-0.2-32.1-0.2s20.3,4.3,29.3-1.2
	c9.6-5.9,7.6-13.2,7.6-13.2s-3.8,3.3-15.7,5.5c-12.7,2.3-20.9-6-37.5-3c-1.1,0.2-2.2,0.4-3.2,0.6C30.4,93.3,20.8,79.9,16.1,65.3
	C10.6,48,13.3,32.5,22,21.9c-2.6,2.1-4.9,4.6-6.8,7.3l-5,5.9c-9.5,10.6-12.7,26.6-7,44.6C7,91.4,14,102.4,22.9,111.5
	c2.8,3.2,15.2,16.1,35,20.9c24.1,5.9,38.7,0.5,50.1-17.8C115.7,102.2,121.9,89.9,121.9,89.9"/>
<path class="st1" d="M132.1,104.8c-0.3,0-0.6,0-1,0.1c-2.2,4-5.7,9.1-10.1,14.4c-1.1,1.2-2.7,2.4-3.9,3.5
	c6.3-3.2,12.6-6.8,16.5-17.2C133.6,105.7,132.8,104.8,132.1,104.8"/>
<path class="st1" d="M130.8,95.7c0,0-3.4-2.2-7-0.7c-2.4,4.5-7,13-12.4,21.7c-2.9,4.6-6,8.5-9.3,11.6c5.4-2.7,11.5-6.5,15.8-11.5
	C127,105.9,130.8,95.7,130.8,95.7"/>
<path class="st1" d="M60.2,18.8c-7.9,0-14.6,1.9-20,5.3c-0.6,0.7-1.2,1.4-1.8,2.2c-0.4,0.5-0.7,1-1,1.6c5-2.6,11-4.1,17.8-4.1
	c25.3,0,52.2,19.8,60.2,44.3c2,6.1,2.6,11.8,2,17.1c0.7-0.1,1.3-0.1,1.9-0.1c0.8,0,1.5,0.1,2.1,0.2c1.8-6.5,1.6-14.1-1.1-22.2
	C112.4,38.6,85.4,18.8,60.2,18.8"/>
</svg>
