<?xml version="1.0" encoding="utf-8"?>
<!-- Generator: Adobe Illustrator 19.2.1, SVG Export Plug-In . SVG Version: 6.00 Build 0)  -->
<svg version="1.1" id="Layer_1" xmlns="http://www.w3.org/2000/svg" xmlns:xlink="http://www.w3.org/1999/xlink" x="0px" y="0px"
	 viewBox="0 0 200 38" style="enable-background:new 0 0 200 38;" xml:space="preserve">
<style type="text/css">
	.st0{fill-rule:evenodd;clip-rule:evenodd;fill:#26448D;}
</style>
<path class="st0" d="M133.6,2.2c-3.4,0.6-7.6,0.7-10.7,0.6c-2.6,0.1-7-0.7-11.2-0.2c-2.2,0.2-3.5,1.3-4.2,2.1
	c-2.1,2.6-1,5.4-0.1,6.7c0.2,0.2-0.1,0.3-0.1,0.4c-0.1,0.4,0,0.8-0.1,1.5c-0.2,2,1.2,4.6,1.8,4c0.9-0.7,1.2-1.5,1.6-3
	c0.1-0.5,1,0.7,1.4,0.3c0.5-0.4,0.7-1.4,0.7-2c0.1-0.5,0.2,0.4,1.1,0.2c1.5-0.3,0.2-3.1,1.2-3.2c0.9-0.1,1.6,0.4,2.6,0.1
	c3.2-1,0.9-1,1.7-1.4c1.4-0.7,0.8,0,2.2-1.1c0.2-0.1-0.5-0.3-0.9-0.5c-0.5-0.2-0.7-0.5-0.2-0.5c5.7,0.1,6.5,0.4,9.8-0.5
	c0.6-0.2,2.1-0.9,2.5-1.5C133.2,3.7,134.2,2.1,133.6,2.2 M108.4,9.1c0.1,0.2,0.3-0.2,1.2,1.4c0.2,0.4,0.3-0.6,0.1-1.1
	C109.5,8.9,108.1,8.7,108.4,9.1z M110.5,6.2c-0.3,0.2,0.1,0.7,1.2,0.2c0.4-0.1,0.6-0.5,1-0.5c1.4,0,1.3-0.6,2.3-1
	c0.4-0.1,0.9-0.2,1.1-0.4c0.5-0.5-1.7-0.2-2.4-0.1c-0.3,0.1-0.3,0.4-0.7,0.5c-0.3,0.1-1.2,0-1.3,0.2C111.1,5.7,111.6,5.5,110.5,6.2z
	"/>
<path class="st0" d="M97.6,10.3l2,3l5.7-3.1c0,0-0.3-1.2-0.3-2c0-0.9,0.3-2.4,0.3-2.4L97.6,10.3"/>
<path class="st0" d="M105.9,11.2l-4.3,2.4l4.3,0.2c0,0,0.2-1.4,0.3-2.2C106.2,11.4,105.9,11.2,105.9,11.2"/>
<polyline class="st0" points="100.3,14.6 100.4,15.1 100.4,17.5 104.4,15 100.3,14.6 "/>
<path class="st0" d="M106,15.9l-5.4,2.9l3.7,7c0,0,2.4-2,4.1-3.1c1.5-1.1,4.1-2.5,4.1-2.5l-1.7-2.7c0,0.1-0.4,0.6-0.9,1.1
	c-0.5,0.5-1.3,0.7-1.5,0.6C107.1,18.7,106.8,17.5,106,15.9"/>
<path class="st0" d="M99.6,19.7l3.8,7.1c-1.2,1.2-2,1.7-3.1,3c-0.9,1-1.9,2-3.2,3.1c-1.5,1.1-2.4,1.8-4.2,2.4
	c-0.5,0.2-1.1,0-1.2-0.1c-0.7-0.6,0.1-1.4,0.4-1.8c1.4-1.5,2.2-2,3.2-3.6c0.9-1.5,0.8-2.6,1.5-4.2C97.7,23.2,98.3,21.9,99.6,19.7"/>
<path class="st0" d="M112.8,21.1c0.2,0,0.4,0.1,0.5,0.3c0.1,0.2,0,0.3-0.1,0.5c-0.1,0.3-0.5,0.3-0.7,0.4c-1.4,1-2,1.3-3.2,2.2
	c-1.1,0.8-1.7,1.3-2.7,2.2c-1.4,1.2-2.1,2-3.5,3.3c-1.3,1.2-1.9,2.1-3.3,3.2c-1.8,1.5-3.1,2.5-5,3.2c-0.3,0.1-0.6,0.2-1,0.1
	c-0.2-0.1-0.4-0.1-0.4-0.3c0-0.2,0.3-0.3,0.5-0.4c1.4-0.7,2.1-1.1,3.3-2c1.5-1,1.9-1.5,3.5-3c1.3-1.3,2.2-2.2,3.7-3.6
	c1.6-1.4,2.4-2.2,4.1-3.5c1.3-1,2-1.5,3.5-2.3C112.4,21.3,112.6,21.1,112.8,21.1"/>
<path class="st0" d="M75.6,10.5h13c0,0,0.8,0.1,1.2,0.3c2.7,1.3,4,3.9,3.9,6.4c0,2-0.3,3.6-1.1,5.2c-0.7,1.5-1.7,2.8-2.9,4
	c-2,2-3.2,2.3-5.5,2.8H70.6L75.6,10.5 M83.5,13.2l-3.6,13.2h2c0.4,0,0.8,0,1.1-0.6c0.5-1.2,2.6-9.3,3-11.8c0.1-0.7-0.2-0.9-0.8-0.8
	H83.5z"/>
<path class="st0" d="M13.4,19.4h8.7l-2.6,9.9H5.1c-1.6-0.5-2.8-1-3.7-2.4c-1.9-3.3-1.6-8.2,1.4-11.6c2.4-2.7,5.4-4.5,9.6-4.8
	c3.3-0.2,6.5,0.8,7.2,1.8c-0.8,1.2-0.8,1.3-1.4,2.2c-1.2-0.7-1.7-1.1-2.9-1.2c-3.3-0.3-3.8,0.8-4,1.5c-1.3,4.1-1.5,5.6-2.8,10.6
	c-0.1,0.4,0,0.7,0.2,1c0.3,0.4,0.8,0.3,1.3,0.3c0.8,0,1.5,0.3,1.8-0.8C12.9,22,12.8,22,13.4,19.4"/>
<polyline class="st0" points="116.2,10.5 125.7,10.5 127.8,16.7 133.4,10.5 137.8,10.5 128.9,21 126.7,29.3 117.3,29.3 119.6,20.7 
	116.2,10.5 "/>
<polyline class="st0" points="155.2,10.5 139.3,10.5 134.5,29.2 150.3,29.2 151.2,25.6 144.4,25.6 145.5,21.4 150,21.4 150.8,18 
	146.4,18 147.5,13.8 154.4,13.8 155.2,10.5 "/>
<path class="st0" d="M163.5,10.4h7.8l2.1,18.8h-8.9l-0.3-2.9h-6.7l-1.9,2.8h-3.9L163.5,10.4 M159.6,23.1h4.2l-0.5-5.9L159.6,23.1z"
	/>
<path class="st0" d="M194.7,10.4c1.9,0.2,3,0.8,4,1.9c0.8,1,1.3,2,1.3,3.7c-0.1,3.5-2.2,5-4.5,6.5l1.7,6.8h-9l-2.1-6.4l-1.8,6.4H175
	l4.9-18.8H194.7 M186.6,20.5h2c0.4-0.1,0.8-0.3,0.9-0.7c0.7-2,0.5-1.9,1.2-5.5c0.1-0.7-0.1-0.9-0.6-1.1h-1.6L186.6,20.5L186.6,20.5z
	"/>
<path class="st0" d="M62.2,10.1c7.5,0.4,8.9,6,7.5,10.9c-1.5,5.2-5.8,8.4-11.3,8.7c-8,0.4-11.2-6.2-9.1-11.5
	C51.5,12.6,56.2,9.8,62.2,10.1 M59.5,13.9c-1.1,4.3-1.4,5.2-2.8,10.8c-0.2,0.6-0.6,1.5,1,1.9c0.9,0.2,1.3,0.1,1.6-0.2
	c0.3-0.3,0.4-0.9,0.4-0.9c1.1-4.3,1.7-6.8,2.8-11.1c0.1-0.5,0.2-0.9-0.1-1.2c-0.2-0.3-0.4-0.4-0.7-0.5c-0.4-0.2-0.8-0.1-1.2,0
	C59.9,12.9,59.7,13.2,59.5,13.9z"/>
<path class="st0" d="M38.3,10.2c7.5,0.4,8.9,6,7.5,10.9c-1.5,5.2-5.8,8.4-11.3,8.7c-8,0.4-11.2-6.2-9.1-11.5
	C27.6,12.7,32.3,9.9,38.3,10.2 M35.6,14c-1.1,4.3-1.4,5.2-2.8,10.8c-0.2,0.6-0.6,1.5,1,1.9c0.9,0.2,1.3,0.1,1.6-0.2
	c0.3-0.3,0.4-0.9,0.4-0.9c1.1-4.3,1.7-6.8,2.7-11.1c0.1-0.5,0.2-0.9-0.1-1.2c-0.2-0.3-0.4-0.4-0.7-0.5c-0.4-0.2-0.8-0.1-1.2,0
	C36.1,13,35.8,13.3,35.6,14z"/>
</svg>
